<svg width="219" height="312" viewBox="0 0 219 312" fill="none" xmlns="http://www.w3.org/2000/svg">
<g opacity="0.5">
<path d="M80.8716 201.482C82.1443 200.327 83.8236 199.725 85.54 199.809C87.2565 199.892 88.8694 200.654 90.0241 201.927C91.1788 203.199 91.7806 204.879 91.6971 206.595C91.6136 208.311 90.8517 209.924 89.579 211.079C86.9287 213.484 76.5874 214.117 76.5874 214.117C76.5874 214.117 78.2213 203.886 80.8716 201.482Z" fill="#2EC4B6"/>
<path d="M230.755 255.255C214.7 255.496 201.802 250.617 192.419 240.755C185.452 233.432 180.514 223.516 177.742 211.283C175.712 202.256 175.117 192.965 175.981 183.753C180.477 134.735 169.598 110.766 159.681 99.2906C148.807 86.7079 136.62 85.9109 136.498 85.9044L136.541 85.1013C136.666 85.1079 149.163 85.9076 160.268 98.7398C166.67 106.138 171.396 116.059 174.314 128.229C177.946 143.375 178.776 162.081 176.782 183.827C175.926 192.955 176.515 202.16 178.527 211.105C183.073 231.169 195.822 254.976 230.743 254.451L230.755 255.255Z" fill="#2F2E41"/>
<path d="M171.351 203.592C158.694 203.783 154.077 195.17 152.432 187.911C151.711 184.707 151.5 181.409 151.806 178.139C153.381 160.966 149.585 152.593 146.124 148.593C142.364 144.249 138.195 143.981 138.154 143.979L138.196 143.176C138.38 143.186 142.751 143.466 146.732 148.067C151.916 154.057 153.892 164.199 152.607 178.212C152.308 181.398 152.514 184.611 153.216 187.733C154.795 194.702 159.221 202.971 171.339 202.789L171.351 203.592Z" fill="#2F2E41"/>
<path d="M169.8 101.416L169.109 101.003C175.326 90.5997 170.378 82.6323 165.132 77.7807C162.78 75.6116 160.1 73.8271 157.192 72.493C144.413 66.5995 136.618 59.8161 134.022 52.3316C132.029 46.5837 133.971 42.6585 134.055 42.4944L134.772 42.8585C134.753 42.8962 132.9 46.6754 134.793 52.0986C136.534 57.0888 141.892 64.5511 157.528 71.7626C160.513 73.1322 163.264 74.9639 165.678 77.1902C171.143 82.244 176.293 90.5493 169.8 101.416Z" fill="#2F2E41"/>
<path d="M170.239 54.9638C170.153 56.5459 169.757 58.0957 169.072 59.5245C168.387 60.9534 167.428 62.2334 166.248 63.2913C165.069 64.3493 163.692 65.1645 162.198 65.6904C160.703 66.2163 159.12 66.4425 157.537 66.3563C155.955 66.27 154.406 65.8729 152.977 65.1876C151.549 64.5024 150.269 63.5424 149.211 62.3624C148.154 61.1825 147.339 59.8058 146.814 58.311C146.289 56.8162 146.063 55.2325 146.15 53.6504C146.512 46.9983 159.376 32.6266 159.376 32.6266C159.376 32.6266 170.602 48.3116 170.239 54.9638Z" fill="#8CB83F"/>
<path d="M147.712 24.7909C147.626 26.373 147.23 27.9228 146.545 29.3517C145.86 30.7805 144.901 32.0605 143.721 33.1185C142.542 34.1764 141.165 34.9916 139.67 35.5175C138.176 36.0434 136.592 36.2697 135.01 36.1834C133.428 36.0972 131.878 35.7001 130.45 35.0148C129.021 34.3295 127.742 33.3695 126.684 32.1896C125.627 31.0097 124.812 29.633 124.287 28.1382C123.761 26.6433 123.535 25.0596 123.622 23.4775C123.985 16.8254 136.849 2.45372 136.849 2.45372C136.849 2.45372 148.074 18.1388 147.712 24.7909Z" fill="#2EC4B6"/>
<path d="M199.373 153.156C196.925 154.575 194.066 155.118 191.268 154.697C188.469 154.275 185.898 152.914 183.975 150.837C182.053 148.76 180.895 146.091 180.692 143.268C180.488 140.445 181.251 137.638 182.855 135.306C186.667 129.765 204.555 124.327 205.315 124.098L205.796 123.954L205.832 124.454C205.89 125.245 207.205 143.895 203.393 149.436C202.347 150.961 200.974 152.231 199.373 153.156ZM188.291 131.933C186.152 133.168 184.406 134.471 183.518 135.762C181.765 138.31 181.096 141.45 181.658 144.491C182.22 147.532 183.967 150.225 186.515 151.978C189.063 153.731 192.202 154.4 195.243 153.838C198.285 153.276 200.978 151.529 202.731 148.981C206.047 144.16 205.249 128.084 205.063 125.019C202.918 125.694 194.14 128.556 188.291 131.933Z" fill="#2F2E41"/>
<path d="M122.749 69.6023C124.297 69.9414 125.762 70.5819 127.062 71.4873C128.362 72.3927 129.47 73.5452 130.325 74.8792C131.179 76.2131 131.763 77.7022 132.041 79.2615C132.32 80.8209 132.289 82.4199 131.95 83.9673C131.611 85.5146 130.971 86.9801 130.065 88.2799C129.16 89.5797 128.007 90.6885 126.674 91.5429C125.34 92.3973 123.851 92.9807 122.291 93.2596C120.732 93.5385 119.133 93.5075 117.585 93.1685C111.078 91.7425 98.9578 76.738 98.9578 76.738C98.9578 76.738 116.242 68.1764 122.749 69.6023Z" fill="#FCB813"/>
<path d="M123.705 127.551C126.831 128.236 129.556 130.134 131.281 132.828C133.007 135.522 133.591 138.791 132.907 141.916C132.222 145.041 130.324 147.766 127.63 149.491C124.936 151.217 121.667 151.802 118.542 151.117C112.034 149.691 99.9141 134.687 99.9141 134.687C99.9141 134.687 117.198 126.125 123.705 127.551Z" fill="#F37920"/>
<path d="M154.58 117.93C151.093 119.943 142.52 120.49 142.126 120.515L141.625 120.545L141.704 120.05C141.772 119.626 143.392 109.651 146.115 107.18C147.467 105.954 149.251 105.314 151.073 105.403C152.896 105.492 154.609 106.301 155.836 107.653C157.062 109.005 157.701 110.788 157.613 112.611C157.524 114.434 156.715 116.147 155.363 117.373C155.122 117.586 154.86 117.772 154.58 117.93ZM142.584 119.675C144.679 119.511 152.634 118.764 154.823 116.778C156.015 115.694 156.729 114.182 156.806 112.572C156.884 110.963 156.32 109.389 155.237 108.196C154.155 107.002 152.642 106.288 151.033 106.209C149.424 106.13 147.849 106.694 146.656 107.776C144.466 109.763 142.951 117.606 142.584 119.675Z" fill="#2F2E41"/>
<path d="M146.259 231.972C143.833 233.321 141.316 234.499 138.726 235.496L138.257 235.674L138.186 235.178C138.124 234.753 136.71 224.746 138.578 221.578C139.036 220.8 139.644 220.119 140.366 219.576C141.088 219.032 141.91 218.636 142.785 218.41C143.66 218.184 144.571 218.133 145.465 218.259C146.36 218.385 147.222 218.686 148 219.145C148.779 219.603 149.459 220.211 150.003 220.933C150.546 221.655 150.942 222.477 151.168 223.352C151.394 224.227 151.446 225.138 151.32 226.032C151.194 226.927 150.893 227.789 150.434 228.567C149.763 229.705 148.114 230.901 146.259 231.972ZM138.915 234.558C140.866 233.779 148.24 230.705 149.741 228.159C150.56 226.77 150.793 225.114 150.39 223.553C149.987 221.992 148.981 220.656 147.592 219.837C146.203 219.019 144.547 218.785 142.986 219.188C141.425 219.591 140.089 220.598 139.27 221.987C137.769 224.533 138.651 232.474 138.915 234.558Z" fill="#2F2E41"/>
</g>
</svg>
