<svg width="103" height="229" viewBox="0 0 103 229" fill="none" xmlns="http://www.w3.org/2000/svg">
<g opacity="0.5">
<path d="M10.1908 40.5887C11.9947 41.3372 14.0266 41.5086 15.9524 41.0745C17.8782 40.6405 19.5833 39.627 20.7874 38.2006C21.9914 36.7743 22.6226 35.02 22.5772 33.2262C22.5319 31.4325 21.8126 29.7061 20.5377 28.331C17.5084 25.0625 4.65758 22.7049 4.11184 22.606L3.76684 22.5437L3.77446 22.8616C3.78668 23.3644 4.10729 35.2143 7.1371 38.4827C7.96848 39.3819 9.01189 40.1014 10.1908 40.5887ZM16.5181 26.5284C18.0936 27.1794 19.3997 27.8971 20.1054 28.6584C21.4986 30.1612 22.1743 32.1027 21.9839 34.0559C21.7935 36.009 20.7527 37.8138 19.0903 39.0732C17.4279 40.3326 15.2801 40.9434 13.1195 40.7713C10.9589 40.5992 8.96245 39.6583 7.56929 38.1555C4.93363 35.3122 4.42306 25.1176 4.34916 23.1717C5.89141 23.4692 12.2102 24.7484 16.5181 26.5284Z" fill="#2F2E41"/>
<path d="M18.9706 121.379C18.8659 120.294 18.2891 119.291 17.3668 118.591C16.4445 117.89 15.2522 117.549 14.0521 117.643C12.8519 117.737 11.7421 118.258 10.9665 119.091C10.1908 119.924 9.81291 121.002 9.91574 122.087C10.1319 124.347 15.1476 129.1 15.1476 129.1C15.1476 129.1 19.1867 123.639 18.9706 121.379Z" fill="#2EC4B6"/>
</g>
<path d="M96.1376 135.381C95.1723 134.66 93.9599 134.351 92.7671 134.523C91.5742 134.696 90.4987 135.335 89.777 136.3C89.0554 137.265 88.7468 138.478 88.9191 139.671C89.0914 140.864 89.7305 141.939 90.6959 142.661C92.706 144.163 99.9682 143.919 99.9682 143.919C99.9682 143.919 98.1478 136.884 96.1376 135.381Z" fill="#2EC4B6"/>
<path d="M56.364 219.785C56.0476 218.622 55.2823 217.632 54.2362 217.034C53.1902 216.435 51.9492 216.277 50.7862 216.593C49.6233 216.909 48.6336 217.675 48.0349 218.721C47.4363 219.767 47.2776 221.008 47.594 222.171C48.2527 224.592 54.1259 228.871 54.1259 228.871C54.1259 228.871 57.0227 222.207 56.364 219.785Z" fill="#2EC4B6"/>
<path d="M-4.93679 182.882C6.28863 181.984 14.9699 177.721 20.8659 170.212C25.2436 164.636 28.0324 157.385 29.1549 148.66C29.9729 142.222 29.7708 135.696 28.5559 129.322C22.1605 95.3967 28.1631 77.9394 34.325 69.2685C41.0811 59.7609 49.5369 58.3948 49.6216 58.3822L49.5385 57.8243C49.4518 57.8372 40.7793 59.2258 33.8786 68.9228C29.9003 74.5132 27.2599 81.7544 26.0309 90.445C24.5014 101.261 25.1645 114.376 28.0016 129.427C29.2054 135.743 29.4059 142.209 28.5956 148.588C26.7545 162.898 19.4347 180.367 -4.98182 182.32L-4.93679 182.882Z" fill="#2F2E41"/>
<path d="M33.1065 142.866C41.9561 142.158 44.6077 135.838 45.2737 130.66C45.5641 128.375 45.4925 126.059 45.0612 123.796C42.8207 111.911 44.9148 105.813 47.066 102.79C49.4021 99.5072 52.2949 99.0435 52.3238 99.0391L52.2409 98.4813C52.1131 98.5002 49.0804 98.9865 46.6065 102.463C43.3851 106.99 42.6787 114.202 44.5069 123.901C44.9272 126.105 44.9973 128.362 44.7144 130.588C44.0749 135.559 41.5342 141.626 33.0615 142.304L33.1065 142.866Z" fill="#2F2E41"/>
<path d="M27.4014 71.4245L27.8559 71.0905C22.8242 64.2401 25.7497 58.3486 29.0898 54.6128C30.5882 52.942 32.3406 51.5181 34.2827 50.3934C42.8127 45.4297 47.8047 40.1758 49.1197 34.7777C50.1297 30.6322 48.513 28.0207 48.4437 27.9117L47.9673 28.2135C47.983 28.2386 49.5276 30.7541 48.5665 34.6663C47.682 38.266 44.4369 43.8321 33.999 49.9058C32.0058 51.0604 30.2072 52.522 28.6694 54.2368C25.1901 58.1283 22.1458 64.2691 27.4014 71.4245Z" fill="#2F2E41"/>
<path d="M24.0085 39.0214C24.1734 40.1203 24.5532 41.176 25.1262 42.1281C25.6992 43.0803 26.4542 43.9102 27.348 44.5705C28.2418 45.2307 29.257 45.7085 30.3354 45.9764C31.4139 46.2442 32.5346 46.297 33.6335 46.1317C34.7324 45.9663 35.7879 45.5861 36.7398 45.0128C37.6917 44.4394 38.5214 43.6841 39.1813 42.7901C39.8413 41.896 40.3186 40.8807 40.5861 39.8021C40.8536 38.7236 40.9059 37.6029 40.7402 36.504C40.045 31.8837 30.1087 22.7042 30.1087 22.7042C30.1087 22.7042 23.3133 34.4011 24.0085 39.0214Z" fill="#8CB83F"/>
<path d="M37.7322 16.4586C37.8972 17.5576 38.277 18.6133 38.85 19.5654C39.423 20.5175 40.1779 21.3474 41.0718 22.0077C41.9656 22.668 42.9807 23.1457 44.0592 23.4136C45.1377 23.6815 46.2583 23.7343 47.3572 23.5689C48.4561 23.4036 49.5117 23.0234 50.4636 22.45C51.4155 21.8767 52.2451 21.1214 52.9051 20.2273C53.565 19.3333 54.0424 18.318 54.3098 17.2394C54.5773 16.1608 54.6297 15.0401 54.4639 13.9413C53.7688 9.32096 43.8325 0.141441 43.8325 0.141441C43.8325 0.141441 37.0371 11.8383 37.7322 16.4586Z" fill="#2EC4B6"/>
<path d="M58.1379 46.087C57.08 46.4266 56.0994 46.9711 55.2521 47.6896C54.4047 48.4081 53.7071 49.2865 53.1992 50.2745C52.6913 51.2626 52.3829 52.3411 52.2918 53.4483C52.2007 54.5555 52.3285 55.6699 52.668 56.7277C53.0075 57.7856 53.5521 58.7662 54.2706 59.6135C54.9891 60.4609 55.8674 61.1585 56.8555 61.6664C57.8436 62.1743 58.9221 62.4827 60.0293 62.5738C61.1365 62.6649 62.2509 62.5371 63.3087 62.1976C67.7575 60.7697 75.2228 49.4885 75.2228 49.4885C75.2228 49.4885 62.5867 44.6592 58.1379 46.087Z" fill="#FCB813"/>
<path d="M61.32 86.6095C59.1836 87.2952 57.4071 88.8015 56.3813 90.797C55.3555 92.7925 55.1645 95.1138 55.8501 97.2502C56.5358 99.3866 58.0421 101.163 60.0377 102.189C62.0332 103.215 64.3545 103.406 66.4908 102.72C70.9396 101.292 78.4049 90.011 78.4049 90.011C78.4049 90.011 65.7688 85.1816 61.32 86.6095Z" fill="#F37920"/>
<path d="M39.1245 81.9432C41.6926 83.1171 47.715 82.9298 47.9916 82.9205L48.3433 82.9086L48.2551 82.5679C48.1797 82.2769 46.3861 75.4197 44.3204 73.8754C43.2952 73.109 42.0075 72.7813 40.7406 72.9643C39.4737 73.1473 38.3314 73.8261 37.565 74.8513C36.7986 75.8766 36.4709 77.1643 36.6539 78.4312C36.8369 79.698 37.5157 80.8403 38.541 81.6067C38.7231 81.7391 38.9187 81.8519 39.1245 81.9432ZM47.6157 82.3647C46.1423 82.3892 40.5389 82.3965 38.8786 81.1549C37.9741 80.4777 37.3754 79.4691 37.2142 78.3507C37.053 77.2323 37.3425 76.0957 38.0191 75.1906C38.6957 74.2856 39.7039 73.6863 40.8222 73.5244C41.9405 73.3625 43.0773 73.6513 43.9828 74.3272C45.6438 75.569 47.2222 80.9447 47.6157 82.3647Z" fill="#2F2E41"/>
<path d="M52.5105 161.013C54.2937 161.794 56.1294 162.449 58.0041 162.973L58.3435 163.066L58.3603 162.715C58.3748 162.415 58.6976 155.334 57.1832 153.246C56.8111 152.733 56.3416 152.299 55.8015 151.967C55.2613 151.635 54.6612 151.413 54.0353 151.314C53.4094 151.214 52.77 151.239 52.1536 151.386C51.5372 151.533 50.9559 151.801 50.4428 152.173C49.9297 152.545 49.495 153.015 49.1634 153.555C48.8318 154.095 48.6098 154.695 48.5102 155.321C48.4105 155.947 48.4351 156.586 48.5825 157.203C48.73 157.819 48.9974 158.4 49.3695 158.913C49.9135 159.663 51.1439 160.389 52.5105 161.013ZM57.8102 162.331C56.3962 161.917 51.0436 160.261 49.826 158.582C49.1622 157.667 48.8892 156.526 49.0669 155.41C49.2447 154.293 49.8586 153.293 50.7737 152.629C51.6888 151.966 52.8301 151.693 53.9465 151.87C55.0629 152.048 56.063 152.662 56.7267 153.577C57.944 155.256 57.8559 160.858 57.8102 162.331Z" fill="#2F2E41"/>
</svg>
