<svg width="1125" height="570" viewBox="0 0 1125 570" fill="none" xmlns="http://www.w3.org/2000/svg">
<path d="M1.91909 93.8099C0.992879 94.5811 0.41095 95.6886 0.301322 96.8889C0.191693 98.0891 0.563348 99.2837 1.33452 100.21C2.10569 101.136 3.21321 101.718 4.41344 101.828C5.61367 101.937 6.80829 101.566 7.7345 100.795C9.66324 99.1886 11.1129 92.0684 11.1129 92.0684C11.1129 92.0684 3.84782 92.2041 1.91909 93.8099Z" fill="#F37920"/>
<path d="M193.637 279.742C192.71 280.513 192.128 281.62 192.019 282.821C191.909 284.021 192.281 285.215 193.052 286.142C193.823 287.068 194.931 287.65 196.131 287.759C197.331 287.869 198.526 287.497 199.452 286.726C201.381 285.12 202.83 278 202.83 278C202.83 278 195.565 278.136 193.637 279.742Z" fill="#F37920"/>
<path d="M385.354 489.742C384.428 490.513 383.846 491.62 383.736 492.821C383.627 494.021 383.998 495.215 384.77 496.142C385.541 497.068 386.648 497.65 387.849 497.759C389.049 497.869 390.243 497.497 391.17 496.726C393.098 495.12 394.548 488 394.548 488C394.548 488 387.283 488.136 385.354 489.742Z" fill="#F37920"/>
<path d="M588.637 389.742C587.71 390.513 587.128 391.62 587.019 392.821C586.909 394.021 587.281 395.215 588.052 396.142C588.823 397.068 589.931 397.65 591.131 397.759C592.331 397.869 593.526 397.497 594.452 396.726C596.381 395.12 597.83 388 597.83 388C597.83 388 590.565 388.136 588.637 389.742Z" fill="#F37920"/>
<path d="M791.919 289.742C790.993 290.513 790.411 291.62 790.301 292.821C790.192 294.021 790.563 295.215 791.335 296.142C792.106 297.068 793.213 297.65 794.413 297.759C795.614 297.869 796.808 297.497 797.735 296.726C799.663 295.12 801.113 288 801.113 288C801.113 288 793.848 288.136 791.919 289.742Z" fill="#F37920"/>
<path d="M403.637 98.7416C402.71 99.5128 402.128 100.62 402.019 101.821C401.909 103.021 402.281 104.215 403.052 105.142C403.823 106.068 404.931 106.65 406.131 106.759C407.331 106.869 408.526 106.497 409.452 105.726C411.381 104.12 412.83 97 412.83 97C412.83 97 405.565 97.1357 403.637 98.7416Z" fill="#F37920"/>
<path d="M752.637 1.74159C751.71 2.51276 751.128 3.62028 751.019 4.82051C750.909 6.02074 751.281 7.21536 752.052 8.14157C752.823 9.06778 753.931 9.64971 755.131 9.75934C756.331 9.86897 757.526 9.49732 758.452 8.72614C760.381 7.12027 761.83 4.73413e-07 761.83 4.73413e-07C761.83 4.73413e-07 754.565 0.135708 752.637 1.74159Z" fill="#F37920"/>
<path d="M32.1313 349.829C31.815 348.666 31.0496 347.677 30.0036 347.078C28.9575 346.479 27.7165 346.321 26.5536 346.637C25.3906 346.954 24.4009 347.719 23.8023 348.765C23.2036 349.811 23.045 351.052 23.3613 352.215C24.02 354.637 29.8932 358.915 29.8932 358.915C29.8932 358.915 32.79 352.251 32.1313 349.829Z" fill="#2EC4B6"/>
<path d="M204.736 507.584C204.42 506.421 203.655 505.431 202.609 504.833C201.563 504.234 200.322 504.075 199.159 504.392C197.996 504.708 197.006 505.474 196.407 506.52C195.809 507.566 195.65 508.807 195.966 509.97C196.625 512.391 202.498 516.67 202.498 516.67C202.498 516.67 205.395 510.006 204.736 507.584Z" fill="#2EC4B6"/>
<path d="M354.131 402.829C353.815 401.666 353.049 400.677 352.003 400.078C350.957 399.479 349.716 399.321 348.553 399.637C347.39 399.954 346.401 400.719 345.802 401.765C345.203 402.811 345.045 404.052 345.361 405.215C346.02 407.637 351.893 411.915 351.893 411.915C351.893 411.915 354.79 405.251 354.131 402.829Z" fill="#2EC4B6"/>
<path d="M503.526 298.075C503.21 296.912 502.444 295.922 501.398 295.323C500.352 294.725 499.111 294.566 497.948 294.883C496.785 295.199 495.796 295.964 495.197 297.01C494.598 298.056 494.44 299.297 494.756 300.46C495.415 302.882 501.288 307.161 501.288 307.161C501.288 307.161 504.185 300.497 503.526 298.075Z" fill="#2EC4B6"/>
<path d="M652.921 193.32C652.604 192.157 651.839 191.168 650.793 190.569C649.747 189.97 648.506 189.812 647.343 190.128C646.18 190.444 645.19 191.21 644.592 192.256C643.993 193.302 643.834 194.543 644.151 195.706C644.809 198.127 650.683 202.406 650.683 202.406C650.683 202.406 653.579 195.742 652.921 193.32Z" fill="#2EC4B6"/>
<path d="M975.131 5.82943C974.815 4.66646 974.05 3.67678 973.004 3.07812C971.958 2.47946 970.717 2.32085 969.554 2.63718C968.391 2.95352 967.401 3.71888 966.802 4.76491C966.204 5.81094 966.045 7.05194 966.361 8.21491C967.02 10.6367 972.893 14.9151 972.893 14.9151C972.893 14.9151 975.79 8.25119 975.131 5.82943Z" fill="#2EC4B6"/>
<path d="M1122.13 137.829C1121.81 136.666 1121.05 135.677 1120 135.078C1118.96 134.479 1117.72 134.321 1116.55 134.637C1115.39 134.954 1114.4 135.719 1113.8 136.765C1113.2 137.811 1113.04 139.052 1113.36 140.215C1114.02 142.637 1119.89 146.915 1119.89 146.915C1119.89 146.915 1122.79 140.251 1122.13 137.829Z" fill="#2EC4B6"/>
<path d="M231.512 12.2791C230.926 12.4673 230.383 12.769 229.913 13.1671C229.444 13.5652 229.057 14.0519 228.776 14.5993C228.494 15.1468 228.323 15.7443 228.273 16.3578C228.222 16.9713 228.293 17.5888 228.481 18.1749C228.669 18.761 228.971 19.3043 229.369 19.7738C229.767 20.2433 230.254 20.6298 230.801 20.9113C231.349 21.1927 231.946 21.3635 232.56 21.414C233.173 21.4645 233.791 21.3937 234.377 21.2056C236.842 20.4144 240.978 14.1638 240.978 14.1638C240.978 14.1638 233.977 11.488 231.512 12.2791Z" fill="#FCB813"/>
<path d="M429.779 558.656C429.193 558.844 428.65 559.146 428.18 559.544C427.711 559.942 427.324 560.429 427.043 560.976C426.761 561.524 426.591 562.121 426.54 562.735C426.49 563.348 426.561 563.965 426.749 564.552C426.937 565.138 427.238 565.681 427.637 566.151C428.035 566.62 428.521 567.007 429.069 567.288C429.616 567.569 430.214 567.74 430.827 567.791C431.441 567.841 432.058 567.77 432.644 567.582C435.109 566.791 439.246 560.541 439.246 560.541C439.246 560.541 432.244 557.865 429.779 558.656Z" fill="#FCB813"/>
<path d="M689.779 93.6559C689.193 93.844 688.65 94.1457 688.18 94.5438C687.711 94.9419 687.324 95.4286 687.043 95.976C686.761 96.5235 686.591 97.121 686.54 97.7345C686.49 98.348 686.561 98.9655 686.749 99.5516C686.937 100.138 687.238 100.681 687.637 101.151C688.035 101.62 688.521 102.007 689.069 102.288C689.616 102.569 690.214 102.74 690.827 102.791C691.441 102.841 692.058 102.77 692.644 102.582C695.109 101.791 699.246 95.5405 699.246 95.5405C699.246 95.5405 692.244 92.8647 689.779 93.6559Z" fill="#FCB813"/>
<path d="M1002.78 352.656C1002.19 352.844 1001.65 353.146 1001.18 353.544C1000.71 353.942 1000.32 354.429 1000.04 354.976C999.761 355.524 999.591 356.121 999.54 356.735C999.49 357.348 999.561 357.965 999.749 358.552C999.937 359.138 1000.24 359.681 1000.64 360.151C1001.03 360.62 1001.52 361.007 1002.07 361.288C1002.62 361.569 1003.21 361.74 1003.83 361.791C1004.44 361.841 1005.06 361.77 1005.64 361.582C1008.11 360.791 1012.25 354.541 1012.25 354.541C1012.25 354.541 1005.24 351.865 1002.78 352.656Z" fill="#FCB813"/>
</svg>
