<svg width="303" height="353" viewBox="0 0 303 353" fill="none" xmlns="http://www.w3.org/2000/svg">
<path d="M159.927 172.298L151.388 171.503L175.853 0.753174L185.039 1.73948L159.927 172.298Z" fill="url(#paint0_linear)"/>
<path d="M175.817 25.7005L153.728 171.296L157.492 171.865L179.581 26.2693L175.817 25.7005Z" fill="#263238"/>
<path d="M176.801 26.5609L179.998 3.93042" stroke="#263238" stroke-width="8" stroke-miterlimit="10"/>
<path d="M295.621 74.167C160.679 -40.7127 45.2977 46.2095 45.2977 46.2095L295.621 74.167Z" fill="url(#paint1_linear)"/>
<path d="M287.582 70.9492C161.94 -35.9401 54.4376 45.0416 54.4376 45.0416L287.582 70.9492Z" fill="#8DB838"/>
<path d="M10.8768 139.713L17.7628 160.667L24.9767 182.62L31.8627 203.573L39.0766 225.527L45.9626 246.48L53.1811 268.433L60.0671 289.387L67.281 311.34L74.167 332.293L80.7251 352.251L197.828 313.917L191.27 293.959L184.384 273.006L177.17 251.052L170.284 230.099L163.066 208.146L156.18 187.193L148.966 165.244L142.08 144.286L134.866 122.337L127.98 101.384L10.8768 139.713Z" fill="url(#paint2_linear)"/>
<path d="M126.948 105.046L14.8295 141.749L82.3586 347.216L194.477 310.513L126.948 105.046Z" fill="white"/>
<path opacity="0.5" d="M126.947 105.049L14.829 141.752L21.4861 162.007L133.604 125.304L126.947 105.049Z" fill="white"/>
<path opacity="0.5" d="M140.579 146.527L28.4607 183.229L35.1178 203.485L147.236 166.782L140.579 146.527Z" fill="white"/>
<path opacity="0.5" d="M154.209 188.003L42.0908 224.706L48.7479 244.961L160.866 208.258L154.209 188.003Z" fill="white"/>
<path opacity="0.5" d="M167.841 229.48L55.723 266.183L62.3801 286.438L174.498 249.736L167.841 229.48Z" fill="white"/>
<path opacity="0.5" d="M181.472 270.958L69.3541 307.661L76.0112 327.917L188.129 291.214L181.472 270.958Z" fill="white"/>
<path d="M103.518 193.351C103.518 193.351 125.616 164.717 109.084 156.758C92.5519 148.799 75.3232 153.386 75.3232 153.386L77.0675 158.69C77.0675 158.69 119.185 163.067 92.6931 186.693L103.518 193.351Z" fill="#9F616A"/>
<path d="M68.5921 204.782C68.5921 204.782 33.7886 194.783 42.3916 178.588C50.9945 162.394 67.6129 155.917 67.6129 155.917L69.3572 161.221C69.3572 161.221 38.0195 189.642 73.3877 193.038L68.5921 204.782Z" fill="#9F616A"/>
<path opacity="0.2" d="M43.8446 178.116C50.9401 164.776 63.4688 158.021 67.6405 156.062L67.5949 155.917C67.5949 155.917 50.9993 162.417 42.3963 178.588C33.7934 194.76 68.5968 204.782 68.5968 204.782L68.9293 203.964C63.0589 202.073 36.1889 192.542 43.8446 178.116Z" fill="black"/>
<path opacity="0.2" d="M107.636 157.235C94.0004 150.681 79.8959 152.645 75.3735 153.531L75.328 153.385C75.328 153.385 92.5612 148.813 109.089 156.758C125.616 164.703 103.523 193.351 103.523 193.351L102.767 192.897C106.383 187.865 122.382 164.321 107.636 157.235Z" fill="black"/>
<path d="M82.8729 189.376C97.2867 184.657 105.139 169.171 100.411 154.786C95.6829 140.401 80.1656 132.564 65.7518 137.283C51.338 142.001 43.486 157.488 48.2139 171.873C52.9417 186.258 68.4591 194.094 82.8729 189.376Z" fill="#1E1E1E"/>
<path d="M100.467 242.916C90.6303 246.134 83.0976 250.384 79.9096 240.589L69.4349 208.773C67.8944 204.04 68.2932 198.891 70.5443 194.451C72.7954 190.01 76.7157 186.639 81.4489 185.074C86.1913 183.537 91.3505 183.935 95.7997 186.182C100.249 188.428 103.627 192.341 105.195 197.065L115.669 228.881C118.88 238.676 110.3 239.68 100.467 242.916Z" fill="#FCB813"/>
<g opacity="0.2">
<path opacity="0.2" d="M101.916 242.44L101.192 242.68C103.619 241.908 105.951 241.249 108.023 240.544C106.119 241.149 104.047 241.744 101.916 242.44Z" fill="black"/>
<path opacity="0.2" d="M81.3397 240.094L70.865 208.278C69.3628 203.665 69.7015 198.652 71.8106 194.282C73.9196 189.912 77.6364 186.523 82.1868 184.82C81.9409 184.888 81.6995 184.961 81.4536 185.038C76.7195 186.602 72.7981 189.973 70.5461 194.413C68.2941 198.854 67.8946 204.003 69.4349 208.737L79.9097 240.553C82.4373 248.239 87.5927 247.298 94.4377 244.985C88.2986 246.953 83.6851 247.23 81.3397 240.094Z" fill="black"/>
</g>
<path d="M116.526 231.499C116.526 231.499 139.169 251.007 139.297 267.906C139.292 270.671 139.47 273.433 139.83 276.174L142.312 300.263L132.005 303.104L128.002 272.915C127.777 271.225 127.131 269.618 126.121 268.242L117.345 256.243C116.402 254.953 115.073 253.994 113.549 253.504C112.026 253.015 110.386 253.019 108.865 253.516C107.834 253.854 106.887 254.409 106.089 255.144C105.291 255.878 104.661 256.776 104.241 257.775C103.821 258.774 103.621 259.851 103.654 260.934C103.687 262.017 103.953 263.08 104.434 264.052L113.306 281.978L121.503 319.898L111.334 323.226C111.334 323.226 102.79 293.968 95.6171 280.292C88.4442 266.615 81.0026 243.139 81.0026 243.139L116.526 231.499Z" fill="#F37920"/>
<path d="M79.4746 177.666L78.6654 177.931C76.7534 178.557 75.7119 180.611 76.339 182.519L78.823 190.077C79.4502 191.985 81.5085 193.025 83.4205 192.399L84.2297 192.134C86.1417 191.508 87.1832 189.454 86.5561 187.546L84.0721 179.988C83.4449 178.08 81.3866 177.04 79.4746 177.666Z" fill="#9F616A"/>
<path opacity="0.2" d="M76.1705 182.025C76.1705 182.025 80.1737 183.506 83.8034 179.552L76.1705 182.025Z" fill="black"/>
<path d="M80.1773 181.175C90.0525 177.942 95.4322 167.332 92.193 157.476C88.9538 147.62 78.3224 142.251 68.4472 145.484C58.5719 148.717 53.1923 159.327 56.4315 169.183C59.6707 179.039 70.302 184.408 80.1773 181.175Z" fill="#9F616A"/>
<path d="M56.6833 150.408C56.6833 150.408 58.3821 165.344 90.1433 149.604L78.448 140.059L67.0215 141.127L56.6833 150.408Z" fill="#1E1E1E"/>
<path d="M82.4827 170.275C82.8334 171.339 80.8933 173.457 77.9604 174.425C75.0275 175.393 72.2038 174.82 71.8532 173.752C71.5025 172.684 73.7568 171.525 76.6943 170.571C79.6318 169.616 82.1321 169.23 82.4827 170.275Z" fill="white"/>
<path opacity="0.1" d="M76.6031 165.252L73.6042 166.233C73.3653 166.312 73.2351 166.568 73.3135 166.807L73.3461 166.906C73.4245 167.145 73.6818 167.275 73.9208 167.196L76.9197 166.215C77.1587 166.136 77.2889 165.88 77.2105 165.641L77.1778 165.542C77.0994 165.303 76.8421 165.173 76.6031 165.252Z" fill="black"/>
<path d="M64.8266 162.157C65.3596 161.982 65.6499 161.41 65.4751 160.878C65.3003 160.346 64.7265 160.056 64.1935 160.231C63.6606 160.405 63.3702 160.978 63.545 161.51C63.7199 162.042 64.2936 162.331 64.8266 162.157Z" fill="#383F4D"/>
<path d="M81.2608 156.777C81.7937 156.603 82.0841 156.03 81.9093 155.498C81.7344 154.966 81.1607 154.677 80.6277 154.851C80.0948 155.026 79.8044 155.598 79.9793 156.13C80.1541 156.662 80.7278 156.952 81.2608 156.777Z" fill="#383F4D"/>
<path d="M58.5045 160.808L59.9026 165.066C60.0529 165.52 60.376 165.897 60.8021 166.114C61.2283 166.332 61.7231 166.374 62.1798 166.23L69.3481 163.885C69.8027 163.735 70.1798 163.412 70.398 162.987C70.6162 162.562 70.6579 162.068 70.514 161.612L69.1158 157.353C68.9656 156.9 68.6425 156.523 68.2164 156.305C67.7902 156.088 67.2953 156.046 66.8387 156.19L59.6704 158.535C59.2158 158.685 58.8387 159.007 58.6205 159.433C58.4023 159.858 58.3606 160.352 58.5045 160.808ZM68.1777 163.498L62.9403 165.212C62.4837 165.356 61.9888 165.314 61.5627 165.096C61.1365 164.878 60.8134 164.502 60.6632 164.048L59.725 161.189C59.5812 160.734 59.6228 160.24 59.841 159.815C60.0592 159.389 60.4363 159.067 60.8909 158.917L66.1283 157.203C66.5849 157.06 67.0798 157.101 67.5059 157.319C67.9321 157.537 68.2552 157.913 68.4054 158.367L69.3436 161.226C69.487 161.683 69.4441 162.178 69.2241 162.603C69.0041 163.029 68.6248 163.35 68.1686 163.498H68.1777Z" fill="#E75F7E"/>
<path opacity="0.2" d="M66.2002 156.9L60.6006 158.733C59.745 159.013 59.2789 159.932 59.5595 160.786L60.7618 164.444C61.0424 165.298 61.9636 165.763 62.8192 165.483L68.4188 163.65C69.2744 163.37 69.7405 162.451 69.4598 161.597L68.2576 157.939C67.9769 157.085 67.0558 156.62 66.2002 156.9Z" fill="#E75F7E"/>
<path d="M69.5622 159.748L69.1068 159.485C69.1341 159.444 72.19 155.149 76.2069 157.176L75.9791 157.63C72.395 155.812 69.6579 159.594 69.5622 159.748Z" fill="#E75F7E"/>
<path d="M92.5024 161.012C93.3418 160.939 93.8842 159.295 93.7138 157.339C93.5434 155.384 92.7247 153.857 91.8853 153.93C91.0459 154.003 90.5035 155.648 90.6739 157.603C90.8443 159.559 91.6629 161.085 92.5024 161.012Z" fill="#9F616A"/>
<path d="M58.2822 172.218C59.0018 171.78 58.7556 170.066 57.7323 168.39C56.709 166.714 55.2961 165.709 54.5765 166.147C53.8569 166.584 54.1031 168.298 55.1264 169.974C56.1498 171.651 57.5627 172.655 58.2822 172.218Z" fill="#9F616A"/>
<path opacity="0.2" d="M57.4576 149.713L56.6833 150.408C56.6833 150.408 58.3821 165.344 90.1433 149.604L88.9729 148.649C64.0202 160.562 58.5916 152.763 57.4576 149.713Z" fill="white"/>
<path d="M74.9272 155.431L76.3254 159.69C76.4756 160.143 76.7987 160.52 77.2249 160.738C77.651 160.955 78.1459 160.997 78.6025 160.853L85.7709 158.508C86.2254 158.358 86.6026 158.036 86.8208 157.61C87.039 157.185 87.0806 156.691 86.9368 156.235L85.5568 151.958C85.4066 151.505 85.0835 151.128 84.6573 150.91C84.2312 150.693 83.7363 150.651 83.2797 150.795L76.1113 153.14C75.8825 153.212 75.6703 153.329 75.4868 153.483C75.3033 153.638 75.1522 153.827 75.0422 154.04C74.9322 154.253 74.8654 154.485 74.8456 154.724C74.8259 154.963 74.8536 155.203 74.9272 155.431ZM84.6004 158.122L79.3631 159.835C78.9064 159.979 78.4115 159.937 77.9854 159.719C77.5593 159.502 77.2362 159.125 77.0859 158.672L76.1478 155.813C76.0039 155.357 76.0456 154.863 76.2637 154.438C76.4819 154.012 76.8591 153.69 77.3136 153.54L82.551 151.826C83.0076 151.683 83.5025 151.724 83.9287 151.942C84.3548 152.16 84.6779 152.536 84.8281 152.99L85.7663 155.849C85.91 156.305 85.8677 156.8 85.6486 157.225C85.4295 157.651 85.0513 157.973 84.5959 158.122H84.6004Z" fill="#E75F7E"/>
<path opacity="0.2" d="M82.6344 151.52L77.0348 153.353C76.1792 153.634 75.7131 154.553 75.9938 155.407L77.196 159.065C77.4767 159.919 78.3978 160.384 79.2534 160.104L84.853 158.271C85.7086 157.991 86.1747 157.071 85.8941 156.217L84.6918 152.559C84.4112 151.705 83.49 151.24 82.6344 151.52Z" fill="#E75F7E"/>
<g opacity="0.2">
<path opacity="0.2" d="M97.5575 279.678C90.3846 266.002 82.943 242.526 82.943 242.526L81.012 243.158C81.012 243.158 88.4536 266.629 95.6265 280.31C102.799 293.991 111.334 323.226 111.334 323.226L113.265 322.594C113.265 322.594 104.726 293.337 97.5575 279.678Z" fill="black"/>
</g>
<path d="M111.334 323.225L114.522 332.857L129.647 331.643C129.647 331.643 131.755 328.284 128.062 326.821C124.368 325.357 121.499 319.885 121.499 319.885L111.334 323.225Z" fill="#3CBDB2"/>
<path d="M131.714 300.531L130.744 309.435L145.076 314.408C145.076 314.408 148.36 312.181 145.573 309.358C142.785 306.536 142.385 300.372 142.385 300.372L131.714 300.531Z" fill="#3CBDB2"/>
<path opacity="0.2" d="M112.304 322.912L111.338 323.23L114.522 332.857L129.646 331.643C129.646 331.643 129.705 331.553 129.783 331.393L115.487 332.539L112.304 322.912Z" fill="black"/>
<path opacity="0.1" d="M300.594 194.64C301.828 171.305 236.038 148.871 153.648 144.533C71.2575 140.195 3.46715 155.595 2.23358 178.931C1.00001 202.266 66.7904 224.7 149.18 229.038C231.571 233.376 299.361 217.976 300.594 194.64Z" fill="black"/>
<defs>
<linearGradient id="paint0_linear" x1="201.259" y1="150.919" x2="133.927" y2="24.5992" gradientUnits="userSpaceOnUse">
<stop stop-color="#808080" stop-opacity="0.25"/>
<stop offset="0.54" stop-color="#808080" stop-opacity="0.12"/>
<stop offset="1" stop-color="#808080" stop-opacity="0.1"/>
</linearGradient>
<linearGradient id="paint1_linear" x1="156896" y1="-58162.2" x2="148039" y2="-74779.7" gradientUnits="userSpaceOnUse">
<stop stop-color="#808080" stop-opacity="0.25"/>
<stop offset="0.54" stop-color="#808080" stop-opacity="0.12"/>
<stop offset="1" stop-color="#808080" stop-opacity="0.1"/>
</linearGradient>
<linearGradient id="paint2_linear" x1="152452" y1="169129" x2="114036" y2="51778.7" gradientUnits="userSpaceOnUse">
<stop stop-color="#808080" stop-opacity="0.25"/>
<stop offset="0.54" stop-color="#808080" stop-opacity="0.12"/>
<stop offset="1" stop-color="#808080" stop-opacity="0.1"/>
</linearGradient>
</defs>
</svg>
