<svg width="137" height="137" viewBox="0 0 137 137" fill="none" xmlns="http://www.w3.org/2000/svg">
<g filter="url(#filter0_d)">
<circle cx="68.7717" cy="58.8835" r="43.6164" fill="#FFC624" stroke="#FFC624"/>
<path opacity="0.25" d="M68.7841 87.6551C68.0496 87.6551 67.4423 87.4152 66.9621 86.9494C66.496 86.4837 66.2559 85.8626 66.2559 85.1287C66.2559 84.3948 66.496 83.7879 66.9621 83.308C67.4282 82.8422 68.0496 82.6023 68.7841 82.6023C69.448 82.6023 70.0412 82.8422 70.5496 83.308C71.0581 83.7879 71.3123 84.3948 71.3123 85.1287C71.3123 85.8626 71.0581 86.4837 70.5496 86.9494C70.0553 87.4152 69.4621 87.6551 68.7841 87.6551ZM68.7841 83.2939C68.2333 83.2939 67.8095 83.4633 67.4705 83.802C67.1316 84.1407 66.9621 84.5783 66.9621 85.1146C66.9621 85.665 67.1316 86.0885 67.4705 86.4272C67.8095 86.766 68.2474 86.9353 68.7841 86.9353C69.2785 86.9353 69.7022 86.766 70.0694 86.4272C70.4367 86.0885 70.6061 85.665 70.6061 85.1146C70.6061 84.5783 70.4225 84.1407 70.0694 83.802C69.7022 83.4633 69.2785 83.2939 68.7841 83.2939Z" fill="#FAFEFD"/>
<g opacity="0.25">
<path opacity="0.25" d="M87.8089 58.8906V69.1092C87.8089 70.323 87.583 71.4663 87.1168 72.5389C86.6507 73.6116 86.0293 74.5431 85.2524 75.3194C84.4756 76.1098 83.5434 76.7308 82.4699 77.1825C81.3965 77.6482 80.2524 77.8741 79.0378 77.8741C77.8231 77.8741 76.679 77.6482 75.6055 77.1825C74.5462 76.7308 73.6281 76.1098 72.8513 75.3335C72.3852 76.0675 71.8626 76.7449 71.2553 77.3518C71.1846 77.4224 71.0999 77.493 71.0151 77.5635C72.0038 78.4951 73.162 79.2572 74.4756 79.8218C75.9021 80.4287 77.4276 80.7392 79.0519 80.7392C80.6762 80.7392 82.2016 80.4287 83.6282 79.8218C85.0547 79.2149 86.2835 78.3822 87.3287 77.3377C88.3739 76.2933 89.2072 75.0654 89.8146 73.6398C90.4219 72.2143 90.7327 70.7041 90.7327 69.0669V58.8483H87.8089V58.8906Z" fill="#FAFEFD"/>
</g>
<g opacity="0.25">
<path opacity="0.25" d="M49.7725 58.8906V48.672C49.7725 47.4582 49.9985 46.315 50.4646 45.2423C50.9307 44.1696 51.5522 43.2381 52.3431 42.4618C53.0776 41.7279 53.9392 41.1492 54.9279 40.6976L53.9109 37.9877C52.5267 38.5946 51.3262 39.3991 50.3092 40.4153C49.264 41.4597 48.4448 42.6877 47.8234 44.1132C47.216 45.5387 46.9053 47.063 46.9053 48.6861V58.9047H49.7725V58.8906Z" fill="#FAFEFD"/>
</g>
<g opacity="0.25">
<path opacity="0.25" d="M66.651 72.5529C66.6369 72.5953 66.6087 72.6376 66.5804 72.68C66.1284 73.6962 65.5211 74.5854 64.7725 75.3334C64.7584 75.3475 64.7584 75.3475 64.7443 75.3616C63.9674 76.1379 63.0493 76.7448 61.99 77.2106C60.9166 77.6764 59.7725 77.9022 58.5578 77.9022C57.3431 77.9022 56.1991 77.6764 55.1256 77.2106C54.0522 76.7448 53.12 76.1238 52.3431 75.3475C51.5522 74.5713 50.9307 73.6397 50.4646 72.567C49.9985 71.4944 49.7725 70.3511 49.7725 69.1373V58.9187H46.9053V69.1373C46.9053 70.7604 47.216 72.2848 47.8234 73.7103C48.4307 75.1358 49.264 76.3637 50.3092 77.4082C51.3544 78.4526 52.5832 79.2854 54.0098 79.8923C55.4363 80.4992 56.9618 80.8097 58.5861 80.8097C60.2104 80.8097 61.7358 80.4992 63.1623 79.8923C64.4759 79.3277 65.6341 78.5655 66.6228 77.634C66.7075 77.5634 66.7923 77.4929 66.8629 77.4082C67.4702 76.8013 67.9929 76.1238 68.459 75.3899C68.6002 75.1782 68.6991 74.9241 68.8262 74.6983C69.0098 74.3737 69.1934 74.0631 69.3488 73.7103C69.9279 72.3695 70.2245 70.9298 70.2527 69.4055H67.3855C67.3008 70.5064 67.0889 71.5649 66.651 72.5529Z" fill="#FAFEFD"/>
</g>
<g opacity="0.25">
<path opacity="0.25" d="M89.7723 44.1132C89.1649 42.6876 88.3316 41.4597 87.2864 40.4153C86.5519 39.6813 85.7045 39.0462 84.7864 38.5381L83.5435 41.1633C84.1649 41.5303 84.744 41.9678 85.2384 42.4759C86.0293 43.2522 86.6508 44.1837 87.1169 45.2564C87.583 46.3291 87.809 47.4723 87.809 48.6861V58.9047H90.6762V48.6861C90.6762 47.0489 90.3796 45.5387 89.7723 44.1132Z" fill="#FAFEFD"/>
</g>
<path d="M70.5496 34.4591C71.0581 33.9933 71.3123 33.3723 71.3123 32.6384C71.3123 31.9044 71.0581 31.2834 70.5496 30.8176C70.0412 30.3519 69.448 30.1119 68.7841 30.1119C68.0496 30.1119 67.4423 30.3519 66.9621 30.8176C66.496 31.2834 66.2559 31.9044 66.2559 32.6384C66.2559 33.3723 66.496 33.9792 66.9621 34.4591C67.4282 34.9248 68.0496 35.1648 68.7841 35.1648C69.4621 35.1648 70.0553 34.9248 70.5496 34.4591Z" fill="#FAFEFD"/>
<path d="M58.558 37.0138C56.9337 37.0138 55.4082 37.3243 53.9817 37.9312C53.9534 37.9453 53.9252 37.9594 53.8828 37.9735L54.8998 40.6835C54.9704 40.6552 55.041 40.6129 55.1116 40.5847C56.1851 40.1189 57.3291 39.8931 58.5438 39.8931C59.7585 39.8931 60.9026 40.1189 61.976 40.5847C63.0354 41.0504 63.9534 41.6573 64.7303 42.4336C65.1964 41.6997 65.719 41.0222 66.3263 40.4153C66.397 40.3447 66.4817 40.2742 66.5664 40.2036C65.5777 39.2721 64.4195 38.5099 63.106 37.9453C61.7077 37.3243 60.1823 37.0138 58.558 37.0138Z" fill="#FAFEFD"/>
<path d="M83.5861 37.9312C82.1596 37.3243 80.6342 37.0138 79.0099 37.0138C77.3856 37.0138 75.8602 37.3243 74.4336 37.9312C73.12 38.4958 71.9618 39.2579 70.9731 40.1895C70.9025 40.26 70.8178 40.3306 70.733 40.4012C70.1257 41.0081 69.6031 41.6856 69.137 42.4195C68.9957 42.6312 68.8969 42.8853 68.7697 43.1111C68.5861 43.4357 68.4025 43.7462 68.2471 44.0991C67.6398 45.5246 67.3291 47.0489 67.3291 48.672V57.3946V58.9048V69.1234C67.3291 69.2081 67.3149 69.3069 67.3149 69.3916H70.1822C70.1822 69.3069 70.1963 69.2222 70.1963 69.1234V58.9048V57.4228V48.6862C70.1963 47.4723 70.4223 46.3291 70.8884 45.2564C70.9025 45.2141 70.9308 45.1859 70.9449 45.1435C71.3969 44.1273 72.0042 43.224 72.7528 42.4759C72.7669 42.4618 72.7669 42.4618 72.781 42.4618C73.5579 41.6856 74.476 41.0787 75.5353 40.6129C76.6087 40.1471 77.7528 39.9213 78.9816 39.9213C80.1963 39.9213 81.3404 40.1471 82.4138 40.6129C82.7952 40.7823 83.1483 40.9657 83.5014 41.1775L84.7444 38.5522C84.3912 38.3123 83.9958 38.1147 83.5861 37.9312Z" fill="#FAFEFD"/>
</g>
<defs>
<filter id="filter0_d" x="0.655273" y="0.76709" width="136.233" height="136.233" filterUnits="userSpaceOnUse" color-interpolation-filters="sRGB">
<feFlood flood-opacity="0" result="BackgroundImageFix"/>
<feColorMatrix in="SourceAlpha" type="matrix" values="0 0 0 0 0 0 0 0 0 0 0 0 0 0 0 0 0 0 127 0"/>
<feOffset dy="10"/>
<feGaussianBlur stdDeviation="12"/>
<feColorMatrix type="matrix" values="0 0 0 0 0 0 0 0 0 0 0 0 0 0 0 0 0 0 0.1 0"/>
<feBlend mode="multiply" in2="BackgroundImageFix" result="effect1_dropShadow"/>
<feBlend mode="normal" in="SourceGraphic" in2="effect1_dropShadow" result="shape"/>
</filter>
</defs>
</svg>
