<svg width="97" height="97" viewBox="0 0 97 97" fill="none" xmlns="http://www.w3.org/2000/svg">
<g filter="url(#filter0_d)">
<circle cx="48.4075" cy="44.4075" r="43.9075" fill="white" stroke="#FFC624"/>
<path opacity="0.25" d="M48.4199 73.3689C47.6806 73.3689 47.0693 73.1274 46.5859 72.6585C46.1167 72.1897 45.875 71.5646 45.875 70.8258C45.875 70.087 46.1167 69.4761 46.5859 68.9931C47.0551 68.5242 47.6806 68.2827 48.4199 68.2827C49.0882 68.2827 49.6853 68.5242 50.1971 68.9931C50.7089 69.4761 50.9648 70.087 50.9648 70.8258C50.9648 71.5646 50.7089 72.1897 50.1971 72.6585C49.6995 73.1274 49.1024 73.3689 48.4199 73.3689ZM48.4199 68.9789C47.8654 68.9789 47.4389 69.1494 47.0977 69.4903C46.7565 69.8313 46.5859 70.2717 46.5859 70.8116C46.5859 71.3657 46.7565 71.7919 47.0977 72.1329C47.4389 72.4738 47.8797 72.6443 48.4199 72.6443C48.9175 72.6443 49.3441 72.4738 49.7137 72.1329C50.0834 71.7919 50.254 71.3657 50.254 70.8116C50.254 70.2717 50.0692 69.8313 49.7137 69.4903C49.3441 69.1494 48.9175 68.9789 48.4199 68.9789Z" fill="#606161"/>
<g opacity="0.25">
<path opacity="0.25" d="M67.5706 44.4146V54.7006C67.5706 55.9224 67.3431 57.0732 66.874 58.1529C66.4048 59.2327 65.7792 60.1703 64.9972 60.9517C64.2153 61.7473 63.2769 62.3725 62.1964 62.8271C61.1159 63.2959 59.9643 63.5233 58.7416 63.5233C57.5189 63.5233 56.3672 63.2959 55.2867 62.8271C54.2204 62.3725 53.2963 61.7474 52.5143 60.966C52.0451 61.7047 51.5191 62.3867 50.9077 62.9976C50.8366 63.0686 50.7513 63.1397 50.666 63.2107C51.6612 64.1484 52.8271 64.9156 54.1493 65.4838C55.5853 66.0947 57.1208 66.4073 58.7558 66.4073C60.3908 66.4073 61.9263 66.0947 63.3622 65.4838C64.7982 64.8729 66.0351 64.0347 67.0872 62.9834C68.1393 61.932 68.9781 60.696 69.5895 59.2611C70.2008 57.8262 70.5136 56.306 70.5136 54.658V44.3719H67.5706V44.4146Z" fill="#606161"/>
</g>
<g opacity="0.25">
<path opacity="0.25" d="M29.2831 44.4145V34.1285C29.2831 32.9067 29.5106 31.7559 29.9798 30.6762C30.4489 29.5964 31.0745 28.6587 31.8707 27.8773C32.61 27.1386 33.4773 26.5561 34.4725 26.1014L33.4488 23.3737C32.0555 23.9846 30.847 24.7944 29.8234 25.8173C28.7713 26.8686 27.9467 28.1047 27.3211 29.5396C26.7098 30.9745 26.397 32.5089 26.397 34.1427V44.4287H29.2831V44.4145Z" fill="#606161"/>
</g>
<g opacity="0.25">
<path opacity="0.25" d="M46.273 58.167C46.2588 58.2097 46.2303 58.2523 46.2019 58.2949C45.747 59.3178 45.1356 60.2129 44.3821 60.9659C44.3679 60.9801 44.3679 60.9801 44.3536 60.9943C43.5717 61.7757 42.6475 62.3866 41.5812 62.8554C40.5007 63.3243 39.3491 63.5516 38.1264 63.5516C36.9037 63.5516 35.7521 63.3243 34.6715 62.8554C33.591 62.3866 32.6527 61.7615 31.8707 60.9801C31.0745 60.1987 30.4489 59.261 29.9798 58.1812C29.5106 57.1015 29.2831 55.9507 29.2831 54.7289V44.4429H26.397V54.7289C26.397 56.3627 26.7098 57.8971 27.3211 59.332C27.9325 60.767 28.7713 62.003 29.8234 63.0543C30.8755 64.1057 32.1124 64.9439 33.5484 65.5548C34.9843 66.1657 36.5198 66.4783 38.1548 66.4783C39.7898 66.4783 41.3253 66.1657 42.7613 65.5548C44.0835 64.9865 45.2493 64.2193 46.2446 63.2816C46.3299 63.2106 46.4152 63.1396 46.4863 63.0543C47.0976 62.4434 47.6237 61.7615 48.0928 61.0227C48.235 60.8096 48.3345 60.5539 48.4625 60.3266C48.6473 59.9998 48.8322 59.6872 48.9885 59.332C49.5715 57.9824 49.87 56.5332 49.8985 54.9988H47.0123C46.927 56.107 46.7137 57.1725 46.273 58.167Z" fill="#606161"/>
</g>
<g opacity="0.25">
<path opacity="0.25" d="M69.5473 29.5396C68.9359 28.1047 68.0971 26.8686 67.045 25.8173C66.3057 25.0785 65.4526 24.4392 64.5285 23.9277L63.2773 26.5703C63.9029 26.9397 64.4858 27.3801 64.9834 27.8915C65.7796 28.6729 66.4052 29.6106 66.8744 30.6904C67.3435 31.7701 67.571 32.9209 67.571 34.1427V44.4287H70.4572V34.1427C70.4572 32.4947 70.1586 30.9745 69.5473 29.5396Z" fill="#606161"/>
</g>
<path d="M50.1971 19.8219C50.7089 19.353 50.9648 18.7279 50.9648 17.9891C50.9648 17.2504 50.7089 16.6252 50.1971 16.1564C49.6853 15.6876 49.0882 15.446 48.4199 15.446C47.6806 15.446 47.0693 15.6876 46.5859 16.1564C46.1167 16.6252 45.875 17.2504 45.875 17.9891C45.875 18.7279 46.1167 19.3388 46.5859 19.8219C47.0551 20.2907 47.6806 20.5322 48.4199 20.5322C49.1024 20.5322 49.6995 20.2907 50.1971 19.8219Z" fill="#606161"/>
<path d="M38.1264 22.3934C36.4914 22.3934 34.9559 22.706 33.5199 23.3169C33.4915 23.3311 33.4631 23.3453 33.4204 23.3595L34.4441 26.0873C34.5151 26.0589 34.5862 26.0163 34.6573 25.9879C35.7379 25.519 36.8895 25.2917 38.1122 25.2917C39.3349 25.2917 40.4865 25.519 41.567 25.9879C42.6333 26.4567 43.5575 27.0676 44.3394 27.849C44.8086 27.1102 45.3347 26.4283 45.946 25.8174C46.0171 25.7463 46.1024 25.6753 46.1877 25.6043C45.1925 24.6666 44.0266 23.8994 42.7044 23.3311C41.2969 22.706 39.7614 22.3934 38.1264 22.3934Z" fill="#FFC624"/>
<path d="M63.3195 23.3169C61.8835 22.706 60.348 22.3934 58.713 22.3934C57.078 22.3934 55.5425 22.706 54.1065 23.3169C52.7843 23.8852 51.6185 24.6524 50.6233 25.5901C50.5522 25.6611 50.4668 25.7321 50.3815 25.8032C49.7702 26.4141 49.2442 27.096 48.775 27.8348C48.6328 28.0479 48.5333 28.3036 48.4053 28.5309C48.2205 28.8577 48.0357 29.1703 47.8793 29.5255C47.2679 30.9604 46.9551 32.4948 46.9551 34.1286V42.9087V44.4288V54.7149C46.9551 54.8001 46.9409 54.8995 46.9409 54.9848H49.8271C49.8271 54.8995 49.8413 54.8143 49.8413 54.7149V44.4288V42.9371V34.1428C49.8413 32.921 50.0688 31.7702 50.5379 30.6904C50.5522 30.6478 50.5806 30.6194 50.5948 30.5768C51.0498 29.5539 51.6611 28.6446 52.4147 27.8916C52.4289 27.8774 52.4289 27.8774 52.4431 27.8774C53.225 27.096 54.1492 26.4851 55.2155 26.0163C56.296 25.5474 57.4476 25.3201 58.6846 25.3201C59.9073 25.3201 61.0589 25.5474 62.1394 26.0163C62.5233 26.1868 62.8787 26.3715 63.2342 26.5846L64.4853 23.942C64.1299 23.7005 63.7318 23.5016 63.3195 23.3169Z" fill="#FFC624"/>
</g>
<defs>
<filter id="filter0_d" x="0" y="0" width="96.8149" height="96.8149" filterUnits="userSpaceOnUse" color-interpolation-filters="sRGB">
<feFlood flood-opacity="0" result="BackgroundImageFix"/>
<feColorMatrix in="SourceAlpha" type="matrix" values="0 0 0 0 0 0 0 0 0 0 0 0 0 0 0 0 0 0 127 0"/>
<feOffset dy="4"/>
<feGaussianBlur stdDeviation="2"/>
<feColorMatrix type="matrix" values="0 0 0 0 1 0 0 0 0 0.776471 0 0 0 0 0.141176 0 0 0 0.25 0"/>
<feBlend mode="normal" in2="BackgroundImageFix" result="effect1_dropShadow"/>
<feBlend mode="normal" in="SourceGraphic" in2="effect1_dropShadow" result="shape"/>
</filter>
</defs>
</svg>
