<svg width="137" height="137" viewBox="0 0 137 137" fill="none" xmlns="http://www.w3.org/2000/svg">
<g filter="url(#filter0_d)">
<circle cx="68.4075" cy="58.4075" r="43.9075" fill="#2EC4B6" stroke="#2EC4B6"/>
<path d="M70.2674 30.1564C69.7556 29.6876 69.1585 29.446 68.4902 29.446C67.7509 29.446 67.1396 29.6876 66.6562 30.1564C66.187 30.6252 65.9453 31.2504 65.9453 31.9891C65.9453 32.7279 66.187 33.3388 66.6562 33.8219C67.1254 34.2907 67.7509 34.5322 68.4902 34.5322C69.1585 34.5322 69.7556 34.2907 70.2674 33.8219C70.7793 33.353 71.0352 32.7279 71.0352 31.9891C71.0352 31.2504 70.7793 30.6395 70.2674 30.1564Z" fill="white"/>
<path opacity="0.25" d="M68.4902 87.3688C67.7509 87.3688 67.1396 87.1272 66.6562 86.6584C66.187 86.1896 65.9453 85.5645 65.9453 84.8257C65.9453 84.0869 66.187 83.476 66.6562 82.993C67.1254 82.5241 67.7509 82.2826 68.4902 82.2826C69.1585 82.2826 69.7556 82.5241 70.2674 82.993C70.7793 83.476 71.0352 84.0869 71.0352 84.8257C71.0352 85.5645 70.7793 86.1896 70.2674 86.6584C69.7556 87.1272 69.1585 87.3688 68.4902 87.3688ZM68.4902 82.9787C67.9358 82.9787 67.5093 83.1492 67.168 83.4902C66.8268 83.8312 66.6562 84.2716 66.6562 84.8115C66.6562 85.3656 66.8268 85.7918 67.168 86.1327C67.5093 86.4737 67.95 86.6442 68.4902 86.6442C68.9879 86.6442 69.4144 86.4737 69.7841 86.1327C70.1537 85.7918 70.3243 85.3656 70.3243 84.8115C70.3243 84.2574 70.1395 83.8312 69.7841 83.4902C69.4002 83.1492 68.9879 82.9787 68.4902 82.9787Z" fill="white"/>
<g opacity="0.75">
<path opacity="0.25" d="M89.6034 43.5397C88.992 42.1047 88.1532 40.8687 87.1011 39.8174C86.049 38.766 84.8121 37.9278 83.3761 37.3169C81.9402 36.706 80.4047 36.3934 78.7697 36.3934C77.1346 36.3934 75.5992 36.706 74.1632 37.3169C72.841 37.8852 71.6752 38.6524 70.6799 39.5901C70.6088 39.6611 70.5235 39.7321 70.4382 39.8032C69.8269 40.4141 69.3008 41.096 68.8317 41.8348C68.6895 42.0479 68.5899 42.3036 68.462 42.531C68.2772 42.8577 68.0923 43.1703 67.9359 43.5255C67.3246 44.9604 67.0118 46.4947 67.0118 48.1286V56.9086V58.4288V68.7148C67.0118 69.9366 66.7843 71.0874 66.3152 72.1671C66.301 72.2098 66.2725 72.2524 66.2441 72.295C65.7891 73.3179 65.1778 74.213 64.4242 74.966C64.41 74.9802 64.41 74.9802 64.3958 74.9944C63.6139 75.7758 62.6897 76.3867 61.6234 76.8555C60.5429 77.3244 59.3913 77.5517 58.1686 77.5517C56.9459 77.5517 55.7942 77.3244 54.7137 76.8555C53.6332 76.3867 52.6948 75.7616 51.9129 74.966C51.1309 74.1846 50.4911 73.2469 50.0219 72.1671C49.5528 71.0874 49.3253 69.9366 49.3253 68.7148V58.4288V48.1428C49.3253 46.921 49.5528 45.7702 50.0219 44.6904C50.4911 43.6107 51.1167 42.673 51.9129 41.8916C52.6948 41.1102 53.6332 40.4709 54.7137 40.0163C55.7942 39.5474 56.9459 39.3201 58.1686 39.3201C59.3913 39.3201 60.5429 39.5474 61.6234 40.0163C62.6897 40.4851 63.6139 41.096 64.3958 41.8774C64.865 41.1386 65.391 40.4567 66.0024 39.8458C66.0877 39.7748 66.173 39.7037 66.2441 39.6185C65.2489 38.6808 64.083 37.9136 62.7608 37.3453C61.3248 36.7344 59.7893 36.4219 58.1543 36.4219C56.5193 36.4219 54.9838 36.7344 53.5479 37.3453C52.1119 37.9562 50.875 38.7945 49.8229 39.8458C48.7708 40.8971 47.9462 42.1331 47.3206 43.5681C46.7093 45.003 46.3965 46.5374 46.3965 48.1712V58.4572V68.7432C46.3965 70.377 46.7093 71.9114 47.3206 73.3463C47.932 74.7813 48.7708 76.0173 49.8229 77.0686C50.875 78.12 52.1119 78.944 53.5479 79.5691C54.9838 80.18 56.5051 80.4926 58.1543 80.4926C59.7893 80.4926 61.3248 80.18 62.7608 79.5691C64.083 79.0008 65.2346 78.2336 66.2441 77.2959C66.3294 77.2249 66.4147 77.1539 66.4858 77.0828C67.0971 76.4719 67.6232 75.79 68.0924 75.0512C68.2345 74.8381 68.334 74.5824 68.462 74.3551C68.6468 74.0283 68.8316 73.7157 68.988 73.3606C69.5994 71.9256 69.9122 70.3913 69.9122 68.7574V58.4714V56.9797V48.1854C69.9122 46.9636 70.1397 45.8128 70.6088 44.7331C70.6231 44.6904 70.6515 44.662 70.6657 44.6194C71.1207 43.5965 71.732 42.6872 72.4855 41.9342C72.4855 41.92 72.4998 41.92 72.514 41.92C73.2959 41.1386 74.2201 40.5277 75.2864 40.0589C76.3669 39.5901 77.5185 39.3627 78.7412 39.3627C79.9639 39.3627 81.1156 39.5901 82.1961 40.0589C83.2766 40.5277 84.215 41.1528 84.9969 41.9342C85.7789 42.7156 86.4187 43.6533 86.8736 44.7331C87.3428 45.8128 87.5703 46.9636 87.5703 48.1854V58.4714V68.7574C87.5703 69.9792 87.3286 71.13 86.8736 72.2098C86.4044 73.2895 85.7789 74.2272 84.9969 75.0086C84.2007 75.8042 83.2766 76.4293 82.1961 76.8981C81.1156 77.367 79.9639 77.5943 78.7412 77.5943C77.5185 77.5943 76.3527 77.367 75.2864 76.8981C74.2201 76.4293 73.2959 75.8184 72.514 75.037C72.0448 75.7758 71.5187 76.4577 70.9074 77.0686C70.8363 77.1397 70.751 77.2107 70.6657 77.2817C71.6609 78.2336 72.8268 78.9866 74.149 79.5549C75.5849 80.1658 77.1204 80.4784 78.7555 80.4784C80.3905 80.4784 81.9259 80.1658 83.3619 79.5549C84.7979 78.944 86.0348 78.1058 87.0869 77.0544C88.139 76.0031 88.9778 74.7671 89.5892 73.3321C90.2005 71.8972 90.5133 70.3628 90.5133 68.729V58.443V48.157C90.5275 46.4948 90.2147 44.9604 89.6034 43.5397Z" fill="white"/>
</g>
<path d="M79.2813 56.9086H69.9262V47.5603H67.0543V56.9086H57.6992V59.7785H67.0543V69.1268H69.9262V59.7785H79.2813V56.9086Z" fill="white"/>
</g>
<defs>
<filter id="filter0_d" x="0" y="0" width="136.815" height="136.815" filterUnits="userSpaceOnUse" color-interpolation-filters="sRGB">
<feFlood flood-opacity="0" result="BackgroundImageFix"/>
<feColorMatrix in="SourceAlpha" type="matrix" values="0 0 0 0 0 0 0 0 0 0 0 0 0 0 0 0 0 0 127 0"/>
<feOffset dy="10"/>
<feGaussianBlur stdDeviation="12"/>
<feColorMatrix type="matrix" values="0 0 0 0 0 0 0 0 0 0 0 0 0 0 0 0 0 0 0.1 0"/>
<feBlend mode="multiply" in2="BackgroundImageFix" result="effect1_dropShadow"/>
<feBlend mode="normal" in="SourceGraphic" in2="effect1_dropShadow" result="shape"/>
</filter>
</defs>
</svg>
