<svg width="97" height="97" viewBox="0 0 97 97" fill="none" xmlns="http://www.w3.org/2000/svg">
<g filter="url(#filter0_d)">
<circle cx="48.1164" cy="44.8835" r="43.6164" fill="white" stroke="#2EC4B6"/>
<path d="M49.9647 16.8176C49.4562 16.3519 48.863 16.1119 48.1991 16.1119C47.4647 16.1119 46.8573 16.3519 46.3771 16.8176C45.911 17.2834 45.6709 17.9044 45.6709 18.6384C45.6709 19.3723 45.911 19.9792 46.3771 20.4591C46.8432 20.9249 47.4647 21.1648 48.1991 21.1648C48.863 21.1648 49.4562 20.9249 49.9647 20.4591C50.4732 19.9933 50.7274 19.3723 50.7274 18.6384C50.7274 17.9044 50.4732 17.2975 49.9647 16.8176Z" fill="#606161"/>
<path opacity="0.25" d="M48.1991 73.655C47.4647 73.655 46.8573 73.4151 46.3771 72.9493C45.911 72.4835 45.6709 71.8625 45.6709 71.1286C45.6709 70.3947 45.911 69.7878 46.3771 69.3079C46.8432 68.8421 47.4647 68.6022 48.1991 68.6022C48.863 68.6022 49.4562 68.8421 49.9647 69.3079C50.4732 69.7878 50.7274 70.3947 50.7274 71.1286C50.7274 71.8625 50.4732 72.4835 49.9647 72.9493C49.4562 73.4151 48.863 73.655 48.1991 73.655ZM48.1991 69.2938C47.6483 69.2938 47.2246 69.4631 46.8856 69.8019C46.5466 70.1406 46.3771 70.5781 46.3771 71.1145C46.3771 71.6649 46.5466 72.0883 46.8856 72.4271C47.2246 72.7658 47.6624 72.9352 48.1991 72.9352C48.6935 72.9352 49.1172 72.7658 49.4845 72.4271C49.8517 72.0883 50.0212 71.6649 50.0212 71.1145C50.0212 70.564 49.8376 70.1406 49.4845 69.8019C49.1031 69.4631 48.6935 69.2938 48.1991 69.2938Z" fill="#606161"/>
<g opacity="0.25">
<path opacity="0.25" d="M69.1742 30.1132C68.5668 28.6877 67.7335 27.4597 66.6883 26.4153C65.6431 25.3708 64.4143 24.5381 62.9878 23.9312C61.5612 23.3243 60.0358 23.0138 58.4115 23.0138C56.7872 23.0138 55.2618 23.3243 53.8352 23.9312C52.5217 24.4958 51.3635 25.2579 50.3748 26.1895C50.3042 26.26 50.2194 26.3306 50.1347 26.4012C49.5273 27.0081 49.0047 27.6856 48.5386 28.4195C48.3974 28.6312 48.2985 28.8853 48.1714 29.1111C47.9878 29.4357 47.8042 29.7462 47.6488 30.0991C47.0414 31.5246 46.7307 33.0489 46.7307 34.672V43.3945V44.9047V55.1233C46.7307 56.3371 46.5047 57.4804 46.0386 58.5531C46.0245 58.5954 45.9963 58.6378 45.968 58.6801C45.516 59.6963 44.9087 60.5855 44.1601 61.3335C44.146 61.3476 44.146 61.3477 44.1319 61.3618C43.355 62.138 42.4369 62.7449 41.3776 63.2107C40.3042 63.6765 39.1601 63.9023 37.9454 63.9023C36.7307 63.9023 35.5866 63.6765 34.5132 63.2107C33.4398 62.7449 32.5076 62.1239 31.7307 61.3335C30.9539 60.5573 30.3183 59.6257 29.8522 58.5531C29.3861 57.4804 29.1601 56.3371 29.1601 55.1233V44.9047V34.6862C29.1601 33.4723 29.3861 32.3291 29.8522 31.2564C30.3183 30.1838 30.9398 29.2522 31.7307 28.476C32.5076 27.6997 33.4398 27.0645 34.5132 26.6129C35.5866 26.1471 36.7307 25.9213 37.9454 25.9213C39.1601 25.9213 40.3042 26.1471 41.3776 26.6129C42.4369 27.0786 43.355 27.6856 44.1319 28.4618C44.598 27.7279 45.1205 27.0504 45.7279 26.4435C45.8126 26.373 45.8974 26.3024 45.968 26.2177C44.9793 25.2862 43.8211 24.524 42.5076 23.9594C41.081 23.3525 39.5556 23.042 37.9313 23.042C36.307 23.042 34.7816 23.3525 33.355 23.9594C31.9285 24.5664 30.6997 25.3991 29.6545 26.4435C28.6093 27.488 27.79 28.7159 27.1686 30.1414C26.5612 31.5669 26.2505 33.0913 26.2505 34.7144V44.933V55.1516C26.2505 56.7747 26.5612 58.299 27.1686 59.7245C27.7759 61.15 28.6093 62.378 29.6545 63.4224C30.6997 64.4669 31.9285 65.2855 33.355 65.9065C34.7816 66.5134 36.2929 66.8239 37.9313 66.8239C39.5556 66.8239 41.081 66.5134 42.5076 65.9065C43.8211 65.3419 44.9652 64.5798 45.968 63.6482C46.0528 63.5777 46.1375 63.5071 46.2081 63.4365C46.8155 62.8296 47.3381 62.1521 47.8042 61.4182C47.9454 61.2065 48.0443 60.9525 48.1714 60.7266C48.355 60.402 48.5386 60.0915 48.694 59.7386C49.3013 58.3131 49.6121 56.7888 49.6121 55.1657V44.9471V43.4651V34.7285C49.6121 33.5147 49.8381 32.3714 50.3042 31.2988C50.3183 31.2564 50.3465 31.2282 50.3606 31.1859C50.8126 30.1696 51.42 29.2663 52.1686 28.5183C52.1686 28.5042 52.1827 28.5042 52.1968 28.5042C52.9736 27.7279 53.8917 27.121 54.951 26.6552C56.0245 26.1895 57.1686 25.9636 58.3833 25.9636C59.5979 25.9636 60.742 26.1895 61.8155 26.6552C62.8889 27.121 63.8211 27.742 64.5979 28.5183C65.3748 29.2946 66.0104 30.2261 66.4623 31.2988C66.9284 32.3714 67.1544 33.5147 67.1544 34.7285V44.9471V55.1657C67.1544 56.3795 66.9143 57.5227 66.4623 58.5954C65.9962 59.6681 65.3748 60.5996 64.5979 61.3759C63.807 62.1663 62.8889 62.7873 61.8155 63.253C60.742 63.7188 59.5979 63.9446 58.3833 63.9446C57.1686 63.9446 56.0104 63.7188 54.951 63.253C53.8917 62.7873 52.9736 62.1804 52.1968 61.4041C51.7307 62.138 51.2081 62.8155 50.6008 63.4224C50.5301 63.493 50.4454 63.5636 50.3606 63.6341C51.3493 64.5798 52.5075 65.3278 53.8211 65.8924C55.2477 66.4993 56.7731 66.8098 58.3974 66.8098C60.0217 66.8098 61.5471 66.4993 62.9736 65.8924C64.4002 65.2855 65.629 64.4528 66.6742 63.4083C67.7194 62.3639 68.5527 61.1359 69.1601 59.7104C69.7674 58.2849 70.0782 56.7606 70.0782 55.1374V44.9189V34.7003C70.0923 33.0489 69.7815 31.5246 69.1742 30.1132Z" fill="#606161"/>
</g>
<path d="M58.9196 43.3946H49.6259V34.1075H46.7728V43.3946H37.479V46.2456H46.7728V55.5327H49.6259V46.2456H58.9196V43.3946Z" fill="#2EC4B6"/>
</g>
<defs>
<filter id="filter0_d" x="0" y="0.76709" width="96.2328" height="96.2328" filterUnits="userSpaceOnUse" color-interpolation-filters="sRGB">
<feFlood flood-opacity="0" result="BackgroundImageFix"/>
<feColorMatrix in="SourceAlpha" type="matrix" values="0 0 0 0 0 0 0 0 0 0 0 0 0 0 0 0 0 0 127 0"/>
<feOffset dy="4"/>
<feGaussianBlur stdDeviation="2"/>
<feColorMatrix type="matrix" values="0 0 0 0 0.235294 0 0 0 0 0.741176 0 0 0 0 0.698039 0 0 0 0.25 0"/>
<feBlend mode="normal" in2="BackgroundImageFix" result="effect1_dropShadow"/>
<feBlend mode="normal" in="SourceGraphic" in2="effect1_dropShadow" result="shape"/>
</filter>
</defs>
</svg>
