<svg width="97" height="97" viewBox="0 0 97 97" fill="none" xmlns="http://www.w3.org/2000/svg">
<g filter="url(#filter0_d)">
<circle cx="48.4075" cy="44.4075" r="43.9075" fill="white" stroke="#F37920"/>
<g opacity="0.25">
<path opacity="0.25" d="M29.3123 34.1331C29.3123 32.911 29.5398 31.76 30.0091 30.6799C30.4784 29.5999 31.1041 28.662 31.9005 27.8804C32.6826 27.0846 33.6212 26.4594 34.702 25.9904C35.7828 25.5215 36.9347 25.2941 38.1719 25.2941C39.3949 25.2941 40.5468 25.5215 41.6276 25.9904C42.6942 26.4594 43.6185 27.0704 44.4007 27.852C44.87 27.113 45.3962 26.4309 46.0077 25.8199C46.0788 25.7488 46.1783 25.6778 46.2494 25.6067C45.254 24.6688 44.0878 23.9014 42.7653 23.333C41.329 22.7219 39.7931 22.4093 38.1577 22.4093C36.5223 22.4093 34.9864 22.7219 33.5501 23.333C32.1138 23.9441 30.8766 24.7825 29.8242 25.8341C28.7719 26.8857 27.9471 28.122 27.3213 29.5573C26.7098 30.9926 26.397 32.5273 26.397 34.1616V44.4501H29.2838V34.1331H29.3123Z" fill="#606161"/>
</g>
<g opacity="0.25">
<path opacity="0.25" d="M67.6089 44.4216V54.7102C67.6089 55.9323 67.3814 57.0834 66.9121 58.1634C66.4428 59.2434 65.8171 60.1813 65.0349 60.9629C64.2528 61.7445 63.3142 62.3839 62.2334 62.8387C61.1526 63.3076 60.0007 63.535 58.7777 63.535C57.5547 63.535 56.3886 63.3076 55.322 62.8387C54.2554 62.3839 53.3311 61.7587 52.5489 60.9771C52.0796 61.7161 51.5535 62.3982 50.942 63.0092C50.8708 63.0803 50.7855 63.1513 50.7002 63.2224C51.6957 64.1745 52.8618 64.9277 54.1843 65.4961C55.6207 66.1072 57.1565 66.4198 58.7919 66.4198C60.4273 66.4198 61.9632 66.1072 63.3995 65.4961C64.8358 64.885 66.0731 64.0466 67.1254 62.995C68.1778 61.9434 69.0168 60.7071 69.6283 59.2718C70.2398 57.8365 70.5527 56.316 70.5527 54.6675V44.4216H67.6089Z" fill="#606161"/>
</g>
<g opacity="0.25">
<path opacity="0.25" d="M41.6275 62.8529C40.5467 63.3218 39.3948 63.5492 38.1718 63.5492C36.9488 63.5492 35.7827 63.3218 34.7019 62.8529C33.6211 62.3839 32.6825 61.7587 31.9004 60.9771C31.104 60.1955 30.4783 59.2576 30.009 58.1776C29.5397 57.0976 29.3121 55.9465 29.3121 54.7244V44.4216H26.4253V54.7102C26.4253 56.3444 26.7382 57.8791 27.3497 59.3144C27.9612 60.7497 28.8002 61.986 29.8525 63.0376C30.9049 64.0892 32.1421 64.9134 33.5784 65.5387C35.0147 66.1497 36.5506 66.4624 38.186 66.4624C39.8214 66.4624 41.3573 66.1497 42.7936 65.5387C43.6042 65.1976 44.3295 64.7713 45.0121 64.2882L43.8317 61.5455C43.1634 62.0571 42.4381 62.5118 41.6275 62.8529Z" fill="#606161"/>
</g>
<path d="M48.4679 20.5335C49.1363 20.5335 49.7336 20.2919 50.2455 19.8229C50.7575 19.354 51.0135 18.7287 51.0135 17.9898C51.0135 17.2508 50.7575 16.6255 50.2455 16.1566C49.7336 15.6876 49.1363 15.446 48.4679 15.446C47.7284 15.446 47.1169 15.6876 46.6334 16.1566C46.1641 16.6255 45.9224 17.2508 45.9224 17.9898C45.9224 18.7287 46.1641 19.3398 46.6334 19.8229C47.1027 20.2919 47.7284 20.5335 48.4679 20.5335Z" fill="#606161"/>
<path d="M48.4679 68.2815C47.7284 68.2815 47.1169 68.5231 46.6334 68.992C46.1641 69.461 45.9224 70.0863 45.9224 70.8252C45.9224 71.5642 46.1641 72.1752 46.6334 72.6584C47.1027 73.1273 47.7284 73.3689 48.4679 73.3689C49.1363 73.3689 49.7336 73.1273 50.2455 72.6584C50.7575 72.1894 51.0135 71.5642 51.0135 70.8252C51.0135 70.0863 50.7575 69.461 50.2455 68.992C49.7336 68.5231 49.1363 68.2815 48.4679 68.2815ZM49.7478 72.1468C49.378 72.5021 48.9514 72.6584 48.4537 72.6584C47.8991 72.6584 47.4724 72.4879 47.1311 72.1468C46.7898 71.8057 46.6192 71.3794 46.6192 70.8252C46.6192 70.271 46.7898 69.8447 47.1311 69.5036C47.4724 69.1626 47.9133 68.992 48.4537 68.992C48.9514 68.992 49.3638 69.1626 49.7478 69.5036C50.1175 69.8447 50.2882 70.271 50.2882 70.8252C50.3024 71.3652 50.1175 71.8057 49.7478 72.1468Z" fill="#606161"/>
<path d="M52.0234 24.4983C51.5399 24.8393 51.0848 25.1946 50.6724 25.5925C50.5871 25.6636 50.516 25.7346 50.4307 25.8057C49.8192 26.4167 49.293 27.0988 48.8237 27.8378C48.6815 28.051 48.582 28.3067 48.454 28.5341C48.2691 28.861 48.0842 29.1736 47.9278 29.5289C47.3163 30.9641 47.0034 32.4989 47.0034 34.1331V42.9153V44.4359V54.7244C47.0034 55.9465 46.7759 57.0976 46.3066 58.1776C46.2924 58.2202 46.2639 58.2629 46.2355 58.3055C45.7804 59.3287 45.1689 60.2239 44.4152 60.9771C44.401 60.9913 44.401 60.9913 44.3868 61.0055C44.2019 61.1903 44.0028 61.3608 43.8037 61.5313L44.9698 64.274C45.4107 63.9613 45.8373 63.6203 46.2355 63.2508C46.3208 63.1798 46.4061 63.1087 46.4772 63.0377C47.0888 62.4266 47.6149 61.7445 48.0842 61.0055C48.2264 60.7924 48.326 60.5366 48.454 60.3092C48.6388 59.9824 48.8237 59.6697 48.9801 59.3145C49.5916 57.8792 49.9045 56.3586 49.9045 54.7102V44.4217V42.9295V34.1331C49.9045 32.911 50.132 31.7599 50.6013 30.6799C50.6155 30.6373 50.644 30.6089 50.6582 30.5662C51.1133 29.5431 51.7248 28.6336 52.4785 27.8804C52.4927 27.8662 52.4927 27.8662 52.5069 27.8662C52.8767 27.4967 53.2891 27.1699 53.7157 26.8715L52.0234 24.4983Z" fill="#F37920"/>
<g opacity="0.25">
<path opacity="0.25" d="M69.5859 29.5288C68.9744 28.0935 68.1354 26.8572 67.083 25.8056C66.0307 24.754 64.7934 23.9298 63.3571 23.3046C61.9208 22.6935 60.3849 22.3809 58.7495 22.3809C57.1141 22.3809 55.5783 22.6935 54.1419 23.3046C53.374 23.6314 52.663 24.0293 52.0088 24.4983L53.7011 26.843C54.1846 26.5162 54.7108 26.2177 55.2654 25.9762C56.3462 25.5072 57.4981 25.2798 58.7211 25.2798C59.9441 25.2798 61.096 25.5072 62.1768 25.9762C63.2576 26.4451 64.1962 27.0704 64.9783 27.8662C65.7605 28.6478 66.4004 29.5857 66.8697 30.6657C67.339 31.7457 67.5665 32.8968 67.5665 34.1189V44.4074H70.4534V34.1189C70.4961 32.4989 70.1974 30.9641 69.5859 29.5288Z" fill="#606161"/>
</g>
</g>
<defs>
<filter id="filter0_d" x="0" y="0" width="96.8149" height="96.8149" filterUnits="userSpaceOnUse" color-interpolation-filters="sRGB">
<feFlood flood-opacity="0" result="BackgroundImageFix"/>
<feColorMatrix in="SourceAlpha" type="matrix" values="0 0 0 0 0 0 0 0 0 0 0 0 0 0 0 0 0 0 127 0"/>
<feOffset dy="4"/>
<feGaussianBlur stdDeviation="2"/>
<feColorMatrix type="matrix" values="0 0 0 0 0.952941 0 0 0 0 0.47451 0 0 0 0 0.12549 0 0 0 0.25 0"/>
<feBlend mode="normal" in2="BackgroundImageFix" result="effect1_dropShadow"/>
<feBlend mode="normal" in="SourceGraphic" in2="effect1_dropShadow" result="shape"/>
</filter>
</defs>
</svg>
