<svg width="97" height="96" viewBox="0 0 97 96" fill="none" xmlns="http://www.w3.org/2000/svg">
<g filter="url(#filter0_d)">
<circle cx="48.3101" cy="44" r="43.5" fill="#F37920" stroke="#F37920"/>
<g opacity="0.25">
<path opacity="0.25" d="M29.39 33.82C29.39 32.6091 29.6155 31.4686 30.0804 30.3985C30.5454 29.3284 31.1654 28.3991 31.9545 27.6247C32.7294 26.8362 33.6594 26.2166 34.7303 25.752C35.8012 25.2873 36.9425 25.062 38.1684 25.062C39.3802 25.062 40.5215 25.2873 41.5924 25.752C42.6491 26.2166 43.565 26.8221 44.34 27.5965C44.805 26.8643 45.3263 26.1885 45.9322 25.583C46.0027 25.5126 46.1013 25.4422 46.1718 25.3718C45.1854 24.4425 44.03 23.6822 42.7196 23.119C41.2965 22.5135 39.7747 22.2037 38.1543 22.2037C36.5339 22.2037 35.0121 22.5135 33.589 23.119C32.1658 23.7244 30.94 24.5551 29.8973 25.5971C28.8546 26.639 28.0373 27.864 27.4173 29.2861C26.8115 30.7082 26.5015 32.2289 26.5015 33.8482V44.0423H29.3618V33.82H29.39Z" fill="white"/>
</g>
<g opacity="0.25">
<path opacity="0.25" d="M67.3356 44.014V54.2082C67.3356 55.4191 67.1102 56.5596 66.6452 57.6297C66.1802 58.6998 65.5602 59.6291 64.7852 60.4035C64.0103 61.1779 63.0803 61.8115 62.0094 62.2621C60.9385 62.7268 59.7972 62.9521 58.5854 62.9521C57.3736 62.9521 56.2182 62.7268 55.1614 62.2621C54.1047 61.8115 53.1888 61.192 52.4138 60.4176C51.9488 61.1498 51.4275 61.8256 50.8216 62.4311C50.7511 62.5015 50.6666 62.5719 50.582 62.6423C51.5684 63.5857 52.7238 64.3319 54.0342 64.8951C55.4573 65.5006 56.9791 65.8104 58.5995 65.8104C60.2199 65.8104 61.7417 65.5006 63.1648 64.8951C64.588 64.2897 65.8138 63.4589 66.8565 62.417C67.8992 61.3751 68.7306 60.1501 69.3365 58.728C69.9424 57.3058 70.2523 55.7993 70.2523 54.1659V44.014H67.3356Z" fill="white"/>
</g>
<g opacity="0.25">
<path opacity="0.25" d="M41.592 62.2762C40.5211 62.7408 39.3798 62.9661 38.168 62.9661C36.9563 62.9661 35.8008 62.7408 34.73 62.2762C33.6591 61.8115 32.7291 61.192 31.9541 60.4176C31.1651 59.6432 30.5451 58.7139 30.0801 57.6438C29.6151 56.5737 29.3897 55.4331 29.3897 54.2222V44.014H26.5293V54.2082C26.5293 55.8274 26.8393 57.3481 27.4452 58.7702C28.0511 60.1923 28.8824 61.4173 29.9251 62.4592C30.9678 63.5012 32.1937 64.3178 33.6168 64.9373C35.0399 65.5428 36.5617 65.8526 38.1821 65.8526C39.8025 65.8526 41.3243 65.5428 42.7474 64.9373C43.5506 64.5994 44.2692 64.177 44.9455 63.6983L43.776 60.9808C43.1138 61.4877 42.3952 61.9382 41.592 62.2762Z" fill="white"/>
</g>
<path d="M48.3698 20.3451C49.0321 20.3451 49.6239 20.1057 50.1312 19.6411C50.6384 19.1764 50.892 18.5569 50.892 17.8247C50.892 17.0925 50.6384 16.473 50.1312 16.0083C49.6239 15.5437 49.0321 15.3043 48.3698 15.3043C47.6371 15.3043 47.0313 15.5437 46.5522 16.0083C46.0872 16.473 45.8477 17.0925 45.8477 17.8247C45.8477 18.5569 46.0872 19.1623 46.5522 19.6411C47.0172 20.1057 47.6371 20.3451 48.3698 20.3451Z" fill="white"/>
<path d="M48.3698 67.6549C47.6371 67.6549 47.0313 67.8943 46.5522 68.3589C46.0872 68.8236 45.8477 69.4431 45.8477 70.1753C45.8477 70.9075 46.0872 71.5129 46.5522 71.9916C47.0172 72.4563 47.6371 72.6957 48.3698 72.6957C49.0321 72.6957 49.6239 72.4563 50.1312 71.9916C50.6384 71.527 50.892 70.9075 50.892 70.1753C50.892 69.4431 50.6384 68.8236 50.1312 68.3589C49.6239 67.8943 49.0321 67.6549 48.3698 67.6549ZM49.638 71.4847C49.2716 71.8368 48.8489 71.9916 48.3558 71.9916C47.8062 71.9916 47.3835 71.8227 47.0453 71.4847C46.7072 71.1468 46.5381 70.7244 46.5381 70.1753C46.5381 69.6262 46.7072 69.2037 47.0453 68.8658C47.3835 68.5279 47.8203 68.3589 48.3558 68.3589C48.8489 68.3589 49.2575 68.5279 49.638 68.8658C50.0043 69.2037 50.1734 69.6262 50.1734 70.1753C50.1875 70.7103 50.0043 71.1468 49.638 71.4847Z" fill="white"/>
<path d="M51.8928 24.2734C51.4138 24.6114 50.9629 24.9634 50.5542 25.3576C50.4697 25.428 50.3992 25.4984 50.3147 25.5688C49.7088 26.1743 49.1875 26.8501 48.7225 27.5823C48.5816 27.7935 48.4829 28.0469 48.3561 28.2722C48.1729 28.5961 47.9898 28.9058 47.8348 29.2578C47.2289 30.68 46.9189 32.2006 46.9189 33.8199V42.5215V44.0281V54.2222C46.9189 55.4331 46.6934 56.5736 46.2285 57.6437C46.2144 57.686 46.1862 57.7282 46.158 57.7704C45.7071 58.7842 45.1012 59.6713 44.3544 60.4175C44.3403 60.4316 44.3403 60.4316 44.3262 60.4457C44.1431 60.6287 43.9458 60.7977 43.7485 60.9667L44.904 63.6842C45.3408 63.3744 45.7635 63.0365 46.158 62.6704C46.2425 62.6 46.3271 62.5296 46.3975 62.4592C47.0034 61.8537 47.5248 61.1779 47.9898 60.4457C48.1307 60.2345 48.2293 59.9811 48.3561 59.7558C48.5393 59.4319 48.7225 59.1222 48.8775 58.7702C49.4834 57.348 49.7934 55.8415 49.7934 54.2081V44.014V42.5356V33.8199C49.7934 32.609 50.0188 31.4685 50.4838 30.3984C50.4979 30.3561 50.5261 30.328 50.5401 30.2857C50.991 29.2719 51.5969 28.3708 52.3437 27.6245C52.3578 27.6105 52.3578 27.6105 52.3719 27.6105C52.7383 27.2444 53.1469 26.9205 53.5696 26.6248L51.8928 24.2734Z" fill="white"/>
<g opacity="0.25">
<path opacity="0.25" d="M69.2943 29.2579C68.6884 27.8358 67.857 26.6108 66.8143 25.5689C65.7716 24.5269 64.5458 23.7103 63.1226 23.0908C61.6995 22.4853 60.1777 22.1755 58.5573 22.1755C56.9369 22.1755 55.4151 22.4853 53.992 23.0908C53.2311 23.4146 52.5266 23.8089 51.8784 24.2735L53.5552 26.5968C54.0343 26.2729 54.5556 25.9772 55.1051 25.7378C56.176 25.2732 57.3173 25.0479 58.5291 25.0479C59.7409 25.0479 60.8822 25.2732 61.9531 25.7378C63.024 26.2025 63.954 26.822 64.7289 27.6105C65.5039 28.3849 66.138 29.3142 66.603 30.3843C67.068 31.4544 67.2934 32.595 67.2934 33.8059V44H70.1538V33.8059C70.1961 32.2007 69.9002 30.68 69.2943 29.2579Z" fill="white"/>
</g>
</g>
<defs>
<filter id="filter0_d" x="0.310059" y="0" width="96" height="96" filterUnits="userSpaceOnUse" color-interpolation-filters="sRGB">
<feFlood flood-opacity="0" result="BackgroundImageFix"/>
<feColorMatrix in="SourceAlpha" type="matrix" values="0 0 0 0 0 0 0 0 0 0 0 0 0 0 0 0 0 0 127 0"/>
<feOffset dy="4"/>
<feGaussianBlur stdDeviation="2"/>
<feColorMatrix type="matrix" values="0 0 0 0 0.952941 0 0 0 0 0.47451 0 0 0 0 0.12549 0 0 0 0.25 0"/>
<feBlend mode="normal" in2="BackgroundImageFix" result="effect1_dropShadow"/>
<feBlend mode="normal" in="SourceGraphic" in2="effect1_dropShadow" result="shape"/>
</filter>
</defs>
</svg>
