<svg width="136" height="135" viewBox="0 0 136 135" fill="none" xmlns="http://www.w3.org/2000/svg">
<g filter="url(#filter0_d)">
<circle cx="68.46" cy="57.5" r="43" fill="#9ECD43" stroke="#9ECD43"/>
<g opacity="0.25">
<path opacity="0.25" d="M50.2535 39.2857C49.2234 40.3152 48.4159 41.5255 47.8033 42.9305C47.2047 44.3356 46.8984 45.838 46.8984 47.4379V57.5098H49.7245V47.4379C49.7245 46.2415 49.9473 45.1146 50.4067 44.0574C50.8661 43.0001 51.4786 42.0819 52.2582 41.3168C52.8429 40.7325 53.4973 40.2456 54.2351 39.8422L52.9404 37.3103C51.938 37.8389 51.0471 38.4928 50.2535 39.2857Z" fill="white"/>
</g>
<g opacity="0.25">
<path opacity="0.25" d="M89.1638 42.9306C88.5652 41.5255 87.7438 40.3152 86.7136 39.2858C86.0036 38.5624 85.1823 37.9642 84.2913 37.4495L83.0244 40.0092C83.6509 40.3709 84.2078 40.8021 84.7089 41.303C85.4746 42.0681 86.101 42.9862 86.5465 44.0435C87.0059 45.1008 87.2287 46.2276 87.2287 47.424V57.4959H90.0548V47.424C90.0687 45.8242 89.7624 44.3357 89.1638 42.9306Z" fill="white"/>
</g>
<path opacity="0.25" d="M68.491 85.8475C67.7671 85.8475 67.1684 85.611 66.6951 85.1519C66.2357 84.6928 65.999 84.0807 65.999 83.3573C65.999 82.6339 66.2357 82.0357 66.6951 81.5628C67.1545 81.1037 67.7671 80.8672 68.491 80.8672C69.1453 80.8672 69.73 81.1037 70.2312 81.5628C70.7323 82.0357 70.9829 82.6339 70.9829 83.3573C70.9829 84.0807 70.7323 84.6928 70.2312 85.1519C69.73 85.611 69.1453 85.8475 68.491 85.8475ZM68.491 81.5488C67.948 81.5488 67.5304 81.7158 67.1963 82.0497C66.8622 82.3835 66.6951 82.8148 66.6951 83.3434C66.6951 83.886 66.8622 84.3033 67.1963 84.6372C67.5304 84.9711 67.962 85.138 68.491 85.138C68.9782 85.138 69.3959 84.9711 69.7578 84.6372C70.1198 84.3033 70.2868 83.886 70.2868 83.3434C70.2868 82.8148 70.1058 82.3835 69.7578 82.0497C69.3819 81.7158 68.9643 81.5488 68.491 81.5488Z" fill="white"/>
<g opacity="0.25">
<path opacity="0.25" d="M87.2295 57.4958V67.5678C87.2295 68.7642 87.0067 69.891 86.5473 70.9483C86.0879 72.0055 85.4754 72.9237 84.7097 73.6888C83.944 74.4679 83.0252 75.08 81.9671 75.5252C80.9091 75.9842 79.7815 76.2068 78.5842 76.2068C77.387 76.2068 76.2593 75.9842 75.2013 75.5252C74.1571 75.08 73.2522 74.4679 72.4866 73.7028C72.0271 74.4262 71.512 75.0939 70.9134 75.6921C70.8438 75.7616 70.7603 75.8312 70.6768 75.9008C71.6513 76.8189 72.7928 77.5701 74.0875 78.1266C75.4936 78.7248 76.9972 79.0309 78.5981 79.0309C80.1991 79.0309 81.7026 78.7248 83.1087 78.1266C84.5148 77.5284 85.7259 76.7076 86.7561 75.6782C87.7863 74.6487 88.6077 73.4384 89.2063 72.0334C89.805 70.6283 90.1112 69.1398 90.1112 67.526V57.4541H87.2295V57.4958Z" fill="white"/>
</g>
<g opacity="0.25">
<path opacity="0.25" d="M67.0297 68.2774C66.9601 69.2095 66.7373 70.1137 66.3754 70.9623C66.3615 71.004 66.3336 71.0458 66.3058 71.0875C65.8603 72.0891 65.2617 72.9656 64.5238 73.7029C64.5099 73.7168 64.5099 73.7168 64.496 73.7307C63.7303 74.4958 62.8254 75.094 61.7813 75.5531C60.7232 76.0122 59.5956 76.2348 58.3984 76.2348C57.2011 76.2348 56.0595 76.0122 55.0154 75.5531C53.9574 75.094 53.0386 74.4819 52.2729 73.7168C51.5072 72.9516 50.8807 72.0335 50.4213 70.9762C49.9619 69.9189 49.7391 68.7921 49.7391 67.5957V57.5238H46.9131V67.5957C46.9131 69.1955 47.2194 70.698 47.818 72.1031C48.4166 73.5081 49.238 74.7184 50.2682 75.7479C51.2984 76.7773 52.5095 77.5842 53.9156 78.1963C55.3217 78.7945 56.8252 79.1005 58.4262 79.1005C60.0272 79.1005 61.5307 78.7945 62.9368 78.1963C64.2315 77.6398 65.373 76.8886 66.3475 75.9704C66.4311 75.9009 66.5146 75.8313 66.5842 75.7618C67.1828 75.1636 67.6979 74.4958 68.1573 73.7724C68.2966 73.5638 68.394 73.3133 68.5193 73.0908C68.7003 72.7708 68.8813 72.4647 69.0344 72.117C69.5495 70.9206 69.8279 69.6546 69.8975 68.3191H67.0297V68.2774Z" fill="white"/>
</g>
<path d="M68.491 34.1107C69.1453 34.1107 69.73 33.8742 70.2312 33.4151C70.7323 32.956 70.9829 32.3439 70.9829 31.6205C70.9829 30.8971 70.7323 30.285 70.2312 29.8259C69.73 29.3669 69.1453 29.1304 68.491 29.1304C67.7671 29.1304 67.1684 29.3669 66.6951 29.8259C66.2357 30.285 65.999 30.8971 65.999 31.6205C65.999 32.3439 66.2357 32.9421 66.6951 33.4151C67.1545 33.8742 67.7671 34.1107 68.491 34.1107Z" fill="white"/>
<path d="M83.0667 36.8374C81.6606 36.2392 80.1571 35.9331 78.5561 35.9331C76.9552 35.9331 75.4517 36.2392 74.0456 36.8374C72.7509 37.3938 71.6093 38.145 70.6348 39.0632C70.5652 39.1327 70.4817 39.2023 70.3981 39.2719C69.7995 39.8701 69.2844 40.5378 68.825 41.2612C68.6858 41.4699 68.5883 41.7203 68.463 41.9429C68.3377 41.7203 68.2403 41.4838 68.1011 41.2612C67.6417 40.5378 67.1266 39.8701 66.528 39.2719C66.4583 39.2023 66.3748 39.1327 66.2913 39.0632C66.2356 39.0075 66.166 38.9658 66.1103 38.9102C65.1776 38.0615 64.1056 37.3521 62.8805 36.8374C61.8086 36.3783 60.6809 36.1 59.4837 35.9887C59.1217 35.9609 58.7458 35.9331 58.3699 35.9331C58.008 35.9331 57.6599 35.947 57.3258 35.9887C56.1146 36.0861 54.9592 36.3783 53.8733 36.8374C53.5531 36.9765 53.2329 37.1295 52.9266 37.2964L52.9405 37.3103C52.8431 37.366 52.7456 37.3938 52.6621 37.4494L53.929 40.0092C54.2631 39.8144 54.6111 39.6196 54.987 39.4527C55.7109 39.1466 56.4627 38.938 57.2562 38.8406C57.6182 38.7989 57.9941 38.7571 58.3839 38.7571C58.7597 38.7571 59.1217 38.785 59.4837 38.8267C60.2354 38.9241 60.9593 39.1049 61.6554 39.3971C61.6972 39.411 61.739 39.4249 61.7668 39.4388C61.7946 39.4527 61.8225 39.4666 61.8642 39.4805C62.8388 39.9118 63.7019 40.4961 64.4258 41.2055C64.4397 41.2195 64.4676 41.2473 64.4815 41.2612C64.4954 41.2751 64.4954 41.2751 64.5093 41.2751C65.2472 42.0124 65.8458 42.9028 66.2913 43.9044C66.3052 43.9461 66.333 43.9739 66.347 44.0157C66.8064 45.073 67.0291 46.1998 67.0291 47.3962V49.4551C66.8342 49.3577 66.6254 49.2464 66.4166 49.1629C65.2054 48.6482 63.9246 48.37 62.5743 48.3004L62.6299 51.1384C63.5627 51.2079 64.4676 51.4305 65.3029 51.7922C65.9293 52.0704 66.5001 52.4043 67.0291 52.7799V56.0074V56.0352V57.4959V67.5678C67.0291 67.8043 67.0152 68.0408 67.0013 68.2773H69.8274C69.8413 68.0408 69.8552 67.8043 69.8552 67.5678V61.4189C70.3007 61.2937 70.7323 61.1546 71.1499 60.9738C72.4446 60.4173 73.5862 59.6661 74.5607 58.7479C74.4771 58.6784 74.3936 58.6088 74.324 58.5254C73.7254 57.9272 73.2103 57.2594 72.7509 56.536C71.9852 57.3012 71.0803 57.8993 70.0362 58.3584C69.9805 58.3862 69.9109 58.4002 69.8552 58.428V57.4959V56.0352V56.0074V47.4101C69.8552 46.2137 70.078 45.0869 70.5374 44.0296C70.5513 43.9879 70.5791 43.96 70.593 43.9183C71.0385 42.9167 71.6372 42.0263 72.375 41.289C72.3889 41.2751 72.3889 41.2751 72.4028 41.2751C73.1685 40.51 74.0734 39.9118 75.1175 39.4527C76.1756 38.9936 77.3032 38.771 78.5005 38.771C79.6977 38.771 80.8253 38.9936 81.8834 39.4527C82.2592 39.6196 82.6073 39.8005 82.9414 40.0092L84.2083 37.4494C83.902 37.2269 83.4983 37.0182 83.0667 36.8374Z" fill="white"/>
</g>
<defs>
<filter id="filter0_d" x="0.959961" y="0" width="135" height="135" filterUnits="userSpaceOnUse" color-interpolation-filters="sRGB">
<feFlood flood-opacity="0" result="BackgroundImageFix"/>
<feColorMatrix in="SourceAlpha" type="matrix" values="0 0 0 0 0 0 0 0 0 0 0 0 0 0 0 0 0 0 127 0"/>
<feOffset dy="10"/>
<feGaussianBlur stdDeviation="12"/>
<feColorMatrix type="matrix" values="0 0 0 0 0 0 0 0 0 0 0 0 0 0 0 0 0 0 0.1 0"/>
<feBlend mode="multiply" in2="BackgroundImageFix" result="effect1_dropShadow"/>
<feBlend mode="normal" in="SourceGraphic" in2="effect1_dropShadow" result="shape"/>
</filter>
</defs>
</svg>
