<svg width="98" height="97" viewBox="0 0 98 97" fill="none" xmlns="http://www.w3.org/2000/svg">
<g filter="url(#filter0_d)">
<circle cx="49.0818" cy="44.1164" r="43.6164" fill="white" stroke="#9ECD43"/>
<g opacity="0.25">
<path opacity="0.25" d="M30.618 25.6441C29.5732 26.6881 28.7543 27.9155 28.1331 29.3405C27.5259 30.7655 27.2153 32.2892 27.2153 33.9117V44.1263H30.0815V33.9117C30.0815 32.6984 30.3074 31.5556 30.7733 30.4833C31.2392 29.411 31.8604 28.4799 32.6511 27.7039C33.2441 27.1114 33.9077 26.6176 34.656 26.2084L33.3429 23.6406C32.3263 24.1768 31.4228 24.8399 30.618 25.6441Z" fill="#606161"/>
</g>
<g opacity="0.25">
<path opacity="0.25" d="M70.0799 29.3405C69.4728 27.9156 68.6398 26.6881 67.595 25.6441C66.8749 24.9104 66.0419 24.3038 65.1383 23.7817L63.8535 26.3777C64.4889 26.7446 65.0536 27.1819 65.5619 27.6898C66.3384 28.4658 66.9737 29.397 67.4255 30.4692C67.8915 31.5415 68.1174 32.6843 68.1174 33.8976V44.1123H70.9835V33.8976C70.9976 32.2751 70.687 30.7655 70.0799 29.3405Z" fill="#606161"/>
</g>
<path opacity="0.25" d="M49.1137 72.8658C48.3795 72.8658 47.7724 72.626 47.2924 72.1604C46.8264 71.6948 46.5864 71.074 46.5864 70.3404C46.5864 69.6067 46.8264 69.0001 47.2924 68.5204C47.7583 68.0548 48.3795 67.8149 49.1137 67.8149C49.7773 67.8149 50.3703 68.0548 50.8785 68.5204C51.3868 69.0001 51.6409 69.6067 51.6409 70.3404C51.6409 71.074 51.3868 71.6948 50.8785 72.1604C50.3703 72.626 49.7773 72.8658 49.1137 72.8658ZM49.1137 68.5062C48.5631 68.5062 48.1395 68.6756 47.8006 69.0142C47.4618 69.3528 47.2924 69.7901 47.2924 70.3263C47.2924 70.8765 47.4618 71.2998 47.8006 71.6384C48.1395 71.977 48.5772 72.1463 49.1137 72.1463C49.6079 72.1463 50.0314 71.977 50.3985 71.6384C50.7656 71.2998 50.935 70.8765 50.935 70.3263C50.935 69.7901 50.7514 69.3528 50.3985 69.0142C50.0173 68.6756 49.5937 68.5062 49.1137 68.5062Z" fill="#606161"/>
<g opacity="0.25">
<path opacity="0.25" d="M68.1179 44.1124V54.327C68.1179 55.5404 67.8919 56.6832 67.426 57.7555C66.9601 58.8277 66.3389 59.7589 65.5624 60.5349C64.7858 61.3249 63.854 61.9457 62.7809 62.3972C61.7079 62.8628 60.5643 63.0885 59.3501 63.0885C58.1359 63.0885 56.9922 62.8628 55.9192 62.3972C54.8603 61.9457 53.9426 61.3249 53.166 60.549C52.7001 61.2826 52.1777 61.9598 51.5706 62.5665C51.5 62.637 51.4153 62.7076 51.3306 62.7781C52.3189 63.7093 53.4766 64.4712 54.7897 65.0355C56.2157 65.6422 57.7405 65.9526 59.3642 65.9526C60.9879 65.9526 62.5127 65.6422 63.9387 65.0355C65.3647 64.4288 66.593 63.5964 67.6378 62.5524C68.6826 61.5084 69.5156 60.2809 70.1227 58.8559C70.7298 57.431 71.0404 55.9213 71.0404 54.2847V44.0701H68.1179V44.1124Z" fill="#606161"/>
</g>
<g opacity="0.25">
<path opacity="0.25" d="M47.6307 55.0466C47.5601 55.9919 47.3342 56.9089 46.9671 57.7696C46.953 57.8119 46.9247 57.8542 46.8965 57.8965C46.4447 58.9124 45.8376 59.8012 45.0893 60.549C45.0752 60.5631 45.0752 60.5631 45.0611 60.5772C44.2845 61.3531 43.3668 61.9598 42.3079 62.4254C41.2348 62.891 40.0913 63.1167 38.877 63.1167C37.6628 63.1167 36.5051 62.891 35.4462 62.4254C34.3731 61.9598 33.4413 61.339 32.6648 60.5631C31.8882 59.7871 31.2529 58.8559 30.7869 57.7837C30.321 56.7114 30.0951 55.5686 30.0951 54.3553V44.1406H27.229V54.3553C27.229 55.9778 27.5396 57.5015 28.1467 58.9265C28.7538 60.3514 29.5868 61.5789 30.6316 62.6229C31.6764 63.667 32.9047 64.4853 34.3307 65.106C35.7567 65.7127 37.2816 66.0231 38.9053 66.0231C40.5289 66.0231 42.0537 65.7127 43.4797 65.106C44.7928 64.5417 45.9505 63.7798 46.9389 62.8487C47.0236 62.7781 47.1083 62.7076 47.1789 62.637C47.786 62.0304 48.3084 61.3532 48.7743 60.6195C48.9155 60.4079 49.0143 60.1539 49.1414 59.9282C49.325 59.6037 49.5085 59.2933 49.6638 58.9406C50.1862 57.7272 50.4686 56.4433 50.5392 55.0889H47.6307V55.0466Z" fill="#606161"/>
</g>
<path d="M49.1137 20.3957C49.7773 20.3957 50.3703 20.1559 50.8785 19.6903C51.3868 19.2247 51.6409 18.6039 51.6409 17.8703C51.6409 17.1366 51.3868 16.5159 50.8785 16.0503C50.3703 15.5847 49.7773 15.3448 49.1137 15.3448C48.3795 15.3448 47.7724 15.5847 47.2924 16.0503C46.8264 16.5159 46.5864 17.1366 46.5864 17.8703C46.5864 18.6039 46.8264 19.2106 47.2924 19.6903C47.7583 20.1559 48.3795 20.3957 49.1137 20.3957Z" fill="#606161"/>
<path d="M63.896 23.1611C62.47 22.5544 60.9452 22.244 59.3215 22.244C57.6978 22.244 56.173 22.5544 54.747 23.1611C53.434 23.7254 52.2762 24.4873 51.2879 25.4185C51.2173 25.489 51.1326 25.5595 51.0479 25.6301C50.4408 26.2368 49.9184 26.914 49.4525 27.6476C49.3113 27.8592 49.2125 28.1132 49.0854 28.3389C48.9583 28.1132 48.8595 27.8734 48.7183 27.6476C48.2524 26.914 47.73 26.2368 47.1229 25.6301C47.0523 25.5595 46.9676 25.489 46.8829 25.4185C46.8264 25.362 46.7558 25.3197 46.6993 25.2633C45.7534 24.4026 44.6662 23.6831 43.4238 23.1611C42.3366 22.6955 41.193 22.4133 39.9788 22.3004C39.6117 22.2722 39.2305 22.244 38.8493 22.244C38.4822 22.244 38.1292 22.2581 37.7903 22.3004C36.562 22.3992 35.3902 22.6955 34.2889 23.1611C33.9642 23.3022 33.6394 23.4574 33.3288 23.6267L33.3429 23.6408C33.2441 23.6972 33.1453 23.7254 33.0605 23.7818L34.3454 26.3778C34.6842 26.1803 35.0372 25.9828 35.4184 25.8135C36.1526 25.5031 36.915 25.2915 37.7197 25.1927C38.0868 25.1504 38.4681 25.1081 38.8634 25.1081C39.2446 25.1081 39.6117 25.1363 39.9788 25.1786C40.7412 25.2774 41.4754 25.4608 42.1813 25.7571C42.2237 25.7712 42.266 25.7853 42.2943 25.7994C42.3225 25.8135 42.3507 25.8276 42.3931 25.8417C43.3814 26.2791 44.2568 26.8716 44.9909 27.5912C45.005 27.6053 45.0333 27.6335 45.0474 27.6476C45.0615 27.6617 45.0615 27.6617 45.0757 27.6617C45.824 28.4095 46.4311 29.3124 46.8829 30.3283C46.897 30.3706 46.9252 30.3988 46.9393 30.4411C47.4053 31.5134 47.6312 32.6562 47.6312 33.8695V35.9576C47.4335 35.8588 47.2217 35.746 47.0099 35.6613C45.7816 35.1393 44.4827 34.8571 43.1132 34.7866L43.1696 37.6647C44.1156 37.7353 45.0333 37.961 45.8804 38.3279C46.5158 38.61 47.0947 38.9486 47.6312 39.3296V42.6028V42.631V44.1124V54.327C47.6312 54.5669 47.617 54.8067 47.6029 55.0466H50.469C50.4831 54.8067 50.4973 54.5669 50.4973 54.327V48.091C50.9491 47.964 51.3868 47.823 51.8103 47.6395C53.1234 47.0752 54.2811 46.3133 55.2694 45.3822C55.1847 45.3116 55.1 45.2411 55.0294 45.1564C54.4223 44.5497 53.8999 43.8725 53.434 43.1389C52.6574 43.9149 51.7397 44.5215 50.6808 44.9871C50.6243 45.0153 50.5537 45.0294 50.4973 45.0577V44.1124V42.631V42.6028V33.8836C50.4973 32.6703 50.7232 31.5275 51.1891 30.4552C51.2032 30.4129 51.2314 30.3847 51.2456 30.3424C51.6974 29.3265 52.3045 28.4236 53.0528 27.6758C53.0669 27.6617 53.0669 27.6617 53.081 27.6617C53.8575 26.8857 54.7753 26.2791 55.8342 25.8135C56.9072 25.3479 58.0508 25.1222 59.265 25.1222C60.4793 25.1222 61.6229 25.3479 62.6959 25.8135C63.0771 25.9828 63.4301 26.1662 63.7689 26.3778L65.0538 23.7818C64.7431 23.5561 64.3337 23.3445 63.896 23.1611Z" fill="#9ECD43"/>
</g>
<defs>
<filter id="filter0_d" x="0.965332" y="0" width="96.2328" height="96.2328" filterUnits="userSpaceOnUse" color-interpolation-filters="sRGB">
<feFlood flood-opacity="0" result="BackgroundImageFix"/>
<feColorMatrix in="SourceAlpha" type="matrix" values="0 0 0 0 0 0 0 0 0 0 0 0 0 0 0 0 0 0 127 0"/>
<feOffset dy="4"/>
<feGaussianBlur stdDeviation="2"/>
<feColorMatrix type="matrix" values="0 0 0 0 0.619608 0 0 0 0 0.803922 0 0 0 0 0.262745 0 0 0 0.25 0"/>
<feBlend mode="normal" in2="BackgroundImageFix" result="effect1_dropShadow"/>
<feBlend mode="normal" in="SourceGraphic" in2="effect1_dropShadow" result="shape"/>
</filter>
</defs>
</svg>
