<svg width="541" height="335" viewBox="0 0 541 335" fill="none" xmlns="http://www.w3.org/2000/svg">
<g clip-path="url(#clip0)">
<path d="M393.355 37.084H274.761V293.074H393.355V37.084Z" fill="#DCEEFF"/>
<path d="M383.203 48.3767H288.855V293.074H383.203V48.3767Z" fill="#CCE3FF"/>
<path d="M370.797 60.8013H301.258V96.3099H370.797V60.8013Z" fill="#DCEEFF"/>
<path d="M370.797 246.462H301.258V281.971H370.797V246.462Z" fill="#DCEEFF"/>
<path d="M329.732 106.547H301.258V238.253H329.732V106.547Z" fill="#DCEEFF"/>
<path d="M370.8 106.547H342.327V238.253H370.8V106.547Z" fill="#DCEEFF"/>
<path d="M295.556 160.668H308.307" stroke="#B6D4FF" stroke-width="9" stroke-miterlimit="10"/>
<path d="M295.556 164.274C297.545 164.274 299.157 162.66 299.157 160.668C299.157 158.677 297.545 157.062 295.556 157.062C293.567 157.062 291.955 158.677 291.955 160.668C291.955 162.66 293.567 164.274 295.556 164.274Z" fill="#B6D4FF"/>
<path d="M295.556 176.983C297.545 176.983 299.157 175.369 299.157 173.377C299.157 171.386 297.545 169.771 295.556 169.771C293.567 169.771 291.955 171.386 291.955 173.377C291.955 175.369 293.567 176.983 295.556 176.983Z" fill="#B6D4FF"/>
<path d="M397.206 37.084H393.352V292.563H397.206V37.084Z" fill="#B6D4FF"/>
<path d="M288.855 48.3767H285.001V293.074H288.855V48.3767Z" fill="#B6D4FF"/>
<path d="M426.15 294.389L441.515 103.525" stroke="#CCE3FF" stroke-width="18" stroke-miterlimit="10"/>
<path d="M503.407 294.389L488.042 103.525" stroke="#CCE3FF" stroke-width="18" stroke-miterlimit="10"/>
<path d="M431.47 111.622H496.337" stroke="#CCE3FF" stroke-width="18" stroke-miterlimit="10"/>
<path d="M427.066 153.41H500.741" stroke="#CCE3FF" stroke-width="18" stroke-miterlimit="10"/>
<path d="M423.588 203.478H504.216" stroke="#CCE3FF" stroke-width="18" stroke-miterlimit="10"/>
<path d="M417.669 248.652H510.138" stroke="#CCE3FF" stroke-width="18" stroke-miterlimit="10"/>
<path d="M477.92 150.437H456.606C455.641 150.437 454.859 151.22 454.859 152.186V185.753C454.859 186.719 455.641 187.502 456.606 187.502H477.92C478.885 187.502 479.667 186.719 479.667 185.753V152.186C479.667 151.22 478.885 150.437 477.92 150.437Z" fill="#CCE3FF"/>
<path d="M463.682 200.367H442.367C441.403 200.367 440.62 201.151 440.62 202.117V232.435C440.62 233.401 441.403 234.185 442.367 234.185H463.682C464.647 234.185 465.429 233.401 465.429 232.435V202.117C465.429 201.151 464.647 200.367 463.682 200.367Z" fill="#CCE3FF"/>
<path d="M420.653 294.389L436.018 103.525" stroke="#DCEEFF" stroke-width="30" stroke-miterlimit="10"/>
<path d="M497.91 294.389L482.544 103.525" stroke="#DCEEFF" stroke-width="30" stroke-miterlimit="10"/>
<path d="M426.889 111.622H491.755" stroke="#DCEEFF" stroke-width="18" stroke-miterlimit="10"/>
<path d="M422.485 153.41H496.16" stroke="#DCEEFF" stroke-width="18" stroke-miterlimit="10"/>
<path d="M419.006 203.478H499.635" stroke="#DCEEFF" stroke-width="18" stroke-miterlimit="10"/>
<path d="M413.088 248.652H505.557" stroke="#DCEEFF" stroke-width="18" stroke-miterlimit="10"/>
<path d="M438.837 200.367H461.767V222.011C461.767 222.258 461.719 222.503 461.624 222.731C461.53 222.959 461.391 223.166 461.217 223.341C461.043 223.516 460.835 223.654 460.608 223.749C460.38 223.843 460.135 223.892 459.889 223.892H438.84C438.342 223.892 437.864 223.694 437.512 223.341C437.159 222.988 436.962 222.51 436.962 222.011V202.249C436.962 201.75 437.159 201.272 437.511 200.919C437.862 200.567 438.339 200.368 438.837 200.367Z" fill="#ECF6FF"/>
<path d="M461.764 213.651H436.955V219.879H461.764V213.651Z" fill="#DCEEFF"/>
<path d="M463.596 200.367C463.11 200.367 462.644 200.561 462.301 200.905C461.957 201.249 461.764 201.716 461.764 202.203V200.367H463.596Z" fill="#ECF6FF"/>
<path d="M453.072 150.437H476.002V174.347C476.002 174.846 475.804 175.324 475.452 175.677C475.1 176.03 474.622 176.228 474.124 176.228H453.075C452.577 176.228 452.099 176.03 451.747 175.677C451.395 175.324 451.197 174.846 451.197 174.347V152.324C451.196 152.077 451.244 151.832 451.338 151.603C451.432 151.374 451.57 151.166 451.744 150.991C451.918 150.816 452.125 150.677 452.353 150.581C452.581 150.486 452.825 150.437 453.072 150.437Z" fill="#ECF6FF"/>
<path d="M476.002 168.97H451.194V171.824H476.002V168.97Z" fill="#DCEEFF"/>
<path d="M476.002 163.329H451.194V166.183H476.002V163.329Z" fill="#DCEEFF"/>
<path d="M477.835 150.437C477.326 150.462 476.847 150.687 476.504 151.064C476.16 151.442 475.98 151.94 476.002 152.45V150.437H477.835Z" fill="#ECF6FF"/>
<path d="M179.649 53.2859H194.233L190.305 66.2212H183.577L179.649 53.2859Z" fill="#DCEEFF"/>
<path d="M131.724 53.2859H146.307L142.38 66.2212H135.652L131.724 53.2859Z" fill="#DCEEFF"/>
<path d="M131.724 44.8408H146.307L142.38 57.7761H135.652L131.724 44.8408Z" fill="#DCEEFF"/>
<path d="M104.943 53.2859H119.523L115.598 66.2212H108.867L104.943 53.2859Z" fill="#DCEEFF"/>
<path d="M84.5991 53.2859H99.1825L95.2549 66.2212H88.5266L84.5991 53.2859Z" fill="#DCEEFF"/>
<path d="M194.669 63.866H65.4253V69.3044H194.669V63.866Z" fill="#DCEEFF"/>
<path d="M215.932 63.866H194.669V69.3044H215.932V63.866Z" fill="#CCE3FF"/>
<path d="M96.9285 69.3013L107.019 85.1607V69.3013H96.9285Z" fill="#B6D4FF"/>
<path d="M91.3425 69.3013L101.433 85.1607H107.019L96.9285 69.3013H91.3425Z" fill="#CCE3FF"/>
<path d="M170.951 69.3013L181.045 85.1607V69.3013H170.951Z" fill="#B6D4FF"/>
<path d="M165.365 69.3013L175.459 85.1607H181.045L170.951 69.3013H165.365Z" fill="#CCE3FF"/>
<path d="M121.655 8.33203C121.196 12.0339 119.403 15.4403 116.612 17.9104C113.821 20.3804 110.225 21.7437 106.5 21.7437C102.776 21.7437 99.1794 20.3804 96.3883 17.9104C93.5973 15.4403 91.8039 12.0339 91.3456 8.33203H121.655Z" fill="#ECF6FF"/>
<path d="M121.655 0C121.196 3.70184 119.403 7.1083 116.612 9.57833C113.821 12.0484 110.225 13.4117 106.5 13.4117C102.776 13.4117 99.1794 12.0484 96.3883 9.57833C93.5973 7.1083 91.8039 3.70184 91.3456 0H121.655Z" fill="#ECF6FF"/>
<path d="M154.984 9.99292C154.637 12.8762 153.247 15.5321 151.077 17.4587C148.907 19.3852 146.107 20.4491 143.208 20.4491C140.308 20.4491 137.508 19.3852 135.338 17.4587C133.169 15.5321 131.778 12.8762 131.431 9.99292H154.984Z" fill="#ECF6FF"/>
<path d="M194.669 18.126H65.4253V23.5644H194.669V18.126Z" fill="#DCEEFF"/>
<path d="M215.932 18.126H194.669V23.5644H215.932V18.126Z" fill="#CCE3FF"/>
<path d="M96.9285 23.5645L107.019 39.4208V23.5645H96.9285Z" fill="#B6D4FF"/>
<path d="M91.3425 23.5645L101.433 39.4208H107.019L96.9285 23.5645H91.3425Z" fill="#CCE3FF"/>
<path d="M170.951 23.5645L181.045 39.4208V23.5645H170.951Z" fill="#B6D4FF"/>
<path d="M165.365 23.5645L175.459 39.4208H181.045L170.951 23.5645H165.365Z" fill="#CCE3FF"/>
<path d="M184.2 91.5872H201.266L196.67 106.728H188.796L184.2 91.5872Z" fill="#DCEEFF"/>
<path d="M192.733 123.444C197.078 123.444 200.6 118.497 200.6 112.396C200.6 106.294 197.078 101.347 192.733 101.347C188.388 101.347 184.866 106.294 184.866 112.396C184.866 118.497 188.388 123.444 192.733 123.444Z" fill="#DCEEFF"/>
<path d="M180.284 125.117H166.999V106.97L165.038 102.703H181.405L180.284 106.97V125.117Z" fill="#DCEEFF"/>
<path d="M185.849 122.447H56.553V281.185H185.849V122.447Z" fill="#E6F4FF"/>
<path d="M63.9959 122.447H56.553V292.563H63.9959V122.447Z" fill="#E6F4FF"/>
<path d="M71.4419 281.185H63.999V292.563H71.4419V281.185Z" fill="#B6D4FF"/>
<path d="M116.759 281.185H109.316V292.563H116.759V281.185Z" fill="#B6D4FF"/>
<path d="M193.292 281.185H185.849V292.563H193.292V281.185Z" fill="#B6D4FF"/>
<path d="M223.723 281.185H216.28V292.563H223.723V281.185Z" fill="#C5E0FC"/>
<path d="M185.849 122.447H178.406V292.563H185.849V122.447Z" fill="#E6F4FF"/>
<path d="M231.166 281.185H223.723V292.722H231.166V281.185Z" fill="#B6D4FF"/>
<path d="M109.316 281.185H101.873V292.563H109.316V281.185Z" fill="#C5E0FC"/>
<path d="M178.406 231.891H63.999V273.498H178.406V231.891Z" fill="#CCE3FF"/>
<path d="M99.3932 231.891H63.999V273.498H99.3932V231.891Z" fill="#B6D4FF"/>
<path d="M178.406 180.99H63.999V222.598H178.406V180.99Z" fill="#CCE3FF"/>
<path d="M99.3932 180.99H63.999V222.598H99.3932V180.99Z" fill="#B6D4FF"/>
<path d="M178.406 130.087H63.999V171.695H178.406V130.087Z" fill="#CCE3FF"/>
<path d="M99.3932 130.087H63.999V171.695H99.3932V130.087Z" fill="#B6D4FF"/>
<path d="M231.166 122.447H185.849V281.185H231.166V122.447Z" fill="#B6D4FF"/>
<path d="M50.8541 117.65H183.152V122.443H55.6399C54.3707 122.443 53.1534 121.938 52.2559 121.04C51.3583 120.141 50.8541 118.922 50.8541 117.65Z" fill="#E6F4FF"/>
<path d="M183.152 117.65H237.454C237.454 118.922 236.95 120.141 236.053 121.04C235.155 121.938 233.938 122.443 232.669 122.443H183.152V117.65Z" fill="#B6D4FF"/>
<path d="M185.849 122.511H56.553V124.71H185.849V122.511Z" fill="#CCE3FF"/>
<path d="M86.233 249.986H80.0881V273.498H86.233V249.986Z" fill="#DCEEFF"/>
<path d="M80.0881 249.986H73.9432V273.498H80.0881V249.986Z" fill="#CCE3FF"/>
<path d="M92.3779 249.986H86.233V273.498H92.3779V249.986Z" fill="#CCE3FF"/>
<path d="M92.381 249.986H108.568C108.983 249.986 109.382 250.151 109.676 250.445C109.969 250.74 110.135 251.139 110.135 251.555V271.92C110.135 272.336 109.969 272.735 109.676 273.029C109.382 273.324 108.983 273.489 108.568 273.489H92.381V249.986Z" fill="#B6D4FF"/>
<path d="M95.0105 253.412V255.739H107.508V253.412H95.0105Z" fill="#CCE3FF"/>
<path d="M97.7959 257.003V259.331H104.723V257.003H97.7959Z" fill="#CCE3FF"/>
<path d="M99.0512 99.0535H72.5689V117.65H99.0512V99.0535Z" fill="#ECF6FF"/>
<path d="M118.576 99.0535H99.0542V117.65H118.576V99.0535Z" fill="#CCE3FF"/>
<path d="M80.9586 105.403H90.9119C91.6928 105.403 92.4416 105.714 92.9938 106.267C93.5459 106.82 93.8561 107.57 93.8561 108.352H78.0144C78.0144 107.57 78.3246 106.82 78.8767 106.267C79.4289 105.714 80.1777 105.403 80.9586 105.403Z" fill="#CCE3FF"/>
<path d="M132.13 99.0535H105.648V117.65H132.13V99.0535Z" fill="#ECF6FF"/>
<path d="M151.652 99.0535H132.13V117.65H151.652V99.0535Z" fill="#CCE3FF"/>
<path d="M114.035 105.403H123.997C124.778 105.403 125.527 105.714 126.079 106.267C126.631 106.82 126.941 107.57 126.941 108.352H111.094C111.094 107.57 111.403 106.821 111.955 106.268C112.506 105.715 113.254 105.404 114.035 105.403Z" fill="#CCE3FF"/>
<path d="M104.985 161.711C104.518 165.621 102.559 169.199 99.5184 171.695H80.1461C77.1056 169.198 75.1458 165.621 74.6762 161.711H104.985Z" fill="#DCEEFF"/>
<path d="M104.985 153.376C104.527 157.078 102.734 160.485 99.9425 162.955C97.1515 165.425 93.5553 166.788 89.8307 166.788C86.1062 166.788 82.51 165.425 79.719 162.955C76.928 160.485 75.1345 157.078 74.6762 153.376H104.985Z" fill="#DCEEFF"/>
<path d="M146.616 161.711C146.149 165.621 144.19 169.199 141.149 171.695H121.777C118.736 169.198 116.776 165.621 116.307 161.711H146.616Z" fill="#DCEEFF"/>
<path d="M146.616 153.376C146.158 157.078 144.364 160.485 141.573 162.955C138.782 165.425 135.186 166.788 131.461 166.788C127.737 166.788 124.141 165.425 121.35 162.955C118.559 160.485 116.765 157.078 116.307 153.376H146.616Z" fill="#DCEEFF"/>
<path d="M88.2181 207.112C88.2181 213.012 87.589 218.411 86.5414 222.598H75.565C74.5174 218.411 73.8882 213.012 73.8882 207.112" fill="#ECF6FF"/>
<path d="M87.6745 209.703C88.8701 209.939 89.9229 210.642 90.6013 211.655C91.2798 212.669 91.5282 213.912 91.2921 215.109C91.056 216.306 90.3546 217.361 89.3423 218.04C88.3299 218.72 87.0895 218.968 85.894 218.732" stroke="#ECF6FF" stroke-width="8" stroke-miterlimit="10"/>
<path d="M110.208 207.112C110.208 213.012 109.579 218.411 108.531 222.598H97.5546C96.5071 218.411 95.8779 213.012 95.8779 207.112" fill="#ECF6FF"/>
<path d="M107.3 209.703C108.496 209.939 109.549 210.642 110.227 211.655C110.905 212.669 111.154 213.912 110.918 215.109C110.682 216.306 109.98 217.361 108.968 218.04C107.956 218.72 106.715 218.968 105.52 218.732" stroke="#ECF6FF" stroke-width="8" stroke-miterlimit="10"/>
<path d="M155.904 207.112C155.904 213.012 155.274 218.411 154.227 222.598H143.25C142.203 218.411 141.574 213.012 141.574 207.112" fill="#ECF6FF"/>
<path d="M142.536 209.703C141.944 209.82 141.38 210.052 140.878 210.388C140.376 210.723 139.945 211.153 139.609 211.655C139.273 212.157 139.039 212.721 138.92 213.313C138.802 213.906 138.801 214.516 138.918 215.109C139.035 215.702 139.267 216.266 139.602 216.769C139.936 217.272 140.367 217.704 140.868 218.04C141.369 218.377 141.932 218.611 142.523 218.73C143.115 218.848 143.724 218.849 144.316 218.732" stroke="#ECF6FF" stroke-width="8" stroke-miterlimit="10"/>
<path d="M537.946 295.09H3.05414" stroke="#DCEEFF" stroke-width="20" stroke-miterlimit="10" stroke-linecap="round"/>
<path d="M279.98 335.003C397.984 335.003 493.646 334.507 493.646 333.896C493.646 333.284 397.984 332.789 279.98 332.789C161.976 332.789 66.314 333.284 66.314 333.896C66.314 334.507 161.976 335.003 279.98 335.003Z" fill="#AFB3C6"/>
<path d="M421.569 228.324H108.638V238.739H421.569V228.324Z" fill="#6B7277"/>
<path d="M421.566 238.739H461.599V228.324H421.566V238.739Z" fill="#2B2A38"/>
<path d="M454.284 333.593H459.99L433.495 238.739H427.787L454.284 333.593Z" fill="#2B2A38"/>
<path d="M417.644 333.593H423.349L396.855 238.739H391.15L417.644 333.593Z" fill="#6B7277"/>
<path d="M111.619 333.593H105.914L132.408 238.739H138.116L111.619 333.593Z" fill="#6B7277"/>
<path d="M148.259 333.593H142.551L169.048 238.739H174.753L148.259 333.593Z" fill="#2B2A38"/>
<path d="M181.94 92.4253C181.94 87.4352 177.901 83.3899 172.918 83.3899C167.935 83.3899 163.896 87.4352 163.896 92.4253V200.184C163.896 205.174 167.935 209.219 172.918 209.219C177.901 209.219 181.94 205.174 181.94 200.184V92.4253Z" fill="#2EC4B6"/>
<path d="M133.175 90.6667H133.172C128.903 90.6667 125.442 94.1328 125.442 98.4084V137.991C125.442 142.267 128.903 145.733 133.172 145.733H133.175C137.444 145.733 140.905 142.267 140.905 137.991V98.4084C140.905 94.1328 137.444 90.6667 133.175 90.6667Z" fill="#2EC4B6"/>
<path d="M125.442 137.988V137.991C125.442 142.267 128.903 145.733 133.172 145.733H170.566C174.835 145.733 178.296 142.267 178.296 137.991V137.988C178.296 133.712 174.835 130.246 170.566 130.246H133.172C128.903 130.246 125.442 133.712 125.442 137.988Z" fill="#2EC4B6"/>
<path d="M195.912 194.773V215.169C195.901 218.654 194.514 221.992 192.053 224.456C189.593 226.921 186.259 228.31 182.78 228.321H162.174C158.694 228.31 155.36 226.921 152.9 224.456C150.439 221.992 149.052 218.654 149.041 215.169V194.773H195.912Z" fill="#F47803"/>
<path d="M178.342 123.56L185.275 118.305" stroke="#32446D" stroke-width="5" stroke-miterlimit="10"/>
<path d="M130.551 148.932L137.481 143.674" stroke="#32446D" stroke-width="5" stroke-miterlimit="10"/>
<path d="M178.858 167.168L185.788 161.91" stroke="#32446D" stroke-width="5" stroke-miterlimit="10"/>
<path d="M171.287 188.035L178.217 182.777" stroke="#32446D" stroke-width="5" stroke-miterlimit="10"/>
<path d="M167.824 103.103L162.711 96.885" stroke="#32446D" stroke-width="5" stroke-miterlimit="10"/>
<path d="M153.411 132.736L148.299 126.518" stroke="#32446D" stroke-width="5" stroke-miterlimit="10"/>
<path d="M166.449 180.406L161.34 174.188" stroke="#32446D" stroke-width="5" stroke-miterlimit="10"/>
<path d="M177.426 91.2938L183.171 85.7483" stroke="#32446D" stroke-width="5" stroke-miterlimit="10"/>
<path d="M137.496 117.045L143.241 111.5" stroke="#32446D" stroke-width="5" stroke-miterlimit="10"/>
<path d="M171.883 123.224L165.478 119.272" stroke="#32446D" stroke-width="5" stroke-miterlimit="10"/>
<path d="M167.228 154.016L159.403 150.893" stroke="#32446D" stroke-width="5" stroke-miterlimit="10"/>
<path d="M129.354 106.508L121.89 101.271" stroke="#32446D" stroke-width="5" stroke-miterlimit="10"/>
<path d="M174.24 109.242L179.814 104.719" stroke="white" stroke-width="5" stroke-miterlimit="10"/>
<path d="M135.044 129.625L129.69 123.575" stroke="white" stroke-width="5" stroke-miterlimit="10"/>
<path d="M172.475 146.302L177.029 139.481" stroke="white" stroke-width="5" stroke-miterlimit="10"/>
<path d="M195.912 212.538L184.194 206.418L172.475 212.538L160.756 206.418L149.038 212.538" stroke="#B6D4FF" stroke-width="5" stroke-miterlimit="10"/>
<path d="M160.564 217.573C161.62 217.573 162.476 216.716 162.476 215.658C162.476 214.601 161.62 213.743 160.564 213.743C159.508 213.743 158.652 214.601 158.652 215.658C158.652 216.716 159.508 217.573 160.564 217.573Z" fill="#B6D4FF"/>
<path d="M183.849 217.573C184.905 217.573 185.761 216.716 185.761 215.658C185.761 214.601 184.905 213.743 183.849 213.743C182.793 213.743 181.937 214.601 181.937 215.658C181.937 216.716 182.793 217.573 183.849 217.573Z" fill="#B6D4FF"/>
<path d="M172.475 206.466C173.531 206.466 174.387 205.609 174.387 204.552C174.387 203.494 173.531 202.637 172.475 202.637C171.419 202.637 170.563 203.494 170.563 204.552C170.563 205.609 171.419 206.466 172.475 206.466Z" fill="#B6D4FF"/>
<path d="M195.912 202.637V206.464C195.655 206.474 195.398 206.432 195.158 206.34C194.917 206.249 194.697 206.11 194.511 205.931C194.326 205.752 194.178 205.538 194.077 205.301C193.976 205.063 193.924 204.808 193.924 204.55C193.924 204.292 193.976 204.037 194.077 203.8C194.178 203.563 194.326 203.348 194.511 203.17C194.697 202.991 194.917 202.852 195.158 202.76C195.398 202.669 195.655 202.627 195.912 202.637Z" fill="#B6D4FF"/>
<path d="M150.95 204.552C150.95 204.803 150.9 205.052 150.804 205.284C150.708 205.516 150.567 205.727 150.389 205.905C150.212 206.082 150.001 206.223 149.769 206.319C149.537 206.415 149.289 206.464 149.038 206.463V202.637C149.545 202.637 150.031 202.839 150.39 203.198C150.748 203.557 150.95 204.044 150.95 204.552Z" fill="#B6D4FF"/>
<path d="M405.211 92.4253C405.211 87.4352 401.172 83.3899 396.189 83.3899C391.206 83.3899 387.167 87.4352 387.167 92.4253V200.184C387.167 205.174 391.206 209.219 396.189 209.219C401.172 209.219 405.211 205.174 405.211 200.184V92.4253Z" fill="#2EC4B6"/>
<path d="M356.446 96.7842H356.443C352.174 96.7842 348.713 100.25 348.713 104.526V144.109C348.713 148.384 352.174 151.85 356.443 151.85H356.446C360.715 151.85 364.176 148.384 364.176 144.109V104.526C364.176 100.25 360.715 96.7842 356.446 96.7842Z" fill="#2EC4B6"/>
<path d="M348.713 144.108V144.111C348.713 148.387 352.174 151.853 356.443 151.853H393.837C398.107 151.853 401.567 148.387 401.567 144.111V144.108C401.567 139.833 398.107 136.367 393.837 136.367H356.443C352.174 136.367 348.713 139.833 348.713 144.108Z" fill="#2EC4B6"/>
<path d="M372.297 194.776H419.171V215.169C419.171 218.657 417.788 222.002 415.325 224.469C412.862 226.935 409.522 228.321 406.039 228.321H385.429C381.946 228.321 378.606 226.935 376.143 224.469C373.68 222.002 372.297 218.657 372.297 215.169V194.776Z" fill="#F47803"/>
<path d="M391.535 123.037L384.867 117.779" stroke="#32446D" stroke-width="5" stroke-miterlimit="10"/>
<path d="M376.49 137.967L369.823 132.712" stroke="#32446D" stroke-width="5" stroke-miterlimit="10"/>
<path d="M383.456 181.321L390.127 186.579" stroke="#32446D" stroke-width="5" stroke-miterlimit="10"/>
<path d="M382.501 157.738L389.171 162.993" stroke="#32446D" stroke-width="5" stroke-miterlimit="10"/>
<path d="M401.659 102.58L406.576 96.3589" stroke="#32446D" stroke-width="5" stroke-miterlimit="10"/>
<path d="M363.18 154.961L368.1 148.742" stroke="#32446D" stroke-width="5" stroke-miterlimit="10"/>
<path d="M408.906 145.613L403.275 153.337" stroke="#32446D" stroke-width="5" stroke-miterlimit="10"/>
<path d="M392.417 90.7707L386.889 85.2222" stroke="#32446D" stroke-width="5" stroke-miterlimit="10"/>
<path d="M350.527 117.091L344.999 111.542" stroke="#32446D" stroke-width="5" stroke-miterlimit="10"/>
<path d="M397.753 122.697L403.916 118.746" stroke="#32446D" stroke-width="5" stroke-miterlimit="10"/>
<path d="M408.842 174.821L401.58 181.147" stroke="#32446D" stroke-width="5" stroke-miterlimit="10"/>
<path d="M361.216 110.481L368.4 105.241" stroke="#32446D" stroke-width="5" stroke-miterlimit="10"/>
<path d="M395.484 108.716L390.121 104.192" stroke="white" stroke-width="5" stroke-miterlimit="10"/>
<path d="M352.885 129.671L358.04 123.618" stroke="white" stroke-width="5" stroke-miterlimit="10"/>
<path d="M393.611 173.304L398.767 167.251" stroke="white" stroke-width="5" stroke-miterlimit="10"/>
<path d="M397.185 145.779L392.802 138.955" stroke="white" stroke-width="5" stroke-miterlimit="10"/>
<path d="M392.063 204.94H384.028V212.988H392.063V204.94Z" fill="#B6D4FF"/>
<path d="M419.184 204.94H415.79V212.988H419.184V204.94Z" fill="#B6D4FF"/>
<path d="M409.61 208.964L403.928 203.273L398.246 208.964L403.928 214.654L409.61 208.964Z" fill="#B6D4FF"/>
<path d="M372.309 203.273L377.99 208.963L372.309 214.652" fill="#B6D4FF"/>
<path d="M245.178 316.201L245.093 324.567C245.093 324.567 253.305 325.79 256.152 333.59H234.125L235.723 324.193L236.663 316.042L245.178 316.201Z" fill="#0D0B6D"/>
<path d="M236.834 314.002L235.723 324.197L245.09 324.57L245.139 316.51L236.834 314.002Z" fill="#CF3E83"/>
<path d="M284.439 317.838L283.562 324.411C283.562 324.411 299.856 328.081 305.983 333.547L273.933 333.59L276.743 314.767L284.439 317.838Z" fill="#0D0B6D"/>
<path d="M276.572 316.198L275.316 324.151L283.569 324.414L284.308 318.957L276.572 316.198Z" fill="#CF3E83"/>
<path d="M248.562 120.147C261.584 120.147 272.14 109.574 272.14 96.5332C272.14 83.492 261.584 72.9199 248.562 72.9199C235.541 72.9199 224.984 83.492 224.984 96.5332C224.984 109.574 235.541 120.147 248.562 120.147Z" fill="#240040"/>
<path d="M287.298 318.159L272.726 318.113L287.249 245.196L252.105 197.076C252.105 197.076 268.677 235.099 265.103 250.066C262.761 259.89 248.501 319.248 248.501 319.248H233.82L242.24 245.263C242.24 245.263 228.191 210.168 224.988 198.208C221.564 185.404 224.022 176.247 224.022 176.247H266.685C266.685 176.247 278.615 187.111 287.093 201.594C301.447 226.116 310.304 233.842 309.342 246.395C308.053 263.426 287.298 318.159 287.298 318.159Z" fill="#2B2A38"/>
<path d="M263.787 81.7015C270.779 81.7015 276.446 76.0252 276.446 69.0231C276.446 62.021 270.779 56.3447 263.787 56.3447C256.796 56.3447 251.128 62.021 251.128 69.0231C251.128 76.0252 256.796 81.7015 263.787 81.7015Z" fill="#240040"/>
<path d="M225.007 98.161L224.959 129.238L272.111 129.312L272.16 98.2352L225.007 98.161Z" fill="#240040"/>
<path d="M282.066 153.496L266.676 162.718L264.587 149.198C264.587 149.198 269.199 149.067 267.412 152.563C263.961 159.356 263.558 160.326 265.58 169.236C265.913 170.716 266.82 176.295 266.82 176.295H224.139C224.139 176.295 225.107 169.422 231.337 158.289C232.308 156.551 235.365 151.128 235.365 151.128L221.564 151.722C221.564 151.722 222.379 132.235 231.588 124.783C237.015 120.394 240.958 120.263 251.003 120.278C260.47 120.278 261.89 120.654 266.114 124.187C274.919 131.568 282.066 153.496 282.066 153.496Z" fill="#FFBA08"/>
<path d="M255.452 134.593C249.039 134.593 244.812 131.871 242.931 126.496C241.822 123.34 240.924 120.174 240.915 120.143L240.689 119.351H241.51C241.51 119.351 242.24 119.351 243.251 119.351C244.5 119.351 246.263 119.333 247.573 119.26C247.707 119.26 247.845 119.26 247.979 119.26C250.923 119.26 254.17 120.997 254.307 121.073C254.445 121.15 256.848 122.493 258.928 125.698C260.513 128.145 260.876 130.552 259.924 132.314C259.133 133.773 257.557 134.578 255.486 134.581L255.452 134.593Z" fill="#E576C6"/>
<path d="M247.979 119.88C250.801 119.88 254.017 121.621 254.017 121.621C254.017 121.621 256.396 122.927 258.418 126.041C261.167 130.298 259.734 133.972 255.483 133.993H255.452C250.908 133.993 245.704 132.574 243.508 126.307C242.393 123.129 241.501 119.988 241.501 119.988C241.501 119.988 242.231 119.988 243.251 119.988C244.543 119.988 246.305 119.969 247.609 119.893C247.732 119.893 247.857 119.893 247.979 119.893V119.88ZM247.979 118.669C247.829 118.669 247.674 118.669 247.539 118.669C246.241 118.743 244.485 118.761 243.263 118.761C242.265 118.761 241.538 118.761 241.532 118.761L239.889 118.74L240.338 120.321C240.338 120.352 241.254 123.533 242.365 126.711C244.317 132.274 248.846 135.214 255.465 135.214H255.498C257.804 135.214 259.569 134.296 260.47 132.626C261.536 130.662 261.164 128.023 259.453 125.386C257.291 122.052 254.725 120.618 254.616 120.56C254.506 120.501 251.076 118.657 247.979 118.657V118.669Z" fill="#824F16"/>
<path d="M254.093 108.276C252.807 110.328 253.336 113.038 254.066 114.619C254.313 115.161 255.923 119.718 256.158 119.926C257.074 120.725 245.911 125.597 245.911 125.597L245.172 116.396C241.938 116.583 238.148 116.412 236.056 115.026C229.847 110.888 229.48 96.5454 229.581 95.8296L234.773 89.9936C234.773 89.9936 242.628 86.3629 243.822 87.9045C246.009 90.7308 251.125 103.379 254.817 101.935C254.817 101.935 254.35 98.0044 257.627 98.0075C260.07 98.0075 260.73 99.9742 260.73 101.106C260.751 104.932 255.819 105.504 254.093 108.276Z" fill="#9F616A"/>
<path d="M238.525 102.602C239.278 102.463 239.721 101.444 239.514 100.326C239.308 99.2077 238.53 98.4146 237.777 98.5541C237.024 98.6936 236.581 99.7129 236.788 100.831C236.994 101.949 237.772 102.742 238.525 102.602Z" fill="#0D0B6D"/>
<path d="M232.427 104.435C233.18 104.296 233.623 103.276 233.416 102.158C233.21 101.04 232.432 100.247 231.679 100.387C230.926 100.526 230.483 101.546 230.689 102.664C230.896 103.781 231.674 104.575 232.427 104.435Z" fill="#0D0B6D"/>
<path d="M238.148 88.3756C238.029 89.8948 237.657 91.3835 237.048 92.7801C236.972 92.9484 236.893 93.1258 236.807 93.2909C236.26 94.4027 235.56 95.4323 234.727 96.3496C233.635 97.5768 232.306 98.5691 230.82 99.2663C229.333 99.9635 227.721 100.351 226.081 100.406C225.91 100.406 225.742 100.406 225.571 100.406L225.956 95.6461C225.956 95.4963 225.974 95.3403 225.986 95.2026C226.412 89.5978 228.658 84.2866 232.382 80.0803C233.041 79.3388 233.746 78.639 234.492 77.9851C235.969 79.5108 237.051 81.376 237.641 83.4174C238.115 85.0245 238.287 86.7057 238.148 88.3756Z" fill="#240040"/>
<path d="M254.863 89.6512C254.863 93.0647 251.769 95.9368 247.557 96.8116C247.222 96.882 246.883 96.9401 246.534 96.9829C245.964 97.057 245.39 97.0938 244.815 97.093C239.272 97.093 234.782 93.7284 234.788 89.6236C234.789 89.2329 234.831 88.8433 234.913 88.4613C235.671 84.8949 239.828 82.1726 244.836 82.1787C250.334 82.1787 254.78 85.4699 254.86 89.5349C254.863 89.5747 254.863 89.6145 254.863 89.6512Z" fill="#240040"/>
<path d="M237.021 109.233C237.021 109.233 239.873 109.845 240.249 106.174" stroke="#1C295E" stroke-width="3" stroke-miterlimit="10"/>
<path d="M245.172 116.396C245.172 116.396 249.259 116.519 251.003 115.564L245.389 119.094L245.172 116.396Z" fill="#CF3E83"/>
<path d="M240.057 120.088C240.057 120.088 241.126 120.039 242.772 120.143C245.074 120.29 245.484 120.293 245.484 120.293L245.215 116.929L238.997 117.748L240.057 120.088Z" fill="#240040"/>
<path d="M272.142 322.003L288.304 321.98L288.298 317.857L272.136 317.879L272.142 322.003Z" fill="#2B2A38"/>
<path d="M232.531 321.997L249.265 321.976L249.549 317.85L232.812 317.874L232.531 321.997Z" fill="#2B2A38"/>
<path d="M253.318 110.787L272.11 110.816L272.08 129.707C272.077 132.14 271.108 134.473 269.387 136.191C267.666 137.909 265.334 138.872 262.904 138.869L253.274 138.853L253.318 110.787Z" fill="#240040"/>
<path d="M265.198 156.05C265.198 156.05 268.252 150.734 267.605 145.733" stroke="#FF9929" stroke-width="3" stroke-miterlimit="10"/>
<path d="M257.172 198.144L261.64 192.944L239.815 171.652L240.701 151.605L225.217 152.915C225.217 152.915 226.371 171.019 228.949 175.656C233.46 183.771 257.172 198.144 257.172 198.144Z" fill="#9F616A"/>
<path d="M225.061 151.605L240.826 150.899L240.649 152.722L225.528 156.891L225.061 151.605Z" fill="#BC3579"/>
<path d="M282.692 179.385C306.091 179.385 325.059 157.107 325.059 129.625C325.059 102.144 306.091 79.8662 282.692 79.8662C259.294 79.8662 240.325 102.144 240.325 129.625C240.325 157.107 259.294 179.385 282.692 179.385Z" fill="#2EC4B6"/>
<path d="M259.829 171.799H305.005V190.977C305.005 194.465 303.622 197.811 301.159 200.277C298.696 202.744 295.356 204.13 291.873 204.13H272.968C269.485 204.13 266.144 202.744 263.681 200.277C261.219 197.811 259.835 194.465 259.835 190.977V171.799H259.829Z" fill="#405FD3"/>
<path d="M259.026 191.262L266.02 191.803C267.056 192.08 268.076 192.418 269.074 192.812C270.665 193.449 271.27 193.856 274.217 194.018C276.272 194.128 275.054 195.929 273.777 196.367C272.5 196.804 267.892 195.033 267.809 196.575C267.727 198.116 269.251 201.661 272.937 203.178C273.435 203.383 273.6 205.766 268.472 206.295C265.943 206.558 261.97 205.286 260.986 203.806C260.986 203.806 258.109 199.704 257.016 197.994C255.923 196.284 259.185 194.721 259.026 191.262Z" fill="#9F616A"/>
<path d="M281.049 83.4724L282.5 73.9414" stroke="#32446D" stroke-width="5" stroke-miterlimit="10"/>
<path d="M292.083 133.632L302.241 129.534" stroke="#32446D" stroke-width="5" stroke-miterlimit="10"/>
<path d="M273.606 112.377L280.954 105.098" stroke="#32446D" stroke-width="5" stroke-miterlimit="10"/>
<path d="M248.657 139.285L238.294 141.484" stroke="#32446D" stroke-width="5" stroke-miterlimit="10"/>
<path d="M265.207 119.884L256.094 112.475" stroke="#32446D" stroke-width="5" stroke-miterlimit="10"/>
<path d="M318.166 110.591L324.384 102.531" stroke="#32446D" stroke-width="5" stroke-miterlimit="10"/>
<path d="M313.923 153.043L324.5 156.686" stroke="#32446D" stroke-width="5" stroke-miterlimit="10"/>
<path d="M263.265 91.7066L254.579 82.1206" stroke="white" stroke-width="5" stroke-miterlimit="10"/>
<path d="M295.819 110.426L303.005 102.843" stroke="white" stroke-width="5" stroke-miterlimit="10"/>
<path d="M297.388 156.686H286.95" stroke="white" stroke-width="5" stroke-miterlimit="10"/>
<path d="M236.349 120.098L246.65 123.575" stroke="white" stroke-width="5" stroke-miterlimit="10"/>
<path d="M268.026 143.552L267.373 153.052" stroke="white" stroke-width="5" stroke-miterlimit="10"/>
<path d="M257.263 161.347L249.537 166.896" stroke="white" stroke-width="5" stroke-miterlimit="10"/>
<path d="M259.829 178.938H305.005" stroke="#B6D4FF" stroke-width="9" stroke-miterlimit="10"/>
<path d="M259.829 187.056H305.005" stroke="#B6D4FF" stroke-width="9" stroke-miterlimit="10"/>
<path d="M295.907 186.408C295.696 189.717 303.543 194.691 304.88 194.773C306.218 194.856 307.446 192.244 307.653 188.931C307.861 185.618 306.963 182.872 305.641 182.786C304.318 182.7 296.118 183.098 295.907 186.408Z" fill="#9F616A"/>
<path d="M324.872 201.771H346.288V223.761C346.288 224.971 345.808 226.132 344.953 226.988C344.099 227.843 342.94 228.324 341.731 228.324H329.429C328.221 228.324 327.062 227.843 326.207 226.988C325.353 226.132 324.872 224.971 324.872 223.761V201.771Z" fill="#CEEE8F"/>
<path d="M325.437 220.843C323.723 220.843 322.08 220.161 320.868 218.947C319.656 217.733 318.975 216.087 318.975 214.37C318.975 212.654 319.656 211.008 320.868 209.794C322.08 208.58 323.723 207.898 325.437 207.898" stroke="#CEEE8F" stroke-width="7" stroke-miterlimit="10"/>
<mask id="path-200-inside-1" fill="white">
<path d="M362.334 207.92C359.891 210.367 356.174 210.587 354.015 208.424C351.856 206.262 352.081 202.533 354.519 200.092"/>
</mask>
<path d="M362.334 207.92C359.891 210.367 356.174 210.587 354.015 208.424C351.856 206.262 352.081 202.533 354.519 200.092" fill="#CEEE8F"/>
<path d="M361.627 207.213C359.491 209.351 356.413 209.411 354.722 207.718L353.307 209.131C355.935 211.762 360.29 211.382 363.042 208.626L361.627 207.213ZM354.722 207.718C353.031 206.024 353.096 202.932 355.226 200.799L353.811 199.386C351.067 202.134 350.68 206.5 353.307 209.131L354.722 207.718Z" fill="#CEEE8F" mask="url(#path-200-inside-1)"/>
<path d="M343.291 221.792L340.667 219.164L354.555 205.255L357.179 207.883L343.291 221.792Z" fill="#CEEE8F" stroke="#CEEE8F"/>
<path d="M340.253 216.282C340.617 217.159 340.619 218.145 340.258 219.023C339.896 219.901 339.201 220.6 338.326 220.965C337.45 221.33 336.466 221.332 335.589 220.97C334.712 220.608 334.014 219.912 333.65 219.035C333.285 219.4 332.791 219.605 332.276 219.605C331.76 219.605 331.266 219.4 330.901 219.035C330.537 218.67 330.332 218.175 330.332 217.658C330.332 217.142 330.537 216.647 330.901 216.282C330.401 216.262 329.929 216.049 329.582 215.688C329.235 215.327 329.042 214.845 329.042 214.344C329.042 213.843 329.235 213.362 329.582 213.001C329.929 212.639 330.401 212.427 330.901 212.407C330.537 211.53 330.535 210.544 330.896 209.665C331.258 208.787 331.953 208.089 332.828 207.724C333.704 207.359 334.689 207.357 335.565 207.719C336.442 208.081 337.14 208.777 337.504 209.654C337.869 209.289 338.363 209.084 338.879 209.084C339.394 209.084 339.888 209.289 340.253 209.654C340.617 210.019 340.822 210.514 340.822 211.03C340.822 211.547 340.617 212.042 340.253 212.407C340.753 212.427 341.226 212.639 341.572 213.001C341.919 213.362 342.112 213.843 342.112 214.344C342.112 214.845 341.919 215.327 341.572 215.688C341.226 216.049 340.753 216.262 340.253 216.282Z" fill="#FFC000"/>
</g>
<defs>
<clipPath id="clip0">
<rect width="541" height="335" fill="white"/>
</clipPath>
</defs>
</svg>
