<svg width="541" height="306" viewBox="0 0 541 306" fill="none" xmlns="http://www.w3.org/2000/svg">
<path d="M393.354 37.0839H274.76V293.074H393.354V37.0839Z" fill="#DCEEFF"/>
<path d="M383.203 48.3767H288.855V293.074H383.203V48.3767Z" fill="#CCE3FF"/>
<path d="M370.797 60.8012H301.258V96.3098H370.797V60.8012Z" fill="#DCEEFF"/>
<path d="M370.797 246.462H301.258V281.971H370.797V246.462Z" fill="#DCEEFF"/>
<path d="M329.731 106.547H301.258V238.253H329.731V106.547Z" fill="#DCEEFF"/>
<path d="M370.8 106.547H342.326V238.253H370.8V106.547Z" fill="#DCEEFF"/>
<path d="M295.555 160.668H308.306" stroke="#B6D4FF" stroke-width="9" stroke-miterlimit="10"/>
<path d="M295.556 164.275C297.545 164.275 299.157 162.66 299.157 160.668C299.157 158.677 297.545 157.062 295.556 157.062C293.567 157.062 291.955 158.677 291.955 160.668C291.955 162.66 293.567 164.275 295.556 164.275Z" fill="#B6D4FF"/>
<path d="M295.556 176.984C297.545 176.984 299.157 175.369 299.157 173.377C299.157 171.386 297.545 169.771 295.556 169.771C293.567 169.771 291.955 171.386 291.955 173.377C291.955 175.369 293.567 176.984 295.556 176.984Z" fill="#B6D4FF"/>
<path d="M397.206 37.0839H393.352V292.563H397.206V37.0839Z" fill="#B6D4FF"/>
<path d="M288.854 48.3767H285V293.074H288.854V48.3767Z" fill="#B6D4FF"/>
<path d="M426.15 294.389L441.516 103.525" stroke="#CCE3FF" stroke-width="18" stroke-miterlimit="10"/>
<path d="M503.406 294.389L488.041 103.525" stroke="#CCE3FF" stroke-width="18" stroke-miterlimit="10"/>
<path d="M431.471 111.622H496.337" stroke="#CCE3FF" stroke-width="18" stroke-miterlimit="10"/>
<path d="M427.066 153.41H500.741" stroke="#CCE3FF" stroke-width="18" stroke-miterlimit="10"/>
<path d="M423.588 203.478H504.217" stroke="#CCE3FF" stroke-width="18" stroke-miterlimit="10"/>
<path d="M417.668 248.652H510.137" stroke="#CCE3FF" stroke-width="18" stroke-miterlimit="10"/>
<path d="M477.919 150.437H456.604C455.64 150.437 454.857 151.22 454.857 152.186V185.753C454.857 186.719 455.64 187.502 456.604 187.502H477.919C478.884 187.502 479.666 186.719 479.666 185.753V152.186C479.666 151.22 478.884 150.437 477.919 150.437Z" fill="#CCE3FF"/>
<path d="M463.681 200.367H442.366C441.401 200.367 440.619 201.151 440.619 202.117V232.435C440.619 233.401 441.401 234.185 442.366 234.185H463.681C464.646 234.185 465.428 233.401 465.428 232.435V202.117C465.428 201.151 464.646 200.367 463.681 200.367Z" fill="#CCE3FF"/>
<path d="M420.652 294.389L436.018 103.525" stroke="#DCEEFF" stroke-width="30" stroke-miterlimit="10"/>
<path d="M497.908 294.389L482.543 103.525" stroke="#DCEEFF" stroke-width="30" stroke-miterlimit="10"/>
<path d="M426.889 111.622H491.755" stroke="#DCEEFF" stroke-width="18" stroke-miterlimit="10"/>
<path d="M422.484 153.41H496.159" stroke="#DCEEFF" stroke-width="18" stroke-miterlimit="10"/>
<path d="M419.006 203.478H499.635" stroke="#DCEEFF" stroke-width="18" stroke-miterlimit="10"/>
<path d="M413.088 248.652H505.557" stroke="#DCEEFF" stroke-width="18" stroke-miterlimit="10"/>
<path d="M438.836 200.367H461.766V222.011C461.766 222.258 461.718 222.503 461.624 222.731C461.529 222.959 461.391 223.166 461.216 223.341C461.042 223.516 460.835 223.654 460.607 223.749C460.379 223.843 460.135 223.892 459.888 223.892H438.839C438.341 223.892 437.863 223.694 437.511 223.341C437.159 222.988 436.961 222.51 436.961 222.011V202.249C436.961 201.75 437.158 201.272 437.51 200.919C437.862 200.567 438.339 200.368 438.836 200.367Z" fill="#ECF6FF"/>
<path d="M461.764 213.651H436.955V219.879H461.764V213.651Z" fill="#DCEEFF"/>
<path d="M463.596 200.367C463.11 200.367 462.644 200.561 462.3 200.905C461.957 201.249 461.764 201.716 461.764 202.203V200.367H463.596Z" fill="#ECF6FF"/>
<path d="M453.073 150.437H476.003V174.347C476.003 174.846 475.805 175.324 475.453 175.677C475.1 176.03 474.623 176.228 474.125 176.228H453.076C452.577 176.228 452.1 176.03 451.747 175.677C451.395 175.324 451.197 174.846 451.197 174.347V152.324C451.196 152.077 451.244 151.832 451.338 151.603C451.432 151.374 451.57 151.166 451.744 150.991C451.918 150.816 452.125 150.677 452.353 150.582C452.581 150.486 452.826 150.437 453.073 150.437Z" fill="#ECF6FF"/>
<path d="M476.002 168.97H451.193V171.824H476.002V168.97Z" fill="#DCEEFF"/>
<path d="M476.002 163.329H451.193V166.183H476.002V163.329Z" fill="#DCEEFF"/>
<path d="M477.834 150.437C477.325 150.461 476.847 150.687 476.503 151.064C476.16 151.441 475.979 151.94 476.002 152.45V150.437H477.834Z" fill="#ECF6FF"/>
<path d="M179.648 53.2859H194.232L190.304 66.2213H183.576L179.648 53.2859Z" fill="#DCEEFF"/>
<path d="M131.723 53.2859H146.306L142.378 66.2213H135.65L131.723 53.2859Z" fill="#DCEEFF"/>
<path d="M131.723 44.8408H146.306L142.378 57.7761H135.65L131.723 44.8408Z" fill="#DCEEFF"/>
<path d="M104.941 53.2859H119.522L115.597 66.2213H108.866L104.941 53.2859Z" fill="#DCEEFF"/>
<path d="M84.5986 53.2859H99.182L95.2544 66.2213H88.5262L84.5986 53.2859Z" fill="#DCEEFF"/>
<path d="M194.669 63.866H65.4248V69.3044H194.669V63.866Z" fill="#DCEEFF"/>
<path d="M215.931 63.866H194.668V69.3044H215.931V63.866Z" fill="#CCE3FF"/>
<path d="M96.9277 69.3013L107.019 85.1608V69.3013H96.9277Z" fill="#B6D4FF"/>
<path d="M91.3418 69.3013L101.433 85.1608H107.019L96.9278 69.3013H91.3418Z" fill="#CCE3FF"/>
<path d="M170.951 69.3013L181.045 85.1608V69.3013H170.951Z" fill="#B6D4FF"/>
<path d="M165.365 69.3013L175.459 85.1608H181.045L170.951 69.3013H165.365Z" fill="#CCE3FF"/>
<path d="M121.654 8.33194C121.195 12.0338 119.402 15.4402 116.611 17.9103C113.82 20.3803 110.224 21.7436 106.499 21.7436C102.775 21.7436 99.1785 20.3803 96.3875 17.9103C93.5965 15.4402 91.8031 12.0338 91.3447 8.33194H121.654Z" fill="#ECF6FF"/>
<path d="M121.654 0C121.195 3.70184 119.402 7.1083 116.611 9.57833C113.82 12.0484 110.224 13.4117 106.499 13.4117C102.775 13.4117 99.1785 12.0484 96.3875 9.57833C93.5965 7.1083 91.8031 3.70184 91.3447 0H121.654Z" fill="#ECF6FF"/>
<path d="M154.983 9.99289C154.635 12.8762 153.245 15.532 151.075 17.4586C148.906 19.3852 146.106 20.449 143.206 20.449C140.307 20.449 137.507 19.3852 135.337 17.4586C133.167 15.532 131.777 12.8762 131.43 9.99289H154.983Z" fill="#ECF6FF"/>
<path d="M194.669 18.1259H65.4248V23.5644H194.669V18.1259Z" fill="#DCEEFF"/>
<path d="M215.931 18.1259H194.668V23.5644H215.931V18.1259Z" fill="#CCE3FF"/>
<path d="M96.9277 23.5643L107.019 39.4207V23.5643H96.9277Z" fill="#B6D4FF"/>
<path d="M91.3418 23.5643L101.433 39.4207H107.019L96.9278 23.5643H91.3418Z" fill="#CCE3FF"/>
<path d="M170.951 23.5643L181.045 39.4207V23.5643H170.951Z" fill="#B6D4FF"/>
<path d="M165.365 23.5643L175.459 39.4207H181.045L170.951 23.5643H165.365Z" fill="#CCE3FF"/>
<path d="M184.199 91.5872H201.266L196.669 106.728H188.796L184.199 91.5872Z" fill="#DCEEFF"/>
<path d="M192.733 123.444C197.078 123.444 200.6 118.497 200.6 112.396C200.6 106.294 197.078 101.348 192.733 101.348C188.388 101.348 184.865 106.294 184.865 112.396C184.865 118.497 188.388 123.444 192.733 123.444Z" fill="#DCEEFF"/>
<path d="M180.283 125.117H166.998V106.969L165.037 102.703H181.404L180.283 106.969V125.117Z" fill="#DCEEFF"/>
<path d="M185.849 122.447H56.5527V281.185H185.849V122.447Z" fill="#E6F4FF"/>
<path d="M63.9956 122.447H56.5527V292.563H63.9956V122.447Z" fill="#E6F4FF"/>
<path d="M71.4419 281.185H63.999V292.563H71.4419V281.185Z" fill="#B6D4FF"/>
<path d="M116.759 281.185H109.316V292.563H116.759V281.185Z" fill="#B6D4FF"/>
<path d="M193.292 281.185H185.85V292.563H193.292V281.185Z" fill="#B6D4FF"/>
<path d="M223.722 281.185H216.279V292.563H223.722V281.185Z" fill="#C5E0FC"/>
<path d="M185.849 122.447H178.406V292.563H185.849V122.447Z" fill="#E6F4FF"/>
<path d="M231.166 281.185H223.723V292.722H231.166V281.185Z" fill="#B6D4FF"/>
<path d="M109.316 281.185H101.873V292.563H109.316V281.185Z" fill="#C5E0FC"/>
<path d="M178.406 231.891H63.999V273.498H178.406V231.891Z" fill="#CCE3FF"/>
<path d="M99.3932 231.891H63.999V273.498H99.3932V231.891Z" fill="#B6D4FF"/>
<path d="M178.406 180.99H63.999V222.598H178.406V180.99Z" fill="#CCE3FF"/>
<path d="M99.3932 180.99H63.999V222.598H99.3932V180.99Z" fill="#B6D4FF"/>
<path d="M178.406 130.087H63.999V171.695H178.406V130.087Z" fill="#CCE3FF"/>
<path d="M99.3932 130.087H63.999V171.695H99.3932V130.087Z" fill="#B6D4FF"/>
<path d="M231.167 122.447H185.85V281.185H231.167V122.447Z" fill="#B6D4FF"/>
<path d="M50.8535 117.65H183.152V122.443H55.6393C54.37 122.443 53.1528 121.938 52.2552 121.04C51.3577 120.141 50.8535 118.922 50.8535 117.65Z" fill="#E6F4FF"/>
<path d="M183.152 117.65H237.455C237.455 118.922 236.95 120.141 236.053 121.04C235.155 121.938 233.938 122.443 232.669 122.443H183.152V117.65Z" fill="#B6D4FF"/>
<path d="M185.849 122.511H56.5527V124.71H185.849V122.511Z" fill="#CCE3FF"/>
<path d="M86.2328 249.986H80.0879V273.498H86.2328V249.986Z" fill="#DCEEFF"/>
<path d="M80.0873 249.986H73.9424V273.498H80.0873V249.986Z" fill="#CCE3FF"/>
<path d="M92.3773 249.986H86.2324V273.498H92.3773V249.986Z" fill="#CCE3FF"/>
<path d="M92.3809 249.986H108.568C108.983 249.986 109.382 250.151 109.676 250.446C109.969 250.74 110.134 251.139 110.134 251.555V271.92C110.134 272.336 109.969 272.735 109.676 273.03C109.382 273.324 108.983 273.489 108.568 273.489H92.3809V249.986Z" fill="#B6D4FF"/>
<path d="M95.0098 253.412V255.739H107.507V253.412H95.0098Z" fill="#CCE3FF"/>
<path d="M97.7949 257.003V259.33H104.722V257.003H97.7949Z" fill="#CCE3FF"/>
<path d="M99.0506 99.0535H72.5684V117.65H99.0506V99.0535Z" fill="#ECF6FF"/>
<path d="M118.577 99.0535H99.0547V117.65H118.577V99.0535Z" fill="#CCE3FF"/>
<path d="M80.9578 105.403H90.9112C91.692 105.403 92.4409 105.714 92.993 106.267C93.5452 106.82 93.8554 107.57 93.8554 108.352H78.0137C78.0137 107.57 78.3239 106.82 78.876 106.267C79.4281 105.714 80.177 105.403 80.9578 105.403Z" fill="#CCE3FF"/>
<path d="M132.131 99.0535H105.648V117.65H132.131V99.0535Z" fill="#ECF6FF"/>
<path d="M151.651 99.0535H132.129V117.65H151.651V99.0535Z" fill="#CCE3FF"/>
<path d="M114.035 105.403H123.997C124.778 105.403 125.527 105.714 126.079 106.267C126.631 106.82 126.942 107.57 126.942 108.352H111.094C111.094 107.57 111.404 106.821 111.955 106.268C112.506 105.715 113.255 105.404 114.035 105.403Z" fill="#CCE3FF"/>
<path d="M104.985 161.711C104.518 165.621 102.559 169.199 99.518 171.695H80.1457C77.1051 169.198 75.1454 165.621 74.6758 161.711H104.985Z" fill="#DCEEFF"/>
<path d="M104.985 153.376C104.527 157.078 102.733 160.485 99.9421 162.955C97.1511 165.425 93.5549 166.788 89.8303 166.788C86.1057 166.788 82.5096 165.425 79.7185 162.955C76.9275 160.485 75.1341 157.078 74.6758 153.376H104.985Z" fill="#DCEEFF"/>
<path d="M146.616 161.711C146.148 165.621 144.19 169.199 141.149 171.695H121.777C118.736 169.198 116.776 165.621 116.307 161.711H146.616Z" fill="#DCEEFF"/>
<path d="M146.616 153.376C146.157 157.078 144.364 160.485 141.573 162.955C138.782 165.425 135.186 166.788 131.461 166.788C127.737 166.788 124.14 165.425 121.349 162.955C118.558 160.485 116.765 157.078 116.307 153.376H146.616Z" fill="#DCEEFF"/>
<path d="M88.2176 207.112C88.2176 213.012 87.5885 218.411 86.5409 222.598H75.5644C74.5168 218.411 73.8877 213.012 73.8877 207.112" fill="#ECF6FF"/>
<path d="M87.6741 209.703C88.8697 209.939 89.9225 210.642 90.6009 211.656C91.2793 212.669 91.5278 213.912 91.2917 215.109C91.0556 216.306 90.3542 217.361 89.3419 218.04C88.3295 218.72 87.0891 218.969 85.8936 218.732" stroke="#ECF6FF" stroke-width="8" stroke-miterlimit="10"/>
<path d="M110.207 207.112C110.207 213.012 109.578 218.411 108.53 222.598H97.5537C96.5061 218.411 95.877 213.012 95.877 207.112" fill="#ECF6FF"/>
<path d="M107.3 209.703C108.496 209.939 109.548 210.642 110.227 211.656C110.905 212.669 111.154 213.912 110.918 215.109C110.682 216.306 109.98 217.361 108.968 218.04C107.955 218.72 106.715 218.969 105.52 218.732" stroke="#ECF6FF" stroke-width="8" stroke-miterlimit="10"/>
<path d="M155.902 207.112C155.902 213.012 155.273 218.411 154.225 222.598H143.249C142.201 218.411 141.572 213.012 141.572 207.112" fill="#ECF6FF"/>
<path d="M142.535 209.703C141.943 209.82 141.38 210.053 140.877 210.388C140.375 210.723 139.944 211.154 139.608 211.656C139.272 212.158 139.038 212.721 138.92 213.313C138.801 213.906 138.8 214.516 138.917 215.109C139.034 215.702 139.266 216.266 139.601 216.769C139.936 217.272 140.366 217.704 140.867 218.04C141.368 218.377 141.931 218.611 142.522 218.73C143.114 218.848 143.723 218.849 144.315 218.732" stroke="#ECF6FF" stroke-width="8" stroke-miterlimit="10"/>
<path d="M537.945 295.09H3.05371" stroke="#DCEEFF" stroke-width="20" stroke-miterlimit="10" stroke-linecap="round"/>
</svg>
