<svg width="280" height="243" viewBox="0 0 280 243" fill="none" xmlns="http://www.w3.org/2000/svg">
<g clip-path="url(#clip0)">
<path d="M126.04 243C168.662 243 203.214 241.269 203.214 239.134C203.214 236.998 168.662 235.267 126.04 235.267C83.4174 235.267 48.8652 236.998 48.8652 239.134C48.8652 241.269 83.4174 243 126.04 243Z" fill="#E6E6E6"/>
<path d="M140.001 76.3624C161.152 76.3624 178.299 59.2681 178.299 38.1812C178.299 17.0943 161.152 0 140.001 0C118.85 0 101.703 17.0943 101.703 38.1812C101.703 59.2681 118.85 76.3624 140.001 76.3624Z" fill="#E6E6E6"/>
<path d="M140.001 69.9988C157.627 69.9988 171.916 55.7536 171.916 38.1812C171.916 20.6088 157.627 6.36353 140.001 6.36353C122.375 6.36353 108.086 20.6088 108.086 38.1812C108.086 55.7536 122.375 69.9988 140.001 69.9988Z" fill="white"/>
<path d="M241.702 76.3624C262.854 76.3624 280 59.2681 280 38.1812C280 17.0943 262.854 0 241.702 0C220.551 0 203.404 17.0943 203.404 38.1812C203.404 59.2681 220.551 76.3624 241.702 76.3624Z" fill="#E6E6E6"/>
<path d="M241.702 69.9988C259.328 69.9988 273.617 55.7536 273.617 38.1812C273.617 20.6088 259.328 6.36353 241.702 6.36353C224.076 6.36353 209.787 20.6088 209.787 38.1812C209.787 55.7536 224.076 69.9988 241.702 69.9988Z" fill="white"/>
<path d="M38.2979 76.3624C59.4492 76.3624 76.5957 59.2681 76.5957 38.1812C76.5957 17.0943 59.4492 0 38.2979 0C17.1465 0 0 17.0943 0 38.1812C0 59.2681 17.1465 76.3624 38.2979 76.3624Z" fill="#E6E6E6"/>
<path d="M38.2977 69.9988C55.9238 69.9988 70.2126 55.7536 70.2126 38.1812C70.2126 20.6088 55.9238 6.36353 38.2977 6.36353C20.6716 6.36353 6.38281 20.6088 6.38281 38.1812C6.38281 55.7536 20.6716 69.9988 38.2977 69.9988Z" fill="#2EC4B6"/>
<path d="M35.3368 51.254L26.0391 39.3361L31.4459 35.1431L35.8484 40.7864L50.7206 25.1352L55.6935 29.8324L35.3368 51.254Z" fill="white"/>
<path d="M106.162 45.9668C103.647 39.9107 103.238 34.195 106.784 29.1179C106.847 27.4119 107.253 25.7359 107.978 24.1894C108.703 22.6428 109.732 21.2571 111.004 20.1145C112.276 18.9719 113.766 18.0957 115.384 17.5378C117.002 16.98 118.717 16.7518 120.425 16.8669L122.737 17.0226C125.123 17.1771 127.418 17.9984 129.358 19.3923C131.299 20.7862 132.806 22.6965 133.708 24.9046C138.019 35.5632 138.155 49.7289 137.079 64.9125H105.462C107.34 57.8117 108.304 51.1473 106.162 45.9668Z" fill="#2F2E41"/>
<path d="M65.3319 64.5477L56.9768 60.806C56.1443 60.4332 55.4019 59.8863 54.8 59.2024C54.1981 58.5185 53.7506 57.7136 53.488 56.8422C53.2254 55.9708 53.1538 55.0534 53.278 54.152C53.4022 53.2506 53.7193 52.3864 54.2078 51.6178C54.748 50.768 55.4832 50.0583 56.3527 49.5473C57.2221 49.0364 58.2009 48.7389 59.2084 48.6792C60.2159 48.6196 61.2232 48.7996 62.1471 49.2043C63.0711 49.6091 63.8854 50.2271 64.5227 51.0072L68.3827 55.7323L86.378 71.6437L98.3401 63.6853L103.762 72.849L84.3574 84.5345L65.3319 64.5477Z" fill="#9F616A"/>
<path d="M102.889 75.5445L96.293 62.961L121.978 51.5551L122.201 53.9621C122.405 56.177 122.026 58.4067 121.1 60.4303C120.174 62.4538 118.733 64.201 116.921 65.4984L102.889 75.5445Z" fill="#2EC4B6"/>
<path d="M136.175 50.8033L109.978 72.4173L108.473 70.3159L115.699 57.4076L119.012 55.9066C119.805 52.5546 117.779 48.0595 115.097 43.2984L127.744 41.4972C128.354 45.5865 131.134 48.7022 136.175 50.8033Z" fill="#9F616A"/>
<path d="M167.793 200L163.427 206.454L128.648 186.791L133.466 163.076L167.793 200Z" fill="#2F2E41"/>
<path d="M121.873 230.77L114.797 227.618L112.99 145.065L106.215 100.185L132.562 95.2321L137.982 106.94C151.302 125.152 131.885 180.956 121.873 230.77Z" fill="#2F2E41"/>
<path d="M122.442 229.649L123.894 232.799C124.167 233.391 124.298 234.038 124.275 234.689C124.253 235.34 124.078 235.977 123.766 236.549C123.453 237.121 123.01 237.613 122.474 237.984C121.937 238.356 121.32 238.597 120.673 238.689L101.478 241.423C100.534 241.558 99.5731 241.347 98.7732 240.83C97.9733 240.312 97.3883 239.524 97.1264 238.61C96.8853 237.769 96.9325 236.871 97.2605 236.06C97.5886 235.248 98.1787 234.569 98.9376 234.129L115.064 226.082L122.442 229.649Z" fill="#2F2E41"/>
<path d="M166.894 198.781L170.362 198.527C171.014 198.479 171.668 198.584 172.272 198.832C172.876 199.081 173.413 199.467 173.841 199.959C174.269 200.451 174.576 201.036 174.737 201.668C174.899 202.299 174.91 202.959 174.77 203.596L170.623 222.48C170.419 223.409 169.885 224.232 169.119 224.798C168.353 225.364 167.408 225.635 166.457 225.56C165.582 225.491 164.756 225.133 164.108 224.542C163.46 223.952 163.028 223.163 162.88 222.3L160.961 204.424L166.894 198.781Z" fill="#2F2E41"/>
<path d="M119.613 47.5011C126.265 47.5011 131.657 42.1251 131.657 35.4933C131.657 28.8616 126.265 23.4855 119.613 23.4855C112.961 23.4855 107.568 28.8616 107.568 35.4933C107.568 42.1251 112.961 47.5011 119.613 47.5011Z" fill="#9F616A"/>
<path d="M131.959 97.0333L105.762 102.437L105.16 85.0255C101.366 81.0217 110.213 64.9863 113.29 57.4076L117.204 56.2068L110.58 68.2146L133.765 49.3023L138.282 50.5031L139.486 72.4173L131.959 97.0333Z" fill="#2EC4B6"/>
<path d="M133.767 107.54L128.086 114.703C127.52 115.417 126.807 116.001 125.994 116.416C125.182 116.83 124.29 117.066 123.378 117.107C122.467 117.148 121.557 116.993 120.71 116.653C119.864 116.313 119.101 115.795 118.473 115.135C117.778 114.405 117.267 113.521 116.983 112.555C116.698 111.59 116.648 110.571 116.836 109.583C117.024 108.594 117.446 107.664 118.065 106.87C118.685 106.076 119.485 105.439 120.399 105.014L125.938 102.437L145.812 88.9281L140.994 75.4193L151.232 72.4173L157.856 94.0314L133.767 107.54Z" fill="#9F616A"/>
<path d="M134.819 62.5109H112.997C113.817 58.3988 116.015 54.6682 122.027 51.9934C126.41 43.6412 128.283 36.0654 122.027 31.0034C114.881 29.3622 112.113 26.3818 112.997 22.2847L125.789 20.1834C136.309 29.5238 136.429 45.4679 134.819 62.5109Z" fill="#2F2E41"/>
<path d="M153.64 73.9183L139.788 77.2204L134.971 49.6025L137.366 49.9757C139.571 50.319 141.647 51.2308 143.388 52.6206C145.13 54.0104 146.478 55.8299 147.297 57.8988L153.64 73.9183Z" fill="#2EC4B6"/>
</g>
<defs>
<clipPath id="clip0">
<rect width="280" height="243" fill="white"/>
</clipPath>
</defs>
</svg>
