<svg width="24" height="25" viewBox="0 0 24 25" fill="none" xmlns="http://www.w3.org/2000/svg">
<path d="M10 4.86133C8.93913 4.86133 7.92172 5.28276 7.17157 6.0329C6.42143 6.78305 6 7.80046 6 8.86133C6 9.92219 6.42143 10.9396 7.17157 11.6898C7.92172 12.4399 8.93913 12.8613 10 12.8613C11.0609 12.8613 12.0783 12.4399 12.8284 11.6898C13.5786 10.9396 14 9.92219 14 8.86133C14 7.80046 13.5786 6.78305 12.8284 6.0329C12.0783 5.28276 11.0609 4.86133 10 4.86133ZM10 6.86133C10.5304 6.86133 11.0391 7.07204 11.4142 7.44711C11.7893 7.82219 12 8.3309 12 8.86133C12 9.39176 11.7893 9.90047 11.4142 10.2755C11.0391 10.6506 10.5304 10.8613 10 10.8613C9.46957 10.8613 8.96086 10.6506 8.58579 10.2755C8.21071 9.90047 8 9.39176 8 8.86133C8 8.3309 8.21071 7.82219 8.58579 7.44711C8.96086 7.07204 9.46957 6.86133 10 6.86133ZM17 12.8613C16.84 12.8613 16.76 12.9413 16.76 13.1013L16.5 14.3613C16.28 14.5413 15.96 14.7013 15.72 14.8613L14.44 14.3613C14.36 14.3613 14.2 14.3613 14.12 14.4613L13.16 16.2213C13.08 16.3013 13.08 16.4613 13.24 16.5413L14.28 17.3613V18.3613L13.24 19.1813C13.16 19.2613 13.08 19.4213 13.16 19.5013L14.12 21.2613C14.2 21.3613 14.36 21.3613 14.44 21.3613L15.72 20.8613C15.96 21.0213 16.28 21.1813 16.5 21.3613L16.76 22.6213C16.76 22.7813 16.84 22.8613 17 22.8613H19C19.08 22.8613 19.24 22.7813 19.24 22.6213L19.4 21.3613C19.72 21.1813 20.04 21.0213 20.28 20.8613L21.5 21.3613C21.64 21.3613 21.8 21.3613 21.8 21.2613L22.84 19.5013C22.92 19.4213 22.84 19.2613 22.76 19.1813L21.72 18.3613V17.3613L22.76 16.5413C22.84 16.4613 22.92 16.3013 22.84 16.2213L21.8 14.4613C21.8 14.3613 21.64 14.3613 21.5 14.3613L20.28 14.8613C20.04 14.7013 19.72 14.5413 19.4 14.3613L19.24 13.1013C19.24 12.9413 19.08 12.8613 19 12.8613H17ZM10 13.8613C7.33 13.8613 2 15.1913 2 17.8613V20.8613H11.67C11.39 20.2713 11.19 19.6313 11.09 18.9613H3.9V17.8613C3.9 17.2213 7.03 15.7613 10 15.7613C10.43 15.7613 10.87 15.8013 11.3 15.8613C11.5 15.2213 11.77 14.6213 12.12 14.0713C11.34 13.9413 10.6 13.8613 10 13.8613ZM18.04 16.3613C18.84 16.3613 19.5 17.0213 19.5 17.9013C19.5 18.7013 18.84 19.3613 18.04 19.3613C17.16 19.3613 16.5 18.7013 16.5 17.9013C16.5 17.0213 17.16 16.3613 18.04 16.3613Z" fill="#606161"/>
</svg>
