<svg width="35" height="35" viewBox="0 0 35 35" fill="none" xmlns="http://www.w3.org/2000/svg">
<path d="M9.07617 22.6358L14.0647 16.1522L19.755 20.622L24.6368 14.3215" stroke="#2EC4B6" stroke-width="2" stroke-linecap="round" stroke-linejoin="round"/>
<path fill-rule="evenodd" clip-rule="evenodd" d="M30.3267 8.20405C32.096 8.20405 33.5304 6.76972 33.5304 5.00038C33.5304 3.23105 32.096 1.79672 30.3267 1.79672C28.5574 1.79672 27.123 3.23105 27.123 5.00038C27.123 6.76972 28.5574 8.20405 30.3267 8.20405Z" stroke="#2EC4B6" stroke-width="2" stroke-linecap="round" stroke-linejoin="round"/>
<path d="M21.8749 3.20023H9.76206C4.74299 3.20023 1.63086 6.75476 1.63086 11.7738V25.2445C1.63086 30.2635 4.68196 33.8028 9.76206 33.8028H24.1023C29.1213 33.8028 32.2335 30.2635 32.2335 25.2445V13.513" stroke="#2EC4B6" stroke-width="2" stroke-linecap="round" stroke-linejoin="round"/>
</svg>
