<svg width="64" height="64" viewBox="0 0 64 64" fill="none" xmlns="http://www.w3.org/2000/svg">
<circle cx="32" cy="32" r="31.5" stroke="#0A2523"/>
<path d="M40.75 30.75H33.25V23.25C33.25 22.9185 33.1183 22.6005 32.8839 22.3661C32.6495 22.1317 32.3315 22 32 22C31.6685 22 31.3505 22.1317 31.1161 22.3661C30.8817 22.6005 30.75 22.9185 30.75 23.25V30.75H23.25C22.9185 30.75 22.6005 30.8817 22.3661 31.1161C22.1317 31.3505 22 31.6685 22 32C22 32.3315 22.1317 32.6495 22.3661 32.8839C22.6005 33.1183 22.9185 33.25 23.25 33.25H30.75V40.75C30.75 41.0815 30.8817 41.3995 31.1161 41.6339C31.3505 41.8683 31.6685 42 32 42C32.3315 42 32.6495 41.8683 32.8839 41.6339C33.1183 41.3995 33.25 41.0815 33.25 40.75V33.25H40.75C41.0815 33.25 41.3995 33.1183 41.6339 32.8839C41.8683 32.6495 42 32.3315 42 32C42 31.6685 41.8683 31.3505 41.6339 31.1161C41.3995 30.8817 41.0815 30.75 40.75 30.75Z" fill="#0A2523"/>
</svg>
