<svg width="24" height="24" viewBox="0 0 24 24" fill="none" xmlns="http://www.w3.org/2000/svg">
<path d="M12 10C14 10 15 12.42 13.59 13.84C12.17 15.26 9.75 14.25 9.75 12.25C9.75 11 10.75 10 12 10ZM16.5 19H7.5V17.88C7.5 16.63 9.5 15.63 12 15.63C14.5 15.63 16.5 16.63 16.5 17.88V19ZM19 20H5V9H19V20ZM16 2V4H8V2H6V4H5C4.46957 4 3.96086 4.21071 3.58579 4.58579C3.21071 4.96086 3 5.46957 3 6V20C3 20.5304 3.21071 21.0391 3.58579 21.4142C3.96086 21.7893 4.46957 22 5 22H19C19.5304 22 20.0391 21.7893 20.4142 21.4142C20.7893 21.0391 21 20.5304 21 20V6C21 5.46957 20.7893 4.96086 20.4142 4.58579C20.0391 4.21071 19.5304 4 19 4H18V2H16Z" fill="#606161"/>
</svg>
