<svg width="22" height="22" viewBox="0 0 22 22" fill="none" xmlns="http://www.w3.org/2000/svg">
<path d="M6.24512 13.7815L9.23825 9.89131L12.6524 12.5732L15.5815 8.79291" stroke="#2EC4B6" stroke-width="2" stroke-linecap="round" stroke-linejoin="round"/>
<path fill-rule="evenodd" clip-rule="evenodd" d="M18.9954 5.12242C20.057 5.12242 20.9176 4.26183 20.9176 3.20023C20.9176 2.13863 20.057 1.27803 18.9954 1.27803C17.9338 1.27803 17.0732 2.13863 17.0732 3.20023C17.0732 4.26183 17.9338 5.12242 18.9954 5.12242Z" stroke="#2EC4B6" stroke-width="2" stroke-linecap="round" stroke-linejoin="round"/>
<path d="M13.9248 2.12013H6.65704C3.6456 2.12013 1.77832 4.25286 1.77832 7.2643V15.3467C1.77832 18.3581 3.60898 20.4817 6.65704 20.4817H15.2612C18.2726 20.4817 20.1399 18.3581 20.1399 15.3467V8.30778" stroke="#2EC4B6" stroke-width="2" stroke-linecap="round" stroke-linejoin="round"/>
</svg>
