<svg width="486" height="287" viewBox="0 0 486 287" fill="none" xmlns="http://www.w3.org/2000/svg">
<path d="M27.4715 286.78C27.3661 286.608 24.8821 282.461 24.021 273.848C23.2311 265.947 23.739 252.628 30.6462 234.05C43.7317 198.854 27.6306 170.457 27.4661 170.174L28.2604 169.713C28.3021 169.785 32.4568 177.025 34.9112 188.554C38.1542 203.839 36.9733 219.732 31.5069 234.37C18.4439 269.505 28.1555 286.138 28.2551 286.302L27.4715 286.78Z" fill="#3F3D56"/>
<path d="M22.3548 168.107C25.6506 168.107 28.3224 165.436 28.3224 162.14C28.3224 158.844 25.6506 156.172 22.3548 156.172C19.059 156.172 16.3872 158.844 16.3872 162.14C16.3872 165.436 19.059 168.107 22.3548 168.107Z" fill="#F37920"/>
<path d="M41.1751 190.142C44.4709 190.142 47.1427 187.47 47.1427 184.174C47.1427 180.878 44.4709 178.206 41.1751 178.206C37.8793 178.206 35.2075 180.878 35.2075 184.174C35.2075 187.47 37.8793 190.142 41.1751 190.142Z" fill="#3F3D56"/>
<path d="M28.3211 204.831C31.6169 204.831 34.2887 202.159 34.2887 198.863C34.2887 195.568 31.6169 192.896 28.3211 192.896C25.0253 192.896 22.3535 195.568 22.3535 198.863C22.3535 202.159 25.0253 204.831 28.3211 204.831Z" fill="#F37920"/>
<path d="M43.9295 217.225C47.2253 217.225 49.8971 214.553 49.8971 211.258C49.8971 207.962 47.2253 205.29 43.9295 205.29C40.6337 205.29 37.9619 207.962 37.9619 211.258C37.9619 214.553 40.6337 217.225 43.9295 217.225Z" fill="#F37920"/>
<path d="M23.7303 236.505C27.0261 236.505 29.6979 233.833 29.6979 230.537C29.6979 227.242 27.0261 224.57 23.7303 224.57C20.4345 224.57 17.7627 227.242 17.7627 230.537C17.7627 233.833 20.4345 236.505 23.7303 236.505Z" fill="#3F3D56"/>
<path d="M31.0769 287C31.0769 287 25.1093 272.311 43.0121 261.293L31.0769 287Z" fill="#3F3D56"/>
<path d="M23.7365 286.734C23.7365 286.734 21.0206 271.113 0 271.246L23.7365 286.734Z" fill="#3F3D56"/>
<path d="M485.99 252.463H62.1245V251.225H485.371L485.99 252.463Z" fill="#2F2E41"/>
<path d="M286.741 0C244.088 0 209.393 34.6951 209.393 77.3477C209.381 88.2658 211.693 99.0614 216.175 109.017C228.297 135.922 255.362 154.695 286.741 154.695C307.251 154.684 326.918 146.531 341.421 132.028C355.924 117.525 364.077 97.8581 364.089 77.3477C364.089 34.6951 329.387 0 286.741 0ZM350.735 108.441C344.894 120.445 335.798 130.567 324.483 137.651C313.168 144.735 300.09 148.497 286.741 148.508C256.588 148.508 230.753 129.653 220.414 103.114C217.209 94.9019 215.57 86.1627 215.581 77.3477C215.581 38.1107 247.504 6.18782 286.741 6.18782C325.978 6.18782 357.901 38.1107 357.901 77.3477C357.914 88.1231 355.463 98.7588 350.735 108.441Z" fill="#3F3D56"/>
<path d="M354.473 114.666C347.792 126.784 337.985 136.889 326.072 143.929C314.16 150.969 300.578 154.687 286.741 154.695C255.362 154.695 228.297 135.922 216.175 109.017C217.505 106.981 218.918 105.013 220.413 103.114C230.753 129.653 256.587 148.508 286.741 148.508C300.09 148.497 313.168 144.735 324.483 137.651C335.798 130.567 344.894 120.445 350.735 108.442C352.072 110.453 353.317 112.528 354.473 114.666Z" fill="#F37920"/>
<path d="M269.307 84.4223C271.41 84.4087 273.452 85.1252 275.084 86.4494C276.717 87.7737 277.84 89.6237 278.261 91.6836C278.682 93.7435 278.374 95.8856 277.392 97.7442C276.409 99.6027 274.811 101.063 272.872 101.874C270.933 102.686 268.772 102.8 266.758 102.196C264.744 101.592 263.002 100.308 261.83 98.5624C260.658 96.8172 260.128 94.7191 260.33 92.6265C260.532 90.5338 261.455 88.5763 262.94 87.088C263.772 86.2447 264.763 85.5748 265.856 85.1172C266.949 84.6597 268.122 84.4235 269.307 84.4223ZM269.307 80.5549C266.757 80.5536 264.264 81.3084 262.143 82.724C260.022 84.1397 258.368 86.1525 257.391 88.508C256.414 90.8634 256.157 93.4558 256.653 95.9572C257.149 98.4585 258.376 100.757 260.178 102.561C261.981 104.365 264.277 105.594 266.778 106.093C269.279 106.592 271.872 106.338 274.228 105.363C276.585 104.389 278.599 102.737 280.017 100.618C281.435 98.498 282.193 96.0055 282.194 93.4554C282.187 90.0386 280.827 86.7634 278.413 84.3461C275.998 81.9287 272.724 80.5656 269.307 80.5549ZM296.172 62.1158C296.753 62.1187 297.329 62.0064 297.867 61.7853C298.404 61.5643 298.893 61.2388 299.304 60.8278C299.715 60.4168 300.04 59.9284 300.261 59.3908C300.482 58.8532 300.595 58.2772 300.592 57.6959C300.597 57.1176 300.487 56.544 300.269 56.0086C300.05 55.4732 299.726 54.9868 299.317 54.5778C298.909 54.1689 298.422 53.8455 297.887 53.6268C297.351 53.408 296.778 53.2981 296.199 53.3037C295.618 53.2982 295.042 53.4077 294.504 53.6258C293.965 53.8439 293.475 54.1663 293.062 54.5746C292.649 54.9828 292.32 55.4687 292.095 56.0044C291.87 56.54 291.754 57.1149 291.752 57.6958C291.75 58.2768 291.863 58.8523 292.085 59.3894C292.306 59.9265 292.632 60.4144 293.042 60.8252C293.453 61.236 293.941 61.5615 294.478 61.783C295.015 62.0045 295.591 62.1176 296.172 62.1158ZM305.412 84.4223C307.514 84.4087 309.556 85.1252 311.189 86.4494C312.822 87.7737 313.945 89.6237 314.366 91.6836C314.786 93.7435 314.479 95.8856 313.496 97.7442C312.514 99.6027 310.916 101.063 308.977 101.874C307.037 102.686 304.876 102.8 302.863 102.196C300.849 101.592 299.107 100.308 297.935 98.5624C296.763 96.8172 296.232 94.7191 296.435 92.6265C296.637 90.5338 297.56 88.5763 299.045 87.088C299.877 86.2447 300.868 85.5748 301.961 85.1172C303.054 84.6596 304.227 84.4235 305.412 84.4223ZM305.412 80.5549C302.863 80.5549 300.372 81.3107 298.253 82.7267C296.133 84.1427 294.482 86.1553 293.506 88.5101C292.531 90.8648 292.276 93.4559 292.773 95.9557C293.27 98.4554 294.498 100.752 296.3 102.554C298.102 104.356 300.398 105.583 302.898 106.081C305.398 106.578 307.989 106.323 310.344 105.347C312.698 104.372 314.711 102.72 316.127 100.601C317.543 98.4818 318.299 95.9903 318.299 93.4416C318.288 90.0271 316.927 86.7556 314.512 84.3412C312.098 81.9268 308.827 80.5656 305.412 80.5549V80.5549Z" fill="#F37920"/>
<path d="M302.829 70.9831H296.199L292.125 62.682C291.796 62.0999 291.337 61.602 290.783 61.2275C290.229 60.853 289.596 60.6121 288.933 60.5237C288.271 60.4354 287.597 60.502 286.964 60.7183C286.331 60.9346 285.758 61.2948 285.288 61.7704L275.385 71.3146C274.574 72.142 274.114 73.2502 274.1 74.4085C274.1 76.8118 275.84 77.6682 276.655 78.1516C282.94 81.7703 285.15 82.1709 285.15 83.9803V93.0824C285.15 93.6685 285.383 94.2306 285.797 94.6451C286.211 95.0595 286.774 95.2924 287.36 95.2924C287.946 95.2924 288.508 95.0595 288.922 94.6451C289.337 94.2306 289.57 93.6685 289.57 93.0824V80.6516C289.57 78.8284 285.371 77.3367 282.898 75.403L289.653 68.2897C292.235 72.2262 293.423 75.403 294.901 75.403H302.829C303.415 75.403 303.977 75.1701 304.392 74.7557C304.806 74.3413 305.039 73.7791 305.039 73.193C305.039 72.6069 304.806 72.0448 304.392 71.6304C303.977 71.2159 303.415 70.9831 302.829 70.9831L302.829 70.9831Z" fill="#F37920"/>
<path d="M226.305 190.916C224.401 190.916 222.825 196.459 222.52 203.727H185.896C185.59 196.459 184.014 190.916 182.11 190.916C179.988 190.916 178.267 197.799 178.267 206.289C178.267 214.778 179.988 221.661 182.11 221.661C184.014 221.661 185.59 216.118 185.896 208.851H222.52C222.825 216.118 224.401 221.661 226.305 221.661C228.428 221.661 230.148 214.778 230.148 206.289C230.148 197.799 228.428 190.916 226.305 190.916Z" fill="#F37920"/>
<path d="M244.146 183.593C238.717 173.863 229.929 166.446 219.426 162.73C208.923 159.015 197.425 159.254 187.086 163.405C176.747 167.556 168.276 175.333 163.258 185.28C158.24 195.227 157.02 206.662 159.826 217.444C162.632 228.226 169.272 237.615 178.503 243.854C187.733 250.092 198.921 252.753 209.972 251.336C221.023 249.92 231.178 244.524 238.537 236.16C245.896 227.795 249.953 217.034 249.95 205.893C249.946 198.087 247.948 190.411 244.146 183.593ZM204.135 248.039C195.808 248.032 187.669 245.557 180.747 240.926C173.826 236.296 168.432 229.717 165.249 222.022C162.065 214.326 161.234 205.86 162.861 197.693C164.487 189.525 168.499 182.024 174.388 176.135C180.277 170.247 187.779 166.237 195.947 164.611C204.114 162.986 212.581 163.818 220.275 167.003C227.97 170.188 234.548 175.582 239.178 182.504C243.808 189.426 246.281 197.566 246.287 205.893C246.314 211.436 245.243 216.93 243.134 222.056C241.025 227.182 237.922 231.839 234.002 235.758C230.082 239.677 225.424 242.781 220.298 244.888C215.172 246.996 209.678 248.067 204.135 248.039Z" fill="#3F3D56"/>
<path d="M249.95 205.893C249.954 214.146 247.728 222.246 243.507 229.337C239.286 236.428 233.228 242.247 225.972 246.178C218.716 250.109 210.533 252.007 202.288 251.67C194.042 251.333 186.041 248.774 179.13 244.264C178.34 242.306 177.683 240.296 177.163 238.249C185.043 244.832 195.057 248.309 205.32 248.027C215.584 247.745 225.392 243.724 232.9 236.72C240.407 229.715 245.098 220.21 246.09 209.99C247.082 199.77 244.306 189.54 238.286 181.223C240.29 181.88 242.248 182.672 244.146 183.593C247.961 190.406 249.959 198.085 249.95 205.893Z" fill="#F37920"/>
<path d="M369.349 160.079C363.333 160.079 357.375 161.264 351.817 163.566C346.258 165.869 341.208 169.243 336.953 173.498C332.699 177.752 329.324 182.802 327.022 188.361C324.72 193.919 323.535 199.877 323.535 205.893C323.535 211.91 324.72 217.867 327.022 223.426C329.324 228.984 332.699 234.035 336.953 238.289C341.208 242.544 346.258 245.918 351.817 248.221C357.375 250.523 363.333 251.708 369.349 251.708C369.646 251.708 369.937 251.708 370.234 251.696C382.306 251.463 393.798 246.474 402.211 237.814C410.624 229.154 415.278 217.522 415.162 205.449C415.045 193.376 410.167 181.836 401.588 173.34C393.009 164.844 381.423 160.078 369.349 160.079ZM378.687 246.993C372.904 248.306 366.909 248.384 361.094 247.222C355.279 246.06 349.774 243.684 344.94 240.25C340.106 236.815 336.051 232.399 333.04 227.29C330.029 222.181 328.131 216.494 327.468 210.601C326.805 204.708 327.394 198.742 329.194 193.091C330.995 187.441 333.968 182.235 337.918 177.812C341.869 173.39 346.708 169.85 352.12 167.426C357.532 165.001 363.394 163.746 369.324 163.742H369.349C379.715 163.741 389.717 167.56 397.445 174.469C405.172 181.378 410.083 190.892 411.238 201.193C412.393 211.494 409.712 221.859 403.707 230.308C397.703 238.757 388.795 244.697 378.687 246.993Z" fill="#3F3D56"/>
<path d="M378.687 246.993C376.038 248.846 373.206 250.422 370.234 251.696C369.937 251.708 369.646 251.708 369.349 251.708C358.011 251.708 347.075 247.503 338.657 239.907C330.238 232.31 324.936 221.862 323.775 210.583C322.615 199.304 325.678 187.995 332.372 178.843C339.067 169.692 348.917 163.347 360.018 161.038C363.205 161.616 366.324 162.522 369.325 163.742C363.395 163.746 357.533 165.002 352.121 167.427C346.71 169.852 341.871 173.391 337.921 177.813C333.971 182.236 330.999 187.442 329.198 193.092C327.397 198.742 326.809 204.708 327.472 210.601C328.135 216.493 330.033 222.18 333.044 227.288C336.054 232.397 340.109 236.813 344.942 240.248C349.776 243.683 355.28 246.059 361.095 247.221C366.91 248.383 372.904 248.306 378.687 246.993Z" fill="#F37920"/>
<path d="M391.952 203.946C390.731 203.884 389.524 204.224 388.515 204.913C387.505 205.602 386.749 206.603 386.361 207.762H381.85L378.556 197.856C378.433 197.485 378.197 197.162 377.881 196.933C377.564 196.704 377.183 196.58 376.793 196.58H376.758C376.361 196.586 375.978 196.721 375.664 196.963C375.35 197.206 375.124 197.544 375.018 197.926L369.857 215.939L363.791 179.507C363.72 179.086 363.507 178.701 363.186 178.418C362.866 178.135 362.458 177.971 362.031 177.953C361.604 177.935 361.183 178.065 360.841 178.321C360.498 178.576 360.254 178.942 360.149 179.356L354.001 207.762H347.112C346.619 207.762 346.147 207.957 345.799 208.305C345.451 208.653 345.256 209.125 345.256 209.617C345.256 210.109 345.451 210.582 345.799 210.93C346.147 211.278 346.619 211.473 347.112 211.473H355.463C355.876 211.474 356.278 211.336 356.604 211.081C356.929 210.827 357.161 210.471 357.26 210.07L361.598 188.937L367.548 224.649C367.617 225.065 367.825 225.445 368.14 225.726C368.454 226.007 368.856 226.171 369.277 226.192H369.381C369.784 226.191 370.177 226.06 370.499 225.817C370.821 225.574 371.055 225.234 371.167 224.846L376.932 204.711L378.753 210.197C378.877 210.567 379.114 210.889 379.43 211.118C379.746 211.347 380.126 211.471 380.516 211.473H386.443C386.797 212.412 387.398 213.237 388.183 213.862C388.968 214.487 389.907 214.888 390.901 215.024C391.895 215.159 392.907 215.023 393.83 214.631C394.753 214.239 395.553 213.604 396.146 212.795C396.738 211.985 397.101 211.031 397.196 210.032C397.291 209.033 397.114 208.028 396.684 207.121C396.255 206.215 395.588 205.441 394.755 204.882C393.922 204.323 392.954 204 391.952 203.946Z" fill="#F37920"/>
</svg>
