<svg width="78" height="78" viewBox="0 0 78 78" fill="none" xmlns="http://www.w3.org/2000/svg">
<path d="M68.8555 45.5942C68.854 45.5942 68.8526 45.5942 68.8512 45.5942C68.2201 45.5919 67.7106 45.0785 67.7128 44.4475L67.8371 9.23249C67.8438 7.37877 67.127 5.63474 65.8185 4.32154C64.5102 3.00833 62.7689 2.28516 60.9152 2.28516C57.0984 2.28516 53.9932 5.39038 53.9932 9.2072V32.0738C53.9932 32.7048 53.4817 33.2164 52.8506 33.2164C52.2194 33.2164 51.708 32.7048 51.708 32.0738V9.2072C51.708 4.13034 55.8382 0 60.9152 0C63.3809 0 65.6971 0.961898 67.4373 2.70852C69.1776 4.45514 70.1312 6.77503 70.1222 9.24072L69.9979 44.4557C69.9955 45.0854 69.4845 45.5942 68.8555 45.5942Z" fill="#FFA393"/>
<path d="M22.8414 78H19.6097C15.5854 78 12.3115 74.726 12.3115 70.7018V34.9335C12.3115 34.3025 12.8229 33.7909 13.4541 33.7909C14.0853 33.7909 14.5967 34.3025 14.5967 34.9335V70.7018C14.5967 73.4661 16.8456 75.7148 19.6097 75.7148H22.8414C25.6058 75.7148 27.8545 73.4659 27.8545 70.7018C27.8545 70.0708 28.366 69.5592 28.9971 69.5592C29.6283 69.5592 30.1397 70.0708 30.1397 70.7018C30.1397 74.726 26.8657 78 22.8414 78Z" fill="#FFA393"/>
<path d="M16.2237 33.41V30.009H10.6836V33.41C10.6836 34.2514 11.3656 34.9335 12.207 34.9335H14.7003C15.5417 34.9335 16.2237 34.2514 16.2237 33.41Z" fill="#2EC4B6"/>
<path d="M18.0705 28.47V23.6993H8.83691V28.47C8.83691 29.3199 9.52596 30.009 10.3759 30.009H16.5316C17.3814 30.009 18.0705 29.3199 18.0705 28.47Z" fill="#CBF3F0"/>
<path d="M66.085 45.975V49.3761H71.6251V45.975C71.6251 45.1336 70.943 44.4516 70.1017 44.4516H67.6084C66.767 44.4516 66.085 45.1336 66.085 45.975Z" fill="#2EC4B6"/>
<path d="M60.8525 53.9929V69.9977C60.8525 74.4173 64.4354 78 68.8549 78C73.2745 78 76.8572 74.4171 76.8572 69.9977V53.9929C76.8572 51.4431 74.7902 49.3761 72.2404 49.3761H65.4692C62.9195 49.3761 60.8525 51.4431 60.8525 53.9929Z" fill="#FFA393"/>
<path d="M72.4795 49.3822C73.1159 51.6046 73.4714 54.0782 73.4714 56.6859C73.4714 66.3324 68.614 74.1525 62.6221 74.1525C62.4124 74.1525 62.204 74.1419 61.9971 74.123C63.3974 76.4461 65.9443 78 68.8547 78C73.2743 78 76.857 74.4172 76.857 69.9977V53.9929C76.857 51.5234 74.9181 49.5067 72.4795 49.3822Z" fill="#F47803"/>
<path d="M52.8503 69.1628H45.3096V27.9197H52.8503C53.7002 27.9197 54.3893 28.6088 54.3893 29.4587V67.6239C54.3891 68.4738 53.7002 69.1628 52.8503 69.1628Z" fill="#2EC4B6"/>
<path d="M43.7703 70.7018H25.1493C24.2994 70.7018 23.6104 70.0127 23.6104 69.1628V27.9197C23.6104 27.0698 24.2994 26.3807 25.1493 26.3807H43.7703C44.6202 26.3807 45.3093 27.0698 45.3093 27.9197V69.1628C45.3093 70.0127 44.6202 70.7018 43.7703 70.7018Z" fill="#2EC4B6"/>
<path d="M43.7709 26.3809H39.418C40.2679 26.3809 40.9569 27.07 40.9569 27.9199V69.163C40.9569 70.0129 40.2679 70.702 39.418 70.702H43.7709C44.6208 70.702 45.3099 70.0129 45.3099 69.163V27.9197C45.3099 27.0698 44.6208 26.3809 43.7709 26.3809Z" fill="#CBF3F0"/>
<path d="M13.4539 24.6227C20.2533 24.6227 25.7653 19.1107 25.7653 12.3114C25.7653 5.51198 20.2533 0 13.4539 0C6.65456 0 1.14258 5.51198 1.14258 12.3114C1.14258 19.1107 6.65456 24.6227 13.4539 24.6227Z" fill="#FFBA08"/>
<path d="M19.9257 1.83862C21.0904 3.71931 21.7644 5.9356 21.7644 8.31018C21.7644 15.1096 16.2524 20.6215 9.45301 20.6215C7.07843 20.6215 4.86198 19.9476 2.98145 18.7829C5.15158 22.2873 9.02949 24.6227 13.4542 24.6227C20.2536 24.6227 25.7655 19.1107 25.7655 12.3113C25.7655 7.88652 23.4301 4.00861 19.9257 1.83862Z" fill="#8DB838"/>
<path d="M13.4542 19.6982C17.5339 19.6982 20.8411 16.391 20.8411 12.3113C20.8411 8.2317 17.5339 4.9245 13.4542 4.9245C9.37459 4.9245 6.06738 8.2317 6.06738 12.3113C6.06738 16.391 9.37459 19.6982 13.4542 19.6982Z" fill="#CBF3F0"/>
<path d="M14.5967 10.8635V9.69513C14.5967 9.06412 14.0853 8.55255 13.4541 8.55255C12.823 8.55255 12.3116 9.06412 12.3116 9.69513V10.8633C11.8835 11.2018 11.6074 11.7245 11.6074 12.3113C11.6074 13.3296 12.4359 14.158 13.4541 14.158C14.4724 14.158 15.3008 13.3296 15.3008 12.3113C15.3008 11.7245 15.0248 11.202 14.5967 10.8635Z" fill="#FFA393"/>
</svg>
