<svg width="72" height="72" viewBox="0 0 72 72" fill="none" xmlns="http://www.w3.org/2000/svg">
<circle cx="35.75" cy="35.75" r="35.75" fill="white"/>
<path d="M50.2833 40.7666L52.6666 38.3833L50.2833 35.9999L44.3333 41.9499L30.05 27.6666L36 21.7166L33.6166 19.3333L31.2333 21.7166L28.85 19.3333L25.2833 22.8999L22.9 20.5166L20.5166 22.8999L22.9 25.2833L19.3333 28.8499L21.7166 31.2333L19.3333 33.6166L21.7166 35.9999L27.6666 30.0499L41.95 44.3333L36 50.2833L38.3833 52.6666L40.7666 50.2833L43.15 52.6666L46.7166 49.0999L49.1 51.4833L51.4833 49.0999L49.1 46.7166L52.6666 43.1499L50.2833 40.7666Z" fill="#2EC4B6"/>
</svg>
