<svg width="122" height="39" viewBox="0 0 122 39" fill="none" xmlns="http://www.w3.org/2000/svg">
<path d="M6.00381 28.482C6.61523 28.4849 7.22027 28.3577 7.77872 28.1087C8.31742 27.8674 8.80834 27.5311 9.22803 27.116C9.64697 26.6943 9.98243 26.1972 10.2167 25.6508C10.4673 25.0845 10.5945 24.4714 10.59 23.8521H11.9519C11.956 24.6545 11.7952 25.4492 11.4794 26.1869C10.8677 27.6143 9.73031 28.7518 8.30286 29.3634C7.57336 29.6835 6.78451 29.8458 5.98793 29.8399C5.18506 29.8446 4.38998 29.6824 3.65315 29.3634C2.22026 28.7598 1.08022 27.6198 0.476582 26.1869C0.157683 25.45 -0.00457647 24.655 9.82078e-05 23.8521V7.53248C-0.00457647 6.72961 0.157683 5.93454 0.476582 5.19771C1.08022 3.76482 2.22026 2.62478 3.65315 2.02114C4.38925 1.71198 5.17962 1.55273 5.978 1.55273C6.77639 1.55273 7.56676 1.71198 8.30286 2.02114C9.73575 2.62478 10.8758 3.76482 11.4794 5.19771C11.7955 5.93388 11.9564 6.72735 11.9519 7.52852H10.59C10.5948 6.91691 10.4675 6.31148 10.2167 5.75361C9.97929 5.21488 9.64406 4.72482 9.22803 4.30826C8.8094 3.89188 8.31824 3.55547 7.77872 3.31559C7.22027 3.06663 6.61523 2.9394 6.00381 2.94234C5.38481 2.94033 4.77218 3.06745 4.20508 3.31559C3.65938 3.55281 3.16254 3.88943 2.73989 4.30826C2.32905 4.7149 1.99303 5.19072 1.74721 5.7139C1.49829 6.27375 1.37106 6.88009 1.37396 7.49278V23.8402C1.37233 24.4604 1.49943 25.0743 1.74721 25.6429C2.21953 26.749 3.09976 27.6306 4.20508 28.1047C4.77218 28.3529 5.38481 28.48 6.00381 28.478" fill="#1E1E1E"/>
<path d="M20.3815 9.0612C21.1262 9.05544 21.8641 9.20276 22.5495 9.49401C23.8759 10.0474 24.9304 11.1019 25.4838 12.4284C25.7751 13.1138 25.9224 13.8517 25.9167 14.5964V29.6374H24.5547V14.5964C24.5575 14.0356 24.4453 13.4802 24.2251 12.9644C23.8059 11.967 23.0116 11.1741 22.0134 10.7567C21.4975 10.5365 20.9424 10.423 20.3815 10.423C19.8206 10.423 19.2654 10.5365 18.7495 10.7567C18.2564 10.9649 17.8076 11.2655 17.4273 11.6422C17.0502 12.023 16.7484 12.4716 16.5378 12.9644C16.3177 13.4802 16.2055 14.0356 16.2083 14.5964V29.6374H14.8463V0.0119629H16.2083V10.9632C16.7227 10.3606 17.363 9.87802 18.084 9.54942C18.805 9.22083 19.5892 9.05418 20.3815 9.0612Z" fill="#1E1E1E"/>
<path d="M58.3537 18.8174C58.9573 19.1192 59.5727 19.4448 60.1922 19.7862C60.7918 20.1201 61.3525 20.5196 61.8638 20.9775C62.345 21.3984 62.7564 21.8929 63.0828 22.4426C63.41 23.015 63.5748 23.6657 63.5593 24.3248C63.5651 25.0694 63.4178 25.8074 63.1265 26.4928C62.5698 27.817 61.5164 28.8705 60.1922 29.4271C59.5043 29.7127 58.7669 29.8598 58.0222 29.8598C57.2774 29.8598 56.54 29.7127 55.8522 29.4271C54.8497 29.0043 53.9949 28.2941 53.3956 27.386C52.7964 26.478 52.4795 25.4127 52.485 24.3248H53.8509C53.8466 24.8857 53.9588 25.4414 54.1805 25.9567C54.5997 26.9542 55.394 27.747 56.3922 28.1644C56.9081 28.3846 57.4632 28.4982 58.0241 28.4982C58.5851 28.4982 59.1402 28.3846 59.6561 28.1644C60.6545 27.7487 61.4481 26.9551 61.8638 25.9567C62.0868 25.4417 62.2003 24.886 62.1974 24.3248C62.202 23.8499 62.0726 23.3834 61.8241 22.9787C61.5582 22.5606 61.2224 22.1912 60.8314 21.8868C60.3866 21.5328 59.9093 21.2217 59.406 20.9576C58.8765 20.6664 58.3193 20.3699 57.7343 20.0682C57.099 19.7664 56.4716 19.4421 55.8522 19.0953C55.2561 18.7696 54.6959 18.3823 54.1805 17.9399C53.6982 17.5276 53.2865 17.0394 52.9615 16.4945C52.6343 15.9222 52.4696 15.2715 52.485 14.6124C52.4785 13.5242 52.7949 12.4585 53.3943 11.5503C53.9937 10.642 54.8491 9.93195 55.8522 9.51004C56.54 9.22442 57.2774 9.07739 58.0222 9.07739C58.7669 9.07739 59.5043 9.22442 60.1922 9.51004C61.5164 10.0667 62.5698 11.1201 63.1265 12.4444C63.4178 13.1298 63.5651 13.8677 63.5593 14.6124H62.1974C62.2003 14.0512 62.0868 13.4955 61.8638 12.9804C61.4481 11.982 60.6545 11.1885 59.6561 10.7727C59.1402 10.5525 58.5851 10.439 58.0241 10.439C57.4632 10.439 56.9081 10.5525 56.3922 10.7727C55.394 11.1901 54.5997 11.983 54.1805 12.9804C53.9588 13.4957 53.8466 14.0515 53.8509 14.6124C53.8449 15.0869 53.9729 15.5535 54.2202 15.9585C54.4913 16.3789 54.834 16.7485 55.2327 17.0504C55.6898 17.399 56.1745 17.7097 56.682 17.9796C57.2115 18.2681 57.7687 18.5513 58.3537 18.8293" fill="#1E1E1E"/>
<path d="M74.3834 18.317C74.1372 18.4004 73.7242 18.5552 73.1445 18.7895C72.5648 19.0238 71.9533 19.266 71.2664 19.5122C70.5794 19.7584 69.9362 20.0085 69.281 20.2587C68.6258 20.5088 68.1533 20.6836 67.796 20.7947V24.3088C67.7935 24.8696 67.9057 25.4249 68.1255 25.9408C68.3361 26.4336 68.6379 26.8822 69.015 27.263C69.3946 27.6406 69.8436 27.9412 70.3372 28.1485C70.8531 28.3687 71.4082 28.4822 71.9692 28.4822C72.5301 28.4822 73.0852 28.3687 73.6011 28.1485C74.0937 27.9392 74.5423 27.6388 74.9234 27.263C75.2991 26.8811 75.6007 26.4328 75.8128 25.9408C76.0327 25.4249 76.1448 24.8696 76.1424 24.3088H77.5043C77.5101 25.0535 77.3628 25.7914 77.0715 26.4768C76.5149 27.8011 75.4614 28.8545 74.1372 29.4112C73.4501 29.6969 72.7133 29.844 71.9692 29.844C71.225 29.844 70.4882 29.6969 69.8012 29.4112C68.4747 28.8578 67.4202 27.8033 66.8668 26.4768C66.5742 25.7917 66.4255 25.0538 66.43 24.3088V14.5965C66.4255 13.8515 66.5742 13.1136 66.8668 12.4284C67.4202 11.102 68.4747 10.0475 69.8012 9.49409C70.4882 9.20836 71.225 9.06128 71.9692 9.06128C72.7133 9.06128 73.4501 9.20836 74.1372 9.49409C75.4614 10.0508 76.5149 11.1042 77.0715 12.4284C77.3604 13.1006 77.5077 13.8251 77.5043 14.5567V14.5965C77.5043 16.3039 76.4574 17.544 74.3635 18.317H74.3834ZM71.9811 10.4232C71.4203 10.42 70.8648 10.5322 70.3491 10.7528C69.3516 11.1733 68.5579 11.967 68.1374 12.9645C67.9173 13.4803 67.8051 14.0357 67.8079 14.5965V19.3613C68.2049 19.1945 68.7291 18.996 69.3366 18.7617C69.9441 18.5275 70.5477 18.3011 71.1552 18.0788C71.7627 17.8564 72.3186 17.6539 72.8268 17.4593L73.9228 17.0623C74.4588 16.8481 74.9605 16.5565 75.4118 16.1966C75.6548 16.0063 75.8489 15.7608 75.978 15.4804C76.1071 15.2 76.1676 14.8929 76.1543 14.5845C76.1582 14.0301 76.0459 13.4809 75.8247 12.9724C75.6097 12.4879 75.3083 12.0466 74.9353 11.67C74.5534 11.2943 74.1051 10.9927 73.6131 10.7806C73.0972 10.5608 72.5418 10.4486 71.9811 10.451" fill="#1E1E1E"/>
<path d="M97.0284 28.2716V29.6375H88.1856H86.8197V1.70752H88.1856V28.2716H97.0284Z" fill="#1E1E1E"/>
<path d="M99.6727 8.93833H101.055V29.3478H99.6926V10.34H98.3267V8.93833H99.6727ZM100.002 4.2251C99.8652 4.2307 99.7285 4.20783 99.6007 4.15793C99.4729 4.10803 99.3568 4.03219 99.2598 3.93519C99.1628 3.83818 99.087 3.72212 99.0371 3.59433C98.9872 3.46654 98.9643 3.32979 98.9699 3.19271C98.9648 3.05569 98.9878 2.91907 99.0377 2.79134C99.0876 2.66361 99.1632 2.54749 99.2598 2.45019C99.3567 2.35299 99.4727 2.27702 99.6005 2.22712C99.7284 2.17721 99.8652 2.15447 100.002 2.16033C100.272 2.15764 100.532 2.26186 100.725 2.45019C100.827 2.54471 100.907 2.65987 100.96 2.78794C101.014 2.916 101.039 3.05402 101.035 3.19271C101.04 3.33151 101.015 3.46977 100.961 3.59795C100.908 3.72614 100.827 3.8412 100.725 3.93523C100.532 4.12357 100.272 4.22779 100.002 4.2251Z" fill="#1E1E1E"/>
<path d="M40.0408 6.11097C39.8166 5.89284 39.5157 5.77161 39.203 5.77346C38.966 5.77836 38.7355 5.85202 38.5396 5.98548C38.3438 6.11894 38.1909 6.30644 38.0996 6.52519C38.0083 6.74394 37.9825 6.98449 38.0255 7.2176C38.0684 7.45072 38.1781 7.66634 38.3413 7.83823C38.4552 7.94912 38.59 8.03611 38.738 8.09407C38.886 8.15204 39.0441 8.17981 39.203 8.17575C39.5151 8.17865 39.816 8.05887 40.0408 7.8422C40.1551 7.72887 40.2458 7.59403 40.3077 7.44546C40.3696 7.29689 40.4015 7.13754 40.4015 6.97658C40.4015 6.81563 40.3696 6.65627 40.3077 6.5077C40.2458 6.35913 40.1551 6.2243 40.0408 6.11097Z" fill="#1E1E1E"/>
<path d="M39.2031 33.112C38.8871 33.112 38.5841 32.9865 38.3607 32.7631C38.1373 32.5397 38.0118 32.2367 38.0118 31.9208C38.0118 31.6048 38.1373 31.3018 38.3607 31.0784C38.5841 30.8551 38.8871 30.7295 39.2031 30.7295C39.5152 30.7266 39.8161 30.8464 40.0409 31.0631C40.1552 31.1764 40.2459 31.3112 40.3078 31.4598C40.3697 31.6084 40.4016 31.7677 40.4016 31.9287C40.4016 32.0896 40.3697 32.249 40.3078 32.3976C40.2459 32.5461 40.1552 32.681 40.0409 32.7943C39.8161 33.011 39.5152 33.1308 39.2031 33.1279V33.112ZM39.2031 31.0631C39.0323 31.068 38.8667 31.122 38.7258 31.2185C38.5849 31.3151 38.4748 31.4501 38.4087 31.6076C38.3425 31.765 38.3231 31.9382 38.3527 32.1064C38.3823 32.2746 38.4597 32.4307 38.5757 32.5561C38.7442 32.7107 38.9645 32.7964 39.1931 32.7964C39.4218 32.7964 39.6421 32.7107 39.8106 32.5561C39.8967 32.4775 39.9645 32.3809 40.0091 32.2731C40.0537 32.1654 40.0741 32.0492 40.0687 31.9327C40.0735 31.8168 40.0529 31.7014 40.0083 31.5944C39.9637 31.4873 39.8962 31.3914 39.8106 31.3132C39.7309 31.2337 39.6361 31.1709 39.5318 31.1286C39.4274 31.0863 39.3156 31.0654 39.2031 31.0671" fill="#1E1E1E"/>
<path d="M110.084 10.6297H105.621V33.3144C105.625 34.0555 105.49 34.7907 105.224 35.4824C104.975 36.1345 104.612 36.7369 104.152 37.2613C103.707 37.7597 103.167 38.1646 102.563 38.4525C101.957 38.7414 101.293 38.8894 100.622 38.8853V37.5194C101.11 37.5227 101.592 37.4097 102.027 37.1898C102.466 36.9703 102.859 36.6684 103.183 36.3004C103.525 35.9111 103.794 35.4632 103.977 34.9781C104.171 34.4546 104.269 33.9005 104.267 33.3422V5.5472C104.263 4.80612 104.398 4.07087 104.664 3.3792C104.91 2.73228 105.275 2.13707 105.74 1.62415C106.187 1.12805 106.727 0.723494 107.328 0.432935C107.934 0.143243 108.598 -0.00477251 109.27 0.000117327V1.36208C108.782 1.36015 108.3 1.47447 107.864 1.69562C107.42 1.91535 107.027 2.225 106.709 2.60491C106.369 2.99575 106.1 3.4433 105.915 3.92716C105.718 4.44019 105.62 4.98578 105.625 5.53529V9.28762H110.088L110.084 10.6297Z" fill="#1E1E1E"/>
<path d="M118.843 18.3171C118.593 18.4005 118.18 18.5553 117.604 18.7896C117.029 19.0239 116.413 19.2661 115.722 19.5123C115.031 19.7585 114.392 20.0086 113.761 20.2588C113.129 20.5089 112.629 20.6836 112.272 20.7948V24.3089C112.269 24.8696 112.382 25.425 112.601 25.9408C112.813 26.4328 113.115 26.8812 113.491 27.2631C113.872 27.6389 114.32 27.9393 114.813 28.1486C115.329 28.3688 115.884 28.4823 116.445 28.4823C117.006 28.4823 117.561 28.3688 118.077 28.1486C118.571 27.9413 119.02 27.6406 119.399 27.2631C119.776 26.8823 120.078 26.4337 120.289 25.9408C120.508 25.425 120.621 24.8696 120.618 24.3089H121.984C121.986 25.7782 121.407 27.1887 120.372 28.2319C119.868 28.7373 119.273 29.1416 118.617 29.4232C117.929 29.7088 117.192 29.8558 116.447 29.8558C115.702 29.8558 114.965 29.7088 114.277 29.4232C112.953 28.8665 111.899 27.8131 111.343 26.4888C111.051 25.8034 110.904 25.0655 110.91 24.3208V14.5965C110.904 13.8518 111.051 13.1139 111.343 12.4285C111.899 11.1043 112.953 10.0508 114.277 9.49416C114.965 9.20854 115.702 9.06152 116.447 9.06152C117.192 9.06152 117.929 9.20854 118.617 9.49416C119.273 9.77568 119.868 10.18 120.372 10.6854C120.88 11.1871 121.284 11.7833 121.563 12.4404C121.853 13.1123 122.002 13.8368 122 14.5687V14.6084C122 16.3158 120.953 17.556 118.859 18.329L118.843 18.3171ZM116.477 10.4352C115.916 10.4325 115.361 10.5446 114.845 10.7648C113.847 11.1853 113.054 11.979 112.633 12.9765C112.413 13.4923 112.301 14.0477 112.304 14.6084V19.3733C112.701 19.2065 113.229 19.008 113.832 18.7737C114.436 18.5394 115.023 18.3131 115.651 18.0908C116.278 17.8684 116.814 17.6659 117.327 17.4713L118.418 17.0742C118.954 16.8601 119.456 16.5684 119.907 16.2086C120.151 16.0189 120.346 15.7735 120.475 15.493C120.604 15.2125 120.664 14.905 120.65 14.5965C120.654 14.042 120.542 13.4929 120.32 12.9844C120.107 12.4993 119.805 12.0577 119.431 11.682C119.051 11.3045 118.602 11.0027 118.109 10.7926C117.593 10.572 117.038 10.4598 116.477 10.463" fill="#1E1E1E"/>
<path d="M30.1734 14.6045C30.1702 14.0437 30.2824 13.4882 30.503 12.9726C30.7151 12.4806 31.0166 12.0322 31.3924 11.6503C31.7732 11.2732 32.2218 10.9715 32.7147 10.7609C33.2312 10.5433 33.7861 10.4313 34.3466 10.4313C34.9071 10.4313 35.462 10.5433 35.9786 10.7609C36.4664 10.9689 36.9108 11.2665 37.2889 11.6384C37.503 11.2904 37.7561 10.968 38.0433 10.6775L38.1585 10.5742C37.6789 10.1216 37.1222 9.75852 36.5146 9.50215C35.8275 9.21643 35.0907 9.06934 34.3466 9.06934C33.6025 9.06934 32.8657 9.21643 32.1786 9.50215C30.8522 10.0556 29.7977 11.1101 29.2442 12.4365C28.953 13.1219 28.8057 13.8598 28.8114 14.6045V19.4607H30.1734V14.6045Z" fill="#F37921"/>
<path d="M38.52 24.3129C38.5232 24.8737 38.411 25.4292 38.1905 25.9449C38.1905 25.9687 38.1666 25.9846 38.1587 26.0044C37.9533 26.4747 37.6625 26.9028 37.301 27.2671C36.924 27.6402 36.4793 27.9381 35.9907 28.1446C35.4741 28.3622 34.9192 28.4742 34.3587 28.4742C33.7982 28.4742 33.2433 28.3622 32.7268 28.1446C31.7293 27.7241 30.9356 26.9305 30.5151 25.933C30.2945 25.4173 30.1823 24.8618 30.1855 24.301V19.4607H28.8236V24.3129C28.8174 25.0589 28.9647 25.7982 29.2564 26.4849C29.8345 27.8354 30.9238 28.9022 32.2862 29.452C33.6485 30.0019 35.1731 29.9901 36.5267 29.4192C37.1292 29.1599 37.6815 28.7971 38.1587 28.3471L38.2738 28.2439C38.5599 27.9523 38.8129 27.63 39.0283 27.283C39.0918 27.1798 39.1434 27.0646 39.203 26.9574C39.2625 26.8502 39.3777 26.6556 39.4492 26.4889C39.7421 25.8025 39.8908 25.0632 39.886 24.3169V19.4607H38.52V24.3129Z" fill="#FDB913"/>
<path d="M49.5942 14.6044C49.598 13.8599 49.4508 13.1223 49.1614 12.4364C48.6079 11.1099 47.5534 10.0555 46.227 9.50204C45.2328 9.08093 44.1376 8.95844 43.0749 9.14953C42.0123 9.34062 41.0283 9.83702 40.2431 10.5781L40.132 10.6774C39.8434 10.9692 39.589 11.2929 39.3736 11.6423C39.31 11.7455 39.2624 11.8606 39.2028 11.9679C39.1108 12.1193 39.0273 12.2757 38.9527 12.4364C38.6632 13.1223 38.516 13.8599 38.5198 14.6044V19.4606H39.8818V14.6044C39.878 14.0431 39.9916 13.4872 40.2153 12.9724C40.2153 12.9724 40.2352 12.9367 40.2431 12.9169C40.4492 12.4526 40.7386 12.0301 41.0968 11.67C41.4737 11.2956 41.9184 10.9965 42.4072 10.7886C42.9245 10.5711 43.48 10.4591 44.0411 10.4591C44.6023 10.4591 45.1578 10.5711 45.6751 10.7886C46.6725 11.2078 47.4654 12.002 47.8828 13.0002C48.1053 13.5153 48.2175 14.0712 48.2124 14.6322V19.4884H49.5783L49.5942 14.6044Z" fill="#3DBEB3"/>
<path d="M48.2441 19.4607V24.3129C48.2479 24.8742 48.1343 25.4301 47.9105 25.9449C47.4931 26.9431 46.7003 27.7373 45.7028 28.1565C45.1855 28.374 44.63 28.486 44.0689 28.486C43.5077 28.486 42.9522 28.374 42.4349 28.1565C41.9477 27.9476 41.5034 27.65 41.1246 27.279C40.9105 27.627 40.6574 27.9494 40.3702 28.2399L40.255 28.3432C40.735 28.7952 41.2917 29.1582 41.8989 29.4153C42.918 29.8458 44.0425 29.9624 45.1283 29.7502C46.2141 29.538 47.2118 29.0066 47.9939 28.2241C48.5087 27.7084 48.9162 27.0959 49.1929 26.4218C49.4696 25.7478 49.61 25.0256 49.606 24.297V19.4607H48.2441Z" fill="#8DB93F"/>
</svg>
