<svg width="24" height="24" viewBox="0 0 24 24" fill="none" xmlns="http://www.w3.org/2000/svg">
<path opacity="0.3" d="M20.738 5.35236C21.0957 4.93155 21.7268 4.88038 22.1476 5.23807C22.5684 5.59575 22.6196 6.22685 22.2619 6.64765L13.7619 16.6477C13.3986 17.0751 12.7549 17.1201 12.3356 16.7474L7.83562 12.7474C7.42283 12.3805 7.38565 11.7484 7.75257 11.3356C8.11949 10.9229 8.75156 10.8857 9.16434 11.2526L12.9002 14.5734L20.738 5.35236Z" fill="#2EC4B6"/>
<path d="M15.738 6.35236C16.0957 5.93155 16.7268 5.88038 17.1476 6.23807C17.5684 6.59575 17.6196 7.22685 17.2619 7.64765L8.76192 17.6477C8.39862 18.0751 7.75488 18.1201 7.33562 17.7474L2.83562 13.7474C2.42283 13.3805 2.38565 12.7484 2.75257 12.3356C3.11949 11.9229 3.75156 11.8857 4.16434 12.2526L7.90019 15.5734L15.738 6.35236Z" fill="#2EC4B6"/>
</svg>
