<svg width="90" height="90" viewBox="0 0 90 90" fill="none" xmlns="http://www.w3.org/2000/svg">
<path d="M89.7081 89.6069H0.372559V80.477H2.33239L4.29222 80.314L4.78217 79.4988L7.06864 76.4011L12.9481 68.7385L14.7446 66.456H27.9735L28.6268 68.7385L29.28 71.347L29.4434 71.6731L28.3001 72.9774C26.5187 75.6051 24.4957 78.0613 22.2573 80.314L25.3604 80.477H28.4634L28.9534 79.4988C29.599 78.2448 30.4243 77.0914 31.4032 76.0751C31.9325 77.444 32.3157 78.8648 32.5464 80.314L35.8128 80.477H38.9159L39.0792 80.314C39.484 79.6205 39.8653 78.9136 40.2224 78.1945L42.0189 76.2381C42.5092 77.6083 42.8381 79.0309 42.9988 80.477C45.7216 80.4735 48.4441 80.4191 51.1648 80.314L50.6748 79.4988C49.6949 77.7054 49.8582 77.8684 47.8984 71.9992L47.0818 69.2276L48.0617 67.7603L49.205 66.456H62.4338L63.4137 69.5537C64.3863 73.1282 65.3118 76.7152 66.1902 80.314L70.4365 80.477C71.7997 80.3332 73.1608 80.1702 74.5194 79.9879L72.7229 75.749C69.563 66.2994 66.7843 56.727 64.3936 47.0548H57.6976L57.3709 47.544L55.9011 50.1525L45.4486 64.0105L44.4687 60.5867C48.0648 56.0349 51.7125 51.524 55.4111 47.0548H48.715L48.5517 47.2179V47.544C48.3884 48.3591 48.2251 48.8482 47.5718 49.6634L42.3456 56.1848L42.0189 55.3696C41.3794 52.7034 40.7261 50.0404 40.0591 47.3809V47.0548H31.8931L32.0565 47.544C33.8583 52.2673 35.4925 57.0526 36.956 61.891L34.8329 64.6626C33.1724 59.2521 31.5935 53.817 30.0966 48.3591L29.9333 47.2179V47.0548H22.9106L22.2573 48.5222L21.1141 50.6416C17.5274 55.7661 13.7689 60.7687 9.84507 65.6408C6.80713 69.6583 3.70365 73.6261 0.535878 77.5424H0.372559V0.42688H84.4819L57.0443 35.9685C54.889 38.825 52.7657 41.7055 50.6748 44.6093H55.7377L63.0871 35.1533L68.3133 28.3058L89.7081 0.42688V89.6069ZM37.1194 71.8361L36.4661 69.5537L38.5892 66.7821L38.9159 67.2712L40.0591 70.5319L40.2224 70.8579L39.8958 71.347L37.936 73.9556L37.1194 71.8361ZM18.011 62.2171C19.633 60.1431 21.2662 58.078 22.9106 56.0218C23.4445 55.2901 23.9353 54.528 24.3805 53.7393V54.3914L24.5438 55.5327C25.0726 57.7953 25.7269 60.0269 26.5036 62.2171C23.6734 62.3033 20.8412 62.3033 18.011 62.2171ZM52.4714 62.2171C55.2478 58.7934 57.5342 55.8587 58.3508 54.3914L58.6775 53.7393L58.8408 54.5545V55.6957C59.4067 57.8947 60.0605 60.0703 60.8006 62.2171H60.9639H52.308H52.4714Z" fill="#525F69"/>
<path d="M55.901 45.0984L49.205 44.9354L84.3186 0.42688H89.7081L55.901 45.0984Z" fill="#F7F6F3"/>
</svg>
