<svg width="94" height="93" viewBox="0 0 94 93" fill="none" xmlns="http://www.w3.org/2000/svg">
<path d="M91.6986 1.67399H1.95361V91.419H91.6986V1.67399Z" fill="#525F69"/>
<path d="M41.1558 15.1116V15.066H68.2188V15.1134L41.1558 15.1116Z" fill="#E4B935"/>
<path d="M41.1558 15.1116H68.2188C68.0142 16.0955 67.8134 17.0804 67.6041 18.0634C66.8031 21.8249 65.9995 25.5852 65.1935 29.3443C64.868 30.8723 64.5425 32.4012 64.2133 33.9273C64.1715 34.1133 64.1901 34.1794 64.3993 34.1822C65.1433 34.1933 65.8873 34.1822 66.6313 34.1533C66.9953 34.1317 67.3604 34.1554 67.7185 34.224C68.3695 34.3617 68.5508 34.8313 68.1612 35.3772C67.9433 35.6613 67.66 35.8884 67.3353 36.0394C66.6016 36.4179 65.8073 36.5797 64.9992 36.6848C64.6009 36.7459 64.1987 36.777 63.7958 36.7778C63.6395 36.7778 63.5995 36.8503 63.5735 36.9759C63.3255 38.1539 63.0753 39.3344 62.823 40.5173L60.5268 51.3444C60.4803 51.5639 60.4338 51.7824 60.3901 52.0037C60.3678 52.1284 60.3231 52.2037 60.1808 52.1777C60.1422 52.1739 60.1033 52.1739 60.0646 52.1777H33.5847C33.2648 52.1777 33.2657 52.1777 33.3345 51.8503C34.6601 45.6081 35.985 39.366 37.3094 33.1238C37.6051 31.7313 37.9018 30.3394 38.1994 28.9481C38.2252 28.8676 38.2199 28.7803 38.1845 28.7035C37.7892 27.9214 37.6637 27.0723 37.5809 26.2149C37.3698 24.0349 37.8767 21.9527 38.4709 19.8862C38.643 19.291 39.2903 18.9246 39.9961 19.0046C40.2556 19.0334 40.33 18.9627 40.3784 18.7172C40.6136 17.5417 40.8713 16.3708 41.1224 15.1981C41.1309 15.1683 41.1421 15.1393 41.1558 15.1116ZM50.3628 34.3626C50.4321 34.3551 50.5019 34.3551 50.5712 34.3626C51.4212 34.556 51.8564 34.0538 52.2005 33.3982C52.2396 33.3228 52.2796 33.2466 52.313 33.1694C52.5521 32.6253 52.5511 32.6244 52.1112 32.2394C52.0823 32.2121 52.0512 32.1873 52.0182 32.165C51.8257 32.0478 51.8267 31.9223 51.9448 31.7307C52.3106 31.1355 52.8453 30.6626 53.4808 30.3723C54.1163 30.082 54.8237 29.9873 55.5132 30.1004C55.749 30.1323 55.9714 30.2289 56.1558 30.3794C56.7603 30.8639 57.3853 31.3205 58.0232 31.7614C58.6101 32.178 59.2226 32.5573 59.8572 32.8969C60.0925 33.0197 60.1055 33.0141 60.0841 32.7611C60.0432 32.2831 59.9958 31.8054 59.9418 31.328C59.8219 30.2548 59.4973 29.2662 58.811 28.4041C58.319 27.7866 57.8512 27.1495 57.349 26.5394C57.3001 26.4869 57.2639 26.4239 57.2431 26.3552C57.2223 26.2866 57.2175 26.2141 57.229 26.1432C57.3406 25.2635 57.3425 25.2579 56.7938 24.5622C55.5848 23.0296 54.1489 21.7164 52.6813 20.4386C52.5949 20.3731 52.4942 20.3291 52.3874 20.3103C51.3729 20.0607 50.3349 19.9182 49.2905 19.8853C48.6842 19.8574 48.1225 19.9243 47.6249 20.2963C47.2185 20.6004 46.7879 20.6507 46.2773 20.566C44.6294 20.2917 42.9731 20.0666 41.3186 19.8323C40.8368 19.7644 40.3598 19.6463 39.8678 19.6704C39.4446 19.69 39.2093 19.8369 39.1024 20.1857C38.5751 21.908 38.1724 23.6555 38.231 25.4736C38.2615 27.1515 38.817 28.7777 39.8194 30.1236C40.9354 31.6284 42.4457 32.5937 44.1728 33.2475C46.1639 33.999 48.2452 34.2677 50.3582 34.3589L50.3628 34.3626ZM50.1768 45.7765C50.0792 45.8406 50.015 45.8834 49.9499 45.9243C49.1436 46.4303 48.3382 46.938 47.5273 47.4365C47.3636 47.537 47.3561 47.589 47.5087 47.7155C48.8107 48.7897 50.1071 49.8722 51.4063 50.951C51.4388 50.9789 51.4686 51.0263 51.5374 50.9938C51.5514 50.7538 51.5793 50.5074 51.5756 50.2609C51.5751 49.9827 51.6337 49.7076 51.7476 49.4537C52.1094 48.5907 52.4553 47.7211 52.8106 46.8553C52.8561 46.7491 52.8767 46.634 52.871 46.5186C52.8394 45.7523 52.8097 44.986 52.7864 44.2197C52.7825 44.081 52.7403 43.9462 52.6646 43.83C51.8425 42.5001 51.0259 41.1674 50.201 39.8384C50.1644 39.7856 50.1407 39.725 50.1316 39.6614C50.1226 39.5978 50.1285 39.5329 50.1489 39.472C50.2866 38.9968 50.4112 38.5178 50.5479 38.0417C50.5995 37.8554 50.6153 37.661 50.5944 37.4688C50.546 36.9443 50.5014 36.4197 50.4651 35.8943C50.4549 35.7194 50.4056 35.6618 50.2205 35.6609C48.9889 35.6617 47.7602 35.5399 46.5526 35.2972C43.4083 34.6462 40.874 33.0727 39.0661 30.3878C39.0299 30.3347 39.0122 30.2585 38.9155 30.2371C38.9052 30.2808 38.8941 30.3236 38.8848 30.3664C38.0825 34.1719 37.2805 37.9781 36.4789 41.7849C36.3784 42.2601 36.3784 42.2657 36.8564 42.3159C37.1652 42.3485 37.4591 42.4471 37.7864 42.328C39.3721 41.7579 40.968 41.2167 42.5583 40.654C42.6371 40.6178 42.7246 40.6043 42.8107 40.6151C42.8968 40.626 42.9782 40.6607 43.0456 40.7154C45.1567 42.222 47.2721 43.723 49.3919 45.2185L50.1768 45.7765ZM42.7424 41.5385C42.7424 42.6768 42.7424 43.7993 42.7424 44.9227C42.7444 45.1144 42.7067 45.3044 42.6317 45.4807C42.0179 46.9418 41.4116 48.4065 40.7959 49.8675C40.761 49.9352 40.7441 50.0108 40.747 50.0869C40.75 50.163 40.7726 50.2371 40.8127 50.3019C40.9429 50.5306 41.0582 50.7668 41.1651 51.0077C41.1848 51.0686 41.2249 51.1209 41.2786 51.1558C41.3322 51.1907 41.3963 51.206 41.4599 51.1993C42.9405 51.1909 44.4201 51.1993 45.8998 51.1928C45.9639 51.1928 46.0374 51.2225 46.1062 51.1472C45.9704 50.8682 45.8393 50.579 45.6924 50.3C45.6171 50.1657 45.5945 50.0082 45.6291 49.8582C45.9918 48.0857 46.3452 46.3103 46.7135 44.5386C46.7507 44.3629 46.7135 44.2754 46.574 44.1778C45.3601 43.3327 44.1483 42.4846 42.9386 41.6333C42.8852 41.5765 42.8127 41.5414 42.735 41.5347L42.7424 41.5385ZM63.2164 36.1872C63.3866 36.1872 63.5567 36.1928 63.7269 36.1872C64.7434 36.1463 65.7469 36.0208 66.7141 35.686C67.0117 35.5971 67.286 35.4437 67.5176 35.2368C67.6274 35.1317 67.7269 35.008 67.6627 34.849C67.606 34.7076 67.4525 34.6974 67.3242 34.6964C67.0145 34.6964 66.7029 34.6881 66.3942 34.716C65.088 34.8407 63.77 34.7429 62.4965 34.4267C60.2311 33.8641 58.212 32.7955 56.3446 31.4228C56.1023 31.2336 55.8129 31.1142 55.5076 31.0778C54.6362 30.9848 53.8792 31.1866 53.3156 31.9083C53.2114 32.0413 53.2086 32.1259 53.3453 32.2468C54.0642 32.8839 54.8389 33.4551 55.6601 33.9534C57.9758 35.3651 60.4729 36.1854 63.2089 36.1835L63.2164 36.1872ZM56.2841 35.181C56.3083 35.3428 56.3306 35.46 56.3427 35.5855C56.3809 35.9854 56.512 36.3742 56.472 36.7815C56.3492 38.0305 56.0833 39.2581 55.9196 40.5015C55.7931 41.4696 55.6638 42.4387 55.7159 43.4171C55.7578 44.2076 56.0144 44.9199 56.685 45.3896C57.3174 45.8323 58.0121 45.9671 58.7421 45.5905C58.7989 45.5665 58.8466 45.5251 58.8784 45.4723C58.9101 45.4195 58.9243 45.358 58.9188 45.2966C58.9159 45.0335 58.8901 44.7712 58.8416 44.5126C58.8091 44.3489 58.7561 44.3061 58.5794 44.3378C57.9228 44.4559 57.4718 43.9834 57.6001 43.3315C57.7126 42.7586 57.9405 42.2248 58.1581 41.6882C58.6873 40.4001 59.3159 39.1558 59.8656 37.8752C60.0059 37.5145 60.0921 37.1349 60.1213 36.749C60.1362 36.6225 60.1213 36.5574 59.9632 36.5369C59.703 36.4989 59.4452 36.4455 59.1913 36.377C58.1732 36.1098 57.1955 35.7076 56.2841 35.181Z" fill="#EEF6F8"/>
<path d="M50.7841 62.9257C51.0566 62.9695 51.3237 63.0418 51.5811 63.1414C52.4256 63.4939 52.8757 64.1477 52.9166 65.0396C52.9929 66.6866 52.1996 67.8965 50.8901 68.8033C50.0485 69.3829 49.0495 69.6906 48.0276 69.6849C46.6726 69.6952 45.3166 69.6849 43.9607 69.6849C43.598 69.6849 43.5162 69.5826 43.5887 69.2311C44.409 65.2563 45.2295 61.2814 46.0504 57.3066C46.1341 56.8984 46.2364 56.8184 46.6456 56.8184C47.5207 56.8184 48.3959 56.8184 49.2719 56.8184C50.082 56.8184 50.8808 56.9114 51.6304 57.2415C52.4432 57.5996 53.0533 58.1613 53.1407 59.0876C53.2653 60.4091 52.8199 61.5205 51.755 62.3537C51.4518 62.5771 51.1265 62.7688 50.7841 62.9257ZM47.1971 68.183V68.169C47.4835 68.169 47.77 68.1811 48.0555 68.169C49.431 68.103 50.3331 67.3097 50.5814 65.9575C50.7822 64.8582 50.2484 64.0975 49.152 63.9319C48.4675 63.8306 47.7765 63.9078 47.0892 63.8836C46.9758 63.8836 46.9692 63.9468 46.9534 64.0249C46.8772 64.4035 46.7981 64.782 46.7191 65.1595C46.5256 66.0895 46.3359 67.0195 46.136 67.9495C46.095 68.1355 46.1304 68.2053 46.3387 68.1913C46.6233 68.169 46.9107 68.183 47.1971 68.183ZM47.969 62.3788C48.2626 62.3965 48.5572 62.3797 48.8469 62.3286C49.9155 62.084 50.7311 61.1326 50.8371 60.0036C50.9217 59.1062 50.5265 58.5724 49.6476 58.3919C49.258 58.312 48.8627 58.3343 48.4703 58.3092C48.2006 58.2915 48.1094 58.3733 48.0583 58.6421C47.8341 59.8251 47.5858 61.0034 47.3329 62.1817C47.2929 62.3677 47.3487 62.3891 47.5049 62.3788C47.6612 62.3686 47.8137 62.3788 47.969 62.3788Z" fill="white"/>
<path d="M61.6103 61.5455C61.7321 61.2433 61.8446 60.9875 61.9376 60.7299C61.9638 60.6281 62.0258 60.539 62.1122 60.4791C62.1986 60.4192 62.3036 60.3923 62.4082 60.4035C62.8034 60.4118 63.1987 60.4035 63.5939 60.4035C63.8869 60.4035 63.9725 60.5123 63.9167 60.7922C63.4827 62.9368 63.0487 65.0817 62.6147 67.2269C62.5706 67.3999 62.5555 67.579 62.57 67.757C62.61 68.0546 62.7095 68.1597 63.0071 68.1987C63.1931 68.2229 63.2712 68.3252 63.2396 68.5C63.1866 68.7967 63.1252 69.0925 63.0536 69.3854C63.0383 69.4749 62.9908 69.5556 62.92 69.6125C62.8493 69.6694 62.7602 69.6984 62.6695 69.6942C62.2974 69.7115 61.9246 69.6752 61.5628 69.5863C60.9909 69.4356 60.6784 69.0664 60.6059 68.4703C60.5975 68.4024 60.5947 68.3336 60.5882 68.2536C60.4877 68.2778 60.4524 68.3615 60.4022 68.4191C59.249 69.6784 57.8205 70.1248 56.1558 69.8355C55.0342 69.6402 54.3367 68.9399 54.0856 67.8211C53.8708 66.8679 53.9861 65.9267 54.1786 64.9884C54.4055 63.8724 54.7878 62.8205 55.4806 61.8924C56.6775 60.2751 58.6045 59.932 60.0702 60.2993C60.7481 60.4751 61.2485 60.8861 61.6103 61.5455ZM56.1232 66.7024C56.1234 66.9121 56.1415 67.1215 56.1772 67.3282C56.2786 67.9458 56.6189 68.288 57.2365 68.3912C58.4455 68.594 59.6024 68.0685 60.2041 66.9841C60.8008 65.8921 61.0919 64.6593 61.0467 63.4157C61.0253 62.536 60.6077 61.99 59.8674 61.7733C59.433 61.6542 58.977 61.6367 58.5347 61.7222C57.7517 61.8543 57.295 62.3788 56.9751 63.0465C56.4208 64.2016 56.2237 65.4413 56.1232 66.7024Z" fill="white"/>
<path d="M79.5452 56.8974C79.2879 58.1498 79.03 59.3997 78.7715 60.6471C78.5148 61.8961 78.259 63.1451 78.0005 64.4025C78.1214 64.395 78.1604 64.3095 78.2172 64.2537C79.3787 63.1033 80.5422 61.9547 81.6954 60.7959C81.8128 60.6678 81.957 60.5672 82.1177 60.5011C82.2785 60.435 82.4518 60.4052 82.6254 60.4137C83.0504 60.4295 83.4773 60.4137 83.9032 60.4221C83.9962 60.4221 84.1134 60.397 84.1543 60.49C84.1952 60.583 84.0818 60.6481 84.0176 60.7076C82.5916 62.0499 81.1613 63.3897 79.7266 64.727C79.5759 64.8675 79.5759 64.9549 79.6829 65.1204C80.5719 66.4978 81.4499 67.8825 82.3343 69.2645C82.3761 69.3296 82.418 69.3956 82.4543 69.4626C82.5305 69.6021 82.4887 69.6997 82.3306 69.7007C81.6563 69.7007 80.9821 69.7072 80.3088 69.6923C80.1069 69.6923 79.9907 69.5277 79.8921 69.3594C79.2231 68.2099 78.5517 67.0629 77.8777 65.9184C77.8368 65.8486 77.8173 65.7593 77.7141 65.711C77.5225 66.641 77.3337 67.5589 77.143 68.4787C77.0835 68.767 77.0268 69.0553 76.9617 69.3417C76.8966 69.6281 76.7878 69.7053 76.5097 69.7072C76.0763 69.7072 75.642 69.7072 75.2077 69.7072C74.8208 69.7072 74.7483 69.6216 74.8255 69.2506C75.0636 68.1002 75.3053 66.9497 75.5434 65.7984C76.0655 63.2868 76.5835 60.7789 77.0975 58.2747C77.1055 58.2109 77.13 58.1503 77.1685 58.0988C77.2069 58.0473 77.2581 58.0067 77.3169 57.9808C77.9819 57.6516 78.6413 57.3112 79.3034 56.9773C79.3739 56.9264 79.4583 56.8985 79.5452 56.8974Z" fill="white"/>
<path d="M68.0887 61.9046C68.4111 61.4728 68.7832 61.0805 69.1972 60.7356C70.1747 59.9358 72.1556 60.0604 73.0744 60.9002C73.8184 61.5819 74.0202 62.4551 73.8593 63.4019C73.6501 64.6285 73.372 65.8431 73.1293 67.0642C73.0763 67.3292 73.026 67.598 73.0995 67.8696C73.1507 68.0602 73.2325 68.2137 73.4715 68.2118C73.6724 68.2118 73.7505 68.3346 73.717 68.5197C73.664 68.8154 73.6045 69.1121 73.5357 69.405C73.5198 69.4909 73.4734 69.5682 73.405 69.6225C73.3367 69.6769 73.2509 69.7047 73.1637 69.7007C72.7918 69.7211 72.419 69.6831 72.0588 69.5882C71.2218 69.3529 70.8089 68.7512 70.8498 67.8212C70.8768 67.1898 71.0619 66.5871 71.1725 65.9714C71.3232 65.1345 71.5752 64.3161 71.6217 63.4605C71.6324 63.2907 71.6324 63.1205 71.6217 62.9508C71.5566 62.0115 70.9707 61.5633 70.0491 61.7195C69.7612 61.766 69.4864 61.873 69.2428 62.0332C68.9992 62.1935 68.7922 62.4035 68.6355 62.6495C68.2207 63.2577 68.045 63.9515 67.898 64.6602C67.5775 66.204 67.2541 67.7477 66.928 69.2915C66.8592 69.617 66.7485 69.7017 66.4156 69.7026C65.9664 69.7026 65.5163 69.7026 65.0671 69.7026C64.7816 69.7026 64.6951 69.5854 64.749 69.3046C65.183 67.1836 65.6189 65.0625 66.0566 62.9415C66.105 62.7072 66.1626 62.4765 66.092 62.231C66.0362 62.045 65.9357 61.9241 65.72 61.9064C65.4605 61.885 65.4047 61.7948 65.4568 61.5344C65.5088 61.274 65.5609 61.0183 65.6149 60.7616C65.6266 60.6638 65.6744 60.5739 65.7488 60.5094C65.8233 60.445 65.9191 60.4105 66.0176 60.4128C66.3973 60.3886 66.7786 60.4256 67.1466 60.5226C67.7594 60.7002 68.0152 61.0136 68.0766 61.6479C68.0766 61.7148 68.0766 61.7818 68.0887 61.9046Z" fill="white"/>
<path d="M13.773 62.3546H15.1773C15.8748 62.3546 16.5723 62.3546 17.2698 62.3546C17.6055 62.3546 17.6864 62.4532 17.6204 62.7824C17.5683 63.04 17.5125 63.2967 17.4549 63.5534C17.3814 63.877 17.2689 63.9663 16.9164 63.9663C15.8469 63.9663 14.7774 63.9663 13.7088 63.9588C13.5051 63.9588 13.4205 63.9979 13.3768 64.2183C13.0532 65.857 12.7091 67.491 12.3733 69.1278C12.2803 69.5928 12.2059 69.656 11.7223 69.656C11.2806 69.656 10.8388 69.656 10.398 69.656C10.0781 69.656 9.99532 69.5528 10.0604 69.2384C10.451 67.345 10.8426 65.4521 11.235 63.5599C11.6628 61.4922 12.0894 59.4248 12.5147 57.3577C12.6189 56.8518 12.6886 56.7904 13.2113 56.7913L19.2563 56.8025C19.6878 56.8025 19.7529 56.8815 19.6645 57.2935C19.6125 57.5353 19.5632 57.7781 19.5055 58.0189C19.4339 58.3193 19.3279 58.403 19.0191 58.403C17.6241 58.403 16.2291 58.403 14.8341 58.403C14.6481 58.403 14.57 58.4374 14.5309 58.6355C14.2891 59.8678 14.0306 61.1009 13.773 62.3546Z" fill="white"/>
<path d="M32.0669 69.8895C31.3308 69.8827 30.6007 69.757 29.9046 69.5175C29.6593 69.4412 29.436 69.3069 29.2536 69.126C29.0676 68.9316 29.0676 68.754 29.2304 68.5457C29.3364 68.4127 29.4545 68.2899 29.568 68.1616C29.847 67.8426 29.8935 67.8314 30.312 67.9756C30.8923 68.1709 31.4763 68.3476 32.0929 68.3783C32.6388 68.4071 33.1754 68.3857 33.6907 68.1755C33.8935 68.096 34.0733 67.9672 34.2139 67.8008C34.3545 67.6343 34.4515 67.4355 34.496 67.2223C34.5825 66.8865 34.4849 66.655 34.1901 66.469C33.8763 66.2848 33.5408 66.1405 33.1913 66.0393C32.7951 65.911 32.3998 65.7724 31.9971 65.6673C30.5556 65.2832 30.2087 64.196 30.4905 62.9582C30.8263 61.4842 31.9925 60.4472 33.5428 60.2259C34.6467 60.0706 35.7367 60.1329 36.7764 60.5914C36.9853 60.6739 37.1782 60.7923 37.3465 60.941C37.5195 61.1066 37.5325 61.2442 37.3837 61.4274C37.1977 61.6488 37.0043 61.8571 36.8192 62.0784C36.7262 62.1872 36.6248 62.1798 36.5058 62.1454C36.0529 62.0161 35.6204 61.818 35.1545 61.7334C34.6235 61.6404 34.0915 61.6079 33.567 61.7585C33.3408 61.8182 33.1338 61.9352 32.9659 62.098C32.7979 62.2609 32.6748 62.4643 32.6081 62.6885C32.4407 63.1861 32.624 63.5413 33.1243 63.6985C33.7437 63.8929 34.3658 64.077 34.9843 64.2658C35.2969 64.3526 35.5977 64.4776 35.8799 64.6378C36.4025 64.9493 36.6611 65.4171 36.6918 66.0151C36.7745 67.6203 35.9106 68.8935 34.3184 69.5184C33.6349 69.7863 32.9225 69.8923 32.0669 69.8895Z" fill="white"/>
<path d="M39.8399 61.7975C39.5562 61.7975 39.2698 61.7975 38.9843 61.7975C38.6532 61.7975 38.5797 61.7111 38.643 61.3939C38.6885 61.1661 38.736 60.9391 38.7908 60.7141C38.8063 60.6209 38.8557 60.5367 38.9295 60.4778C39.0034 60.4189 39.0964 60.3895 39.1907 60.3951C39.4465 60.3951 39.7031 60.3802 39.958 60.3951C40.1291 60.4072 40.1812 60.3421 40.2081 60.184C40.2788 59.7655 40.37 59.347 40.4499 58.9313C40.4648 58.855 40.4713 58.7853 40.556 58.7453C41.3213 58.3603 42.0858 57.9715 42.8726 57.5725C42.893 57.8227 42.8121 58.032 42.7721 58.244C42.6503 58.895 42.5173 59.5339 42.3797 60.1775C42.3434 60.3458 42.3685 60.41 42.561 60.3997C42.8772 60.3839 43.1962 60.3923 43.5134 60.3997C43.77 60.4044 43.85 60.4974 43.8044 60.7513C43.7589 61.0052 43.704 61.2358 43.6454 61.4758C43.5868 61.7157 43.438 61.8078 43.2046 61.8059C42.8717 61.8059 42.5378 61.8059 42.2048 61.8059C42.0858 61.8059 42.0254 61.8329 41.9993 61.9594C41.654 63.6892 41.3055 65.4177 40.954 67.145C40.9113 67.3432 40.9213 67.549 40.9828 67.7421C41.0298 67.8746 41.1176 67.9887 41.2336 68.0681C41.3496 68.1475 41.4878 68.188 41.6282 68.1839C42.243 68.1997 42.2486 68.2053 42.1314 68.8107C42.0951 68.9967 42.0542 69.1892 42.0105 69.3771C41.9977 69.463 41.9541 69.5413 41.8879 69.5976C41.8218 69.6538 41.7374 69.6842 41.6506 69.683C41.1558 69.6951 40.6564 69.7277 40.1626 69.6402C39.1954 69.4673 38.7164 68.8962 38.6997 67.903C38.6885 67.252 38.8661 66.6317 38.9936 66.003C39.2726 64.6238 39.5599 63.2456 39.8426 61.8664C39.8448 61.8434 39.8439 61.8203 39.8399 61.7975Z" fill="white"/>
<path d="M26.9994 61.433C27.0895 61.3175 27.1854 61.2067 27.2868 61.101C27.9815 60.4426 28.8306 60.2221 29.7624 60.2398C29.9484 60.2398 30.0293 60.2993 29.9791 60.5086C29.8787 60.9215 29.8015 61.34 29.7122 61.7557C29.6332 62.1277 29.5113 62.1891 29.1403 62.1435C28.1889 62.0273 27.1482 62.3546 26.8385 63.7245C26.4256 65.5566 26.0303 67.3934 25.6295 69.2283C25.5365 69.6663 25.4547 69.7333 25.0008 69.7323C24.5907 69.7323 24.1796 69.7323 23.7695 69.7323C23.4487 69.7323 23.3696 69.6291 23.4375 69.3129C23.8944 67.1888 24.352 65.0653 24.8102 62.9424C24.8593 62.7551 24.8837 62.5622 24.8827 62.3686C24.8678 62.0598 24.7562 61.9315 24.4466 61.8813C24.2606 61.8515 24.1731 61.7473 24.2094 61.5576C24.2624 61.2786 24.3154 60.9996 24.3787 60.7206C24.3917 60.6267 24.4387 60.5409 24.511 60.4795C24.5832 60.4181 24.6754 60.3854 24.7702 60.3877C25.2501 60.3803 25.7309 60.3877 26.1968 60.53C26.6302 60.662 26.8962 60.941 26.9334 61.4116L26.9994 61.433Z" fill="white"/>
<path d="M18.8637 68.1076C18.8832 67.4445 19.0748 66.8112 19.2124 66.1695C19.5909 64.4025 19.9797 62.6355 20.3656 60.8685C20.4363 60.5439 20.5516 60.4555 20.8771 60.4537C21.3111 60.4537 21.7451 60.4537 22.1791 60.4537C22.5056 60.4537 22.5846 60.5467 22.5167 60.862C22.0598 62.9786 21.6013 65.0947 21.1413 67.2101C21.0783 67.4664 21.0554 67.7309 21.0734 67.9941C21.1013 68.2908 21.2064 68.4033 21.4928 68.4461C21.6639 68.4722 21.743 68.5735 21.7141 68.7363C21.6602 69.0413 21.5988 69.3445 21.5281 69.6449C21.5105 69.7252 21.4655 69.7969 21.4009 69.8478C21.3363 69.8987 21.256 69.9256 21.1738 69.9239C20.7088 69.9388 20.2438 69.9016 19.8067 69.7165C19.1585 69.4468 18.8469 68.9018 18.8637 68.1076Z" fill="white"/>
<path d="M51.3542 75.3728C52.1391 75.8183 52.2079 76.712 51.5402 77.3565C51.0529 77.8308 49.989 77.9833 49.3845 77.6671C49.2435 77.5993 49.1249 77.4926 49.0425 77.3596C48.9601 77.2267 48.9175 77.073 48.9195 76.9166C48.9012 76.6482 48.9587 76.38 49.0855 76.1427C49.2123 75.9054 49.4032 75.7086 49.6365 75.5746C49.7527 75.5021 49.8802 75.4472 50.0011 75.3886C50.0011 75.3709 50.0011 75.3495 49.9936 75.3458C49.3324 75.0036 49.4793 74.3758 49.8253 73.8839C50.0002 73.6532 50.2508 73.4915 50.533 73.4272C50.8488 73.3439 51.179 73.3312 51.5002 73.39C51.809 73.4412 52.0917 73.5695 52.1875 73.9006C52.246 74.077 52.2583 74.2654 52.2233 74.4479C52.1883 74.6304 52.1071 74.8009 51.9875 74.9431C51.8229 75.1366 51.6053 75.2528 51.3542 75.3728ZM49.7118 76.6841C49.7049 76.8166 49.7474 76.947 49.8311 77.0501C49.9147 77.1532 50.0336 77.2216 50.1647 77.2421C50.7795 77.3741 51.3737 76.7455 51.2203 76.1261C51.1956 76.0036 51.1293 75.8935 51.0327 75.8143C50.9361 75.7352 50.8151 75.6919 50.6902 75.6918C50.1666 75.6695 49.71 76.1307 49.7118 76.6841ZM50.998 73.9238C50.9091 73.9232 50.821 73.9401 50.7387 73.9736C50.6564 74.0071 50.5815 74.0565 50.5182 74.1189C50.455 74.1814 50.4047 74.2557 50.3702 74.3376C50.3357 74.4195 50.3177 74.5074 50.3173 74.5962C50.3135 74.658 50.3221 74.7199 50.3426 74.7783C50.363 74.8367 50.3949 74.8904 50.4364 74.9363C50.4779 74.9822 50.5281 75.0194 50.5842 75.0456C50.6402 75.0718 50.7009 75.0866 50.7627 75.0891C51.1022 75.0947 51.4602 74.7171 51.4677 74.3535C51.4723 74.0987 51.2826 73.9257 50.998 73.9238Z" fill="white"/>
<path d="M55.6555 74.227C55.6363 74.02 55.5495 73.825 55.4085 73.6722C55.2674 73.5194 55.0801 73.4173 54.8752 73.3816C54.584 73.3296 54.2843 73.3529 54.0047 73.4495C53.2031 73.7388 52.912 74.3916 52.8367 75.1626C52.7576 75.9922 53.2394 76.4199 54.0708 76.3232C54.3851 76.286 54.6018 76.1103 54.825 75.9047C54.8031 76.1754 54.7174 76.4371 54.5748 76.6683C54.334 77.1035 53.9741 77.3248 53.4644 77.2393C53.2956 77.2199 53.1289 77.1844 52.9669 77.1333C52.6879 77.0282 52.6814 77.2746 52.6023 77.402C52.5037 77.5611 52.6758 77.5955 52.7669 77.6401C53.536 78.0223 54.3805 77.8577 54.9059 77.1602C55.5643 76.2981 55.795 75.2984 55.6555 74.227ZM54.9896 74.639C54.9556 74.9007 54.8713 75.1533 54.7413 75.383C54.5944 75.6239 54.3925 75.769 54.0959 75.755C53.7239 75.7457 53.5611 75.5792 53.5695 75.1533C53.5867 74.9007 53.6523 74.6538 53.7629 74.426C53.8324 74.2695 53.9479 74.1378 54.094 74.0485C54.3107 73.9229 54.5497 73.855 54.7738 73.9982C54.998 74.1415 55.0315 74.3879 54.9896 74.639Z" fill="white"/>
<path d="M57.7535 76.725H56.1074C55.8796 76.725 55.8359 76.6534 55.94 76.446C55.9814 76.3723 56.032 76.3042 56.0907 76.2433C56.843 75.3802 57.6075 74.5274 58.345 73.6523C58.5617 73.3947 58.81 73.4217 59.0788 73.4356C59.2304 73.4431 59.1718 73.5686 59.1541 73.6504C59.0227 74.294 58.89 74.9369 58.7561 75.5793C58.7332 75.7244 58.7022 75.8682 58.6631 76.0099C58.6101 76.1735 58.6826 76.1828 58.8165 76.1903C58.9216 76.1959 59.1085 76.0973 59.1039 76.3298C59.0974 76.646 59.0286 76.7464 58.7923 76.7213C58.5561 76.6962 58.4734 76.7901 58.4585 77.0003C58.4478 77.0768 58.4326 77.1526 58.4129 77.2272C58.2967 77.7964 58.2967 77.7917 57.7154 77.7601C57.5712 77.7517 57.5452 77.6941 57.5712 77.5741C57.6317 77.3016 57.6884 77.0291 57.7535 76.725ZM58.1888 74.6009L56.8635 76.1819C57.2002 76.1819 57.4745 76.1819 57.7489 76.1819C57.766 76.1842 57.7834 76.183 57.8 76.1783C57.8166 76.1735 57.832 76.1654 57.8453 76.1544C57.8586 76.1434 57.8695 76.1297 57.8772 76.1143C57.8849 76.0988 57.8894 76.082 57.8902 76.0647C57.9832 75.5997 58.079 75.1329 58.1878 74.6L58.1888 74.6009Z" fill="white"/>
<path d="M31.2253 77.8112C30.8702 77.8108 30.5187 77.7413 30.1902 77.6066C30.1083 77.5713 29.9475 77.5499 30.0209 77.4206C30.0944 77.2914 30.1074 77.0403 30.3697 77.1026C30.7288 77.1979 31.0993 77.2436 31.4708 77.2384C31.6661 77.2338 31.8574 77.1824 32.0288 77.0886C32.4613 76.8468 32.4771 76.3856 32.0493 76.1335C31.8388 76.0218 31.6213 75.9236 31.3983 75.8396C30.4803 75.4444 30.3102 74.5488 31.0383 73.855C31.6242 73.297 32.3301 73.2496 33.0769 73.4412C33.1439 73.4588 33.209 73.483 33.275 73.5053C33.6293 73.6272 33.6358 73.6532 33.4424 73.9592C33.4324 73.9816 33.418 74.0018 33.4001 74.0187C33.3822 74.0355 33.3611 74.0486 33.3381 74.0573C33.3151 74.0659 33.2906 74.0699 33.2661 74.069C33.2415 74.0682 33.2174 74.0624 33.195 74.0522C32.832 73.9391 32.4505 73.8974 32.0716 73.9294C31.9431 73.9374 31.8183 73.9758 31.7076 74.0414C31.5968 74.1071 31.5032 74.1981 31.4345 74.307C31.2485 74.6092 31.3173 74.8836 31.6345 75.0389C31.8493 75.144 32.0762 75.2249 32.2957 75.3179C33.2425 75.7197 33.3764 76.7761 32.5636 77.4104C32.225 77.6708 31.7777 77.8085 31.2253 77.8112Z" fill="white"/>
<path d="M36.7133 75.0956C36.93 74.8622 37.1113 74.6418 37.4136 74.5748C38.2329 74.3944 38.7983 74.9413 38.6309 75.7615C38.5528 76.1475 38.4701 76.5325 38.3957 76.9194C38.3696 77.057 38.3538 77.1807 38.5389 77.2569C38.684 77.3165 38.5584 77.4606 38.5538 77.5666C38.5556 77.5898 38.5525 77.613 38.5449 77.6349C38.5372 77.6568 38.5251 77.6769 38.5093 77.6939C38.4934 77.7108 38.4743 77.7243 38.4529 77.7335C38.4316 77.7426 38.4086 77.7472 38.3854 77.7471C37.8776 77.8047 37.5596 77.4783 37.6489 76.9724C37.7158 76.592 37.7977 76.2144 37.8721 75.835C37.8856 75.7738 37.894 75.7116 37.8972 75.649C37.9037 75.4286 37.8972 75.2054 37.6637 75.091C37.4629 74.9915 37.1476 75.0761 36.9672 75.277C36.7868 75.4779 36.704 75.742 36.6482 76.0117C36.5403 76.526 36.4287 77.0393 36.3273 77.5555C36.3263 77.584 36.3193 77.6121 36.3067 77.6377C36.2942 77.6634 36.2764 77.6862 36.2544 77.7045C36.2325 77.7228 36.207 77.7363 36.1795 77.7442C36.152 77.752 36.1231 77.7539 36.0948 77.7498C35.5508 77.7629 35.5517 77.7675 35.6615 77.2346C35.7824 76.6438 35.9023 76.0532 36.0214 75.463C36.0502 75.3188 36.0911 75.1663 35.8781 75.1124C35.7851 75.0882 35.8056 74.9999 35.8298 74.9385C35.8726 74.8315 35.8196 74.6762 35.9832 74.6297C36.062 74.6048 36.1452 74.5975 36.2271 74.6083C36.309 74.6191 36.3875 74.6477 36.4571 74.6921C36.5267 74.7365 36.5858 74.7957 36.63 74.8654C36.6743 74.9352 36.7027 75.0137 36.7133 75.0956Z" fill="white"/>
<path d="M43.6836 76.4405C43.4827 76.4405 43.2799 76.4507 43.08 76.4405C42.9312 76.4312 42.894 76.4944 42.894 76.6265C42.8745 77.1156 43.1386 77.3751 43.6231 77.3156C43.8224 77.2905 44.0186 77.2457 44.209 77.1817C44.3569 77.1324 44.4117 77.1817 44.4703 77.3072C44.5289 77.4328 44.5029 77.5295 44.3773 77.5927C43.9951 77.7868 43.5646 77.865 43.1386 77.8178C42.4178 77.7471 42.0914 77.3295 42.1593 76.6041C42.1884 76.21 42.2923 75.8249 42.4652 75.4695C42.8214 74.7599 43.4883 74.4326 44.2527 74.586C44.6973 74.679 44.9595 74.9701 44.9818 75.423C44.9893 75.5622 44.9799 75.7018 44.9539 75.8387C44.8609 76.287 44.6749 76.4386 44.2183 76.4479C44.0407 76.4479 43.8621 76.4479 43.6845 76.4479L43.6836 76.4405ZM43.0167 75.9317H44.0091C44.0471 75.9363 44.0856 75.9299 44.1201 75.9135C44.1547 75.897 44.1839 75.8711 44.2044 75.8387C44.3048 75.6667 44.2574 75.3059 44.1114 75.1645C43.9653 75.0231 43.7477 75.012 43.532 75.1347C43.2297 75.3049 43.119 75.609 43.0167 75.9317Z" fill="white"/>
<path d="M22.262 56.916C22.5094 56.916 22.7568 56.9104 23.006 56.916C23.2311 56.9225 23.3194 57.0257 23.2767 57.2415C23.1799 57.7263 23.0776 58.2093 22.9698 58.6904C22.913 58.9387 22.7838 59.0401 22.5234 59.0419C22.0584 59.0419 21.5934 59.0419 21.1284 59.0419C20.8382 59.0373 20.7564 58.9266 20.8187 58.6439C20.9117 58.191 21.0121 57.7381 21.1135 57.287C21.1739 57.0173 21.2939 56.9215 21.5645 56.915C21.7961 56.915 22.0295 56.915 22.2602 56.915L22.262 56.916Z" fill="white"/>
<path d="M47.6734 74.3228C47.4223 74.427 47.1972 74.5209 46.9703 74.6111C46.9145 74.6335 46.8336 74.6725 46.7992 74.6502C46.7322 74.6074 46.7852 74.5228 46.7889 74.4558C46.8029 74.214 46.9266 74.0736 47.1609 73.9853C47.5869 73.8216 47.9979 73.6272 48.4192 73.4477C48.4806 73.4207 48.5485 73.3547 48.6052 73.3938C48.6619 73.4328 48.6136 73.523 48.6052 73.5863C48.3383 74.8976 48.0667 76.2079 47.8026 77.5192C47.7673 77.695 47.6892 77.7582 47.506 77.7555C46.9768 77.748 46.9805 77.7555 47.0893 77.2393C47.2828 76.3242 47.4706 75.4072 47.6603 74.4912C47.6668 74.4475 47.6659 74.4 47.6734 74.3228Z" fill="white"/>
<path d="M39.2383 76.699C39.2478 76.2717 39.35 75.8516 39.5377 75.4677C39.9255 74.6586 40.9597 74.295 41.7493 74.693C41.8497 74.7441 42.0366 74.7702 41.9706 74.9553C41.8953 75.1617 41.7121 75.2501 41.5317 75.1645C40.8202 74.8297 40.3171 75.251 40.1264 75.8443C40.0239 76.1369 39.9772 76.446 39.9888 76.7557C40.013 77.1408 40.252 77.3454 40.6398 77.3137C40.8238 77.2894 41.0043 77.2432 41.1773 77.1761C41.2703 77.1454 41.354 77.1156 41.4015 77.2449C41.4405 77.3519 41.5158 77.4449 41.3884 77.5537C40.9969 77.8875 39.9869 77.9136 39.5842 77.5918C39.2903 77.363 39.2308 77.0431 39.2383 76.699Z" fill="white"/>
<path d="M33.7233 77.0477C33.8088 76.6208 33.9093 76.1177 34.0144 75.6071C34.0683 75.3421 34.1315 75.0789 34.178 74.8129C34.1788 74.7843 34.1856 74.7562 34.198 74.7304C34.2104 74.7046 34.2281 74.6818 34.25 74.6633C34.2719 74.6449 34.2974 74.6313 34.3249 74.6234C34.3524 74.6155 34.3813 74.6136 34.4096 74.6176C34.9593 74.6009 34.9565 74.5962 34.8467 75.1263C34.7249 75.7169 34.604 76.3065 34.4877 76.898C34.4598 77.0412 34.4329 77.177 34.6328 77.2542C34.7742 77.3081 34.6542 77.4402 34.6496 77.5434C34.6449 77.6466 34.617 77.7219 34.4989 77.7452C34.0813 77.827 33.7233 77.5452 33.7233 77.0477Z" fill="white"/>
<path d="M34.8514 73.2905C34.9444 73.2905 35.016 73.2905 35.0849 73.2905C35.1537 73.2905 35.216 73.3203 35.202 73.3984C35.1704 73.5723 35.1314 73.7444 35.0886 73.9155C35.0718 73.9806 35.0123 74.0029 34.9472 74.015C34.3985 74.1136 34.3353 74.0364 34.4469 73.4979C34.5036 73.2059 34.7138 73.3156 34.8514 73.2905Z" fill="white"/>
<path d="M50.3581 34.3589C48.2452 34.2659 46.1638 33.999 44.1708 33.2429C42.4438 32.5919 40.9335 31.6237 39.8175 30.119C38.8151 28.7731 38.2596 27.1469 38.229 25.469C38.1742 23.6508 38.5731 21.9034 39.1005 20.181C39.2074 19.8323 39.4427 19.6853 39.8659 19.6658C40.3578 19.6416 40.8349 19.7588 41.3167 19.8276C42.9711 20.062 44.6275 20.287 46.2754 20.5614C46.7851 20.646 47.2166 20.5958 47.623 20.2917C48.1205 19.9197 48.6823 19.8527 49.2886 19.8806C50.3335 19.9159 51.3718 20.0609 52.3865 20.3131C52.4932 20.3319 52.594 20.3759 52.6803 20.4414C54.1479 21.7192 55.581 23.0324 56.7928 24.565C57.3415 25.2588 57.3396 25.2644 57.228 26.146C57.2165 26.2169 57.2213 26.2894 57.2421 26.358C57.2629 26.4267 57.2991 26.4897 57.348 26.5422C57.8502 27.1523 58.318 27.7893 58.81 28.4069C59.4963 29.269 59.8209 30.2576 59.9409 31.3308C59.9948 31.8076 60.0422 32.2853 60.0831 32.7639C60.1045 33.0169 60.0915 33.0225 59.8562 32.8997C59.2217 32.5601 58.6091 32.1808 58.0223 31.7642C57.3843 31.3233 56.7593 30.8667 56.1548 30.3822C55.9704 30.2317 55.748 30.1351 55.5122 30.1032C54.8228 29.9901 54.1153 30.0848 53.4798 30.3751C52.8443 30.6654 52.3096 31.1383 51.9438 31.7335C51.8257 31.9251 51.8247 32.0506 52.0172 32.1678C52.0502 32.1901 52.0813 32.2149 52.1102 32.2422C52.5501 32.6235 52.5511 32.6244 52.3121 33.1722C52.2786 33.2494 52.2386 33.3256 52.1995 33.401C51.8554 34.052 51.4202 34.5588 50.5702 34.3654C50.4999 34.3555 50.4288 34.3533 50.3581 34.3589ZM52.6124 26.2483L51.356 24.8385C51.2509 24.7203 51.1933 24.8385 51.1319 24.8887C50.4958 25.443 49.8609 25.9991 49.2272 26.5571C49.1733 26.6045 49.0933 26.6361 49.0822 26.7384L52.6124 26.2483Z" fill="#525F69"/>
<path d="M50.1694 45.7727L49.3873 45.2147C47.2706 43.7156 45.1552 42.2155 43.041 40.7145C42.9736 40.6598 42.8922 40.625 42.8061 40.6142C42.72 40.6033 42.6325 40.6168 42.5537 40.6531C40.9633 41.2111 39.3675 41.7533 37.7818 42.3271C37.4517 42.4461 37.1578 42.3476 36.8518 42.315C36.3738 42.2648 36.3738 42.2592 36.4742 41.784C37.274 37.9753 38.0741 34.1679 38.8746 30.3617C38.8839 30.3189 38.895 30.2762 38.9053 30.2325C38.9983 30.2538 39.0196 30.3301 39.0559 30.3831C40.8638 33.068 43.3981 34.6453 46.5424 35.2926C47.75 35.5353 48.9787 35.6571 50.2103 35.6562C50.3963 35.6562 50.4447 35.7148 50.4549 35.8896C50.4875 36.4151 50.5358 36.9396 50.5842 37.4641C50.6051 37.6563 50.5893 37.8507 50.5377 38.037C50.401 38.5132 50.2764 38.9921 50.1387 39.4673C50.1183 39.5283 50.1124 39.5931 50.1214 39.6567C50.1305 39.7203 50.1542 39.781 50.1908 39.8338C51.0157 41.1627 51.8323 42.4954 52.6544 43.8253C52.7301 43.9415 52.7723 44.0764 52.7762 44.215C52.7995 44.9813 52.8292 45.7476 52.8608 46.514C52.8665 46.6293 52.8459 46.7444 52.8004 46.8506C52.4451 47.7164 52.0992 48.586 51.7374 49.449C51.6235 49.7029 51.5649 49.978 51.5654 50.2563C51.5654 50.5027 51.5412 50.7492 51.5272 50.9891C51.4584 51.0217 51.4286 50.9742 51.3961 50.9463C50.0941 49.8675 48.8014 48.785 47.4985 47.7109C47.3459 47.5853 47.3534 47.5332 47.5171 47.4319C48.328 46.9334 49.1334 46.4256 49.9397 45.9197C50.0076 45.8797 50.0718 45.8369 50.1694 45.7727Z" fill="#525F69"/>
<path d="M42.735 41.5347C42.811 41.5425 42.8817 41.5775 42.934 41.6333C44.1461 42.4815 45.3579 43.3287 46.5693 44.175C46.7107 44.2726 46.746 44.361 46.7088 44.5358C46.3368 46.3028 45.9872 48.0828 45.6245 49.8554C45.5898 50.0054 45.6124 50.1629 45.6877 50.2972C45.8347 50.5762 45.9667 50.8635 46.1016 51.1444C46.0327 51.2197 45.9593 51.19 45.8951 51.19C44.4155 51.19 42.9358 51.19 41.4553 51.1965C41.3916 51.2032 41.3276 51.1879 41.2739 51.153C41.2202 51.1181 41.1802 51.0658 41.1605 51.0049C41.0535 50.765 40.9382 50.5278 40.808 50.299C40.7679 50.2343 40.7453 50.1602 40.7424 50.0841C40.7395 50.008 40.7563 49.9324 40.7913 49.8647C41.4069 48.4037 42.0133 46.9389 42.6271 45.4779C42.7021 45.3015 42.7398 45.1116 42.7378 44.9199C42.7312 43.7955 42.735 42.673 42.735 41.5347Z" fill="#525F69"/>
<path d="M63.2089 36.1835C60.4729 36.1835 57.9758 35.3651 55.6545 33.9515C54.8333 33.4532 54.0586 32.8821 53.3397 32.245C53.203 32.1241 53.2058 32.0394 53.31 31.9064C53.8736 31.1848 54.6306 30.9839 55.502 31.076C55.8073 31.1124 56.0967 31.2317 56.339 31.421C58.2064 32.7937 60.2255 33.8622 62.491 34.4249C63.7632 34.739 65.0795 34.8352 66.384 34.7095C66.6918 34.6816 67.0033 34.6871 67.314 34.6899C67.4423 34.6899 67.593 34.7011 67.6525 34.8425C67.7166 35.0015 67.6171 35.1215 67.5074 35.2303C67.2758 35.4372 67.0015 35.5906 66.7039 35.6795C65.7367 36.0143 64.7332 36.1398 63.7167 36.1807C63.5493 36.1891 63.3791 36.1835 63.2089 36.1835Z" fill="#525F69"/>
<path d="M56.2842 35.181C57.1964 35.7081 58.1751 36.1107 59.1941 36.3779C59.4481 36.4464 59.7058 36.4998 59.966 36.5378C60.1195 36.5583 60.139 36.6234 60.1241 36.7499C60.0949 37.1358 60.0088 37.5154 59.8684 37.8761C59.3188 39.1549 58.6901 40.3992 58.1609 41.6891C57.9405 42.2257 57.7127 42.7595 57.6029 43.3324C57.4746 43.9834 57.9256 44.4568 58.5822 44.3387C58.7589 44.3071 58.8119 44.3498 58.8445 44.5135C58.8929 44.7721 58.9187 45.0344 58.9217 45.2975C58.9271 45.3589 58.9129 45.4204 58.8812 45.4732C58.8494 45.526 58.8017 45.5674 58.745 45.5914C58.0149 45.968 57.3202 45.8332 56.6878 45.3905C56.0173 44.9209 55.7578 44.2085 55.7187 43.418C55.6667 42.4396 55.7959 41.4706 55.9224 40.5024C56.0861 39.2599 56.3521 38.0323 56.4748 36.7824C56.5148 36.3751 56.3818 35.9863 56.3456 35.5864C56.3307 35.4637 56.3084 35.34 56.2842 35.181Z" fill="#525F69"/>
<path d="M52.6125 26.2483L49.0785 26.7384C49.0897 26.6361 49.1715 26.6045 49.2236 26.5571C49.8566 25.9991 50.4915 25.4429 51.1282 24.8887C51.1896 24.8357 51.2473 24.7203 51.3523 24.8384L52.6125 26.2483Z" fill="#EEF6F8"/>
</svg>
