<svg width="30" height="29" viewBox="0 0 30 29" fill="none" xmlns="http://www.w3.org/2000/svg">
<g clip-path="url(#clip0)">
<path d="M13.0643 16.2045L8.4917 16.2045C7.94773 16.1949 7.42875 15.9745 7.04405 15.5898C6.65935 15.2051 6.43896 14.6861 6.4293 14.1421C6.42877 13.8711 6.48175 13.6027 6.5852 13.3523C6.68866 13.1018 6.84055 12.8742 7.03217 12.6826C7.22379 12.491 7.45136 12.3391 7.70182 12.2356C7.95228 12.1322 8.22071 12.0792 8.4917 12.0797L13.0643 12.0797C13.2862 12.0797 13.4991 11.9916 13.656 11.8347C13.8129 11.6777 13.9011 11.4649 13.9011 11.243C13.9011 11.0211 13.8129 10.8083 13.656 10.6513C13.4991 10.4944 13.2862 10.4063 13.0643 10.4063L8.48581 10.4121C7.52388 10.4529 6.61489 10.8637 5.94866 11.5587C5.28243 12.2538 4.91048 13.1793 4.91048 14.1421C4.91048 15.1049 5.28243 16.0305 5.94866 16.7255C6.61489 17.4206 7.52388 17.8314 8.4858 17.8721L13.0643 17.878C13.2862 17.878 13.4991 17.7899 13.656 17.6329C13.8129 17.476 13.9011 17.2632 13.9011 17.0413C13.9011 16.8194 13.8129 16.6065 13.656 16.4496C13.4991 16.2927 13.2862 16.2045 13.0643 16.2045ZM25.2383 14.1421C25.2353 13.1538 24.8413 12.2069 24.1425 11.508C23.4436 10.8092 22.4967 10.4152 21.5084 10.4121L16.9298 10.4063C16.82 10.4063 16.7111 10.4279 16.6096 10.4699C16.5081 10.512 16.4159 10.5736 16.3382 10.6513C16.2605 10.729 16.1988 10.8213 16.1568 10.9228C16.1147 11.0243 16.0931 11.1331 16.0931 11.243C16.0931 11.3529 16.1147 11.4617 16.1568 11.5632C16.1988 11.6647 16.2605 11.757 16.3382 11.8347C16.4159 11.9124 16.5081 11.974 16.6096 12.016C16.7111 12.0581 16.82 12.0797 16.9298 12.0797L21.5025 12.0797C22.0464 12.0894 22.5654 12.3098 22.9501 12.6945C23.3348 13.0792 23.5552 13.5982 23.5649 14.1421C23.5654 14.4131 23.5124 14.6815 23.409 14.932C23.3055 15.1825 23.1536 15.41 22.962 15.6017C22.7704 15.7933 22.5428 15.9452 22.2923 16.0486C22.0419 16.1521 21.7734 16.2051 21.5025 16.2045L16.9298 16.2045C16.8198 16.2041 16.7108 16.2254 16.6091 16.2673C16.5074 16.3092 16.415 16.3708 16.3372 16.4486C16.2594 16.5264 16.1978 16.6188 16.1559 16.7205C16.114 16.8223 16.0926 16.9313 16.0931 17.0413C16.0926 17.1513 16.114 17.2603 16.1559 17.362C16.1978 17.4637 16.2594 17.5562 16.3372 17.6339C16.415 17.7117 16.5074 17.7734 16.6091 17.8152C16.7108 17.8571 16.8198 17.8785 16.9298 17.878L21.5084 17.8721C22.4967 17.869 23.4436 17.4751 24.1425 16.7762C24.8413 16.0774 25.2353 15.1304 25.2383 14.1421ZM11.2612 14.1421C11.2616 14.2518 11.2837 14.3603 11.3262 14.4614C11.3687 14.5625 11.4307 14.6543 11.5087 14.7314C11.5858 14.8094 11.6775 14.8714 11.7786 14.9139C11.8798 14.9563 11.9883 14.9784 12.0979 14.9789H17.8962C18.1181 14.9789 18.331 14.8907 18.4879 14.7338C18.6448 14.5769 18.733 14.3641 18.733 14.1421C18.733 13.9202 18.6448 13.7074 18.4879 13.5505C18.331 13.3935 18.1181 13.3054 17.8962 13.3054L12.0979 13.3054C11.9879 13.3049 11.8789 13.3263 11.7772 13.3682C11.6755 13.4101 11.5831 13.4717 11.5053 13.5495C11.4275 13.6273 11.3659 13.7197 11.324 13.8214C11.2821 13.9231 11.2607 14.0321 11.2612 14.1421Z" fill="black"/>
</g>
<defs>
<clipPath id="clip0">
<rect width="20" height="20" fill="white" transform="translate(14.9961) rotate(45)"/>
</clipPath>
</defs>
</svg>
