<svg width="22" height="22" viewBox="0 0 22 22" fill="none" xmlns="http://www.w3.org/2000/svg">
<path fill-rule="evenodd" clip-rule="evenodd" d="M15.2853 1H18.5519C19.9035 1 20.9998 2.1059 20.9998 3.47018V6.7641C20.9998 8.12735 19.9035 9.23429 18.5519 9.23429H15.2853C13.9328 9.23429 12.8364 8.12735 12.8364 6.7641V3.47018C12.8364 2.1059 13.9328 1 15.2853 1Z" stroke="#2EC4B6" stroke-width="1.5" stroke-linecap="round" stroke-linejoin="round"/>
<path fill-rule="evenodd" clip-rule="evenodd" d="M3.44892 1H6.71449C8.06703 1 9.16341 2.1059 9.16341 3.47018V6.7641C9.16341 8.12735 8.06703 9.23429 6.71449 9.23429H3.44892C2.09638 9.23429 1 8.12735 1 6.7641V3.47018C1 2.1059 2.09638 1 3.44892 1Z" stroke="#2EC4B6" stroke-width="1.5" stroke-linecap="round" stroke-linejoin="round"/>
<path fill-rule="evenodd" clip-rule="evenodd" d="M3.44892 12.7657H6.71449C8.06703 12.7657 9.16341 13.8716 9.16341 15.2369V18.5298C9.16341 19.8941 8.06703 21 6.71449 21H3.44892C2.09638 21 1 19.8941 1 18.5298V15.2369C1 13.8716 2.09638 12.7657 3.44892 12.7657Z" stroke="#2EC4B6" stroke-width="1.5" stroke-linecap="round" stroke-linejoin="round"/>
<path fill-rule="evenodd" clip-rule="evenodd" d="M15.2853 12.7657H18.5519C19.9035 12.7657 20.9998 13.8716 20.9998 15.2369V18.5298C20.9998 19.8941 19.9035 21 18.5519 21H15.2853C13.9328 21 12.8364 19.8941 12.8364 18.5298V15.2369C12.8364 13.8716 13.9328 12.7657 15.2853 12.7657Z" stroke="#2EC4B6" stroke-width="1.5" stroke-linecap="round" stroke-linejoin="round"/>
</svg>
