<svg width="20" height="20" viewBox="0 0 20 20" fill="none" xmlns="http://www.w3.org/2000/svg">
<path d="M10.0004 13.3333C9.83556 13.3333 9.67445 13.3822 9.5374 13.4738C9.40036 13.5653 9.29355 13.6955 9.23048 13.8478C9.16741 14 9.1509 14.1676 9.18306 14.3292C9.21521 14.4909 9.29458 14.6394 9.41112 14.7559C9.52767 14.8725 9.67615 14.9518 9.8378 14.984C9.99946 15.0161 10.167 14.9996 10.3193 14.9366C10.4716 14.8735 10.6017 14.7667 10.6933 14.6296C10.7848 14.4926 10.8337 14.3315 10.8337 14.1667C10.8337 13.9456 10.7459 13.7337 10.5896 13.5774C10.4334 13.4211 10.2214 13.3333 10.0004 13.3333ZM18.892 14.5583L12.1837 2.89166C11.9669 2.50292 11.6502 2.17912 11.2664 1.95372C10.8825 1.72831 10.4455 1.60947 10.0004 1.60947C9.55526 1.60947 9.11821 1.72831 8.73439 1.95372C8.35056 2.17912 8.03387 2.50292 7.81705 2.89166L1.15038 14.5583C0.926043 14.9367 0.805499 15.3675 0.800917 15.8073C0.796335 16.2472 0.907878 16.6804 1.12428 17.0634C1.34069 17.4463 1.6543 17.7654 2.03345 17.9883C2.4126 18.2113 2.84387 18.3303 3.28371 18.3333H16.717C17.1604 18.3377 17.597 18.2241 17.982 18.0041C18.367 17.7841 18.6865 17.4657 18.9079 17.0815C19.1292 16.6973 19.2444 16.2612 19.2416 15.8178C19.2389 15.3744 19.1182 14.9397 18.892 14.5583ZM17.4504 16.225C17.3773 16.3549 17.2708 16.4629 17.1418 16.5377C17.0128 16.6124 16.8661 16.6512 16.717 16.65H3.28371C3.13464 16.6512 2.98796 16.6124 2.85898 16.5377C2.72999 16.4629 2.62342 16.3549 2.55038 16.225C2.47724 16.0983 2.43873 15.9546 2.43873 15.8083C2.43873 15.662 2.47724 15.5183 2.55038 15.3917L9.21705 3.72499C9.28698 3.58849 9.39322 3.47394 9.52408 3.39394C9.65494 3.31395 9.80534 3.27163 9.95871 3.27163C10.1121 3.27163 10.2625 3.31395 10.3933 3.39394C10.5242 3.47394 10.6304 3.58849 10.7004 3.72499L17.4087 15.3917C17.4914 15.5165 17.5389 15.6614 17.5462 15.8109C17.5536 15.9605 17.5205 16.1093 17.4504 16.2417V16.225ZM10.0004 6.66666C9.77937 6.66666 9.5674 6.75446 9.41112 6.91074C9.25484 7.06702 9.16705 7.27898 9.16705 7.49999V10.8333C9.16705 11.0543 9.25484 11.2663 9.41112 11.4226C9.5674 11.5789 9.77937 11.6667 10.0004 11.6667C10.2214 11.6667 10.4334 11.5789 10.5896 11.4226C10.7459 11.2663 10.8337 11.0543 10.8337 10.8333V7.49999C10.8337 7.27898 10.7459 7.06702 10.5896 6.91074C10.4334 6.75446 10.2214 6.66666 10.0004 6.66666Z" fill="#F12F2F"/>
</svg>
