<svg width="24" height="25" viewBox="0 0 24 25" fill="none" xmlns="http://www.w3.org/2000/svg">
<path d="M22 16.8613C22.2591 16.8799 22.5028 16.9912 22.6864 17.1749C22.8701 17.3586 22.9814 17.6023 23 17.8613V21.8613C22.9814 22.1204 22.8701 22.3641 22.6864 22.5478C22.5028 22.7314 22.2591 22.8428 22 22.8613H17C16.7409 22.8428 16.4972 22.7314 16.3136 22.5478C16.1299 22.3641 16.0186 22.1204 16 21.8613V17.8613C16.0186 17.6023 16.1299 17.3586 16.3136 17.1749C16.4972 16.9912 16.7409 16.8799 17 16.8613V15.3613C17 14.6983 17.2634 14.0624 17.7322 13.5936C18.2011 13.1247 18.837 12.8613 19.5 12.8613C20.163 12.8613 20.7989 13.1247 21.2678 13.5936C21.7366 14.0624 22 14.6983 22 15.3613V16.8613ZM21 16.8613V15.3613C21 14.9635 20.842 14.582 20.5607 14.3007C20.2794 14.0194 19.8978 13.8613 19.5 13.8613C19.1022 13.8613 18.7206 14.0194 18.4393 14.3007C18.158 14.582 18 14.9635 18 15.3613V16.8613H21ZM13 5.86133V11.8613H14.17L12 14.0313L9.83 11.8613H11V5.86133H13ZM15 3.86133H9V9.86133H5L12 16.8613L19 9.86133H15V3.86133ZM14 18.8613H5V20.8613H14V18.8613Z" fill="#606161"/>
</svg>
