<svg width="291" height="279" viewBox="0 0 291 279" fill="none" xmlns="http://www.w3.org/2000/svg">
<path opacity="0.3" d="M290.744 130.861C290.844 132.48 290.915 134.107 290.956 135.741L290.457 135.754C290.485 136.891 290.5 138.031 290.5 139.174C290.5 140.318 290.485 141.458 290.457 142.595L290.956 142.607C290.915 144.241 290.844 145.868 290.744 147.488L290.245 147.457C290.104 149.737 289.906 152.002 289.652 154.25L290.148 154.307C289.964 155.932 289.751 157.548 289.509 159.156L289.015 159.081C288.675 161.338 288.278 163.577 287.826 165.797L288.316 165.897C287.99 167.498 287.635 169.09 287.252 170.671L286.766 170.553C286.229 172.769 285.636 174.964 284.99 177.137L285.469 177.28C285.003 178.845 284.51 180.398 283.989 181.939L283.516 181.779C282.786 183.937 282.003 186.072 281.168 188.182L281.633 188.366C281.032 189.883 280.405 191.387 279.751 192.879L279.293 192.678C278.379 194.762 277.412 196.821 276.396 198.852L276.843 199.076C276.113 200.535 275.357 201.98 274.576 203.41L274.137 203.17C273.047 205.167 271.907 207.135 270.719 209.073L271.146 209.334C270.294 210.724 269.417 212.098 268.517 213.457L268.1 213.181C266.843 215.076 265.54 216.94 264.192 218.771L264.595 219.068C263.628 220.38 262.639 221.676 261.627 222.954L261.235 222.644C259.824 224.426 258.369 226.174 256.871 227.887L257.248 228.217C256.175 229.443 255.081 230.652 253.966 231.842L253.601 231.5C252.048 233.158 250.453 234.78 248.818 236.365L249.166 236.724C247.997 237.857 246.808 238.972 245.598 240.066L245.263 239.696C243.579 241.22 241.857 242.706 240.098 244.152L240.415 244.538C239.157 245.573 237.881 246.587 236.586 247.58L236.281 247.183C234.48 248.565 232.643 249.906 230.772 251.206L231.057 251.617C229.719 252.546 228.364 253.454 226.992 254.34L226.721 253.92C224.814 255.152 222.875 256.341 220.905 257.487L221.156 257.919C219.75 258.737 218.328 259.532 216.891 260.305L216.654 259.865C214.656 260.939 212.628 261.97 210.572 262.955L210.788 263.406C209.32 264.108 207.839 264.788 206.344 265.445L206.143 264.987C204.066 265.898 201.962 266.764 199.834 267.583L200.013 268.05C198.494 268.634 196.962 269.195 195.417 269.731L195.253 269.258C193.111 270.002 190.945 270.699 188.757 271.347L188.899 271.826C187.341 272.288 185.772 272.725 184.192 273.137L184.066 272.653C181.874 273.225 179.66 273.749 177.427 274.223L177.531 274.712C175.941 275.05 174.341 275.363 172.732 275.65L172.644 275.158C170.415 275.557 168.167 275.906 165.902 276.205L165.967 276.701C164.354 276.913 162.733 277.101 161.104 277.263L161.054 276.765C158.802 276.989 156.535 277.163 154.253 277.286L154.28 277.786C152.66 277.873 151.033 277.935 149.4 277.972L149.389 277.472C148.251 277.497 147.11 277.51 145.966 277.51C144.822 277.51 143.681 277.497 142.544 277.472L142.533 277.972C140.899 277.935 139.272 277.873 137.652 277.786L137.679 277.286C135.398 277.163 133.13 276.989 130.878 276.765L130.829 277.263C129.199 277.101 127.578 276.913 125.965 276.701L126.031 276.205C123.766 275.906 121.518 275.556 119.288 275.158L119.2 275.65C117.591 275.363 115.991 275.05 114.401 274.712L114.505 274.223C112.272 273.749 110.059 273.225 107.866 272.653L107.74 273.137C106.16 272.725 104.591 272.288 103.034 271.826L103.176 271.347C100.987 270.699 98.8216 270.002 96.6793 269.258L96.5154 269.731C94.971 269.195 93.4388 268.634 91.9194 268.05L92.0989 267.583C89.9703 266.764 87.8668 265.898 85.7897 264.987L85.5887 265.445C84.0936 264.788 82.6121 264.108 81.1447 263.406L81.3608 262.955C79.3048 261.97 77.2769 260.939 75.2783 259.865L75.0415 260.305C73.6045 259.532 72.1826 258.737 70.7764 257.919L71.0277 257.487C69.0576 256.341 67.1184 255.152 65.2115 253.92L64.9402 254.34C63.5685 253.454 62.2134 252.546 60.8756 251.617L61.1609 251.206C59.29 249.906 57.4529 248.565 55.6511 247.183L55.3468 247.58C54.052 246.587 52.7753 245.573 51.5174 244.538L51.8349 244.152C50.0759 242.706 48.3537 241.22 46.6698 239.696L46.3343 240.066C45.1251 238.972 43.9355 237.857 42.7662 236.724L43.1142 236.365C41.4797 234.78 39.8849 233.158 38.3313 231.5L37.9665 231.842C36.8513 230.652 35.7572 229.443 34.6849 228.217L35.0613 227.887C33.5639 226.174 32.1089 224.426 30.698 222.644L30.306 222.954C29.2939 221.676 28.3043 220.38 27.338 219.068L27.7406 218.771C26.3922 216.94 25.0891 215.076 23.8328 213.181L23.4161 213.457C22.5156 212.098 21.639 210.724 20.7871 209.334L21.2134 209.073C20.0256 207.135 18.8857 205.167 17.7952 203.17L17.3564 203.41C16.5753 201.98 15.8195 200.535 15.0895 199.076L15.5366 198.852C14.5202 196.821 13.554 194.762 12.6397 192.678L12.1818 192.879C11.5279 191.388 10.9003 189.883 10.2998 188.366L10.7647 188.182C9.92922 186.072 9.14616 183.937 8.41701 181.779L7.94332 181.939C7.42251 180.398 6.92909 178.845 6.46362 177.28L6.94286 177.137C6.29624 174.964 5.70376 172.769 5.1669 170.553L4.68096 170.671C4.29778 169.09 3.94283 167.498 3.61663 165.897L4.10657 165.797C3.65442 163.577 3.25773 161.338 2.91795 159.081L2.42352 159.156C2.18147 157.548 1.96818 155.932 1.78419 154.307L2.28102 154.25C2.02638 152.002 1.82805 149.737 1.6874 147.457L1.18835 147.488C1.08843 145.868 1.01751 144.241 0.976089 142.607L1.47593 142.595C1.44711 141.458 1.43262 140.318 1.43262 139.174C1.43262 138.031 1.44711 136.891 1.47593 135.754L0.976089 135.741C1.01751 134.107 1.08843 132.48 1.18835 130.861L1.6874 130.891C1.82805 128.612 2.02638 126.347 2.28101 124.098L1.78419 124.042C1.96818 122.417 2.18146 120.801 2.42352 119.193L2.91794 119.267C3.25772 117.011 3.65441 114.772 4.10657 112.552L3.61663 112.452C3.94282 110.85 4.29778 109.259 4.68096 107.677L5.1669 107.795C5.70376 105.58 6.29624 103.384 6.94285 101.211L6.46361 101.069C6.92908 99.504 7.4225 97.9508 7.94332 96.4093L8.41701 96.5694C9.14616 94.4113 9.92921 92.2765 10.7647 90.1663L10.2998 89.9822C10.9003 88.4653 11.5279 86.961 12.1818 85.47L12.6397 85.6708C13.554 83.5862 14.5202 81.5274 15.5366 79.4961L15.0894 79.2723C15.8195 77.8134 16.5753 76.3686 17.3564 74.9384L17.7952 75.1781C18.8857 73.1816 20.0256 71.2137 21.2133 69.2759L20.787 69.0146C21.639 67.6246 22.5156 66.2501 23.4161 64.8916L23.8328 65.1678C25.0891 63.2726 26.3922 61.4086 27.7406 59.5773L27.3379 59.2808C28.3043 57.9683 29.2939 56.6726 30.306 55.3942L30.698 55.7046C32.1089 53.9226 33.5638 52.1742 35.0613 50.4611L34.6849 50.132C35.7572 48.9053 36.8512 47.6965 37.9665 46.5063L38.3313 46.8482C39.8849 45.1902 41.4797 43.5682 43.1142 41.9838L42.7661 41.6248C43.9355 40.4913 45.125 39.377 46.3343 38.2823L46.6698 38.653C48.3537 37.1287 50.0759 35.6427 51.8349 34.1965L51.5174 33.8103C52.7753 32.776 54.052 31.762 55.3468 30.7689L55.6511 31.1656C57.4529 29.7837 59.2899 28.4421 61.1608 27.1425L60.8756 26.7319C62.2134 25.8025 63.5684 24.8946 64.9402 24.0085L65.2115 24.4285C67.1183 23.1967 69.0576 22.0073 71.0277 20.8617L70.7763 20.4294C72.1826 19.6117 73.6045 18.8163 75.0415 18.0436L75.2783 18.4839C77.2769 17.4093 79.3048 16.3788 81.3608 15.3939L81.1447 14.943C82.6121 14.2401 84.0936 13.5602 85.5887 12.904L85.7897 13.3619C87.8668 12.4503 89.9703 11.5844 92.0989 10.7656L91.9194 10.299C93.4389 9.71452 94.971 9.15398 96.5154 8.61783L96.6794 9.09018C98.8216 8.34647 100.987 7.64986 103.176 7.00165L103.034 6.52224C104.591 6.06075 106.16 5.6237 107.74 5.21158L107.866 5.69539C110.059 5.12339 112.272 4.59956 114.505 4.12516L114.401 3.63608C115.991 3.29828 117.591 2.98547 119.2 2.69809L119.288 3.1903C121.518 2.79204 123.766 2.44278 126.031 2.14373L125.965 1.64804C127.578 1.43507 129.2 1.24749 130.829 1.08573L130.878 1.58329C133.13 1.3597 135.398 1.18562 137.679 1.06218L137.652 0.562909C139.272 0.47528 140.899 0.413096 142.533 0.376767L142.544 0.876643C143.681 0.851343 144.822 0.838623 145.966 0.838623C147.11 0.838623 148.251 0.851343 149.389 0.876643L149.4 0.376767C151.033 0.413096 152.66 0.475281 154.28 0.562909L154.253 1.06218C156.535 1.18562 158.802 1.3597 161.054 1.58329L161.104 1.08573C162.733 1.24749 164.354 1.43507 165.967 1.64804L165.902 2.14374C168.167 2.44278 170.415 2.79204 172.644 3.1903L172.732 2.69809C174.341 2.98547 175.941 3.29828 177.531 3.63608L177.427 4.12516C179.66 4.59956 181.874 5.12339 184.066 5.69539L184.192 5.21158C185.772 5.6237 187.341 6.06075 188.899 6.52224L188.757 7.00165C190.945 7.64986 193.111 8.34647 195.253 9.09018L195.417 8.61783C196.962 9.15398 198.494 9.71452 200.013 10.299L199.834 10.7656C201.962 11.5844 204.066 12.4503 206.143 13.3619L206.344 12.904C207.839 13.5602 209.32 14.2401 210.788 14.943L210.572 15.3939C212.628 16.3788 214.656 17.4093 216.654 18.4839L216.891 18.0436C218.328 18.8163 219.75 19.6117 221.156 20.4294L220.905 20.8617C222.875 22.0073 224.814 23.1967 226.721 24.4284L226.992 24.0084C228.364 24.8946 229.719 25.8025 231.057 26.7318L230.772 27.1425C232.643 28.4421 234.48 29.7836 236.281 31.1656L236.586 30.7688C237.881 31.762 239.157 32.776 240.415 33.8102L240.098 34.1965C241.857 35.6427 243.579 37.1287 245.263 38.653L245.598 38.2823C246.808 39.3769 247.997 40.4913 249.166 41.6248L248.818 41.9838C250.453 43.5682 252.048 45.1901 253.601 46.8482L253.966 46.5063C255.081 47.6965 256.175 48.9052 257.248 50.132L256.871 50.4611C258.369 52.1742 259.824 53.9225 261.235 55.7046L261.627 55.3942C262.639 56.6726 263.628 57.9683 264.595 59.2808L264.192 59.5772C265.54 61.4086 266.843 63.2726 268.1 65.1678L268.516 64.8916C269.417 66.2501 270.294 67.6246 271.146 69.0146L270.719 69.2759C271.907 71.2137 273.047 73.1816 274.137 75.1781L274.576 74.9384C275.357 76.3686 276.113 77.8134 276.843 79.2723L276.396 79.496C277.412 81.5274 278.379 83.5861 279.293 85.6708L279.751 85.47C280.405 86.961 281.032 88.4652 281.633 89.9822L281.168 90.1662C282.003 92.2765 282.786 94.4113 283.516 96.5694L283.989 96.4093C284.51 97.9508 285.003 99.504 285.469 101.068L284.99 101.211C285.636 103.384 286.229 105.58 286.766 107.795L287.252 107.677C287.635 109.259 287.99 110.85 288.316 112.452L287.826 112.552C288.278 114.772 288.675 117.011 289.015 119.267L289.509 119.193C289.751 120.801 289.964 122.417 290.148 124.042L289.652 124.098C289.906 126.347 290.104 128.612 290.245 130.891L290.744 130.861Z" stroke="#2EC4B6" stroke-dasharray="7 5"/>
</svg>
