<svg width="16" height="16" viewBox="0 0 16 16" fill="none" xmlns="http://www.w3.org/2000/svg">
<path d="M6.0013 6.66666H6.66797C6.84478 6.66666 7.01435 6.59642 7.13937 6.4714C7.2644 6.34637 7.33464 6.17681 7.33464 6C7.33464 5.82318 7.2644 5.65361 7.13937 5.52859C7.01435 5.40357 6.84478 5.33333 6.66797 5.33333H6.0013C5.82449 5.33333 5.65492 5.40357 5.5299 5.52859C5.40487 5.65361 5.33464 5.82318 5.33464 6C5.33464 6.17681 5.40487 6.34637 5.5299 6.4714C5.65492 6.59642 5.82449 6.66666 6.0013 6.66666ZM6.0013 8C5.82449 8 5.65492 8.07023 5.5299 8.19526C5.40487 8.32028 5.33464 8.48985 5.33464 8.66666C5.33464 8.84347 5.40487 9.01304 5.5299 9.13807C5.65492 9.26309 5.82449 9.33333 6.0013 9.33333H10.0013C10.1781 9.33333 10.3477 9.26309 10.4727 9.13807C10.5977 9.01304 10.668 8.84347 10.668 8.66666C10.668 8.48985 10.5977 8.32028 10.4727 8.19526C10.3477 8.07023 10.1781 8 10.0013 8H6.0013ZM13.3346 5.95999C13.3277 5.89875 13.3143 5.83842 13.2946 5.77999V5.72C13.2626 5.65145 13.2198 5.58844 13.168 5.53333L9.16797 1.53333C9.11286 1.48147 9.04985 1.43872 8.9813 1.40666C8.9614 1.40383 8.9412 1.40383 8.9213 1.40666C8.85358 1.36782 8.77878 1.34289 8.7013 1.33333H4.66797C4.13754 1.33333 3.62883 1.54404 3.25376 1.91911C2.87868 2.29419 2.66797 2.8029 2.66797 3.33333V12.6667C2.66797 13.1971 2.87868 13.7058 3.25376 14.0809C3.62883 14.4559 4.13754 14.6667 4.66797 14.6667H11.3346C11.8651 14.6667 12.3738 14.4559 12.7488 14.0809C13.1239 13.7058 13.3346 13.1971 13.3346 12.6667V6C13.3346 6 13.3346 5.99999 13.3346 5.95999ZM9.33464 3.60666L11.0613 5.33333H10.0013C9.82449 5.33333 9.65492 5.26309 9.5299 5.13807C9.40487 5.01304 9.33464 4.84347 9.33464 4.66666V3.60666ZM12.0013 12.6667C12.0013 12.8435 11.9311 13.013 11.806 13.1381C11.681 13.2631 11.5114 13.3333 11.3346 13.3333H4.66797C4.49116 13.3333 4.32159 13.2631 4.19656 13.1381C4.07154 13.013 4.0013 12.8435 4.0013 12.6667V3.33333C4.0013 3.15652 4.07154 2.98695 4.19656 2.86192C4.32159 2.7369 4.49116 2.66666 4.66797 2.66666H8.0013V4.66666C8.0013 5.19709 8.21202 5.7058 8.58709 6.08088C8.96216 6.45595 9.47087 6.66666 10.0013 6.66666H12.0013V12.6667ZM10.0013 10.6667H6.0013C5.82449 10.6667 5.65492 10.7369 5.5299 10.8619C5.40487 10.9869 5.33464 11.1565 5.33464 11.3333C5.33464 11.5101 5.40487 11.6797 5.5299 11.8047C5.65492 11.9298 5.82449 12 6.0013 12H10.0013C10.1781 12 10.3477 11.9298 10.4727 11.8047C10.5977 11.6797 10.668 11.5101 10.668 11.3333C10.668 11.1565 10.5977 10.9869 10.4727 10.8619C10.3477 10.7369 10.1781 10.6667 10.0013 10.6667Z" fill="#F37920"/>
</svg>
