<svg width="138" height="142" viewBox="0 0 138 142" fill="none" xmlns="http://www.w3.org/2000/svg">
<g clip-path="url(#clip0)" filter="url(#filter0_d)">
<g opacity="0.1">
<g opacity="0.1">
<path opacity="0.1" d="M15 68.7763H68.9318V14.9703C39.1477 14.9703 15 39.0618 15 68.7763Z" fill="#1E1E1E"/>
<path opacity="0.1" d="M122.846 68.7763C122.846 39.0618 98.6981 14.9703 68.9141 14.9703V68.7763H122.846Z" fill="#1E1E1E"/>
<path opacity="0.1" d="M15 68.7763C15 98.4729 39.1477 122.564 68.9318 122.564V68.7763H15Z" fill="#1E1E1E"/>
<path opacity="0.1" d="M68.9316 122.564C98.7157 122.564 122.863 98.4729 122.863 68.7584H68.9316V122.564Z" fill="#1E1E1E"/>
</g>
</g>
<path d="M15 64.806H68.9318V11C39.1477 11 15 35.0914 15 64.806Z" fill="#F37920"/>
<path d="M122.845 64.806C122.845 35.0914 98.6977 11 68.9316 11V64.806H122.845Z" fill="#3CBDB2"/>
<path d="M15 64.806C15 94.5205 39.1477 118.612 68.9318 118.612V64.806H15Z" fill="#FFC624"/>
<path d="M68.9316 118.594C98.7157 118.594 122.863 94.5026 122.863 64.788H68.9316V118.594Z" fill="#9ECD43"/>
<path d="M70.5734 38.6472C70.099 38.2169 69.5599 37.9803 68.9345 37.9803C68.2445 37.9803 67.6838 38.1954 67.231 38.6472C66.7997 39.0775 66.5625 39.6583 66.5625 40.3468C66.5625 41.0352 66.7781 41.5946 67.231 42.0464C67.6623 42.4766 68.2445 42.7133 68.9345 42.7133C69.5599 42.7133 70.1206 42.4981 70.5734 42.0679C71.0478 41.6376 71.285 41.0567 71.285 40.3683C71.285 39.6583 71.0478 39.0775 70.5734 38.6472Z" fill="white"/>
<path d="M68.9345 91.6137C68.2445 91.6137 67.6838 91.3986 67.231 90.9468C66.7997 90.5165 66.5625 89.9357 66.5625 89.2472C66.5625 88.5588 66.7781 87.9994 67.231 87.5477C67.6623 87.1174 68.2445 86.8807 68.9345 86.8807C69.5599 86.8807 70.1206 87.0959 70.5734 87.5477C71.0478 87.9994 71.285 88.5588 71.285 89.2472C71.285 89.9357 71.0478 90.495 70.5734 90.9468C70.099 91.3771 69.5599 91.6137 68.9345 91.6137ZM68.9345 87.5477C68.417 87.5477 68.0288 87.6983 67.7054 88.021C67.3819 88.3437 67.231 88.7309 67.231 89.2472C67.231 89.7636 67.3819 90.1508 67.7054 90.4735C68.0288 90.7962 68.417 90.9468 68.9345 90.9468C69.3874 90.9468 69.7755 90.7962 70.1421 90.4735C70.4871 90.1508 70.6381 89.7636 70.6381 89.2472C70.6381 88.7524 70.4656 88.3437 70.1421 88.021C69.7755 87.7198 69.3874 87.5477 68.9345 87.5477Z" fill="white"/>
<path d="M51.1652 55.2772C51.1652 54.137 51.3809 53.0828 51.8121 52.0717C52.2434 51.0821 52.8256 50.2 53.5588 49.4685C54.292 48.7371 55.1545 48.1562 56.168 47.7259C57.16 47.2957 58.2382 47.0805 59.3811 47.0805C60.5239 47.0805 61.5806 47.2957 62.5941 47.7259C63.586 48.1562 64.4486 48.7371 65.1602 49.447C65.5915 48.7586 66.0874 48.1347 66.6481 47.5753C66.7128 47.5108 66.799 47.4463 66.8637 47.3817C65.9365 46.4997 64.8583 45.8112 63.6291 45.2734C62.2922 44.714 60.869 44.4128 59.3595 44.4128C57.85 44.4128 56.4268 44.6925 55.0898 45.2734C53.7529 45.8327 52.61 46.6072 51.6396 47.5753C50.6692 48.5435 49.8929 49.7052 49.3323 51.0175C48.7716 52.3514 48.4697 53.7713 48.4697 55.2772V64.8078H51.1436V55.2772H51.1652Z" fill="white"/>
<path d="M67.5753 74.3383C67.5753 75.4785 67.3596 76.5327 66.9283 77.5438C66.9068 77.5869 66.8852 77.6084 66.8636 77.6514C66.4324 78.598 65.8717 79.437 65.1817 80.1255L65.1601 80.147C64.4269 80.8569 63.5859 81.4378 62.594 81.8681C61.5805 82.2983 60.5239 82.5135 59.381 82.5135C58.2381 82.5135 57.1815 82.2983 56.168 81.8681C55.1545 81.4378 54.2919 80.8569 53.5587 80.1255C52.8256 79.394 52.2433 78.5335 51.8121 77.5223C51.3808 76.5327 51.1651 75.457 51.1651 74.3168V64.7863H48.4912V74.3168C48.4912 75.8227 48.7715 77.2426 49.3538 78.5765C49.9144 79.9103 50.6907 81.0506 51.6611 82.0187C52.6315 82.9868 53.7959 83.7613 55.1113 84.3206C56.4483 84.88 57.8499 85.1812 59.381 85.1812C60.8905 85.1812 62.3137 84.9015 63.6506 84.3206C64.8798 83.8043 65.958 83.0943 66.8852 82.2123C66.9499 82.1477 67.0362 82.0832 67.1009 82.0187C67.6615 81.4593 68.1575 80.8139 68.5888 80.147C68.7181 79.9534 68.8044 79.7167 68.9338 79.5016C69.1063 79.2004 69.2788 78.8992 69.4298 78.5765C69.9904 77.2426 70.2923 75.8443 70.2923 74.3168V64.7863H67.6184V74.3383H67.5753Z" fill="white"/>
<path d="M89.3548 55.2772C89.3548 53.7713 89.0745 52.3514 88.4923 51.0175C87.9316 49.6837 87.1553 48.5435 86.1849 47.5753C85.2146 46.6072 84.0501 45.8327 82.7347 45.2734C81.3977 44.714 79.9745 44.4128 78.465 44.4128C76.9556 44.4128 75.5324 44.6925 74.1954 45.2734C72.9662 45.7897 71.8881 46.4997 70.9608 47.3817C70.8961 47.4463 70.8099 47.5108 70.7452 47.5753C70.1845 48.1347 69.6885 48.7801 69.2573 49.4685C69.1279 49.6622 69.0416 49.8988 68.9122 50.114C68.7397 50.4151 68.5672 50.7163 68.4163 51.039C67.8556 52.3729 67.5537 53.7928 67.5537 55.2987V63.4094V64.8078H70.2276V63.4309V55.2772C70.2276 54.137 70.4433 53.0828 70.8746 52.0717C70.8961 52.0287 70.9177 52.0072 70.9392 51.9641C71.3705 51.0175 71.9312 50.1785 72.6212 49.4685L72.6428 49.447C73.376 48.7371 74.217 48.1562 75.2089 47.7259C76.2008 47.2957 77.279 47.0805 78.4219 47.0805C79.5648 47.0805 80.6214 47.2957 81.6349 47.7259C82.6269 48.1562 83.511 48.7371 84.2442 49.4685C84.9773 50.2 85.5596 51.0606 85.9909 52.0717C86.4221 53.0828 86.6378 54.137 86.6378 55.2772V64.8078H89.3117V55.2772H89.3548Z" fill="white"/>
<path d="M86.6809 64.8077V74.3383C86.6809 75.4785 86.4653 76.5327 86.034 77.5438C85.6027 78.5549 85.0205 79.4155 84.2873 80.1469C83.5542 80.8784 82.6916 81.4593 81.6781 81.8895C80.6646 82.3198 79.608 82.5349 78.4651 82.5349C77.3222 82.5349 76.2656 82.3198 75.2521 81.8895C74.2601 81.4593 73.3976 80.8784 72.686 80.1684C72.2547 80.8569 71.7587 81.4808 71.1981 82.0616C71.1334 82.1262 71.0471 82.1907 70.9824 82.2553C71.9097 83.1373 72.9879 83.8473 74.217 84.3636C75.554 84.923 76.9556 85.2241 78.4867 85.2241C79.9961 85.2241 81.4193 84.9445 82.7563 84.3636C84.0933 83.8042 85.2362 83.0298 86.2065 82.0616C87.1769 81.0935 87.9532 79.9318 88.5139 78.6195C89.0745 77.2856 89.3764 75.8872 89.3764 74.3598V64.8293H86.6809V64.8077Z" fill="white"/>
</g>
<defs>
<filter id="filter0_d" x="0" y="0" width="137.846" height="141.564" filterUnits="userSpaceOnUse" color-interpolation-filters="sRGB">
<feFlood flood-opacity="0" result="BackgroundImageFix"/>
<feColorMatrix in="SourceAlpha" type="matrix" values="0 0 0 0 0 0 0 0 0 0 0 0 0 0 0 0 0 0 127 0"/>
<feOffset dy="4"/>
<feGaussianBlur stdDeviation="7.5"/>
<feColorMatrix type="matrix" values="0 0 0 0 0 0 0 0 0 0 0 0 0 0 0 0 0 0 0.1 0"/>
<feBlend mode="normal" in2="BackgroundImageFix" result="effect1_dropShadow"/>
<feBlend mode="normal" in="SourceGraphic" in2="effect1_dropShadow" result="shape"/>
</filter>
<clipPath id="clip0">
<rect width="107.846" height="111.564" fill="white" transform="translate(15 11)"/>
</clipPath>
</defs>
</svg>
