<svg width="22" height="22" viewBox="0 0 22 22" fill="none" xmlns="http://www.w3.org/2000/svg">
<path d="M18.5623 6.26877C17.4163 5.74489 15.943 5.45021 14.2076 5.45021H13.9129L13.6837 5.05731C12.2103 2.47067 10.3768 0.931793 8.77242 0.931793C8.57597 0.931793 8.37952 0.964535 8.18307 0.997277C7.36451 1.19373 6.64419 1.91406 6.12031 2.99455C5.59644 4.14052 5.30176 5.61392 5.30176 7.34926C5.30176 8.8554 5.49821 10.4598 5.89112 12.0641C6.28402 13.5703 6.8079 14.9782 7.46274 16.2224C8.87065 16.1896 10.3768 15.9932 11.8829 15.633C13.4873 15.2074 14.9934 14.6508 16.3031 13.8977C17.8093 13.0791 18.988 12.0969 19.7083 11.1146C20.4286 10.1323 20.6906 9.18282 20.4614 8.36426C20.3631 7.48023 19.6756 6.7599 18.5623 6.26877Z" fill="#82C1EA"/>
<path d="M12.2109 16.5826C10.8358 16.9427 9.46059 17.1392 8.11816 17.2047C8.83849 18.3506 9.65704 19.2674 10.4756 19.8895C11.5888 20.7081 12.6693 20.97 13.9135 20.6426C18.17 19.2674 20.9858 15.4038 21.0513 11.0164C20.2982 12.3588 18.8576 13.6685 16.8603 14.7817C15.4851 15.5348 13.9135 16.1569 12.2109 16.5826Z" fill="#119AD6"/>
<path d="M0.6194 12.8827C0.881337 13.8977 1.37247 14.6835 2.91135 15.3383C3.92636 15.764 5.10507 16.0587 6.38202 16.1241C5.79266 14.9454 5.33427 13.6357 4.9741 12.2606C4.54846 10.558 4.31926 8.88813 4.352 7.28376C4.352 4.99181 4.81039 3.09277 5.66169 1.78308C1.73263 3.97681 -0.29738 8.397 0.6194 12.8827Z" fill="#119AD6"/>
<path d="M6.93889 17.2046C4.81065 17.1392 3.00983 16.7135 1.76562 15.895C3.56644 19.0382 6.97163 21.0355 10.5733 21.1337C9.26358 20.4134 8.01938 19.0382 6.93889 17.2046Z" fill="#119AD6"/>
</svg>
