<svg width="69" height="24" viewBox="0 0 69 24" fill="none" xmlns="http://www.w3.org/2000/svg">
<path d="M29.0426 17.7462C28.093 17.1896 27.3727 16.4693 26.8161 15.4543C26.2595 14.5048 26.0303 13.326 26.0303 11.9509C26.0303 10.6739 26.3577 9.49521 26.9143 8.54569C27.4709 7.59617 28.2567 6.81035 29.2063 6.25374C30.254 5.69712 31.3345 5.46793 32.6114 5.46793C33.2335 5.46793 33.8884 5.53341 34.5105 5.69712C35.1326 5.86083 35.6237 6.02454 36.0821 6.25374L35.8529 8.15278C34.7397 7.66165 33.7247 7.43246 32.6114 7.43246C31.1708 7.43246 30.1558 7.82536 29.37 8.7094C28.6496 9.59344 28.2567 10.6084 28.2567 11.9509C28.2567 13.3915 28.6496 14.5048 29.37 15.2906C30.0903 16.1746 31.1053 16.5675 32.546 16.5675C33.1681 16.5675 33.8229 16.502 34.3795 16.3383V13.7517H32.7097V12.0164H36.606V17.648C36.1149 17.8772 35.4928 18.1391 34.7724 18.3683C34.0521 18.532 33.2663 18.5975 32.3823 18.5975C31.1053 18.5975 29.9921 18.3028 29.0426 17.7462Z" fill="#000B0A"/>
<path d="M39.4209 5.69711H41.4837V10.7721H47.5082V5.69711H49.571V18.3356H47.5082V12.7694H41.4837V18.3356H39.4209C39.4209 18.3356 39.4209 5.69711 39.4209 5.69711Z" fill="#000B0A"/>
<path d="M53.9925 5.66437H55.7279L58.9038 11.6234L62.0798 5.66437H63.8152L65.5505 18.2701H63.4223L62.309 9.36423L58.9693 15.487L55.6624 9.46246L54.5491 18.2701H52.4209L53.9925 5.66437Z" fill="#000B0A"/>
<path d="M20.5623 7.26877C19.4163 6.74489 17.943 6.45021 16.2076 6.45021H15.9129L15.6837 6.05731C14.2103 3.47067 12.3768 1.93179 10.7724 1.93179C10.576 1.93179 10.3795 1.96454 10.1831 1.99728C9.36451 2.19373 8.64419 2.91406 8.12031 3.99455C7.59644 5.14052 7.30176 6.61392 7.30176 8.34926C7.30176 9.8554 7.49821 11.4598 7.89112 13.0641C8.28402 14.5703 8.8079 15.9782 9.46274 17.2224C10.8707 17.1896 12.3768 16.9932 13.8829 16.633C15.4873 16.2074 16.9934 15.6508 18.3031 14.8977C19.8093 14.0791 20.988 13.0969 21.7083 12.1146C22.4286 11.1323 22.6906 10.1828 22.4614 9.36426C22.3631 8.48023 21.6756 7.7599 20.5623 7.26877Z" fill="#82C1EA"/>
<path d="M14.2109 17.5826C12.8358 17.9427 11.4606 18.1392 10.1182 18.2047C10.8385 19.3506 11.657 20.2674 12.4756 20.8895C13.5888 21.7081 14.6693 21.97 15.9135 21.6426C20.17 20.2674 22.9858 16.4038 23.0513 12.0164C22.2982 13.3588 20.8576 14.6685 18.8603 15.7817C17.4851 16.5348 15.9135 17.1569 14.2109 17.5826Z" fill="#119AD6"/>
<path d="M2.6194 13.8827C2.88134 14.8977 3.37247 15.6835 4.91135 16.3383C5.92636 16.764 7.10507 17.0587 8.38202 17.1241C7.79266 15.9454 7.33427 14.6357 6.9741 13.2606C6.54846 11.558 6.31926 9.88813 6.352 8.28376C6.352 5.99181 6.81039 4.09277 7.66169 2.78308C3.73263 4.97681 1.70262 9.397 2.6194 13.8827Z" fill="#119AD6"/>
<path d="M8.93889 18.2046C6.81065 18.1392 5.00983 17.7135 3.76562 16.895C5.56644 20.0382 8.97163 22.0355 12.5733 22.1337C11.2636 21.4134 10.0194 20.0382 8.93889 18.2046Z" fill="#119AD6"/>
</svg>
