<svg width="40" height="14" viewBox="0 0 40 14" fill="none" xmlns="http://www.w3.org/2000/svg">
<path d="M3.04255 12.7462C2.09303 12.1896 1.3727 11.4693 0.816086 10.4543C0.259469 9.50476 0.0302734 8.32604 0.0302734 6.95087C0.0302734 5.67393 0.357694 4.49521 0.914311 3.54569C1.47093 2.59617 2.25674 1.81035 3.20626 1.25374C4.25401 0.697121 5.3345 0.467926 6.61145 0.467926C7.23355 0.467926 7.88839 0.53341 8.51049 0.697121C9.13259 0.860831 9.62372 1.02454 10.0821 1.25374L9.85292 3.15278C8.73969 2.66165 7.72468 2.43246 6.61145 2.43246C5.17079 2.43246 4.15578 2.82536 3.36997 3.7094C2.64964 4.59344 2.25674 5.60844 2.25674 6.95087C2.25674 8.39153 2.64964 9.50476 3.36997 10.2906C4.0903 11.1746 5.10531 11.5675 6.54596 11.5675C7.16806 11.5675 7.82291 11.502 8.37952 11.3383V8.75169H6.70967V7.01636H10.606V12.648C10.1149 12.8772 9.49275 13.1391 8.77243 13.3683C8.0521 13.532 7.26629 13.5975 6.38225 13.5975C5.10531 13.5975 3.99207 13.3028 3.04255 12.7462Z" fill="#000B0A"/>
<path d="M13.4209 0.697113H15.4837V5.77215H21.5082V0.697113H23.571V13.3356H21.5082V7.76942H15.4837V13.3356H13.4209C13.4209 13.3356 13.4209 0.697113 13.4209 0.697113Z" fill="#000B0A"/>
<path d="M27.9925 0.664368H29.7279L32.9038 6.62344L36.0798 0.664368H37.8152L39.5505 13.2701H37.4223L36.309 4.36423L32.9693 10.487L29.6624 4.46246L28.5491 13.2701H26.4209L27.9925 0.664368Z" fill="#000B0A"/>
</svg>
