<svg width="76" height="123" viewBox="0 0 76 123" fill="none" xmlns="http://www.w3.org/2000/svg">
<g opacity="0.3">
<path d="M4.63348 66.7093C5.40953 66.5413 6.22054 66.6885 6.88809 67.1184C7.55564 67.5483 8.02505 68.2259 8.19306 69.0019C8.36107 69.778 8.21392 70.589 7.78397 71.2565C7.35402 71.9241 6.6765 72.3935 5.90045 72.5615C4.28442 72.9114 0 70.7757 0 70.7757C0 70.7757 3.01745 67.0592 4.63348 66.7093Z" fill="#9ECD43"/>
<path d="M52.1862 122.854C45.706 119.242 41.6718 114.31 40.1957 108.195C39.0997 103.655 39.4146 98.5467 41.1317 93.0111C42.4046 88.9299 44.3131 85.0749 46.7869 81.5881C59.9106 63.0119 61.0951 50.9076 59.7778 44.0244C58.3335 36.4771 53.641 33.3427 53.5937 33.3119L53.7963 33.0004C53.8447 33.0319 58.6609 36.2392 60.1399 43.9396C60.9926 48.3789 60.5914 53.4409 58.9476 58.9848C56.9018 65.8845 52.9124 73.5615 47.0904 81.8026C44.6392 85.2574 42.748 89.0772 41.4866 93.1211C38.6704 102.2 38.272 114.672 52.3671 122.53L52.1862 122.854Z" fill="#9ECD43"/>
<path d="M40.3511 88.4572C35.2423 85.6094 35.3845 81.0961 36.4034 77.8114C36.8552 76.3627 37.5326 74.9943 38.4107 73.7566C43.0083 67.2488 43.4238 63.0212 42.9628 60.6207C42.462 58.0139 40.8557 56.9438 40.8396 56.9332L41.042 56.6217C41.1134 56.6681 42.7974 57.79 43.3276 60.5506C44.0181 64.1453 42.4659 68.6605 38.7143 73.9711C37.8586 75.1768 37.1985 76.51 36.7583 77.9214C35.7801 81.0749 35.6408 85.4062 40.5319 88.1328L40.3511 88.4572Z" fill="#9ECD43"/>
<path d="M63.3364 47.2126L63.1555 46.888C68.0466 44.1613 67.9073 39.83 66.9291 36.6766C66.4889 35.2652 65.8288 33.932 64.9732 32.7262C61.2215 27.4158 59.6693 22.9004 60.3598 19.3058C60.89 16.5452 62.574 15.4232 62.6454 15.3769L62.8481 15.6882C62.8319 15.6989 61.2174 16.7831 60.7218 19.3905C60.2659 21.7897 60.6859 26.0136 65.2767 32.5118C66.1548 33.7494 66.8322 35.1178 67.284 36.5665C68.3029 39.8512 68.4452 44.3645 63.3364 47.2126Z" fill="#9ECD43"/>
<path d="M74.2438 28.7261C73.844 29.3394 73.3272 29.8679 72.7231 30.2815C72.119 30.695 71.4394 30.9856 70.723 31.1364C70.0065 31.2872 69.2674 31.2955 68.5479 31.1606C67.8283 31.0257 67.1423 30.7504 66.5291 30.3504C65.916 29.9503 65.3876 29.4334 64.9743 28.8292C64.561 28.2249 64.2707 27.5451 64.1201 26.8287C63.9696 26.1122 63.9616 25.3731 64.0967 24.6536C64.2319 23.934 64.5074 23.2482 64.9077 22.6352C66.5897 20.0571 75.0575 17.2782 75.0575 17.2782C75.0575 17.2782 75.9257 26.148 74.2438 28.7261Z" fill="#9ECD43"/>
<path d="M72.2008 11.4479C71.801 12.0612 71.2843 12.5897 70.6802 13.0033C70.0761 13.4169 69.3964 13.7074 68.68 13.8582C67.9636 14.0091 67.2245 14.0173 66.5049 13.8824C65.7853 13.7476 65.0993 13.4722 64.4862 13.0722C63.873 12.6722 63.3447 12.1553 62.9313 11.551C62.518 10.9467 62.2277 10.267 62.0772 9.5505C61.9266 8.83404 61.9186 8.09494 62.0538 7.3754C62.1889 6.65587 62.4645 5.97001 62.8647 5.357C64.5467 2.77891 73.0146 0 73.0146 0C73.0146 0 73.8828 8.86982 72.2008 11.4479Z" fill="#9ECD43"/>
<path d="M63.2168 74.7487C61.9092 74.7508 60.6398 74.3079 59.6173 73.4927C58.5949 72.6776 57.8802 71.5388 57.591 70.2636C57.3017 68.9884 57.455 67.6527 58.0256 66.4762C58.5962 65.2996 59.5503 64.3523 60.7308 63.79C63.5362 62.4532 71.9506 64.4101 72.3076 64.494L72.5332 64.5472L72.4323 64.7558C72.2726 65.0858 68.4903 72.8525 65.6846 74.1892C64.914 74.5574 64.0708 74.7486 63.2168 74.7487ZM63.6854 63.6961C62.5442 63.6961 61.5441 63.8141 60.8906 64.1254C59.6005 64.74 58.6074 65.8418 58.1297 67.1886C57.6521 68.5353 57.7289 70.0167 58.3435 71.3067C58.958 72.5968 60.0598 73.5899 61.4066 74.0676C62.7534 74.5453 64.2347 74.4684 65.5248 73.8539C67.9655 72.6911 71.3601 66.0736 71.994 64.804C70.9797 64.5788 66.806 63.6961 63.6854 63.6961Z" fill="#9ECD43"/>
<path d="M51.8592 23.6123C52.4001 24.1055 52.8385 24.7003 53.1494 25.3629C53.4604 26.0255 53.6378 26.7429 53.6715 27.474C53.7053 28.2052 53.5946 28.9359 53.346 29.6243C53.0973 30.3127 52.7155 30.9454 52.2224 31.4862C51.7292 32.0271 51.1344 32.4655 50.4718 32.7765C49.8092 33.0874 49.0918 33.2648 48.3606 33.2986C47.6295 33.3323 46.8988 33.2217 46.2104 32.973C45.522 32.7244 44.8893 32.3426 44.3485 31.8494C42.0738 29.7754 40.6904 20.9712 40.6904 20.9712C40.6904 20.9712 49.5846 21.5383 51.8592 23.6123Z" fill="#9ECD43"/>
<path d="M38.8543 47.0215C39.9466 48.0175 40.5985 49.4066 40.6666 50.8833C40.7348 52.3599 40.2135 53.8031 39.2175 54.8954C38.2215 55.9878 36.8324 56.6397 35.3558 56.7078C33.8791 56.7759 32.4359 56.2546 31.3436 55.2586C29.069 53.1846 27.6855 44.3804 27.6855 44.3804C27.6855 44.3804 36.5797 44.9475 38.8543 47.0215Z" fill="#9ECD43"/>
<path d="M53.4308 50.3046C51.5705 50.3046 48.0132 48.543 47.85 48.4616L47.6426 48.3582L47.7887 48.1782C47.9136 48.0244 50.8664 44.4069 52.5271 44.0473C53.3513 43.8689 54.2127 44.0252 54.9217 44.4819C55.6306 44.9385 56.1292 45.6581 56.3076 46.4823C56.486 47.3065 56.3297 48.1679 55.8731 48.8768C55.4164 49.5858 54.6968 50.0844 53.8726 50.2628C53.7272 50.2922 53.5792 50.3062 53.4308 50.3046ZM48.2275 48.2315C49.1037 48.6498 52.4592 50.1888 53.7941 49.8995C54.5215 49.7416 55.1565 49.3012 55.5594 48.6752C55.9623 48.0492 56.1001 47.2888 55.9426 46.5612C55.7851 45.8337 55.3451 45.1984 54.7193 44.7951C54.0936 44.3918 53.3334 44.2535 52.6057 44.4106C51.2703 44.6997 48.8522 47.4885 48.2275 48.2315Z" fill="#9ECD43"/>
<path d="M23.7547 94.0165C22.4724 93.9959 21.1931 93.8856 19.9261 93.6865L19.6973 93.6493L19.7834 93.4341C19.857 93.2501 21.6029 88.9191 23.0821 88.0829C23.4456 87.8774 23.846 87.7455 24.2604 87.6947C24.6749 87.644 25.0953 87.6753 25.4976 87.787C25.8999 87.8987 26.2763 88.0886 26.6053 88.3458C26.9342 88.6029 27.2093 88.9224 27.4148 89.2859C27.6203 89.6493 27.7522 90.0497 27.803 90.4642C27.8538 90.8786 27.8224 91.299 27.7107 91.7014C27.599 92.1037 27.4092 92.4801 27.152 92.8091C26.8948 93.138 26.5754 93.4131 26.2119 93.6186C25.6805 93.9191 24.7446 94.0165 23.7547 94.0165ZM20.2183 93.3546C21.1789 93.4938 24.8398 93.9673 26.029 93.2953C26.6773 92.9288 27.1535 92.3197 27.3528 91.6021C27.552 90.8845 27.4581 90.1171 27.0915 89.4687C26.725 88.8204 26.1159 88.3442 25.3983 88.145C24.6807 87.9457 23.9133 88.0397 23.265 88.4062C22.0759 89.0784 20.5943 92.4596 20.2183 93.3546Z" fill="#9ECD43"/>
</g>
</svg>
