<svg width="12" height="14" viewBox="0 0 12 14" fill="none" xmlns="http://www.w3.org/2000/svg">
<path d="M11.0009 6H3.41087L6.71087 2.71C6.89918 2.5217 7.00496 2.2663 7.00496 2C7.00496 1.7337 6.89918 1.47831 6.71087 1.29C6.52257 1.1017 6.26717 0.995911 6.00087 0.995911C5.73457 0.995911 5.47918 1.1017 5.29087 1.29L0.290873 6.29C0.199832 6.38511 0.128467 6.49725 0.0808729 6.62C-0.0191451 6.86346 -0.0191451 7.13654 0.0808729 7.38C0.128467 7.50275 0.199832 7.6149 0.290873 7.71L5.29087 12.71C5.38384 12.8037 5.49444 12.8781 5.6163 12.9289C5.73816 12.9797 5.86886 13.0058 6.00087 13.0058C6.13288 13.0058 6.26359 12.9797 6.38545 12.9289C6.50731 12.8781 6.61791 12.8037 6.71087 12.71C6.8046 12.617 6.879 12.5064 6.92976 12.3846C6.98053 12.2627 7.00667 12.132 7.00667 12C7.00667 11.868 6.98053 11.7373 6.92976 11.6154C6.879 11.4936 6.8046 11.383 6.71087 11.29L3.41087 8H11.0009C11.2661 8 11.5204 7.89465 11.708 7.70711C11.8955 7.51957 12.0009 7.26522 12.0009 7C12.0009 6.73479 11.8955 6.48043 11.708 6.2929C11.5204 6.10536 11.2661 6 11.0009 6Z" fill="#2EC4B6"/>
</svg>
