<svg width="388" height="264" viewBox="0 0 388 264" fill="none" xmlns="http://www.w3.org/2000/svg">
<g filter="url(#filter0_d)">
<path d="M372.305 11H15V81.5449H372.305V11Z" fill="white"/>
<path d="M372.305 93.4551H15V164H372.305V93.4551Z" fill="white"/>
<path d="M52.5626 66.8863C64.2003 66.8863 73.6345 57.4521 73.6345 45.8144C73.6345 34.1768 64.2003 24.7426 52.5626 24.7426C40.925 24.7426 31.4907 34.1768 31.4907 45.8144C31.4907 57.4521 40.925 66.8863 52.5626 66.8863Z" fill="#3CBDB2"/>
<path d="M310.922 49.479H102.952V54.0598H310.922V49.479Z" fill="#3CBDB2"/>
<path d="M52.5626 150.257C64.2003 150.257 73.6345 140.823 73.6345 129.186C73.6345 117.548 64.2003 108.114 52.5626 108.114C40.925 108.114 31.4907 117.548 31.4907 129.186C31.4907 140.823 40.925 150.257 52.5626 150.257Z" fill="#F37920"/>
<path d="M310.922 132.85H102.952V137.431H310.922V132.85Z" fill="#CCCCCC"/>
<path d="M372.305 174.455H15V245H372.305V174.455Z" fill="white"/>
<path d="M52.5626 231.257C64.2003 231.257 73.6345 221.823 73.6345 210.186C73.6345 198.548 64.2003 189.114 52.5626 189.114C40.925 189.114 31.4907 198.548 31.4907 210.186C31.4907 221.823 40.925 231.257 52.5626 231.257Z" fill="#CCCCCC"/>
<path d="M310.922 201.94H102.952V206.521H310.922V201.94Z" fill="#CCCCCC"/>
<path d="M310.922 213.85H102.952V218.431H310.922V213.85Z" fill="#CCCCCC"/>
<path d="M50.6422 53.781L43.0952 43.718L44.8832 42.378L51.0312 50.575L75.2372 30.77L76.6522 32.5L50.6422 53.781Z" fill="#F2F2F2"/>
<path d="M104.05 42H105.954V38.248L109.384 42H111.904L108.586 38.472C108.67 38.486 108.726 38.486 108.768 38.486H108.866C110.518 38.486 111.596 37.366 111.596 35.84C111.596 34.146 110.308 32.9 108.53 32.9H104.05V42ZM108.138 34.622C108.894 34.622 109.454 35.126 109.454 35.84C109.454 36.568 108.894 37.1 108.138 37.1H105.954V34.622H108.138ZM116.095 40.348C115.731 40.348 115.423 40.222 115.185 39.998C114.947 39.746 114.793 39.396 114.793 38.906V35.182H112.875V38.976C112.875 39.9 113.169 40.67 113.743 41.244C114.289 41.79 115.115 42.126 116.095 42.126C117.103 42.112 117.915 41.79 118.475 41.23C119.035 40.67 119.329 39.9 119.329 38.976V35.182H117.411V38.906C117.411 39.396 117.271 39.746 117.019 39.998C116.795 40.222 116.459 40.348 116.095 40.348ZM122.904 38.29C122.904 37.814 123.086 37.436 123.38 37.17C123.632 36.96 123.982 36.848 124.318 36.848C124.682 36.848 125.032 36.974 125.256 37.198C125.522 37.464 125.662 37.842 125.662 38.304V42H127.58V38.066C127.58 37.128 127.3 36.33 126.726 35.784C126.25 35.336 125.592 35.056 124.78 35.056C124.052 35.056 123.226 35.364 122.638 36.26L122.54 35.182H120.986V42H122.904V38.29ZM133.867 42H135.785V34.314H132.131L131.921 36.162H133.867V42ZM142.435 42H144.843L141.847 38.5L144.787 35.182H142.589L139.789 38.304V32.2H137.871V42H139.789V38.822L142.435 42ZM147.431 38.276C147.431 37.814 147.599 37.464 147.865 37.198C148.117 36.96 148.453 36.848 148.817 36.848C149.167 36.848 149.489 36.96 149.727 37.198C149.993 37.464 150.119 37.828 150.119 38.29V42H152.037V38.276C152.037 37.8 152.191 37.436 152.499 37.17C152.737 36.96 153.073 36.848 153.423 36.848C153.759 36.848 154.081 36.96 154.333 37.198C154.599 37.45 154.711 37.828 154.711 38.29V42H156.629V38.066C156.629 37.114 156.363 36.33 155.803 35.784C155.341 35.336 154.683 35.056 153.885 35.056C153.115 35.056 152.219 35.35 151.617 36.302C151.491 36.106 151.365 35.938 151.197 35.784C150.721 35.336 150.077 35.056 149.279 35.056C148.565 35.056 147.753 35.35 147.165 36.232L147.067 35.182H145.513V42H147.431V38.276ZM166.503 41.44L165.775 39.914C165.495 40.166 165.145 40.292 164.823 40.292C164.207 40.292 163.801 39.942 163.801 39.158V36.834H166.055L166.293 35.182H163.801V33.222H163.647L161.883 33.992V35.182H161.015L160.763 36.834H161.883V39.41C161.883 41.062 162.681 42.126 164.543 42.126C165.215 42.126 166.013 41.916 166.503 41.44ZM170.61 35.056C169.546 35.056 168.622 35.462 167.95 36.106C167.278 36.736 166.914 37.618 166.914 38.598C166.914 39.564 167.292 40.46 167.95 41.09C168.622 41.734 169.546 42.126 170.596 42.126C171.646 42.126 172.584 41.734 173.242 41.09C173.9 40.46 174.292 39.564 174.292 38.598C174.292 37.632 173.9 36.722 173.256 36.106C172.584 35.462 171.674 35.056 170.61 35.056ZM170.61 36.862C171.086 36.862 171.52 37.044 171.828 37.352C172.136 37.66 172.332 38.108 172.332 38.598C172.332 39.088 172.136 39.536 171.828 39.844C171.52 40.138 171.1 40.334 170.61 40.334C170.12 40.334 169.7 40.138 169.378 39.844C169.07 39.536 168.874 39.088 168.874 38.598C168.874 38.108 169.07 37.66 169.378 37.352C169.7 37.058 170.12 36.862 170.61 36.862ZM181.091 42H182.603V32.2H180.685V35.882C180.181 35.336 179.467 35.056 178.725 35.056C177.689 35.056 176.933 35.392 176.317 35.994C175.659 36.638 175.295 37.576 175.295 38.598C175.295 39.606 175.659 40.544 176.331 41.202C176.947 41.804 177.703 42.126 178.725 42.126C179.705 42.126 180.531 41.678 180.979 40.95L181.091 42ZM178.991 40.348C178.515 40.348 178.081 40.166 177.773 39.872C177.451 39.564 177.269 39.088 177.269 38.598C177.269 38.122 177.451 37.66 177.773 37.338C178.081 37.044 178.515 36.848 178.991 36.848C179.481 36.848 179.929 37.044 180.209 37.338C180.545 37.646 180.727 38.108 180.727 38.598C180.727 39.088 180.545 39.55 180.209 39.858C179.929 40.152 179.481 40.348 178.991 40.348ZM188.946 42H190.472V37.996C190.472 37.128 190.15 36.372 189.632 35.882C189.044 35.308 188.19 35.056 187.252 35.056C185.95 35.056 184.956 35.476 184.13 36.12L185.068 37.492C185.67 36.988 186.356 36.694 187.042 36.694C187.518 36.694 187.924 36.806 188.19 37.072C188.47 37.352 188.554 37.632 188.554 38.22C187.98 38.024 187.392 37.912 186.776 37.912C185.25 37.912 184.032 38.696 184.032 40.012C184.032 41.384 185.082 42.126 186.58 42.126C187.63 42.126 188.288 41.706 188.848 41.188L188.946 42ZM185.978 39.9C185.978 39.424 186.44 39.13 187.14 39.13C187.588 39.13 187.98 39.2 188.554 39.396V40.11C188.064 40.474 187.56 40.614 187.028 40.614C186.398 40.614 185.978 40.362 185.978 39.9ZM198.508 35.182H196.478L194.798 39.256L193.16 35.182H191.074L193.762 41.44L192.39 44.8H194.28L198.508 35.182Z" fill="#3CBDB2"/>
<path d="M103.14 116.706H106.024V124H107.984V116.706H110.644L110.854 114.9H103.364L103.14 116.706ZM115.61 124H117.136V119.996C117.136 119.128 116.814 118.372 116.296 117.882C115.708 117.308 114.854 117.056 113.916 117.056C112.614 117.056 111.62 117.476 110.794 118.12L111.732 119.492C112.334 118.988 113.02 118.694 113.706 118.694C114.182 118.694 114.588 118.806 114.854 119.072C115.134 119.352 115.218 119.632 115.218 120.22C114.644 120.024 114.056 119.912 113.44 119.912C111.914 119.912 110.696 120.696 110.696 122.012C110.696 123.384 111.746 124.126 113.244 124.126C114.294 124.126 114.952 123.706 115.512 123.188L115.61 124ZM112.642 121.9C112.642 121.424 113.104 121.13 113.804 121.13C114.252 121.13 114.644 121.2 115.218 121.396V122.11C114.728 122.474 114.224 122.614 113.692 122.614C113.062 122.614 112.642 122.362 112.642 121.9ZM123.362 124H125.77L122.774 120.5L125.714 117.182H123.516L120.716 120.304V114.2H118.798V124H120.716V120.822L123.362 124ZM132.429 122.796L131.197 121.718C130.707 122.194 130.147 122.446 129.335 122.446C128.831 122.446 128.327 122.264 127.991 121.928C127.809 121.746 127.683 121.48 127.613 121.158H132.695V120.724C132.695 119.646 132.457 118.708 131.757 118.036C131.071 117.364 130.231 117.056 129.209 117.056C128.187 117.056 127.277 117.448 126.619 118.092C125.975 118.708 125.625 119.618 125.625 120.598C125.625 121.564 125.947 122.488 126.605 123.104C127.277 123.776 128.215 124.126 129.279 124.126C130.581 124.126 131.687 123.692 132.429 122.796ZM128.019 119.072C128.341 118.764 128.747 118.624 129.209 118.624C129.685 118.638 130.049 118.764 130.343 119.058C130.567 119.282 130.679 119.548 130.735 119.884H127.585C127.655 119.548 127.795 119.31 128.019 119.072ZM138.693 124H140.611V116.314H136.957L136.747 118.162H138.693V124ZM146.183 116.188C144.013 116.188 142.375 117.798 142.375 120.178C142.375 122.558 144.013 124.126 146.183 124.126C148.367 124.126 149.991 122.558 149.991 120.178C149.991 117.798 148.367 116.188 146.183 116.188ZM146.183 117.938C147.261 117.938 148.045 118.82 148.045 120.178C148.045 121.48 147.261 122.376 146.183 122.376C145.105 122.376 144.321 121.48 144.321 120.178C144.321 118.806 145.105 117.938 146.183 117.938ZM154.946 116.188C152.776 116.188 151.138 117.798 151.138 120.178C151.138 122.558 152.776 124.126 154.946 124.126C157.13 124.126 158.754 122.558 158.754 120.178C158.754 117.798 157.13 116.188 154.946 116.188ZM154.946 117.938C156.024 117.938 156.808 118.82 156.808 120.178C156.808 121.48 156.024 122.376 154.946 122.376C153.868 122.376 153.084 121.48 153.084 120.178C153.084 118.806 153.868 117.938 154.946 117.938ZM163.71 116.188C161.54 116.188 159.902 117.798 159.902 120.178C159.902 122.558 161.54 124.126 163.71 124.126C165.894 124.126 167.518 122.558 167.518 120.178C167.518 117.798 165.894 116.188 163.71 116.188ZM163.71 117.938C164.788 117.938 165.572 118.82 165.572 120.178C165.572 121.48 164.788 122.376 163.71 122.376C162.632 122.376 161.848 121.48 161.848 120.178C161.848 118.806 162.632 117.938 163.71 117.938ZM174.661 119.814C174.073 119.702 173.849 119.548 173.849 119.226C173.849 118.848 174.241 118.61 174.787 118.61C175.445 118.61 175.963 118.764 176.705 119.226L177.349 117.77C176.551 117.28 175.641 117.042 174.675 117.042C173.065 117.042 171.959 117.938 171.959 119.198C171.959 120.402 172.771 121.004 173.947 121.214L174.829 121.382C175.277 121.466 175.543 121.62 175.543 121.914C175.543 122.32 175.123 122.558 174.507 122.558C173.765 122.558 173.261 122.362 172.519 121.956L171.791 123.454C172.589 123.86 173.569 124.126 174.647 124.126C176.327 124.126 177.503 123.23 177.503 121.956C177.503 120.78 176.705 120.234 175.431 119.968L174.661 119.814ZM183.675 123.44L182.947 121.914C182.667 122.166 182.317 122.292 181.995 122.292C181.379 122.292 180.973 121.942 180.973 121.158V118.834H183.227L183.465 117.182H180.973V115.222H180.819L179.055 115.992V117.182H178.187L177.935 118.834H179.055V121.41C179.055 123.062 179.853 124.126 181.715 124.126C182.387 124.126 183.185 123.916 183.675 123.44ZM190.89 122.796L189.658 121.718C189.168 122.194 188.608 122.446 187.796 122.446C187.292 122.446 186.788 122.264 186.452 121.928C186.27 121.746 186.144 121.48 186.074 121.158H191.156V120.724C191.156 119.646 190.918 118.708 190.218 118.036C189.532 117.364 188.692 117.056 187.67 117.056C186.648 117.056 185.738 117.448 185.08 118.092C184.436 118.708 184.086 119.618 184.086 120.598C184.086 121.564 184.408 122.488 185.066 123.104C185.738 123.776 186.676 124.126 187.74 124.126C189.042 124.126 190.148 123.692 190.89 122.796ZM186.48 119.072C186.802 118.764 187.208 118.624 187.67 118.624C188.146 118.638 188.51 118.764 188.804 119.058C189.028 119.282 189.14 119.548 189.196 119.884H186.046C186.116 119.548 186.256 119.31 186.48 119.072ZM196.395 124.126C197.417 124.126 198.159 123.804 198.775 123.202C199.447 122.544 199.825 121.606 199.825 120.598C199.825 119.576 199.447 118.638 198.775 117.994C198.159 117.392 197.431 117.056 196.395 117.056C195.513 117.056 194.701 117.448 194.183 118.246L194.085 117.182H192.531V126.8H194.449V123.342C194.925 123.832 195.611 124.126 196.395 124.126ZM196.157 118.848C196.619 118.848 197.067 119.044 197.375 119.338C197.683 119.66 197.879 120.122 197.879 120.598C197.879 121.088 197.683 121.55 197.375 121.858C197.067 122.152 196.619 122.348 196.157 122.348C195.667 122.348 195.219 122.152 194.925 121.858C194.603 121.55 194.407 121.088 194.407 120.598C194.407 120.108 194.603 119.646 194.925 119.338C195.219 119.044 195.667 118.848 196.157 118.848ZM203.536 119.814C202.948 119.702 202.724 119.548 202.724 119.226C202.724 118.848 203.116 118.61 203.662 118.61C204.32 118.61 204.838 118.764 205.58 119.226L206.224 117.77C205.426 117.28 204.516 117.042 203.55 117.042C201.94 117.042 200.834 117.938 200.834 119.198C200.834 120.402 201.646 121.004 202.822 121.214L203.704 121.382C204.152 121.466 204.418 121.62 204.418 121.914C204.418 122.32 203.998 122.558 203.382 122.558C202.64 122.558 202.136 122.362 201.394 121.956L200.666 123.454C201.464 123.86 202.444 124.126 203.522 124.126C205.202 124.126 206.378 123.23 206.378 121.956C206.378 120.78 205.58 120.234 204.306 119.968L203.536 119.814ZM215.688 124H217.214V119.996C217.214 119.128 216.892 118.372 216.374 117.882C215.786 117.308 214.932 117.056 213.994 117.056C212.692 117.056 211.698 117.476 210.872 118.12L211.81 119.492C212.412 118.988 213.098 118.694 213.784 118.694C214.26 118.694 214.666 118.806 214.932 119.072C215.212 119.352 215.296 119.632 215.296 120.22C214.722 120.024 214.134 119.912 213.518 119.912C211.992 119.912 210.774 120.696 210.774 122.012C210.774 123.384 211.824 124.126 213.322 124.126C214.372 124.126 215.03 123.706 215.59 123.188L215.688 124ZM212.72 121.9C212.72 121.424 213.182 121.13 213.882 121.13C214.33 121.13 214.722 121.2 215.296 121.396V122.11C214.806 122.474 214.302 122.614 213.77 122.614C213.14 122.614 212.72 122.362 212.72 121.9ZM223.706 123.44L222.978 121.914C222.698 122.166 222.348 122.292 222.026 122.292C221.41 122.292 221.004 121.942 221.004 121.158V118.834H223.258L223.496 117.182H221.004V115.222H220.85L219.086 115.992V117.182H218.218L217.966 118.834H219.086V121.41C219.086 123.062 219.884 124.126 221.746 124.126C222.418 124.126 223.216 123.916 223.706 123.44ZM232.976 123.44L232.248 121.914C231.968 122.166 231.618 122.292 231.296 122.292C230.68 122.292 230.274 121.942 230.274 121.158V118.834H232.528L232.766 117.182H230.274V115.222H230.12L228.356 115.992V117.182H227.488L227.236 118.834H228.356V121.41C228.356 123.062 229.154 124.126 231.016 124.126C231.688 124.126 232.486 123.916 232.976 123.44ZM235.97 120.29C235.97 119.814 236.152 119.436 236.446 119.17C236.698 118.96 237.048 118.848 237.384 118.848C237.748 118.848 238.084 118.96 238.322 119.198C238.602 119.478 238.728 119.842 238.728 120.304V124H240.646V120.066C240.646 119.128 240.366 118.33 239.792 117.784C239.316 117.336 238.672 117.056 237.874 117.056C237.132 117.056 236.418 117.364 235.97 118.078V114.2H234.052V124H235.97V120.29ZM248.722 122.796L247.49 121.718C247 122.194 246.44 122.446 245.628 122.446C245.124 122.446 244.62 122.264 244.284 121.928C244.102 121.746 243.976 121.48 243.906 121.158H248.988V120.724C248.988 119.646 248.75 118.708 248.05 118.036C247.364 117.364 246.524 117.056 245.502 117.056C244.48 117.056 243.57 117.448 242.912 118.092C242.268 118.708 241.918 119.618 241.918 120.598C241.918 121.564 242.24 122.488 242.898 123.104C243.57 123.776 244.508 124.126 245.572 124.126C246.874 124.126 247.98 123.692 248.722 122.796ZM244.312 119.072C244.634 118.764 245.04 118.624 245.502 118.624C245.978 118.638 246.342 118.764 246.636 119.058C246.86 119.282 246.972 119.548 247.028 119.884H243.878C243.948 119.548 244.088 119.31 244.312 119.072ZM257.03 117.056C255.966 117.056 255.042 117.462 254.37 118.106C253.698 118.736 253.334 119.618 253.334 120.598C253.334 121.564 253.712 122.46 254.37 123.09C255.042 123.734 255.966 124.126 257.016 124.126C258.066 124.126 259.004 123.734 259.662 123.09C260.32 122.46 260.712 121.564 260.712 120.598C260.712 119.632 260.32 118.722 259.676 118.106C259.004 117.462 258.094 117.056 257.03 117.056ZM257.03 118.862C257.506 118.862 257.94 119.044 258.248 119.352C258.556 119.66 258.752 120.108 258.752 120.598C258.752 121.088 258.556 121.536 258.248 121.844C257.94 122.138 257.52 122.334 257.03 122.334C256.54 122.334 256.12 122.138 255.798 121.844C255.49 121.536 255.294 121.088 255.294 120.598C255.294 120.108 255.49 119.66 255.798 119.352C256.12 119.058 256.54 118.862 257.03 118.862ZM266.265 118.834L266.517 117.182H264.487V117.042C264.487 116.678 264.585 116.328 264.809 116.104C264.991 115.922 265.285 115.824 265.635 115.824C265.887 115.824 266.167 115.88 266.405 115.992L266.895 114.354C266.489 114.186 265.985 114.074 265.439 114.074C264.585 114.074 263.913 114.34 263.395 114.816C262.849 115.32 262.569 116.16 262.569 117.07V117.182H261.589L261.337 118.834H262.569V124H264.487V118.834H266.265ZM269.969 117.042C269.969 116.678 270.053 116.314 270.263 116.104C270.445 115.922 270.669 115.824 270.963 115.824C271.117 115.824 271.285 115.824 271.411 115.88L271.677 114.2C271.453 114.102 271.173 114.074 270.865 114.074C270.025 114.074 269.353 114.34 268.849 114.816C268.317 115.306 268.051 116.16 268.051 117.07V117.182H267.071L266.819 118.834H268.051V124H269.969V118.834H272.727V124H274.659V117.182H269.969V117.042ZM273.679 116.412C274.351 116.412 274.897 115.922 274.897 115.25C274.897 114.564 274.351 114.102 273.679 114.102C272.993 114.102 272.461 114.564 272.461 115.25C272.461 115.922 272.993 116.412 273.679 116.412ZM282.497 118.344C281.937 117.588 280.887 117.056 279.739 117.056C277.597 117.056 276.057 118.638 276.057 120.598C276.057 122.558 277.485 124.14 279.725 124.14C280.873 124.14 281.937 123.664 282.553 122.81L281.139 121.662C280.817 122.124 280.257 122.362 279.697 122.362C278.731 122.362 278.017 121.592 278.017 120.598C278.017 119.59 278.717 118.834 279.711 118.834C280.299 118.834 280.873 119.142 281.139 119.506L282.497 118.344ZM289.779 122.796L288.547 121.718C288.057 122.194 287.497 122.446 286.685 122.446C286.181 122.446 285.677 122.264 285.341 121.928C285.159 121.746 285.033 121.48 284.963 121.158H290.045V120.724C290.045 119.646 289.807 118.708 289.107 118.036C288.421 117.364 287.581 117.056 286.559 117.056C285.537 117.056 284.627 117.448 283.969 118.092C283.325 118.708 282.975 119.618 282.975 120.598C282.975 121.564 283.297 122.488 283.955 123.104C284.627 123.776 285.565 124.126 286.629 124.126C287.931 124.126 289.037 123.692 289.779 122.796ZM285.369 119.072C285.691 118.764 286.097 118.624 286.559 118.624C287.035 118.638 287.399 118.764 287.693 119.058C287.917 119.282 288.029 119.548 288.085 119.884H284.935C285.005 119.548 285.145 119.31 285.369 119.072Z" fill="#1D1D1D"/>
</g>
<defs>
<filter id="filter0_d" x="0" y="0" width="387.305" height="264" filterUnits="userSpaceOnUse" color-interpolation-filters="sRGB">
<feFlood flood-opacity="0" result="BackgroundImageFix"/>
<feColorMatrix in="SourceAlpha" type="matrix" values="0 0 0 0 0 0 0 0 0 0 0 0 0 0 0 0 0 0 127 0"/>
<feOffset dy="4"/>
<feGaussianBlur stdDeviation="7.5"/>
<feColorMatrix type="matrix" values="0 0 0 0 0 0 0 0 0 0 0 0 0 0 0 0 0 0 0.1 0"/>
<feBlend mode="normal" in2="BackgroundImageFix" result="effect1_dropShadow"/>
<feBlend mode="normal" in="SourceGraphic" in2="effect1_dropShadow" result="shape"/>
</filter>
</defs>
</svg>
