<svg width="97" height="127" viewBox="0 0 97 127" fill="none" xmlns="http://www.w3.org/2000/svg">
<path d="M52.3394 1.55752C51.2171 0.529556 49.9079 0 48.4427 0C46.8217 0 45.4813 0.529556 44.4214 1.55752C43.3927 2.58548 42.8628 3.9561 42.8628 5.57592C42.8628 7.19574 43.3927 8.53521 44.4214 9.59433C45.4502 10.6223 46.8217 11.1518 48.4427 11.1518C49.9079 11.1518 51.2171 10.6223 52.3394 9.59433C53.4616 8.56636 54.0228 7.19574 54.0228 5.57592C54.0228 3.9561 53.4616 2.61663 52.3394 1.55752Z" fill="#606161"/>
<path opacity="0.25" d="M48.4427 127C46.8217 127 45.4813 126.47 44.4214 125.442C43.3927 124.414 42.8628 123.044 42.8628 121.424C42.8628 119.804 43.3927 118.465 44.4214 117.406C45.4502 116.378 46.8217 115.848 48.4427 115.848C49.9079 115.848 51.2171 116.378 52.3394 117.406C53.4616 118.465 54.0228 119.804 54.0228 121.424C54.0228 123.044 53.4616 124.414 52.3394 125.442C51.2171 126.47 49.9079 127 48.4427 127ZM48.4427 117.375C47.227 117.375 46.2919 117.748 45.5437 118.496C44.7956 119.244 44.4214 120.209 44.4214 121.393C44.4214 122.608 44.7956 123.542 45.5437 124.29C46.2919 125.037 47.2582 125.411 48.4427 125.411C49.5338 125.411 50.469 125.037 51.2795 124.29C52.09 123.542 52.4641 122.608 52.4641 121.393C52.4641 120.178 52.0588 119.244 51.2795 118.496C50.4378 117.748 49.5338 117.375 48.4427 117.375Z" fill="#606161"/>
<g opacity="0.25">
<path opacity="0.25" d="M94.7343 30.9012C93.3939 27.755 91.5547 25.0449 89.2479 22.7398C86.9411 20.4346 84.2291 18.5968 81.0806 17.2573C77.9322 15.9179 74.5655 15.2325 70.9806 15.2325C67.3957 15.2325 64.0291 15.9179 60.8806 17.2573C57.9815 18.5033 55.4254 20.1854 53.2433 22.2414C53.0874 22.3971 52.9004 22.5529 52.7133 22.7086C51.3729 24.0481 50.2195 25.5433 49.1908 27.1631C48.8791 27.6304 48.6608 28.1911 48.3803 28.6895C47.975 29.406 47.5698 30.0913 47.2269 30.87C45.8865 34.0162 45.2006 37.3804 45.2006 40.9627V60.2136V63.5467V86.0996C45.2006 88.7785 44.7019 91.3017 43.6732 93.6691C43.642 93.7626 43.5797 93.856 43.5173 93.9495C42.5198 96.1923 41.1794 98.1547 39.5272 99.8057C39.496 99.8369 39.496 99.8369 39.4649 99.868C37.7504 101.581 35.7241 102.921 33.3862 103.949C31.017 104.977 28.492 105.475 25.8111 105.475C23.1303 105.475 20.6053 104.977 18.2361 103.949C15.867 102.921 13.8096 101.55 12.0951 99.8057C10.3806 98.0924 8.97778 96.0365 7.94908 93.6691C6.92038 91.3017 6.42164 88.7785 6.42164 86.0996V63.5467V40.9939C6.42164 38.315 6.92038 35.7918 7.94908 33.4243C8.97778 31.0569 10.3494 29.001 12.0951 27.2877C13.8096 25.5745 15.867 24.1727 18.2361 23.1759C20.6053 22.1479 23.1303 21.6495 25.8111 21.6495C28.492 21.6495 31.017 22.1479 33.3862 23.1759C35.7241 24.2038 37.7504 25.5433 39.4649 27.2566C40.4936 25.6367 41.6469 24.1416 42.9873 22.8021C43.1744 22.6463 43.3615 22.4906 43.5173 22.3037C41.3352 20.2478 38.7791 18.5657 35.88 17.3196C32.7315 15.9802 29.3648 15.2949 25.7799 15.2949C22.1951 15.2949 18.8284 15.9802 15.68 17.3196C12.5315 18.6591 9.81948 20.497 7.51269 22.8021C5.2059 25.1072 3.39784 27.8173 2.02624 30.9635C0.685803 34.1096 0 37.4739 0 41.0562V63.609V86.1619C0 89.7442 0.685803 93.1084 2.02624 96.2546C3.36667 99.4007 5.2059 102.111 7.51269 104.416C9.81948 106.721 12.5315 108.528 15.68 109.898C18.8284 111.238 22.1639 111.923 25.7799 111.923C29.3648 111.923 32.7315 111.238 35.88 109.898C38.7791 108.652 41.3041 106.97 43.5173 104.914C43.7044 104.759 43.8914 104.603 44.0473 104.447C45.3877 103.108 46.5411 101.612 47.5698 99.9926C47.8815 99.5253 48.0997 98.9647 48.3803 98.4663C48.7855 97.7498 49.1907 97.0645 49.5336 96.2857C50.8741 93.1396 51.5599 89.7753 51.5599 86.193V63.6402V60.3694V41.0873C51.5599 38.4084 52.0587 35.8852 53.0874 33.5178C53.1186 33.4244 53.1809 33.362 53.2121 33.2686C54.2096 31.0258 55.55 29.0321 57.2022 27.3812C57.2022 27.35 57.2334 27.35 57.2645 27.35C58.979 25.6368 61.0053 24.2973 63.3432 23.2693C65.7124 22.2414 68.2374 21.743 70.9183 21.743C73.5991 21.743 76.1241 22.2414 78.4933 23.2693C80.8624 24.2973 82.9198 25.6679 84.6343 27.3812C86.3488 29.0944 87.7516 31.1504 88.7491 33.5178C89.7778 35.8852 90.2766 38.4084 90.2766 41.0873V63.6402V86.193C90.2766 88.8719 89.7467 91.3951 88.7491 93.7625C87.7204 96.13 86.3488 98.1859 84.6343 99.8992C82.8886 101.644 80.8624 103.014 78.4933 104.042C76.1241 105.07 73.5991 105.569 70.9183 105.569C68.2374 105.569 65.6812 105.07 63.3432 104.042C61.0053 103.014 58.979 101.675 57.2645 99.9615C56.2358 101.581 55.0824 103.077 53.742 104.416C53.5861 104.572 53.3991 104.727 53.2121 104.883C55.3942 106.97 57.9503 108.621 60.8494 109.867C63.9979 111.207 67.3646 111.892 70.9495 111.892C74.5343 111.892 77.901 111.207 81.0494 109.867C84.1979 108.528 86.9099 106.69 89.2167 104.385C91.5235 102.08 93.3627 99.3696 94.7032 96.2234C96.0436 93.0772 96.7294 89.713 96.7294 86.1307V63.5779V41.025C96.7606 37.3804 96.0747 34.0162 94.7343 30.9012Z" fill="#606161"/>
</g>
<path d="M72.1035 60.2137H51.5918V39.7168H45.2949V60.2137H24.7832V66.506H45.2949V87.0029H51.5918V66.506H72.1035V60.2137Z" fill="#2EC4B6"/>
</svg>
