<svg width="404" height="389" viewBox="0 0 404 389" fill="none" xmlns="http://www.w3.org/2000/svg">
<path d="M138.035 264.595C136.641 264.595 135.233 264.573 133.851 264.53L133.882 263.526C135.867 263.588 137.892 263.605 139.886 263.578L139.899 264.582C139.279 264.59 138.657 264.595 138.035 264.595ZM145.945 264.362L145.886 263.359C147.873 263.242 149.886 263.078 151.869 262.87L151.974 263.868C149.976 264.078 147.948 264.244 145.945 264.362ZM127.811 264.205C125.807 264.052 123.781 263.851 121.791 263.607L121.914 262.61C123.889 262.852 125.898 263.052 127.887 263.204L127.811 264.205ZM157.973 263.101L157.823 262.109C159.798 261.809 161.787 261.461 163.736 261.074L163.931 262.059C161.968 262.449 159.963 262.799 157.973 263.101ZM115.806 262.734C113.826 262.398 111.827 262.013 109.866 261.587L110.079 260.606C112.026 261.028 114.009 261.411 115.973 261.743L115.806 262.734ZM169.836 260.744L169.595 259.769C171.533 259.29 173.483 258.761 175.389 258.196L175.674 259.159C173.753 259.728 171.79 260.262 169.836 260.744ZM103.986 260.169C102.044 259.652 100.089 259.084 98.1768 258.48L98.4795 257.523C100.377 258.122 102.317 258.686 104.244 259.198L103.986 260.169ZM181.432 257.306L181.103 256.357C182.984 255.704 184.876 254.997 186.727 254.257L187.1 255.189C185.235 255.935 183.328 256.647 181.432 257.306H181.432ZM92.4372 256.519C90.551 255.826 88.6531 255.078 86.7966 254.297L87.1866 253.371C89.0289 254.147 90.9121 254.889 92.784 255.577L92.4372 256.519ZM192.65 252.819L192.234 251.905C194.041 251.085 195.856 250.209 197.631 249.302L198.088 250.197C196.3 251.11 194.47 251.993 192.65 252.819H192.65ZM203.401 247.327L202.903 246.455C204.635 245.467 206.365 244.428 208.042 243.367L208.579 244.216C206.889 245.285 205.147 246.332 203.401 247.327H203.401ZM213.611 240.87L213.036 240.047C214.667 238.908 216.295 237.715 217.874 236.502L218.486 237.298C216.895 238.521 215.255 239.723 213.611 240.87ZM60.4707 239.456C58.849 238.279 57.229 237.045 55.6553 235.789L56.2823 235.005C57.8439 236.251 59.4517 237.475 61.0609 238.643L60.4707 239.456ZM223.195 233.508L222.547 232.74C224.068 231.457 225.581 230.121 227.045 228.768L227.727 229.505C226.252 230.869 224.727 232.216 223.195 233.508H223.195ZM51.0132 231.908C49.5029 230.586 48.0023 229.211 46.5536 227.821L47.2492 227.096C48.6872 228.476 50.1762 229.841 51.675 231.153L51.0132 231.908ZM232.073 225.299L231.358 224.594C232.76 223.174 234.146 221.705 235.478 220.228L236.225 220.9C234.883 222.389 233.486 223.869 232.073 225.299ZM42.2857 223.536C40.9 222.079 39.5314 220.574 38.2181 219.062L38.977 218.404C40.2803 219.905 41.6384 221.398 43.0138 222.843L42.2857 223.536ZM240.172 216.315L239.396 215.678C240.662 214.137 241.909 212.548 243.102 210.953L243.907 211.554C242.704 213.161 241.448 214.763 240.172 216.315L240.172 216.315ZM34.3592 214.408C33.1148 212.837 31.8894 211.214 30.7171 209.586L31.5325 208.999C32.696 210.615 33.9119 212.225 35.1471 213.786L34.3592 214.408ZM247.421 206.627L246.589 206.063C247.71 204.414 248.808 202.716 249.851 201.017L250.708 201.543C249.655 203.255 248.549 204.965 247.421 206.627L247.421 206.627ZM27.3001 204.603C26.2053 202.926 25.1338 201.2 24.115 199.471L24.9804 198.962C25.9916 200.676 27.055 202.39 28.1415 204.054L27.3001 204.603ZM253.758 196.312L252.879 195.827C253.844 194.082 254.781 192.29 255.665 190.501L256.566 190.946C255.675 192.749 254.73 194.554 253.758 196.312ZM259.124 185.456L258.204 185.052C259.004 183.225 259.773 181.353 260.489 179.49L261.427 179.849C260.706 181.728 259.931 183.614 259.124 185.456ZM16.0187 183.289C15.2484 181.441 14.5108 179.55 13.8264 177.669L14.7708 177.326C15.4498 179.193 16.1818 181.069 16.946 182.902L16.0187 183.289ZM263.469 174.141L262.515 173.826C263.142 171.937 263.734 170.007 264.274 168.088L265.241 168.36C264.697 170.294 264.1 172.239 263.469 174.141ZM11.8909 171.941C11.2931 170.027 10.7314 168.072 10.2214 166.129L11.1933 165.874C11.6994 167.802 12.2569 169.742 12.8501 171.641L11.8909 171.941ZM266.744 162.503L265.765 162.275C266.215 160.34 266.626 158.363 266.988 156.401L267.976 156.582C267.612 158.56 267.197 160.552 266.744 162.503V162.503ZM8.8222 160.246C8.40321 158.285 8.02397 156.286 7.69526 154.306L8.6863 154.141C9.0128 156.107 9.38909 158.09 9.80489 160.036L8.8222 160.246ZM268.933 150.613L267.937 150.477C268.208 148.51 268.436 146.504 268.616 144.515L269.617 144.605C269.435 146.61 269.205 148.631 268.933 150.613V150.613ZM6.84209 148.32C6.60512 146.332 6.4106 144.307 6.26366 142.302L7.26598 142.229C7.41144 144.219 7.60475 146.228 7.83999 148.201L6.84209 148.32ZM270.026 138.574L269.022 138.529C269.112 136.539 269.157 134.52 269.157 132.53H270.162C270.162 134.536 270.116 136.569 270.026 138.574ZM5.95924 136.263C5.92489 135.032 5.90749 133.775 5.90723 132.53C5.90723 131.757 5.91385 130.986 5.9271 130.216L6.93187 130.233C6.91862 130.997 6.912 131.763 6.912 132.53C6.91224 133.766 6.92966 135.013 6.96351 136.236L5.95924 136.263ZM7.1703 124.238L6.1675 124.175C6.29285 122.168 6.46604 120.142 6.68166 118.151L7.68054 118.259C7.46639 120.235 7.2949 122.246 7.17029 124.238H7.1703ZM268.508 118.111C268.308 116.131 268.032 115.166 267.74 113.194L268.734 113.048C269.028 115.034 269.279 116.55 269.482 118.545L268.508 118.111ZM8.4628 112.31L7.46981 112.157C7.77766 110.17 8.13532 108.168 8.53296 106.204L9.51763 106.404C9.12317 108.352 8.76821 110.339 8.4628 112.31ZM266.726 107.281C266.343 105.322 265.911 103.35 265.441 101.42L266.417 101.182C266.89 103.127 267.326 105.115 267.712 107.088L266.726 107.281ZM10.8428 100.552L9.86816 100.307C10.3561 98.3623 10.8965 96.401 11.4744 94.4778L12.4365 94.7666C11.8632 96.6751 11.327 98.6215 10.8428 100.552ZM263.886 95.6238C263.326 93.7115 262.714 91.788 262.067 89.906L263.017 89.5794C263.669 91.4759 264.286 93.4146 264.851 95.3413L263.886 95.6238ZM14.3016 89.0456L13.3537 88.7126C14.0214 86.8141 14.7424 84.9065 15.4964 83.0429L16.4281 83.4195C15.6797 85.2687 14.9641 87.1618 14.3016 89.0456ZM259.985 84.2779C259.252 82.4296 258.467 80.5748 257.651 78.7645L258.568 78.3521C259.39 80.1764 260.18 82.0454 260.919 83.9076L259.985 84.2779ZM18.8113 77.8993L17.8982 77.48C18.7374 75.6533 19.6306 73.8215 20.5529 72.0356L21.4458 72.496C20.5304 74.2685 19.6441 76.0863 18.8113 77.8993ZM255.067 73.3621C254.168 71.5891 253.215 69.8125 252.235 68.0822L253.11 67.5873C254.097 69.3311 255.057 71.1213 255.963 72.908L255.067 73.3621ZM24.326 67.221L23.4551 66.7199C24.4574 64.9803 25.5145 63.2389 26.597 61.5447L27.4438 62.0851C26.3696 63.7666 25.3204 65.4947 24.326 67.221ZM249.164 62.9351C248.103 61.2458 246.991 59.5628 245.86 57.9328L246.685 57.3605C247.825 59.003 248.945 60.6988 250.015 62.4011L249.164 62.9351ZM30.7932 57.0984L29.9719 56.5198C31.1302 54.8777 32.3413 53.2411 33.5723 51.6552L34.3661 52.2706C33.1447 53.8447 31.9424 55.4689 30.7932 57.0984ZM242.33 53.0851C241.119 51.5 239.858 49.9242 238.581 48.4015L239.351 47.7564C240.637 49.2908 241.908 50.8784 243.128 52.4756L242.33 53.0851ZM38.1548 47.6123L37.3899 46.9611C38.6898 45.435 40.0446 43.916 41.4166 42.4464L42.1511 43.1315C40.7896 44.5901 39.4451 46.0977 38.1548 47.6123ZM234.623 43.8923C233.273 42.4238 231.873 40.9684 230.462 39.5669L231.17 38.8544C232.592 40.2669 234.002 41.7331 235.362 43.2126L234.623 43.8923ZM46.346 38.8387L45.6435 38.1207C47.0802 36.7158 48.567 35.3268 50.0622 33.9925L50.7313 34.7418C49.2475 36.0658 47.772 37.4443 46.346 38.8387ZM226.108 35.4342C224.629 34.0933 223.102 32.7707 221.569 31.5033L222.21 30.7295C223.754 32.0065 225.293 33.3391 226.784 34.6903L226.108 35.4342ZM55.2977 30.8487L54.6634 30.07C56.2174 28.805 57.8234 27.5575 59.437 26.362L60.0356 27.1686C58.4339 28.3553 56.84 29.5933 55.2977 30.8487ZM64.9345 23.7095L64.3738 22.8763C66.0369 21.7578 67.7492 20.6625 69.4631 19.6202L69.9851 20.4784C68.2844 21.5126 66.5852 22.5998 64.9345 23.7095ZM75.177 17.4822L74.6947 16.601C76.4543 15.6386 78.2585 14.7049 80.0571 13.8254L80.4986 14.7277C78.7138 15.6004 76.9233 16.5269 75.177 17.4822ZM196.438 15.1553C194.65 14.265 192.819 13.4049 190.994 12.599L191.401 11.6805C193.239 12.4926 195.085 13.3593 196.886 14.2565L196.438 15.1553ZM85.939 12.2207L85.5397 11.2992C87.3785 10.5026 89.2595 9.73859 91.1302 9.02828L91.4869 9.96735C89.6304 10.672 87.7639 11.4302 85.939 12.2207ZM185.437 10.2952C183.577 9.57409 181.673 8.88607 179.778 8.25054L180.098 7.29822C182.007 7.9389 183.926 8.63205 185.8 9.35904L185.437 10.2952ZM97.1466 7.96687L96.8336 7.0126C98.743 6.38687 100.691 5.79768 102.624 5.26194L102.892 6.22946C100.975 6.76128 99.0413 7.34581 97.1466 7.96687ZM174.043 6.47367C172.127 5.92763 170.172 5.41911 168.234 4.96232L168.465 3.985C170.418 4.44522 172.388 4.95766 174.319 5.50763L174.043 6.47367ZM108.712 4.75857L108.489 3.77953C110.446 3.33255 112.44 2.92529 114.415 2.56927L114.594 3.55739C112.634 3.91095 110.655 4.31502 108.712 4.75857ZM162.361 3.72068C160.404 3.35364 158.412 3.02704 156.437 2.74998L156.577 1.75549C158.566 2.03476 160.575 2.3638 162.546 2.73355L162.361 3.72068ZM120.525 2.62788L120.392 1.63242C122.381 1.36712 124.403 1.144 126.404 0.969917L126.491 1.97029C124.506 2.14338 122.499 2.36454 120.525 2.62788ZM150.475 2.05169C148.496 1.86535 146.481 1.72167 144.487 1.62531L144.536 0.622014C146.545 0.719355 148.575 0.864019 150.569 1.05185L150.475 2.05169ZM132.482 1.58509L132.44 0.581802C134.287 0.504813 136.169 0.46558 138.035 0.465088L138.489 0.465826L138.486 1.47012L138.035 1.46938C136.183 1.46985 134.315 1.50883 132.482 1.58508V1.58509Z" fill="#3F3D56"/>
<path d="M299.689 47.7704V373.263C299.686 377.14 298.142 380.857 295.398 383.598C292.654 386.339 288.934 387.879 285.055 387.88H152.852C150.93 387.883 149.027 387.508 147.25 386.774C145.474 386.041 143.86 384.965 142.5 383.607C141.141 382.249 140.063 380.636 139.328 378.861C138.593 377.086 138.216 375.184 138.218 373.263V47.7704C138.218 45.8494 138.596 43.9472 139.331 42.1725C140.067 40.3977 141.145 38.7851 142.504 37.4268C143.863 36.0684 145.476 34.991 147.252 34.2559C149.027 33.5209 150.93 33.1427 152.852 33.1428H172.636V35.6787C172.636 38.8729 173.905 41.9364 176.164 44.1955C178.423 46.4546 181.488 47.7243 184.683 47.7252H251.923C254.495 47.7307 257 46.9065 259.067 45.3751C259.484 45.0715 259.88 44.7392 260.252 44.3809C261.429 43.2576 262.366 41.9071 263.005 40.4112C263.644 38.9153 263.972 37.3052 263.97 35.6787V33.1428H285.055C286.977 33.1422 288.88 33.5202 290.656 34.2551C292.432 34.99 294.045 36.0674 295.404 37.4258C296.763 38.7842 297.841 40.397 298.577 42.172C299.312 43.9469 299.69 45.8493 299.689 47.7704Z" fill="#3F3D56"/>
<path d="M280.362 150.48H157.547V243.879H280.362V150.48Z" fill="#9ECD43"/>
<path d="M92.8743 134.743C103.809 134.977 112.508 142.898 112.508 142.898C112.508 142.898 103.477 150.438 92.5425 150.204C81.6077 149.969 72.9092 142.049 72.9092 142.049C72.9092 142.049 81.9395 134.508 92.8743 134.743Z" fill="#9ECD43"/>
<path d="M37.8982 97.4342C47.7774 102.125 59.1056 98.9442 59.1056 98.9442C59.1056 98.9442 54.4166 88.1572 44.5374 83.466C34.6583 78.7749 23.3301 81.956 23.3301 81.956C23.3301 81.956 28.0191 92.743 37.8982 97.4342Z" fill="#9ECD43"/>
<path d="M38.9033 92.7724C49.7953 91.7774 59.329 98.671 59.329 98.671C59.329 98.671 51.2033 107.178 40.3114 108.173C29.4194 109.167 19.8857 102.274 19.8857 102.274C19.8857 102.274 28.0114 93.7673 38.9033 92.7724Z" fill="#3F3D56"/>
<path d="M78.8299 94.6572C77.7859 105.539 84.6401 115.099 84.6401 115.099C84.6401 115.099 93.187 107.016 94.2309 96.1333C95.2749 85.2511 88.4207 75.6912 88.4207 75.6912C88.4207 75.6912 79.8739 83.775 78.8299 94.6572Z" fill="#3F3D56"/>
<path d="M130.128 161.398C124.415 170.72 126.38 182.316 126.38 182.316C126.38 182.316 137.608 178.798 143.321 169.475C149.034 160.153 147.068 148.557 147.068 148.557C147.068 148.557 135.841 152.075 130.128 161.398Z" fill="#3F3D56"/>
<path d="M113.553 262.755L114.386 262.193C111.451 257.936 109.849 252.904 109.782 247.735C109.805 240.174 113.521 233.18 117.115 226.417C117.782 225.162 118.446 223.91 119.086 222.66C121.77 217.56 123.909 212.192 125.468 206.645C131.042 185.941 125.554 161.515 110.789 141.304C99.0755 125.272 81.6145 111.252 57.4085 98.4434L56.9385 99.331C81.0066 112.066 98.3558 125.99 109.977 141.897C124.565 161.864 129.993 185.972 124.498 206.384C122.957 211.864 120.843 217.166 118.191 222.203C117.554 223.449 116.892 224.695 116.227 225.946C112.576 232.817 108.801 239.922 108.777 247.732C108.844 253.102 110.506 258.332 113.553 262.755Z" fill="#3F3D56"/>
<path d="M9.69376 99.763C14.9655 99.763 19.2391 95.4915 19.2391 90.2222C19.2391 84.953 14.9655 80.6814 9.69376 80.6814C4.42202 80.6814 0.148438 84.953 0.148438 90.2222C0.148438 95.4915 4.42202 99.763 9.69376 99.763Z" fill="#3F3D56"/>
<path d="M144.063 245.092L84.1436 240.101V152.261L144.063 149.267V245.092Z" fill="#9ECD43"/>
<path d="M293.848 245.092L353.767 240.101V152.261L293.848 149.267V245.092Z" fill="#9ECD43"/>
<path d="M239.783 185.536C238 183.997 235.803 183.018 233.466 182.721C231.129 182.424 228.757 182.823 226.645 183.867C224.812 184.754 222.839 185.318 220.814 185.535C220.764 181.15 221.569 176.798 223.185 172.722L223.449 172.038H219.928L219.827 172.408C219.434 173.849 219.125 175.312 218.901 176.789C218.71 176.149 218.464 175.527 218.164 174.93C215.694 170.035 209.986 168.032 209.745 167.95L209.258 167.783L209.103 168.273C209.026 168.517 207.243 174.294 209.713 179.19C211.482 182.695 214.909 184.716 216.803 185.612C214.406 185.458 212.064 184.832 209.911 183.769C208.568 183.078 207.058 182.778 205.553 182.905C204.048 183.032 202.609 183.581 201.401 184.487C194.826 189.482 191.055 196.802 191.055 204.573C191.055 214.781 197.668 224.129 207.904 228.388C208.827 228.771 209.817 228.968 210.817 228.966C212.205 228.967 213.568 228.593 214.761 227.885C216.348 226.963 218.15 226.475 219.985 226.471C221.821 226.468 223.625 226.948 225.215 227.864C226.243 228.47 227.399 228.829 228.59 228.913C229.781 228.997 230.975 228.803 232.078 228.347C242.254 224.071 248.829 214.739 248.829 204.573C248.829 197.296 245.616 190.536 239.783 185.536ZM220.697 173.043H221.99C220.535 176.936 219.794 181.059 219.801 185.215H219.57C219.259 181.123 219.64 177.008 220.697 173.043ZM210.611 178.738C208.735 175.021 209.558 170.592 209.921 169.097C211.339 169.692 215.388 171.659 217.267 175.382C219.142 179.098 218.32 183.527 217.956 185.022C216.537 184.425 212.485 182.453 210.611 178.738ZM231.688 227.421C230.729 227.817 229.692 227.986 228.657 227.912C227.622 227.839 226.618 227.526 225.725 226.998C223.979 225.991 221.999 225.463 219.983 225.467C217.968 225.471 215.989 226.008 214.248 227.022C213.357 227.552 212.355 227.867 211.321 227.944C210.287 228.02 209.249 227.855 208.29 227.461C198.43 223.358 192.059 214.374 192.059 204.573C192.059 197.119 195.686 190.09 202.009 185.287C203.222 184.371 204.702 183.877 206.222 183.881C207.345 183.88 208.452 184.148 209.45 184.662C212.202 185.975 215.21 186.664 218.26 186.683C221.309 186.701 224.325 186.046 227.092 184.767C229.027 183.81 231.201 183.445 233.342 183.718C235.482 183.99 237.495 184.888 239.128 186.299C244.736 191.104 247.824 197.594 247.824 204.573C247.824 214.334 241.49 223.302 231.688 227.421Z" fill="white"/>
<path d="M113.94 176.046V174.867H114.409V171.195C114.411 170.922 114.338 170.655 114.198 170.421C114.058 170.188 113.856 169.997 113.615 169.87C111.541 168.789 109.313 168.79 106.992 169.875C106.735 169.997 106.519 170.189 106.368 170.429C106.216 170.668 106.136 170.946 106.137 171.23V174.867H106.605V175.935C104.88 176.418 103.361 177.454 102.281 178.883C101.201 180.312 100.62 182.056 100.627 183.847V191.794L101.52 192.092L100.627 192.687V195.075L101.52 195.373L100.627 195.968V198.356L101.52 198.653L100.627 199.248V217.437C100.629 218.856 101.193 220.216 102.197 221.22C103.201 222.223 104.561 222.787 105.981 222.789H113.873C115.29 222.787 116.648 222.224 117.649 221.223C118.65 220.222 119.214 218.865 119.215 217.45V199.248L118.322 198.653L119.215 198.356V195.968L118.322 195.373L119.215 195.075V192.687L118.322 192.092L119.215 191.794V183.437C119.209 181.811 118.699 180.227 117.754 178.903C116.809 177.579 115.477 176.581 113.94 176.046ZM107.417 170.785C109.469 169.827 111.345 169.819 113.15 170.761C113.227 170.803 113.292 170.866 113.337 170.943C113.382 171.019 113.405 171.106 113.404 171.195V173.16H107.141V171.23C107.141 171.137 107.166 171.046 107.215 170.968C107.264 170.889 107.334 170.826 107.417 170.785ZM118.21 191.071L116.056 191.789L118.21 193.224V194.351L116.056 195.069L118.21 196.505V197.632L116.056 198.35L118.21 199.786V217.45C118.209 218.599 117.752 219.701 116.939 220.514C116.126 221.326 115.023 221.783 113.873 221.785H105.981C104.828 221.783 103.722 221.325 102.907 220.51C102.092 219.695 101.633 218.59 101.632 217.438V199.786L103.787 198.35L101.632 197.632V196.505L103.787 195.069L101.632 194.351V193.224L103.787 191.788L101.632 191.071V183.847C101.625 182.215 102.175 180.628 103.191 179.35C104.207 178.071 105.629 177.177 107.221 176.813L107.61 176.723V174.867H112.935V176.791L113.298 176.896C114.712 177.312 115.954 178.174 116.839 179.352C117.724 180.531 118.205 181.963 118.21 183.437V191.071Z" fill="white"/>
<path d="M350.091 189.799L347.562 189.293L348.157 188.103L346.997 187.871L347.198 186.665L345.931 186.453V185.31L344.903 185.016L345.879 183.797H344.186L344.54 182.915L343.288 182.706L343.712 181.218H342.358V179.829H341.855C340.273 179.829 339.39 181.708 339.1 182.461C330.362 183.984 304.992 201.548 302.097 203.568C300.894 203.178 299.11 204.092 298.737 204.295L298.147 204.617L298.998 205.467L298.745 206.227L300.306 206.812L299.964 207.666L300.947 208.486L300.064 209.148L301.393 209.945L301.159 211.111L302.644 211.323V212.489L303.506 212.662L303.076 214.167H304.033V215.358H304.967L305.391 216.626L305.825 216.539C306.836 216.337 307.702 214.939 308.04 214.319C316.455 212.818 342.435 194.548 344.964 192.759C347.916 193.113 349.001 192.324 349.117 192.231L349.598 191.847L348.451 190.892L350.091 189.799ZM344.9 191.738L344.704 191.712L344.543 191.827C344.256 192.03 315.763 212.207 307.641 213.366L307.38 213.404L307.263 213.639C306.951 214.274 306.53 214.848 306.02 215.337L305.692 214.353H305.038V213.163H304.408L304.772 211.891L303.649 211.666V210.452L302.353 210.267L302.517 209.448L301.861 209.055L302.566 208.527L301.168 207.362L301.62 206.232L300.004 205.627L300.148 205.196L299.836 204.884C300.591 204.57 301.503 204.337 301.895 204.572L302.175 204.74L302.442 204.552C302.727 204.352 331.026 184.569 339.541 183.408L339.859 183.365L339.954 183.058C340.1 182.584 340.62 181.384 341.353 180.974V182.222H342.381L342.012 183.512L343.142 183.7L342.701 184.802H343.788L343.175 185.567L344.926 186.067V187.304L346.042 187.49L345.846 188.665L346.671 188.83L346.075 190.02L347.516 190.308L346.774 190.802L347.84 191.691C346.871 191.888 345.874 191.904 344.9 191.738Z" fill="white"/>
<path d="M218.955 286.562C227.001 286.562 233.524 280.042 233.524 271.999C233.524 263.957 227.001 257.437 218.955 257.437C210.909 257.437 204.386 263.957 204.386 271.999C204.386 280.042 210.909 286.562 218.955 286.562Z" fill="#9ECD43"/>
<path d="M228.127 270.561H220.393V262.831H217.515V270.561H209.781V273.438H217.515V281.168H220.393V273.438H228.127V270.561Z" fill="white"/>
<path d="M264.906 272.502L257.371 268.987V270.995H239.787V274.008H257.371V276.017L264.906 272.502Z" fill="white"/>
<path d="M173.005 272.502L180.541 268.987V270.995H198.124V274.008H180.541V276.017L173.005 272.502Z" fill="white"/>
<path d="M403.078 387.996H34.8301V389H403.078V387.996Z" fill="#3F3D56"/>
<path d="M267.185 80.6812H170.728V81.6855H267.185V80.6812Z" fill="white"/>
<path d="M267.419 354.854H170.961V355.858H267.419V354.854Z" fill="white"/>
</svg>
