<svg width="1125" height="570" viewBox="0 0 1125 570" fill="none" xmlns="http://www.w3.org/2000/svg">
<g opacity="0.3">
<path d="M1.63662 93.8099C0.710408 94.5811 0.12848 95.6886 0.0188511 96.8889C-0.0907776 98.0891 0.280878 99.2837 1.05205 100.21C1.82322 101.136 2.93074 101.718 4.13097 101.828C5.3312 101.937 6.52582 101.566 7.45203 100.795C9.38076 99.1886 10.8304 92.0684 10.8304 92.0684C10.8304 92.0684 3.56535 92.2041 1.63662 93.8099Z" fill="#F37920"/>
<path d="M193.354 279.742C192.428 280.513 191.846 281.62 191.736 282.821C191.627 284.021 191.998 285.215 192.77 286.142C193.541 287.068 194.648 287.65 195.849 287.759C197.049 287.869 198.243 287.497 199.17 286.726C201.098 285.12 202.548 278 202.548 278C202.548 278 195.283 278.136 193.354 279.742Z" fill="#F37920"/>
<path d="M385.072 489.742C384.145 490.513 383.564 491.62 383.454 492.821C383.344 494.021 383.716 495.215 384.487 496.142C385.258 497.068 386.366 497.65 387.566 497.759C388.766 497.869 389.961 497.497 390.887 496.726C392.816 495.12 394.265 488 394.265 488C394.265 488 387 488.136 385.072 489.742Z" fill="#F37920"/>
<path d="M588.354 389.742C587.428 390.513 586.846 391.62 586.736 392.821C586.627 394.021 586.998 395.215 587.77 396.142C588.541 397.068 589.648 397.65 590.849 397.759C592.049 397.869 593.243 397.497 594.17 396.726C596.098 395.12 597.548 388 597.548 388C597.548 388 590.283 388.136 588.354 389.742Z" fill="#F37920"/>
<path d="M403.354 98.7416C402.428 99.5128 401.846 100.62 401.736 101.821C401.627 103.021 401.998 104.215 402.77 105.142C403.541 106.068 404.648 106.65 405.849 106.759C407.049 106.869 408.243 106.497 409.17 105.726C411.098 104.12 412.548 97 412.548 97C412.548 97 405.283 97.1357 403.354 98.7416Z" fill="#F37920"/>
<path d="M752.354 1.74159C751.428 2.51276 750.846 3.62028 750.736 4.82051C750.627 6.02074 750.998 7.21536 751.77 8.14157C752.541 9.06778 753.648 9.64971 754.849 9.75934C756.049 9.86897 757.243 9.49732 758.17 8.72614C760.098 7.12027 761.548 4.73413e-07 761.548 4.73413e-07C761.548 4.73413e-07 754.283 0.135708 752.354 1.74159Z" fill="#F37920"/>
<path d="M31.8488 349.829C31.5325 348.666 30.7671 347.677 29.7211 347.078C28.6751 346.479 27.4341 346.321 26.2711 346.637C25.1081 346.954 24.1184 347.719 23.5198 348.765C22.9211 349.811 22.7625 351.052 23.0788 352.215C23.7376 354.637 29.6108 358.915 29.6108 358.915C29.6108 358.915 32.5076 352.251 31.8488 349.829Z" fill="#2EC4B6"/>
<path d="M204.454 507.584C204.138 506.421 203.372 505.431 202.326 504.833C201.28 504.234 200.039 504.075 198.876 504.392C197.713 504.708 196.724 505.474 196.125 506.52C195.526 507.566 195.368 508.807 195.684 509.97C196.343 512.391 202.216 516.67 202.216 516.67C202.216 516.67 205.113 510.006 204.454 507.584Z" fill="#2EC4B6"/>
<path d="M353.849 402.829C353.532 401.666 352.767 400.677 351.721 400.078C350.675 399.479 349.434 399.321 348.271 399.637C347.108 399.954 346.118 400.719 345.52 401.765C344.921 402.811 344.762 404.052 345.079 405.215C345.737 407.637 351.611 411.915 351.611 411.915C351.611 411.915 354.507 405.251 353.849 402.829Z" fill="#2EC4B6"/>
<path d="M503.243 298.075C502.927 296.912 502.162 295.922 501.116 295.323C500.07 294.725 498.829 294.566 497.666 294.883C496.503 295.199 495.513 295.964 494.914 297.01C494.316 298.056 494.157 299.297 494.474 300.46C495.132 302.882 501.005 307.161 501.005 307.161C501.005 307.161 503.902 300.497 503.243 298.075Z" fill="#2EC4B6"/>
<path d="M652.638 193.32C652.322 192.157 651.557 191.168 650.511 190.569C649.464 189.97 648.223 189.812 647.061 190.128C645.898 190.444 644.908 191.21 644.309 192.256C643.711 193.302 643.552 194.543 643.868 195.706C644.527 198.127 650.4 202.406 650.4 202.406C650.4 202.406 653.297 195.742 652.638 193.32Z" fill="#2EC4B6"/>
<path d="M802.033 88.5655C801.717 87.4025 800.951 86.4129 799.905 85.8142C798.859 85.2155 797.618 85.0569 796.455 85.3733C795.292 85.6896 794.303 86.455 793.704 87.501C793.105 88.547 792.947 89.788 793.263 90.951C793.922 93.3728 799.795 97.6512 799.795 97.6512C799.795 97.6512 802.692 90.9873 802.033 88.5655Z" fill="#2EC4B6"/>
<path d="M1121.85 137.829C1121.53 136.666 1120.77 135.677 1119.72 135.078C1118.68 134.479 1117.43 134.321 1116.27 134.637C1115.11 134.954 1114.12 135.719 1113.52 136.765C1112.92 137.811 1112.76 139.052 1113.08 140.215C1113.74 142.637 1119.61 146.915 1119.61 146.915C1119.61 146.915 1122.51 140.251 1121.85 137.829Z" fill="#2EC4B6"/>
<path d="M231.23 12.2791C230.643 12.4673 230.1 12.769 229.631 13.1671C229.161 13.5652 228.775 14.0519 228.493 14.5993C228.212 15.1468 228.041 15.7443 227.99 16.3578C227.94 16.9713 228.011 17.5888 228.199 18.1749C228.387 18.761 228.689 19.3043 229.087 19.7738C229.485 20.2433 229.972 20.6298 230.519 20.9113C231.066 21.1927 231.664 21.3635 232.278 21.414C232.891 21.4645 233.508 21.3937 234.095 21.2056C236.56 20.4144 240.696 14.1638 240.696 14.1638C240.696 14.1638 233.694 11.488 231.23 12.2791Z" fill="#FCB813"/>
<path d="M429.497 558.656C428.911 558.844 428.367 559.146 427.898 559.544C427.428 559.942 427.042 560.429 426.76 560.976C426.479 561.524 426.308 562.121 426.258 562.735C426.207 563.348 426.278 563.965 426.466 564.552C426.654 565.138 426.956 565.681 427.354 566.151C427.752 566.62 428.239 567.007 428.786 567.288C429.334 567.569 429.931 567.74 430.545 567.791C431.158 567.841 431.776 567.77 432.362 567.582C434.827 566.791 438.963 560.541 438.963 560.541C438.963 560.541 431.962 557.865 429.497 558.656Z" fill="#FCB813"/>
<path d="M689.497 93.6559C688.911 93.844 688.367 94.1457 687.898 94.5438C687.428 94.9419 687.042 95.4286 686.76 95.976C686.479 96.5235 686.308 97.121 686.258 97.7345C686.207 98.348 686.278 98.9655 686.466 99.5516C686.654 100.138 686.956 100.681 687.354 101.151C687.752 101.62 688.239 102.007 688.786 102.288C689.334 102.569 689.931 102.74 690.545 102.791C691.158 102.841 691.776 102.77 692.362 102.582C694.827 101.791 698.963 95.5405 698.963 95.5405C698.963 95.5405 691.962 92.8647 689.497 93.6559Z" fill="#FCB813"/>
</g>
</svg>
