<svg width="1292" height="233" viewBox="0 0 1292 233" fill="none" xmlns="http://www.w3.org/2000/svg">
<g opacity="0.5">
<path d="M1243.14 136.671C1242.17 135.949 1240.96 135.641 1239.77 135.813C1238.57 135.985 1237.5 136.624 1236.78 137.59C1236.06 138.555 1235.75 139.767 1235.92 140.96C1236.09 142.153 1236.73 143.229 1237.7 143.95C1239.71 145.453 1246.97 145.208 1246.97 145.208C1246.97 145.208 1245.15 138.174 1243.14 136.671Z" fill="#2EC4B6"/>
<path d="M1203.36 221.075C1203.05 219.912 1202.28 218.922 1201.24 218.323C1200.19 217.725 1198.95 217.566 1197.79 217.883C1196.62 218.199 1195.63 218.964 1195.03 220.01C1194.44 221.056 1194.28 222.297 1194.59 223.46C1195.25 225.882 1201.13 230.161 1201.13 230.161C1201.13 230.161 1204.02 223.497 1203.36 221.075Z" fill="#2EC4B6"/>
<path d="M1142.06 184.172C1153.29 183.274 1161.97 179.011 1167.87 171.501C1172.24 165.926 1175.03 158.675 1176.15 149.949C1176.97 143.512 1176.77 136.986 1175.56 130.612C1169.16 96.6863 1175.16 79.229 1181.32 70.558C1188.08 61.0505 1196.54 59.6844 1196.62 59.6717L1196.54 59.1139C1196.45 59.1268 1187.78 60.5154 1180.88 70.2124C1176.9 75.8028 1174.26 83.0439 1173.03 91.7345C1171.5 102.55 1172.16 115.666 1175 130.716C1176.21 137.032 1176.41 143.499 1175.6 149.877C1173.75 164.188 1166.43 181.656 1142.02 183.61L1142.06 184.172Z" fill="#2F2E41"/>
<path d="M1180.11 144.155C1188.96 143.448 1191.61 137.127 1192.27 131.95C1192.56 129.665 1192.49 127.348 1192.06 125.086C1189.82 113.201 1191.91 107.102 1194.07 104.079C1196.4 100.797 1199.29 100.333 1199.32 100.329L1199.24 99.7709C1199.11 99.7898 1196.08 100.276 1193.61 103.752C1190.38 108.279 1189.68 115.492 1191.51 125.19C1191.93 127.395 1192 129.652 1191.71 131.878C1191.07 136.848 1188.53 142.916 1180.06 143.593L1180.11 144.155Z" fill="#2F2E41"/>
<path d="M1174.4 72.714L1174.86 72.3801C1169.82 65.5296 1172.75 59.6382 1176.09 55.9023C1177.59 54.2316 1179.34 52.8076 1181.28 51.683C1189.81 46.7193 1194.8 41.4653 1196.12 36.0673C1197.13 31.9217 1195.51 29.3103 1195.44 29.2012L1194.97 29.5031C1194.98 29.5281 1196.53 32.0436 1195.57 35.9558C1194.68 39.5555 1191.44 45.1216 1181 51.1954C1179.01 52.3499 1177.21 53.8115 1175.67 55.5263C1172.19 59.4178 1169.15 65.5587 1174.4 72.714Z" fill="#2F2E41"/>
<path d="M1171.01 40.3109C1171.17 41.4099 1171.55 42.4656 1172.13 43.4177C1172.7 44.3698 1173.45 45.1997 1174.35 45.86C1175.24 46.5203 1176.26 46.998 1177.34 47.2659C1178.41 47.5338 1179.53 47.5866 1180.63 47.4212C1181.73 47.2559 1182.79 46.8757 1183.74 46.3023C1184.69 45.729 1185.52 44.9737 1186.18 44.0796C1186.84 43.1856 1187.32 42.1703 1187.59 41.0917C1187.85 40.0131 1187.91 38.8924 1187.74 37.7936C1187.04 33.1733 1177.11 23.9937 1177.11 23.9937C1177.11 23.9937 1170.31 35.6906 1171.01 40.3109Z" fill="#8CB83F"/>
<path d="M1184.73 17.7481C1184.9 18.847 1185.28 19.9027 1185.85 20.8548C1186.42 21.807 1187.18 22.6369 1188.07 23.2971C1188.97 23.9574 1189.98 24.4352 1191.06 24.703C1192.14 24.9709 1193.26 25.0237 1194.36 24.8584C1195.46 24.693 1196.51 24.3128 1197.46 23.7395C1198.42 23.1661 1199.25 22.4108 1199.91 21.5168C1200.57 20.6227 1201.04 19.6074 1201.31 18.5288C1201.58 17.4502 1201.63 16.3295 1201.46 15.2307C1200.77 10.6104 1190.83 1.43087 1190.83 1.43087C1190.83 1.43087 1184.04 13.1277 1184.73 17.7481Z" fill="#2EC4B6"/>
<path d="M1157.19 110.803C1158.99 111.631 1161.03 111.82 1162.95 111.34C1164.88 110.86 1166.58 109.739 1167.79 108.161C1168.99 106.583 1169.62 104.643 1169.58 102.658C1169.53 100.674 1168.81 98.7644 1167.54 97.2432C1164.51 93.6275 1151.66 91.0195 1151.11 90.9101L1150.77 90.8411L1150.77 91.1928C1150.79 91.749 1151.11 104.858 1154.14 108.473C1154.97 109.468 1156.01 110.264 1157.19 110.803ZM1163.52 95.2492C1165.09 95.9693 1166.4 96.7632 1167.11 97.6054C1168.5 99.2678 1169.17 101.416 1168.98 103.576C1168.79 105.737 1167.75 107.733 1166.09 109.126C1164.43 110.52 1162.28 111.195 1160.12 111.005C1157.96 110.815 1155.96 109.774 1154.57 108.111C1151.93 104.966 1151.42 93.6885 1151.35 91.5359C1152.89 91.8649 1159.21 93.2801 1163.52 95.2492Z" fill="#2F2E41"/>
<path d="M1205.14 47.3765C1204.08 47.716 1203.1 48.2605 1202.25 48.979C1201.4 49.6975 1200.71 50.5759 1200.2 51.564C1199.69 52.5521 1199.38 53.6305 1199.29 54.7377C1199.2 55.845 1199.33 56.9593 1199.67 58.0172C1200.01 59.075 1200.55 60.0556 1201.27 60.903C1201.99 61.7503 1202.87 62.4479 1203.86 62.9558C1204.84 63.4638 1205.92 63.7721 1207.03 63.8632C1208.14 63.9544 1209.25 63.8265 1210.31 63.487C1214.76 62.0591 1222.22 50.778 1222.22 50.778C1222.22 50.778 1209.59 45.9486 1205.14 47.3765Z" fill="#FCB813"/>
<path d="M1208.32 87.8989C1206.18 88.5846 1204.41 90.0909 1203.38 92.0864C1202.36 94.082 1202.16 96.4032 1202.85 98.5396C1203.54 100.676 1205.04 102.453 1207.04 103.478C1209.03 104.504 1211.35 104.695 1213.49 104.009C1217.94 102.582 1225.4 91.3004 1225.4 91.3004C1225.4 91.3004 1212.77 86.471 1208.32 87.8989Z" fill="#F37920"/>
<path d="M1186.12 83.2329C1188.69 84.4068 1194.71 84.2195 1194.99 84.2102L1195.34 84.1983L1195.25 83.8576C1195.18 83.5665 1193.39 76.7094 1191.32 75.1651C1190.29 74.3987 1189.01 74.0709 1187.74 74.254C1186.47 74.437 1185.33 75.1158 1184.56 76.141C1183.8 77.1663 1183.47 78.454 1183.65 79.7208C1183.84 80.9877 1184.52 82.13 1185.54 82.8964C1185.72 83.0288 1185.92 83.1416 1186.12 83.2329ZM1194.62 83.6544C1193.14 83.6789 1187.54 83.6862 1185.88 82.4445C1184.97 81.7674 1184.38 80.7588 1184.21 79.6404C1184.05 78.522 1184.34 77.3853 1185.02 76.4803C1185.7 75.5753 1186.7 74.976 1187.82 74.8141C1188.94 74.6522 1190.08 74.9409 1190.98 75.6169C1192.64 76.8586 1194.22 82.2344 1194.62 83.6544Z" fill="#2F2E41"/>
<path d="M1165.97 200.175C1165.87 198.975 1165.29 197.865 1164.37 197.09C1163.44 196.315 1162.25 195.938 1161.05 196.042C1159.85 196.146 1158.74 196.722 1157.97 197.643C1157.19 198.565 1156.81 199.757 1156.92 200.957C1157.13 203.458 1162.15 208.715 1162.15 208.715C1162.15 208.715 1166.19 202.675 1165.97 200.175Z" fill="#2EC4B6"/>
<path d="M1199.51 162.303C1201.29 163.083 1203.13 163.738 1205 164.263L1205.34 164.356L1205.36 164.005C1205.37 163.704 1205.7 156.624 1204.18 154.536C1203.81 154.023 1203.34 153.588 1202.8 153.256C1202.26 152.925 1201.66 152.703 1201.04 152.603C1200.41 152.504 1199.77 152.528 1199.15 152.676C1198.54 152.823 1197.96 153.09 1197.44 153.463C1196.93 153.835 1196.49 154.304 1196.16 154.844C1195.83 155.384 1195.61 155.985 1195.51 156.61C1195.41 157.236 1195.43 157.876 1195.58 158.492C1195.73 159.109 1196 159.69 1196.37 160.203C1196.91 160.953 1198.14 161.678 1199.51 162.303ZM1204.81 163.621C1203.4 163.206 1198.04 161.55 1196.83 159.872C1196.16 158.957 1195.89 157.816 1196.07 156.699C1196.24 155.583 1196.86 154.583 1197.77 153.919C1198.69 153.255 1199.83 152.982 1200.95 153.16C1202.06 153.338 1203.06 153.952 1203.73 154.867C1204.94 156.545 1204.86 162.148 1204.81 163.621Z" fill="#2F2E41"/>
</g>
<g opacity="0.5">
<path d="M48.4902 136.671C49.4555 135.949 50.6679 135.641 51.8608 135.813C53.0536 135.985 54.1291 136.624 54.8508 137.59C55.5724 138.555 55.881 139.767 55.7087 140.96C55.5364 142.153 54.8973 143.229 53.9319 143.95C51.9218 145.453 44.6596 145.208 44.6596 145.208C44.6596 145.208 46.48 138.174 48.4902 136.671Z" fill="#2EC4B6"/>
<path d="M88.2639 221.075C88.5802 219.912 89.3456 218.922 90.3916 218.323C91.4377 217.725 92.6787 217.566 93.8416 217.883C95.0046 218.199 95.9943 218.964 96.5929 220.01C97.1916 221.056 97.3502 222.297 97.0339 223.46C96.3752 225.882 90.502 230.161 90.502 230.161C90.502 230.161 87.6052 223.497 88.2639 221.075Z" fill="#2EC4B6"/>
<path d="M149.565 184.172C138.339 183.274 129.658 179.011 123.762 171.501C119.384 165.926 116.595 158.675 115.473 149.949C114.655 143.512 114.857 136.986 116.072 130.612C122.467 96.6863 116.465 79.229 110.303 70.558C103.547 61.0505 95.0909 59.6844 95.0062 59.6717L95.0893 59.1139C95.1761 59.1268 103.848 60.5154 110.749 70.2124C114.728 75.8028 117.368 83.0439 118.597 91.7345C120.126 102.55 119.463 115.666 116.626 130.716C115.422 137.032 115.222 143.499 116.032 149.877C117.873 164.188 125.193 181.656 149.61 183.61L149.565 184.172Z" fill="#2F2E41"/>
<path d="M111.521 144.155C102.672 143.448 100.02 137.127 99.3542 131.95C99.0637 129.665 99.1353 127.348 99.5666 125.086C101.807 113.201 99.713 107.102 97.5618 104.079C95.2257 100.797 92.3329 100.333 92.304 100.329L92.3869 99.7709C92.5147 99.7898 95.5474 100.276 98.0213 103.752C101.243 108.279 101.949 115.492 100.121 125.19C99.7006 127.395 99.6305 129.652 99.9134 131.878C100.553 136.848 103.094 142.916 111.566 143.593L111.521 144.155Z" fill="#2F2E41"/>
<path d="M117.226 72.714L116.772 72.3801C121.804 65.5296 118.878 59.6382 115.538 55.9023C114.04 54.2316 112.287 52.8076 110.345 51.683C101.815 46.7193 96.8231 41.4653 95.5081 36.0673C94.4981 31.9217 96.1149 29.3103 96.1842 29.2012L96.6605 29.5031C96.6448 29.5281 95.1002 32.0436 96.0613 35.9558C96.9458 39.5555 100.191 45.1216 110.629 51.1954C112.622 52.3499 114.421 53.8115 115.958 55.5263C119.438 59.4178 122.482 65.5587 117.226 72.714Z" fill="#2F2E41"/>
<path d="M120.619 40.3109C120.454 41.4099 120.075 42.4656 119.502 43.4177C118.929 44.3698 118.174 45.1997 117.28 45.86C116.386 46.5203 115.371 46.998 114.292 47.2659C113.214 47.5338 112.093 47.5866 110.994 47.4212C109.896 47.2559 108.84 46.8757 107.888 46.3023C106.936 45.729 106.107 44.9737 105.447 44.0796C104.787 43.1856 104.309 42.1703 104.042 41.0917C103.774 40.0131 103.722 38.8924 103.888 37.7936C104.583 33.1733 114.519 23.9937 114.519 23.9937C114.519 23.9937 121.315 35.6906 120.619 40.3109Z" fill="#8CB83F"/>
<path d="M106.896 17.7481C106.731 18.847 106.351 19.9027 105.778 20.8548C105.205 21.807 104.45 22.6369 103.556 23.2971C102.662 23.9574 101.647 24.4352 100.569 24.703C99.4901 24.9709 98.3695 25.0237 97.2706 24.8584C96.1717 24.693 95.1161 24.3128 94.1642 23.7395C93.2123 23.1661 92.3827 22.4108 91.7227 21.5168C91.0628 20.6227 90.5854 19.6074 90.318 18.5288C90.0505 17.4502 89.9981 16.3295 90.1639 15.2307C90.859 10.6104 100.795 1.43087 100.795 1.43087C100.795 1.43087 107.591 13.1277 106.896 17.7481Z" fill="#2EC4B6"/>
<path d="M134.437 110.803C132.633 111.631 130.601 111.82 128.675 111.34C126.75 110.86 125.044 109.739 123.84 108.161C122.636 106.583 122.005 104.643 122.051 102.658C122.096 100.674 122.815 98.7644 124.09 97.2432C127.119 93.6275 139.97 91.0195 140.516 90.9101L140.861 90.8411L140.853 91.1928C140.841 91.749 140.521 104.858 137.491 108.473C136.659 109.468 135.616 110.264 134.437 110.803ZM128.11 95.2492C126.534 95.9693 125.228 96.7632 124.522 97.6054C123.129 99.2678 122.454 101.416 122.644 103.576C122.834 105.737 123.875 107.733 125.538 109.126C127.2 110.52 129.348 111.195 131.508 111.005C133.669 110.815 135.665 109.774 137.059 108.111C139.694 104.966 140.205 93.6885 140.279 91.5359C138.736 91.8649 132.418 93.2801 128.11 95.2492Z" fill="#2F2E41"/>
<path d="M86.49 47.3765C87.5478 47.716 88.5284 48.2605 89.3758 48.979C90.2232 49.6975 90.9208 50.5759 91.4287 51.564C91.9366 52.5521 92.2449 53.6305 92.3361 54.7377C92.4272 55.845 92.2994 56.9593 91.9598 58.0172C91.6203 59.075 91.0758 60.0556 90.3573 60.903C89.6388 61.7503 88.7604 62.4479 87.7723 62.9558C86.7843 63.4638 85.7058 63.7721 84.5986 63.8632C83.4913 63.9544 82.377 63.8265 81.3191 63.487C76.8703 62.0591 69.4051 50.778 69.4051 50.778C69.4051 50.778 82.0412 45.9486 86.49 47.3765Z" fill="#FCB813"/>
<path d="M83.3078 87.8989C85.4442 88.5846 87.2207 90.0909 88.2465 92.0864C89.2723 94.082 89.4634 96.4032 88.7777 98.5396C88.092 100.676 86.5857 102.453 84.5902 103.478C82.5946 104.504 80.2734 104.695 78.137 104.009C73.6882 102.582 66.2229 91.3004 66.2229 91.3004C66.2229 91.3004 78.859 86.471 83.3078 87.8989Z" fill="#F37920"/>
<path d="M105.503 83.2329C102.935 84.4068 96.9128 84.2195 96.6362 84.2102L96.2845 84.1983L96.3727 83.8576C96.4481 83.5665 98.2417 76.7094 100.307 75.1651C101.333 74.3987 102.62 74.0709 103.887 74.254C105.154 74.437 106.296 75.1158 107.063 76.141C107.829 77.1663 108.157 78.454 107.974 79.7208C107.791 80.9877 107.112 82.13 106.087 82.8964C105.905 83.0288 105.709 83.1416 105.503 83.2329ZM97.0121 83.6544C98.4855 83.6789 104.089 83.6862 105.749 82.4445C106.654 81.7674 107.252 80.7588 107.414 79.6404C107.575 78.522 107.285 77.3853 106.609 76.4803C105.932 75.5753 104.924 74.976 103.806 74.8141C102.687 74.6522 101.551 74.9409 100.645 75.6169C98.9841 76.8586 97.4056 82.2344 97.0121 83.6544Z" fill="#2F2E41"/>
<path d="M125.657 200.175C125.762 198.975 126.339 197.865 127.261 197.09C128.183 196.315 129.376 195.938 130.576 196.042C131.776 196.146 132.886 196.722 133.661 197.643C134.437 198.565 134.815 199.757 134.712 200.957C134.496 203.458 129.48 208.715 129.48 208.715C129.48 208.715 125.441 202.675 125.657 200.175Z" fill="#2EC4B6"/>
<path d="M92.1173 162.303C90.3341 163.083 88.4984 163.738 86.6237 164.263L86.2843 164.356L86.2675 164.005C86.253 163.704 85.9302 156.624 87.4446 154.536C87.8167 154.023 88.2862 153.588 88.8263 153.256C89.3665 152.925 89.9666 152.703 90.5925 152.603C91.2184 152.504 91.8578 152.528 92.4742 152.676C93.0906 152.823 93.6719 153.09 94.185 153.463C94.6981 153.835 95.1328 154.304 95.4644 154.844C95.796 155.384 96.018 155.985 96.1177 156.61C96.2173 157.236 96.1927 157.876 96.0453 158.492C95.8978 159.109 95.6304 159.69 95.2583 160.203C94.7143 160.953 93.4839 161.678 92.1173 162.303ZM86.8176 163.621C88.2316 163.206 93.5842 161.55 94.8018 159.872C95.4656 158.957 95.7386 157.816 95.5609 156.699C95.3831 155.583 94.7692 154.583 93.8541 153.919C92.939 153.255 91.7977 152.982 90.6813 153.16C89.5649 153.338 88.5648 153.952 87.9011 154.867C86.6838 156.545 86.7719 162.148 86.8176 163.621Z" fill="#2F2E41"/>
</g>
</svg>
