<svg width="98" height="98" viewBox="0 0 98 98" fill="none" xmlns="http://www.w3.org/2000/svg">
<circle cx="49" cy="49" r="49" fill="#CBF3F0"/>
<g clip-path="url(#clip0)">
<path d="M48.9829 26.9092C35.9047 15.4705 19.2761 25.5209 19.0034 39.1458C18.9339 42.6182 19.9362 46.0005 21.9314 49.1188H34.8637L37.1639 45.2849C37.8319 44.1719 39.4482 44.136 40.154 45.2457L45.0072 52.872L52.0816 37.9375C52.6985 36.6343 54.5372 36.593 55.2177 37.8566L61.2819 49.1188H76.0344C86.9627 32.0388 65.3647 12.5812 48.9829 26.9092Z" fill="#2EC4B6"/>
<path d="M58.6844 51.7097L53.7704 42.5837L46.8216 57.2533C46.2305 58.5014 44.4917 58.6098 43.7503 57.4446L38.7151 49.5323L37.366 51.7807C37.0484 52.3101 36.4763 52.634 35.8589 52.634H24.7119C25.0613 52.9997 23.199 51.1412 47.7431 75.5581C48.4286 76.2402 49.5368 76.2404 50.2224 75.5581C74.3888 51.5168 72.9049 52.999 73.2536 52.634H60.232C59.5853 52.6341 58.991 52.2791 58.6844 51.7097Z" fill="#2EC4B6"/>
</g>
<defs>
<clipPath id="clip0">
<rect width="60" height="60" fill="white" transform="translate(19 19)"/>
</clipPath>
</defs>
</svg>
