<svg width="20" height="20" viewBox="0 0 20 20" fill="none" xmlns="http://www.w3.org/2000/svg">
<path d="M11 13.8429H15V10.8429L20 15.3429L15 19.8429V16.8429H11V13.8429ZM18 0.842896H2C1.46957 0.842896 0.960859 1.05361 0.585786 1.42868C0.210714 1.80375 0 2.31246 0 2.8429V14.8429C0 15.3733 0.210714 15.882 0.585786 16.2571C0.960859 16.6322 1.46957 16.8429 2 16.8429H9V14.8429H2V4.8429L10 9.8429L18 4.8429V10.8429H20V2.8429C20 2.31246 19.7893 1.80375 19.4142 1.42868C19.0391 1.05361 18.5304 0.842896 18 0.842896ZM10 7.8429L2 2.8429H18L10 7.8429Z" fill="#2EC4B6"/>
</svg>
