<svg width="151" height="245" viewBox="0 0 151 245" fill="none" xmlns="http://www.w3.org/2000/svg">
<path d="M81.5676 234.797C81.4361 233.599 80.8341 232.502 79.8941 231.748C78.954 230.994 77.7528 230.644 76.5548 230.775C75.3567 230.907 74.26 231.508 73.5058 232.449C72.7516 233.389 72.4017 234.59 72.5331 235.788C72.8068 238.283 77.9424 243.423 77.9424 243.423C77.9424 243.423 81.8413 237.291 81.5676 234.797Z" fill="#2EC4B6"/>
<path d="M-22.1355 90.3457C-13.8176 97.9371 -4.77665 101.372 4.73597 100.556C11.7988 99.9501 19.0018 97.0392 26.1449 91.9045C31.4081 88.1087 36.0398 83.5068 39.8694 78.2682C60.2991 50.4391 77.155 42.9113 87.6979 41.4966C99.2579 39.9453 106.028 45.193 106.095 45.2462L106.446 44.8047C106.377 44.7501 99.4429 39.3595 87.6458 40.9345C80.8447 41.8425 73.7503 44.855 66.5598 49.8883C57.611 56.1525 48.478 65.5886 39.4146 77.9344C35.6201 83.1252 31.0308 87.6852 25.8159 91.4464C14.1004 99.868 -3.6628 106.441 -21.7555 89.9293L-22.1355 90.3457Z" fill="#2F2E41"/>
<path d="M33.0769 90.8379C39.6342 96.8227 46.0633 94.4469 50.3018 91.3999C52.1701 90.0527 53.8143 88.4192 55.1737 86.5597C62.3308 76.8103 68.2171 74.1786 71.8947 73.6875C75.8883 73.1545 78.2017 74.9522 78.2246 74.9703L78.5757 74.529C78.4746 74.4485 76.0493 72.564 71.8201 73.1286C66.313 73.8637 60.5594 78.2703 54.7189 86.2258C53.3947 88.0376 51.793 89.6292 49.9728 90.9419C45.9035 93.8671 39.735 96.1513 33.4569 90.4214L33.0769 90.8379Z" fill="#2F2E41"/>
<path d="M81.3968 37.908L81.9511 38.0122C83.5236 29.6592 89.8261 27.7762 94.8363 27.6676C97.08 27.6224 99.3168 27.9313 101.464 28.5831C110.914 31.4296 118.161 31.492 123.004 28.7689C126.723 26.6776 127.528 23.7136 127.561 23.5885L127.015 23.4464C127.007 23.4749 126.223 26.3207 122.708 28.2884C119.473 30.0989 113.19 31.5261 101.627 28.043C99.4228 27.3742 97.127 27.0573 94.8241 27.1037C89.6053 27.2169 83.0394 29.1832 81.3968 37.908Z" fill="#2F2E41"/>
<path d="M102.764 13.3124C102.073 14.183 101.561 15.1811 101.256 16.2498C100.951 17.3184 100.86 18.4366 100.987 19.5405C101.115 20.6444 101.458 21.7124 101.999 22.6835C102.539 23.6545 103.265 24.5096 104.136 25.1999C105.007 25.8902 106.005 26.4022 107.074 26.7066C108.143 27.011 109.261 27.1018 110.365 26.9739C111.469 26.846 112.537 26.502 113.508 25.9613C114.478 25.4206 115.333 24.694 116.023 23.8229C118.926 20.1613 118.853 6.634 118.853 6.634C118.853 6.634 105.666 9.65088 102.764 13.3124Z" fill="#8CB83F"/>
<path d="M128.62 7.9428C127.93 8.81339 127.418 9.81151 127.113 10.8801C126.808 11.9488 126.717 13.067 126.844 14.1709C126.972 15.2748 127.315 16.3428 127.856 17.3139C128.396 18.2849 129.122 19.14 129.993 19.8303C130.864 20.5206 131.862 21.0326 132.931 21.3369C134 21.6413 135.118 21.7322 136.222 21.6043C137.326 21.4764 138.394 21.1323 139.364 20.5917C140.335 20.051 141.19 19.3244 141.88 18.4532C144.782 14.7917 144.71 1.26437 144.71 1.26437C144.71 1.26437 131.523 4.28125 128.62 7.9428Z" fill="#2EC4B6"/>
<path d="M41.8127 51.3259C42.4387 53.2094 43.687 54.8238 45.3523 55.9036C47.0177 56.9835 49.0009 57.4645 50.9758 57.2675C52.9508 57.0705 54.8 56.2073 56.2193 54.8199C57.6385 53.4324 58.5434 51.6033 58.785 49.6333C59.36 44.9515 52.4951 33.7793 52.2026 33.3057L52.0175 33.0065L51.7657 33.2521C51.3675 33.6407 42.0057 42.8219 41.4311 47.504C41.2716 48.7905 41.402 50.0964 41.8127 51.3259ZM57.4989 45.3345C58.0479 46.9774 58.359 48.4739 58.2252 49.5645C57.9611 51.7174 56.8526 53.6771 55.1436 55.0126C53.4345 56.3481 51.2649 56.95 49.1121 56.6859C46.9593 56.4218 44.9995 55.3133 43.664 53.6043C42.3285 51.8952 41.7266 49.7257 41.9907 47.5728C42.4906 43.4997 50.3844 35.4295 51.9072 33.9063C52.7193 35.258 55.9978 40.8421 57.4989 45.3345Z" fill="#2F2E41"/>
<path d="M120.894 43.0787C119.923 42.5373 118.856 42.1922 117.753 42.0633C116.649 41.9344 115.531 42.024 114.462 42.3272C113.393 42.6304 112.395 43.1411 111.523 43.8302C110.652 44.5193 109.925 45.3733 109.383 46.3435C108.842 47.3136 108.497 48.3809 108.368 49.4844C108.239 50.5878 108.329 51.7059 108.632 52.7747C108.935 53.8435 109.446 54.8422 110.135 55.7136C110.824 56.5851 111.678 57.3123 112.648 57.8537C116.728 60.1306 130.068 57.887 130.068 57.887C130.068 57.887 124.974 45.3556 120.894 43.0787Z" fill="#FCB813"/>
<path d="M93.4487 73.0618C91.4894 71.9684 89.176 71.6981 87.0174 72.3104C84.8589 72.9226 83.0319 74.3673 81.9385 76.3266C80.8451 78.2859 80.5748 80.5993 81.1871 82.7579C81.7993 84.9165 83.244 86.7434 85.2033 87.8368C89.2833 90.1137 102.624 87.8701 102.624 87.8701C102.624 87.8701 97.5287 75.3387 93.4487 73.0618Z" fill="#F37920"/>
<path d="M81.7103 53.6553C82.6052 56.3335 86.8525 60.6072 87.0481 60.803L87.2968 61.052L87.4856 60.755C87.6469 60.5012 91.4343 54.5102 91.1531 51.9464C91.0135 50.674 90.3742 49.5092 89.3757 48.7082C88.3773 47.9072 87.1015 47.5356 85.8291 47.6752C84.5568 47.8148 83.3919 48.4542 82.5909 49.4526C81.7899 50.4511 81.4184 51.7268 81.558 52.9992C81.5856 53.2227 81.6366 53.4426 81.7103 53.6553ZM87.1977 60.1489C86.1742 59.0888 82.3444 54.9985 82.1187 52.9376C81.9962 51.8143 82.3248 50.6883 83.0322 49.8072C83.7396 48.9261 84.7679 48.3619 85.8911 48.2387C87.0143 48.1155 88.1405 48.4433 89.0221 49.1501C89.9037 49.8569 90.4685 50.8849 90.5924 52.008C90.8186 54.0695 87.967 58.8922 87.1977 60.1489Z" fill="#2F2E41"/>
<path d="M33.0573 117.406C33.7038 119.242 34.4779 121.03 35.3741 122.759L35.5378 123.07L35.8061 122.843C36.0356 122.648 41.4307 118.051 41.923 115.52C42.044 114.897 42.0413 114.258 41.915 113.637C41.7887 113.015 41.5414 112.425 41.187 111.9C40.8327 111.374 40.3783 110.924 39.8498 110.574C39.3214 110.224 38.7291 109.982 38.107 109.861C37.4849 109.74 36.845 109.742 36.2239 109.869C35.6029 109.995 35.0127 110.242 34.4872 110.597C33.9618 110.951 33.5112 111.405 33.1614 111.934C32.8115 112.462 32.5691 113.055 32.4481 113.677C32.2712 114.586 32.5811 115.98 33.0573 117.406ZM35.7114 122.178C35.0489 120.862 32.6061 115.82 33.0016 113.785C33.2174 112.675 33.8651 111.696 34.8024 111.064C35.7396 110.432 36.8896 110.198 37.9993 110.414C39.1089 110.63 40.0874 111.278 40.7195 112.215C41.3516 113.152 41.5854 114.302 41.3696 115.412C40.9738 117.447 36.819 121.206 35.7114 122.178Z" fill="#2F2E41"/>
</svg>
