<svg width="25" height="25" viewBox="0 0 25 25" fill="none" xmlns="http://www.w3.org/2000/svg">
<path d="M14.9454 15.6381L17.5354 13.0481H7.86536V11.0481H17.5354L14.9454 8.4581L16.3654 7.0481L21.3654 12.0481L16.3654 17.0481L14.9454 15.6381ZM19.8654 3.0481C20.3958 3.0481 20.9045 3.25881 21.2796 3.63388C21.6546 4.00895 21.8654 4.51766 21.8654 5.0481V9.7181L19.8654 7.7181V5.0481H5.86536V19.0481H19.8654V16.3781L21.8654 14.3781V19.0481C21.8654 19.5785 21.6546 20.0872 21.2796 20.4623C20.9045 20.8374 20.3958 21.0481 19.8654 21.0481H5.86536C4.75536 21.0481 3.86536 20.1481 3.86536 19.0481V5.0481C3.86536 3.9381 4.75536 3.0481 5.86536 3.0481H19.8654Z" fill="#606161"/>
</svg>
