<svg width="24" height="24" viewBox="0 0 24 24" fill="none" xmlns="http://www.w3.org/2000/svg">
<path d="M20 10.0001C18.58 7.57005 15.5 6.69005 13 8.00005V3.00005H11V8.00005C8.49999 6.69005 5.41999 7.57005 3.99999 10.0001C1.99999 13.0001 6.99999 22 8.99999 22C11 22 11 21 12 21C13 21 13 22 15 22C17 22 22 13.0001 20 10.0001ZM18.25 13.3801C17.63 15.8501 16.41 18.12 14.7 20C14.5 20 14.27 19.9 14.1 19.75C12.87 18.76 11.13 18.76 9.89999 19.75C9.72999 19.9 9.49999 20 9.29999 20C7.58999 18.13 6.35999 15.8501 5.74999 13.3901C5.49999 12.6601 5.44999 11.8701 5.65999 11.1201C6.23999 10.0901 7.31999 9.43005 8.49999 9.40005C9.05999 9.41005 9.60999 9.54005 10.11 9.79005L11 10.2401H13L13.89 9.79005C14.39 9.54005 14.94 9.41005 15.5 9.40005C16.68 9.43005 17.76 10.0801 18.34 11.1101C18.55 11.8601 18.5 12.6501 18.25 13.3801ZM11 5.00005C5.37999 8.07005 4.10999 3.78005 4.10999 3.78005C4.10999 3.78005 6.76999 0.190051 11 5.00005Z" fill="#606161"/>
</svg>
