<svg width="98" height="98" viewBox="0 0 98 98" fill="none" xmlns="http://www.w3.org/2000/svg">
<circle cx="49" cy="49" r="49" fill="#FFECD2"/>
<path d="M49 31.5C46.225 31.5 44 33.725 44 36.5C44 39.275 46.225 41.5 49 41.5C51.775 41.5 54 39.275 54 36.5C54 33.725 51.775 31.5 49 31.5ZM74 21.5V34H69V29H29V34H24V21.5H29V26.5H69V21.5H74ZM56.5 47.15V76.5H51.5V64H46.5V76.5H41.5V47.15C36.325 44.425 32.75 39 32.75 32.75V31.5H37.75V32.75C37.75 39 42.75 44 49 44C55.25 44 60.25 39 60.25 32.75V31.5H65.25V32.75C65.25 39 61.675 44.425 56.5 47.15Z" fill="#FFBA08"/>
</svg>
