<svg width="90" height="90" viewBox="0 0 90 90" fill="none" xmlns="http://www.w3.org/2000/svg">
<path fill-rule="evenodd" clip-rule="evenodd" d="M79.2278 47.7714C79.2278 66.3916 64.1334 81.4865 45.512 81.4865C26.8918 81.4865 11.7969 66.3916 11.7969 47.7714C11.7969 29.1506 26.8918 14.0557 45.512 14.0557C64.1334 14.0557 79.2278 29.1506 79.2278 47.7714Z" fill="#1B1B25"/>
<path fill-rule="evenodd" clip-rule="evenodd" d="M75.6725 44.2152C75.6725 62.836 60.5781 77.931 41.9573 77.931C23.3371 77.931 8.24219 62.836 8.24219 44.2152C8.24219 25.595 23.3371 10.5001 41.9573 10.5001C60.5781 10.5001 75.6725 25.595 75.6725 44.2152Z" fill="#FFB54A"/>
<path fill-rule="evenodd" clip-rule="evenodd" d="M41.957 18.8868C27.9544 18.8868 16.5625 30.2787 16.5625 44.2812C16.5625 58.2832 27.9544 69.6751 41.957 69.6751C55.9595 69.6751 67.3514 58.2832 67.3514 44.2812C67.3514 30.2787 55.9595 18.8868 41.957 18.8868ZM41.9552 71.4352C26.9823 71.4352 14.8008 59.2542 14.8008 44.2813C14.8008 29.3084 26.9823 17.1268 41.9552 17.1268C56.9281 17.1268 69.1097 29.3084 69.1097 44.2813C69.1097 59.2542 56.9281 71.4352 41.9552 71.4352Z" fill="#FCF0E3"/>
<path fill-rule="evenodd" clip-rule="evenodd" d="M43.8438 51.6471C45.6929 51.3608 46.6181 50.5271 46.6181 49.1461V49.0681C46.6181 48.3905 46.4227 47.8367 46.032 47.4066C45.6407 46.9772 44.9115 46.5665 43.8438 46.1758V51.6471ZM40.1681 34.0998C39.2306 34.2306 38.5465 34.5105 38.1159 34.9399C37.6865 35.37 37.4717 35.898 37.4717 36.5233V36.6014C37.4717 37.2009 37.6536 37.7149 38.0185 38.1449C38.3828 38.5749 39.0992 38.985 40.1681 39.3757V34.0998ZM39.973 56.4541C38.2793 56.2459 36.6442 55.8229 35.0685 55.184C33.4915 54.5457 32.0524 53.732 30.75 52.7411L33.7983 48.286C34.8661 49.0938 35.9021 49.765 36.9053 50.2988C37.9079 50.8333 38.9956 51.2176 40.1683 51.4516V45.2383C38.7615 44.8469 37.5301 44.4175 36.4753 43.9482C35.4205 43.4794 34.5469 42.9197 33.8564 42.268C33.1665 41.6168 32.6455 40.8547 32.2935 39.9817C31.9421 39.1088 31.7661 38.0997 31.7661 36.9528V36.8747C31.7661 35.7806 31.9615 34.7909 32.3522 33.9044C32.7429 33.0192 33.2961 32.25 34.013 31.5988C34.7294 30.9482 35.5959 30.4202 36.612 30.016C37.6281 29.6124 38.748 29.3455 39.973 29.2152V26.9483H44.0374V29.2932C45.4437 29.5021 46.7396 29.8471 47.9258 30.3287C49.1109 30.8109 50.2373 31.4299 51.3062 32.1849L48.6879 36.7574C47.9065 36.2364 47.111 35.7741 46.3037 35.3699C45.4959 34.9663 44.6757 34.6607 43.8421 34.4518V40.3531C46.8118 41.1609 48.9672 42.2157 50.3095 43.5187C51.6518 44.8217 52.3223 46.5665 52.3223 48.7553V48.8333C52.3223 49.9275 52.1199 50.9178 51.7169 51.8036C51.3121 52.6895 50.7524 53.458 50.0361 54.1092C49.3192 54.761 48.4533 55.2949 47.4371 55.7114C46.421 56.1285 45.2882 56.4019 44.0374 56.5322V60.4012H39.973V56.4541Z" fill="#1B1B25"/>
<path fill-rule="evenodd" clip-rule="evenodd" d="M79.2278 47.7714C79.2278 66.3916 64.1334 81.4865 45.512 81.4865C26.8918 81.4865 11.7969 66.3916 11.7969 47.7714C11.7969 29.1506 26.8918 14.0557 45.512 14.0557C64.1334 14.0557 79.2278 29.1506 79.2278 47.7714Z" fill="#392982"/>
<path fill-rule="evenodd" clip-rule="evenodd" d="M75.6725 44.2152C75.6725 62.836 60.5781 77.931 41.9573 77.931C23.3371 77.931 8.24219 62.836 8.24219 44.2152C8.24219 25.595 23.3371 10.5001 41.9573 10.5001C60.5781 10.5001 75.6725 25.595 75.6725 44.2152Z" fill="#FFB7A1"/>
<path fill-rule="evenodd" clip-rule="evenodd" d="M41.957 18.8868C27.9544 18.8868 16.5625 30.2787 16.5625 44.2812C16.5625 58.2832 27.9544 69.6751 41.957 69.6751C55.9595 69.6751 67.3514 58.2832 67.3514 44.2812C67.3514 30.2787 55.9595 18.8868 41.957 18.8868ZM41.9552 71.4352C26.9823 71.4352 14.8008 59.2542 14.8008 44.2813C14.8008 29.3084 26.9823 17.1268 41.9552 17.1268C56.9281 17.1268 69.1097 29.3084 69.1097 44.2813C69.1097 59.2542 56.9281 71.4352 41.9552 71.4352Z" fill="#FCF0E3"/>
<path fill-rule="evenodd" clip-rule="evenodd" d="M59.0195 21.429C65.918 21.429 71.5089 15.8372 71.5089 8.93875C71.5089 15.8372 77.1007 21.429 83.9991 21.429C77.1007 21.429 71.5089 27.0208 71.5089 33.9183C71.5089 27.0208 65.918 21.429 59.0195 21.429Z" fill="#FFEDE7"/>
<path fill-rule="evenodd" clip-rule="evenodd" d="M33.8761 36.7457C33.3426 36.6027 32.7943 36.9193 32.6513 37.4528L30.0631 47.112C29.9202 47.6455 30.2368 48.1938 30.7703 48.3368L49.1228 53.2543C49.6563 53.3973 50.2046 53.0807 50.3476 52.5472L52.9358 42.888C53.0787 42.3545 52.7621 41.8062 52.2287 41.6632L33.8761 36.7457ZM45.3632 46.0353C44.7914 48.1691 42.5981 49.4355 40.4642 48.8637C38.3303 48.2919 37.064 46.0986 37.6358 43.9647C38.2075 41.8309 40.4009 40.5645 42.5347 41.1363C44.6686 41.7081 45.9349 43.9014 45.3632 46.0353Z" fill="#FFEDE7"/>
<path fill-rule="evenodd" clip-rule="evenodd" d="M32 39C31.4477 39 31 39.4477 31 40V50C31 50.5523 31.4477 51 32 51H51C51.5523 51 52 50.5523 52 50V40C52 39.4477 51.5523 39 51 39H32ZM45.5 45C45.5 47.2091 43.7091 49 41.5 49C39.2909 49 37.5 47.2091 37.5 45C37.5 42.7909 39.2909 41 41.5 41C43.7091 41 45.5 42.7909 45.5 45ZM41.5 47C42.6046 47 43.5 46.1046 43.5 45C43.5 43.8954 42.6046 43 41.5 43C40.3954 43 39.5 43.8954 39.5 45C39.5 46.1046 40.3954 47 41.5 47Z" fill="#4E37B2"/>
</svg>
