<svg width="48" height="48" viewBox="0 0 48 48" fill="none" xmlns="http://www.w3.org/2000/svg">
<g clip-path="url(#clip0)">
<rect x="24" y="8" width="16" height="16" rx="8" fill="#FFBA08"/>
<path d="M34.8466 17.84C34.8466 16.832 34.2346 16.052 33.3466 15.872C33.9586 15.68 34.5106 15.008 34.5106 14.18C34.5106 13.052 33.5146 12.092 32.0026 12.092C30.5026 12.092 29.5066 13.052 29.5066 14.18C29.5066 15.044 30.0586 15.704 30.6826 15.884C29.7946 16.064 29.1586 16.832 29.1586 17.828C29.1586 19.16 30.3346 20.108 32.0026 20.108C33.6706 20.108 34.8466 19.16 34.8466 17.84ZM32.0026 12.884C32.9266 12.884 33.5866 13.448 33.5866 14.228C33.5866 15.02 32.9266 15.572 32.0026 15.572C31.0786 15.572 30.4186 15.02 30.4186 14.228C30.4186 13.448 31.0786 12.884 32.0026 12.884ZM32.0026 16.256C33.1186 16.256 33.9106 16.88 33.9106 17.756C33.9106 18.668 33.1186 19.304 32.0026 19.304C30.8866 19.304 30.0946 18.668 30.0946 17.756C30.0946 16.88 30.8866 16.256 32.0026 16.256Z" fill="white"/>
</g>
<defs>
<clipPath id="clip0">
<rect width="48" height="48" fill="white"/>
</clipPath>
</defs>
</svg>
