<svg width="25" height="25" viewBox="0 0 25 25" fill="none" xmlns="http://www.w3.org/2000/svg">
<path d="M16.2456 17.2329H7.24561V10.7329C7.24561 8.23291 9.24561 6.23291 11.7456 6.23291C14.2456 6.23291 16.2456 8.23291 16.2456 10.7329V17.2329ZM18.2456 16.2329V10.7329C18.2456 7.66291 16.1056 5.09291 13.2456 4.41291V3.73291C13.2456 3.33509 13.0876 2.95355 12.8063 2.67225C12.525 2.39095 12.1434 2.23291 11.7456 2.23291C11.3478 2.23291 10.9662 2.39095 10.6849 2.67225C10.4036 2.95355 10.2456 3.33509 10.2456 3.73291V4.41291C7.37561 5.09291 5.24561 7.66291 5.24561 10.7329V16.2329L3.24561 18.2329V19.2329H20.2456V18.2329L18.2456 16.2329ZM11.7456 22.2329C12.276 22.2329 12.7847 22.0222 13.1598 21.6471C13.5349 21.2721 13.7456 20.7633 13.7456 20.2329H9.74561C9.74561 20.7633 9.95632 21.2721 10.3314 21.6471C10.7065 22.0222 11.2152 22.2329 11.7456 22.2329Z" fill="#F47803"/>
</svg>
