<?xml version="1.0" encoding="iso-8859-1"?>
<!-- Generator: Adobe Illustrator 22.1.0, SVG Export Plug-In . SVG Version: 6.00 Build 0)  -->
<svg xmlns="http://www.w3.org/2000/svg" xmlns:xlink="http://www.w3.org/1999/xlink" version="1.1" id="Layer_3" x="0px" y="0px" viewBox="0 0 64 64" style="enable-background:new 0 0 64 64;" xml:space="preserve" width="512" height="512">
<g>
	<path d="M18,1H2C1.447,1,1,1.448,1,2v6c0,0.552,0.447,1,1,1h1v3c0,0.552,0.447,1,1,1h1v32H4c-0.553,0-1,0.448-1,1v11H2   c-0.553,0-1,0.448-1,1v4c0,0.552,0.447,1,1,1h16c0.553,0,1-0.448,1-1v-4c0-0.552-0.447-1-1-1h-1V46c0-0.552-0.447-1-1-1h-1V13h1   c0.553,0,1-0.448,1-1V9h1c0.553,0,1-0.448,1-1V2C19,1.448,18.553,1,18,1z M7,45V13h2v32H7z M17,61H3v-2h14V61z M11,57H9v-3   c0-0.551,0.448-1,1-1s1,0.449,1,1V57z M13,57v-3c0-1.654-1.346-3-3-3s-3,1.346-3,3v3H5V47h10v10H13z M11,45V13h2v32H11z M15,11h-1   H6H5V9h10V11z M17,7h-1H4H3V3h14V7z"/>
	<path d="M40,1H24c-0.553,0-1,0.448-1,1v6c0,0.552,0.447,1,1,1h1v3c0,0.552,0.447,1,1,1h1v32h-1c-0.553,0-1,0.448-1,1v11h-1   c-0.553,0-1,0.448-1,1v4c0,0.552,0.447,1,1,1h16c0.553,0,1-0.448,1-1v-4c0-0.552-0.447-1-1-1h-1V46c0-0.552-0.447-1-1-1h-1V13h1   c0.553,0,1-0.448,1-1V9h1c0.553,0,1-0.448,1-1V2C41,1.448,40.553,1,40,1z M29,45V13h2v32H29z M39,61H25v-2h14V61z M33,57h-2v-3   c0-0.551,0.448-1,1-1s1,0.449,1,1V57z M35,57v-3c0-1.654-1.346-3-3-3s-3,1.346-3,3v3h-2V47h10v10H35z M33,45V13h2v32H33z M37,11h-1   h-8h-1V9h10V11z M39,7h-1H26h-1V3h14V7z"/>
	<path d="M60,13c0.553,0,1-0.448,1-1V9h1c0.553,0,1-0.448,1-1V2c0-0.552-0.447-1-1-1H46c-0.553,0-1,0.448-1,1v6c0,0.552,0.447,1,1,1   h1v3c0,0.552,0.447,1,1,1h1v32h-1c-0.553,0-1,0.448-1,1v11h-1c-0.553,0-1,0.448-1,1v4c0,0.552,0.447,1,1,1h16c0.553,0,1-0.448,1-1   v-4c0-0.552-0.447-1-1-1h-1V46c0-0.552-0.447-1-1-1h-1V13H60z M59,11h-1h-8h-1V9h10V11z M47,7V3h14v4h-1H48H47z M51,13h2v32h-2V13z    M61,61H47v-2h14V61z M55,57h-2v-3c0-0.551,0.448-1,1-1s1,0.449,1,1V57z M57,57v-3c0-1.654-1.346-3-3-3s-3,1.346-3,3v3h-2V47h10v10   H57z M55,45V13h2v32H55z"/>
</g>
</svg>
