<svg width="24" height="25" viewBox="0 0 24 25" fill="none" xmlns="http://www.w3.org/2000/svg">
<path d="M20 14.8613H4V8.86133H9.08L7 11.6913L8.62 12.8613L11 9.62133L12 8.26133L13 9.62133L15.38 12.8613L17 11.6913L14.92 8.86133H20V14.8613ZM20 19.8613H4V17.8613H20V19.8613ZM9 4.86133C9.26522 4.86133 9.51957 4.96669 9.70711 5.15422C9.89464 5.34176 10 5.59611 10 5.86133C10 6.12654 9.89464 6.3809 9.70711 6.56843C9.51957 6.75597 9.26522 6.86133 9 6.86133C8.73478 6.86133 8.48043 6.75597 8.29289 6.56843C8.10536 6.3809 8 6.12654 8 5.86133C8 5.59611 8.10536 5.34176 8.29289 5.15422C8.48043 4.96669 8.73478 4.86133 9 4.86133ZM15 4.86133C15.2652 4.86133 15.5196 4.96669 15.7071 5.15422C15.8946 5.34176 16 5.59611 16 5.86133C16 6.12654 15.8946 6.3809 15.7071 6.56843C15.5196 6.75597 15.2652 6.86133 15 6.86133C14.7348 6.86133 14.4804 6.75597 14.2929 6.56843C14.1054 6.3809 14 6.12654 14 5.86133C14 5.59611 14.1054 5.34176 14.2929 5.15422C14.4804 4.96669 14.7348 4.86133 15 4.86133ZM20 6.86133H17.82C17.93 6.55133 18 6.21133 18 5.86133C18 5.06568 17.6839 4.30262 17.1213 3.74001C16.5587 3.1774 15.7956 2.86133 15 2.86133C13.95 2.86133 13.04 3.40133 12.5 4.21133L12 4.86133L11.5 4.20133C10.96 3.40133 10.05 2.86133 9 2.86133C8.20435 2.86133 7.44129 3.1774 6.87868 3.74001C6.31607 4.30262 6 5.06568 6 5.86133C6 6.21133 6.07 6.55133 6.18 6.86133H4C2.89 6.86133 2 7.75133 2 8.86133V19.8613C2 20.9713 2.89 21.8613 4 21.8613H20C21.11 21.8613 22 20.9713 22 19.8613V8.86133C22 7.75133 21.11 6.86133 20 6.86133Z" fill="#606161"/>
</svg>
