<svg width="190" height="173" viewBox="0 0 190 173" fill="none" xmlns="http://www.w3.org/2000/svg">
<path d="M98.6378 133.797C98.7692 132.599 99.3712 131.502 100.311 130.748C101.251 129.994 102.453 129.644 103.651 129.775C104.849 129.907 105.945 130.509 106.7 131.449C107.454 132.389 107.804 133.59 107.672 134.788C107.398 137.283 102.263 142.423 102.263 142.423C102.263 142.423 98.3641 136.292 98.6378 133.797Z" fill="#2EC4B6"/>
<path d="M187.472 162.335C186.838 161.31 186.637 160.075 186.913 158.902C187.19 157.729 187.921 156.714 188.946 156.08C189.971 155.446 191.206 155.245 192.379 155.521C193.552 155.798 194.567 156.529 195.201 157.554C196.521 159.688 195.64 166.901 195.64 166.901C195.64 166.901 188.792 164.47 187.472 162.335Z" fill="#2EC4B6"/>
<path d="M202.34 92.3457C194.022 99.937 184.981 103.372 175.469 102.556C168.406 101.95 161.203 99.0392 154.06 93.9044C148.797 90.1087 144.165 85.5067 140.335 80.2682C119.906 52.4391 103.05 44.9112 92.5069 43.4966C80.947 41.9453 74.1773 47.1929 74.1103 47.2462L73.7592 46.8047C73.8279 46.7501 80.7619 41.3595 92.559 42.9344C99.3601 43.8424 106.454 46.8549 113.645 51.8882C122.594 58.1525 131.727 67.5886 140.79 79.9343C144.585 85.1251 149.174 89.6851 154.389 93.4464C166.104 101.868 183.868 108.441 201.96 91.9292L202.34 92.3457Z" fill="#2F2E41"/>
<path d="M147.128 92.838C140.571 98.8228 134.142 96.447 129.903 93.4C128.035 92.0527 126.391 90.4193 125.031 88.5598C117.874 78.8104 111.988 76.1787 108.31 75.6876C104.317 75.1546 102.003 76.9522 101.98 76.9704L101.629 76.5291C101.73 76.4486 104.156 74.564 108.385 75.1286C113.892 75.8638 119.646 80.2704 125.486 88.2259C126.81 90.0377 128.412 91.6293 130.232 92.942C134.302 95.8672 140.47 98.1513 146.748 92.4215L147.128 92.838Z" fill="#2F2E41"/>
<path d="M98.8081 39.9079L98.2538 40.0122C96.6812 31.6591 90.3787 29.7761 85.3686 29.6675C83.1248 29.6223 80.888 29.9313 78.7405 30.583C69.2908 33.4295 62.0438 33.492 57.201 30.7688C53.4818 28.6775 52.6766 25.7135 52.6442 25.5884L53.19 25.4463C53.1976 25.4749 53.9819 28.3207 57.4971 30.2884C60.7317 32.0988 67.0146 33.5261 78.5778 30.0429C80.782 29.3742 83.0778 29.0572 85.3807 29.1036C90.5996 29.2168 97.1655 31.1831 98.8081 39.9079Z" fill="#2F2E41"/>
<path d="M77.4415 15.3123C78.1322 16.1829 78.6445 17.181 78.9493 18.2496C79.2541 19.3183 79.3453 20.4365 79.2179 21.5404C79.0904 22.6443 78.7467 23.7123 78.2064 24.6834C77.6661 25.6544 76.9398 26.5095 76.0689 27.1998C75.1981 27.8901 74.1998 28.4021 73.131 28.7064C72.0623 29.0108 70.944 29.1017 69.8401 28.9738C68.7363 28.8459 67.6684 28.5018 66.6976 27.9612C65.7267 27.4205 64.8719 26.6939 64.1819 25.8228C61.2795 22.1612 61.3523 8.63388 61.3523 8.63388C61.3523 8.63388 74.5392 11.6508 77.4415 15.3123Z" fill="#8CB83F"/>
<path d="M51.5844 9.94289C52.275 10.8135 52.7873 11.8116 53.0921 12.8802C53.3969 13.9489 53.4881 15.0671 53.3607 16.171C53.2332 17.2749 52.8895 18.3429 52.3492 19.314C51.8089 20.285 51.0826 21.1401 50.2117 21.8304C49.3409 22.5207 48.3426 23.0326 47.2738 23.337C46.2051 23.6414 45.0868 23.7323 43.983 23.6044C42.8791 23.4765 41.8112 23.1324 40.8404 22.5917C39.8695 22.0511 39.0147 21.3244 38.3247 20.4533C35.4224 16.7918 35.4952 3.26446 35.4952 3.26446C35.4952 3.26446 48.682 6.28134 51.5844 9.94289Z" fill="#2EC4B6"/>
<path d="M138.393 53.3259C137.767 55.2094 136.518 56.8238 134.853 57.9036C133.188 58.9835 131.204 59.4644 129.229 59.2675C127.254 59.0705 125.405 58.2073 123.986 56.8198C122.567 55.4324 121.662 53.6033 121.42 51.6332C120.845 46.9515 127.71 35.7792 128.003 35.3057L128.188 35.0065L128.44 35.2521C128.838 35.6406 138.2 44.8219 138.774 49.504C138.934 50.7905 138.803 52.0964 138.393 53.3259ZM122.706 47.3345C122.157 48.9774 121.846 50.4739 121.98 51.5645C122.244 53.7173 123.353 55.6771 125.062 57.0126C126.771 58.3481 128.94 58.95 131.093 58.6859C133.246 58.4218 135.206 57.3133 136.541 55.6043C137.877 53.8952 138.479 51.7256 138.215 49.5728C137.715 45.4997 129.821 37.4295 128.298 35.9063C127.486 37.258 124.208 42.8421 122.706 47.3345Z" fill="#2F2E41"/>
<path d="M59.3115 45.0787C60.2817 44.5373 61.349 44.1923 62.4524 44.0633C63.5559 43.9344 64.674 44.0241 65.7428 44.3272C66.8116 44.6304 67.8103 45.1411 68.6817 45.8302C69.5531 46.5193 70.2803 47.3733 70.8217 48.3435C71.3631 49.3136 71.7081 50.3809 71.8371 51.4844C71.966 52.5878 71.8763 53.7059 71.5732 54.7747C71.27 55.8436 70.7593 56.8422 70.0702 57.7136C69.3811 58.5851 68.5271 59.3123 67.5569 59.8537C63.4769 62.1306 50.1367 59.887 50.1367 59.887C50.1367 59.887 55.2315 47.3556 59.3115 45.0787Z" fill="#FCB813"/>
<path d="M86.7559 75.0619C88.7152 73.9685 91.0286 73.6982 93.1871 74.3104C95.3457 74.9227 97.1727 76.3674 98.2661 78.3267C99.3595 80.286 99.6298 82.5994 99.0175 84.758C98.4052 86.9165 96.9606 88.7435 95.0013 89.8369C90.9213 92.1138 77.5811 89.8702 77.5811 89.8702C77.5811 89.8702 82.6759 77.3388 86.7559 75.0619Z" fill="#F37920"/>
<path d="M98.4948 55.6553C97.5999 58.3334 93.3526 62.6071 93.157 62.8029L92.9083 63.0519L92.7195 62.7549C92.5582 62.5011 88.7707 56.5101 89.0519 53.9463C89.1916 52.6739 89.8309 51.5091 90.8293 50.7081C91.8278 49.9071 93.1035 49.5355 94.3759 49.6751C95.6483 49.8148 96.8131 50.4541 97.6141 51.4526C98.4151 52.451 98.7867 53.7267 98.6471 54.9991C98.6195 55.2226 98.5685 55.4425 98.4948 55.6553ZM93.0073 62.1489C94.0309 61.0887 97.8607 56.9984 98.0864 54.9375C98.2089 53.8142 97.8803 52.6883 97.1729 51.8071C96.4655 50.926 95.4372 50.3618 94.314 50.2386C93.1908 50.1154 92.0646 50.4432 91.183 51.15C90.3014 51.8568 89.7366 52.8848 89.6126 54.0079C89.3865 56.0694 92.2381 60.8921 93.0073 62.1489Z" fill="#2F2E41"/>
<path d="M147.148 119.406C146.501 121.242 145.727 123.03 144.831 124.759L144.667 125.07L144.399 124.843C144.17 124.648 138.774 120.051 138.282 117.52C138.161 116.898 138.164 116.258 138.29 115.637C138.416 115.015 138.664 114.425 139.018 113.9C139.372 113.374 139.827 112.924 140.355 112.574C140.884 112.224 141.476 111.982 142.098 111.861C142.72 111.74 143.36 111.742 143.981 111.869C144.602 111.995 145.192 112.242 145.718 112.597C146.243 112.951 146.694 113.406 147.044 113.934C147.394 114.462 147.636 115.055 147.757 115.677C147.934 116.586 147.624 117.98 147.148 119.406ZM144.494 124.178C145.156 122.862 147.599 117.82 147.204 115.785C146.988 114.675 146.34 113.696 145.403 113.064C144.465 112.432 143.315 112.198 142.206 112.414C141.096 112.63 140.118 113.278 139.486 114.215C138.854 115.152 138.62 116.302 138.835 117.412C139.231 119.447 143.386 123.207 144.494 124.178Z" fill="#2F2E41"/>
</svg>
