<svg width="21" height="22" viewBox="0 0 21 22" fill="none" xmlns="http://www.w3.org/2000/svg">
<path fill-rule="evenodd" clip-rule="evenodd" d="M18.8074 6.62358L18.185 5.54349C17.6584 4.62957 16.4914 4.31429 15.5763 4.83869V4.83869C15.1406 5.09531 14.6208 5.16812 14.1314 5.04106C13.6421 4.91399 13.2233 4.59749 12.9676 4.16134C12.803 3.88412 12.7146 3.56836 12.7113 3.24601V3.24601C12.7261 2.72919 12.5311 2.22837 12.1708 1.85764C11.8104 1.48691 11.3153 1.27783 10.7982 1.27805H9.54423C9.0377 1.27804 8.55205 1.47988 8.19473 1.83891C7.83742 2.19795 7.63791 2.68456 7.64034 3.19109V3.19109C7.62533 4.23689 6.77321 5.07678 5.7273 5.07667C5.40494 5.07332 5.08919 4.98491 4.81197 4.82038V4.82038C3.89679 4.29598 2.72985 4.61126 2.20327 5.52519L1.53508 6.62358C1.00914 7.53636 1.32013 8.70258 2.23073 9.23228V9.23228C2.82263 9.57401 3.18726 10.2056 3.18726 10.889C3.18726 11.5725 2.82263 12.204 2.23073 12.5458V12.5458C1.32129 13.0719 1.00996 14.2353 1.53508 15.1453V15.1453L2.16666 16.2346C2.41338 16.6798 2.82734 17.0083 3.31693 17.1474C3.80652 17.2866 4.33137 17.2249 4.77535 16.976V16.976C5.21181 16.7213 5.73192 16.6515 6.22007 16.7822C6.70822 16.9128 7.12397 17.233 7.3749 17.6716C7.53943 17.9489 7.62784 18.2646 7.63119 18.587V18.587C7.63119 19.6435 8.48769 20.5 9.54423 20.5H10.7982C11.8512 20.5 12.7062 19.6491 12.7113 18.5961V18.5961C12.7088 18.088 12.9096 17.6 13.2689 17.2407C13.6282 16.8814 14.1162 16.6806 14.6243 16.6831C14.9459 16.6917 15.2604 16.7797 15.5397 16.9394V16.9394C16.4524 17.4653 17.6186 17.1543 18.1484 16.2437V16.2437L18.8074 15.1453C19.0625 14.7075 19.1325 14.186 19.0019 13.6963C18.8714 13.2067 18.551 12.7893 18.1117 12.5366V12.5366C17.6725 12.2839 17.3521 11.8665 17.2215 11.3769C17.091 10.8873 17.161 10.3658 17.4161 9.92793C17.582 9.63831 17.8221 9.39817 18.1117 9.23228V9.23228C19.0169 8.70286 19.3271 7.54346 18.8074 6.63274V6.63274V6.62358Z" stroke="#2EC4B6" stroke-width="2" stroke-linecap="round" stroke-linejoin="round"/>
<path fill-rule="evenodd" clip-rule="evenodd" d="M10.1752 13.5252C11.6311 13.5252 12.8114 12.3449 12.8114 10.889C12.8114 9.43312 11.6311 8.25287 10.1752 8.25287C8.71931 8.25287 7.53906 9.43312 7.53906 10.889C7.53906 12.3449 8.71931 13.5252 10.1752 13.5252Z" stroke="#2EC4B6" stroke-width="2" stroke-linecap="round" stroke-linejoin="round"/>
</svg>
