<svg width="478" height="352" viewBox="0 0 478 352" fill="none" xmlns="http://www.w3.org/2000/svg">
<g clip-path="url(#clip0)">
<path opacity="0.1" d="M5.14453 168.762C12.6925 197.884 28.6574 223.058 53.8866 235.261C106.335 260.622 224.621 247.542 312.901 232.528C358.567 224.763 398.705 203.332 427.863 173.174L5.14453 168.762Z" fill="#2EC4B6"/>
<path opacity="0.1" d="M468.083 31.6813H419.645C417.347 31.6813 415.461 29.9808 415.461 27.9028C415.461 25.8249 417.347 24.12 419.645 24.12H428.023C425.72 24.12 423.839 22.4194 423.839 20.3371C423.839 18.2548 425.72 16.5586 428.023 16.5586H422.044C419.741 16.5586 417.855 14.8581 417.855 12.7758C417.855 10.6935 419.741 8.99728 422.044 8.99728H447.325C441.715 6.64167 435.158 4.96716 427.602 4.08652C358.662 -3.90865 334.05 1.37952 325.368 6.8152C314.546 13.6748 302.525 18.4346 289.936 20.8447C247.403 28.7705 167.861 38.3057 95.7671 17.808C59.9352 7.6004 33.3024 24.8271 17.3418 53.6236H476.496C475.896 45.2553 474.102 37.5248 470.808 30.7617C470.028 31.3629 469.069 31.6866 468.083 31.6813Z" fill="#2EC4B6"/>
<path opacity="0.1" d="M1.03852 107.976C-0.821976 124.913 -0.18954 142.03 2.91572 158.784L428.189 172.835C439.896 160.714 449.842 147.014 457.737 132.135L1.03852 107.976ZM169.239 144.221H160.866C163.169 144.221 165.055 145.926 165.055 148.004C165.055 150.082 163.169 151.782 160.866 151.782H112.428C110.129 151.782 108.243 150.082 108.243 148.004C108.243 145.926 110.129 144.221 112.428 144.221H120.806C118.503 144.221 116.621 142.521 116.621 140.443C116.621 138.365 118.503 136.66 120.806 136.66H114.822C112.519 136.66 110.633 134.959 110.633 132.881C110.633 130.803 112.519 129.098 114.822 129.098H163.26C165.563 129.098 167.445 130.799 167.445 132.881C167.445 134.963 165.563 136.66 163.26 136.66H169.239C171.542 136.66 173.424 138.36 173.424 140.443C173.424 142.525 171.542 144.221 169.239 144.221Z" fill="#2EC4B6"/>
<path opacity="0.1" d="M476.514 53.8839L12.2194 64.0785C6.57044 77.1926 2.82472 92.0204 1.09961 107.386H468.38C471.421 98.3962 473.677 89.1606 475.124 79.7825C476.518 70.7549 477.075 62.0222 476.514 53.8839ZM95.3682 87.3092H86.9947C89.2977 87.3092 91.1836 89.014 91.1836 91.092C91.1836 93.17 89.2977 94.8749 86.9947 94.8749H38.5567C36.258 94.8749 34.3722 93.17 34.3722 91.092C34.3722 89.014 36.258 87.3092 38.5567 87.3092H46.9346C44.6316 87.3092 42.75 85.6086 42.75 83.5306C42.75 81.4527 44.6316 79.7478 46.9346 79.7478H40.951C38.648 79.7478 36.7621 78.0473 36.7621 75.9693C36.7621 73.8913 38.648 72.1864 40.951 72.1864H89.389C91.692 72.1864 93.5735 73.887 93.5735 75.9693C93.5735 78.0516 91.692 79.7478 89.389 79.7478H95.3682C97.6712 79.7478 99.5528 81.4527 99.5528 83.5306C99.5528 85.6086 97.6712 87.3092 95.3682 87.3092Z" fill="#2EC4B6"/>
<path opacity="0.1" d="M236.858 338.842C344.129 338.842 431.088 330.856 431.088 321.004C431.088 311.152 344.129 303.166 236.858 303.166C129.588 303.166 42.6289 311.152 42.6289 321.004C42.6289 330.856 129.588 338.842 236.858 338.842Z" fill="#2EC4B6"/>
<path d="M434.816 173.664C434.814 173.634 434.814 173.603 434.816 173.573C434.816 173.525 434.816 173.482 434.816 173.438C434.729 172.941 434.541 172.468 434.264 172.046C433.27 170.457 431.884 169.149 430.24 168.246C427.372 166.675 423.431 166.003 422.284 163.005C421.932 162.077 421.923 161.066 421.749 160.094C421.445 158.58 420.747 157.173 419.726 156.013C418.705 154.853 417.396 153.982 415.931 153.487C414.566 153.032 413.093 152.906 411.768 152.342C408.804 151.084 407.24 147.982 405.915 145.115C404.2 141.413 402.485 137.71 400.77 134.005C399.466 134.66 397.78 134.352 396.559 133.532C395.383 132.657 394.445 131.501 393.835 130.17C392.066 126.743 391.305 122.86 389.228 119.598C387.151 116.336 383.001 113.759 379.334 115.177C378.618 115.534 377.877 115.84 377.118 116.093C373.976 116.826 370.5 113.242 367.81 114.982C367.363 115.268 366.999 115.666 366.754 116.136C366.752 116.107 366.752 116.078 366.754 116.049C366.404 116.755 366.209 117.527 366.181 118.314C366.181 118.474 366.181 118.63 366.181 118.782C366.181 118.808 366.181 118.834 366.181 118.86C366.181 119.485 366.22 120.118 366.228 120.752C366.238 121.284 366.197 121.815 366.107 122.34V122.296C366.056 122.591 365.98 122.881 365.881 123.164C365.181 125.038 363.243 126.266 362.335 128.027V127.94C362.233 128.132 362.144 128.33 362.07 128.534C361.908 128.996 361.825 129.481 361.822 129.97C361.744 133.28 365.259 136.395 365.668 139.948C365.959 142.464 366.537 143.271 368.679 144.694L369.148 145.006C368.962 145.006 368.77 145.032 368.557 145.037C368.474 145.038 368.391 145.047 368.31 145.063C367.932 144.959 367.535 144.94 367.149 145.007C366.763 145.075 366.396 145.227 366.076 145.453C364.434 146.755 360.549 145.752 358.824 145.453C357.099 145.154 351.189 145.961 350.363 149.232C349.538 152.503 348.121 159.253 348.121 159.253C348.121 159.253 348.121 163.534 347.595 164.333C347.575 164.389 347.575 164.45 347.595 164.506C347.595 165.708 347.639 172.931 346.474 174.792C346.187 175.226 346.209 176.184 346.422 177.364C345.197 178.939 344.045 180.778 344.249 181.984C344.623 184.453 349.638 192.214 356.825 188.058C356.825 188.058 360.914 180.592 355.769 176.623L355.991 175.755C357.546 177.664 358.698 179.035 358.698 179.035C358.698 179.035 358.759 179.195 358.854 179.468H358.698C359.369 181.293 359.776 183.203 359.906 185.143C359.886 185.854 359.757 186.557 359.523 187.229H359.658C359.619 187.377 359.576 187.524 359.523 187.663C359.271 188.396 358.799 189.033 358.172 189.489C354.578 192.032 350.463 210.187 350.463 210.187C350.463 210.187 342.311 239.534 340.682 241.204C339.335 242.575 347.8 246.436 354.153 245.976C355.039 245.924 355.916 245.757 356.76 245.482C356.799 245.915 356.842 246.349 356.886 246.744C357.02 248.045 357.16 249.251 357.246 249.629C357.472 250.575 357.92 260.231 357.92 260.231C357.92 260.231 357.003 266.504 357.225 270.868C357.225 271.168 357.264 271.454 357.29 271.736L356.499 271.857C355.3 274.547 360.24 296.988 360.914 298.875C361.36 300.362 361.611 301.901 361.661 303.452C361.661 303.452 361.227 305.048 361.587 305.92C361.812 306.453 361.958 307.016 362.022 307.591C362.022 307.591 361.727 309.04 362.174 309.985C362.622 310.931 362.1 312.588 362.1 312.588C362.1 312.588 361.952 319.126 360.605 322.683C360.239 323.64 360.132 324.677 360.296 325.689C360.46 326.701 360.889 327.651 361.54 328.444C361.633 328.568 361.735 328.685 361.844 328.795C361.844 328.795 369.274 328.856 370.582 328.795H370.752C371.278 328.722 372.625 322.839 371.425 320.006C370.226 317.174 371.278 313.686 371.278 313.686V308.532C371.278 308.532 372.625 307.291 371.278 304.628C369.931 301.964 370.152 301.157 370.152 301.157C370.152 301.157 371.651 296.871 370.078 295.492C368.505 294.112 370.378 288.88 370.378 288.88L370.908 271.441C370.631 271.351 370.348 271.278 370.061 271.224C370.031 270.938 370 270.643 369.97 270.33C369.661 267.172 369.396 262.878 370.083 261.654C370.769 260.431 371.1 249.75 371.208 242.328L378.056 242.588C378.2 246.059 378.352 249.225 378.448 249.629C378.673 250.575 379.125 260.231 379.125 260.231C379.125 260.231 378.204 266.504 378.426 270.868C378.426 271.168 378.465 271.454 378.491 271.736L377.7 271.857C376.501 274.547 381.441 296.988 382.115 298.875C382.562 300.362 382.814 301.901 382.867 303.452C382.867 303.452 382.432 305.048 382.789 305.92C383.013 306.453 383.16 307.016 383.223 307.591C383.223 307.591 382.928 309.04 383.375 309.985C383.823 310.931 383.301 312.588 383.301 312.588C383.301 312.588 383.154 319.126 381.807 322.683C381.445 323.642 381.345 324.679 381.514 325.689C381.683 326.699 382.117 327.646 382.771 328.435C382.865 328.559 382.966 328.676 383.075 328.787C383.075 328.787 390.506 328.847 391.814 328.787H391.983C392.509 328.713 393.856 322.83 392.657 319.998C391.458 317.165 392.509 313.677 392.509 313.677V308.532C392.509 308.532 393.856 307.291 392.509 304.628C391.162 301.964 391.384 301.157 391.384 301.157C391.384 301.157 392.883 296.871 391.31 295.492C389.737 294.112 391.61 288.88 391.61 288.88L392.149 271.441C391.864 271.349 391.574 271.277 391.279 271.224C391.249 270.938 391.219 270.643 391.188 270.33C390.88 267.172 390.615 262.878 391.301 261.654C391.853 260.652 392.17 254.197 392.314 247.894C392.314 247.46 392.314 247.026 392.348 246.592C395.495 246.461 398.628 246.111 401.726 245.542C401.726 245.542 398.063 232.61 399.184 230.506C399.666 229.6 398.971 224.771 398.019 219.57C399.346 220.642 400.996 221.238 402.703 221.262C404.342 224.407 409.326 231.643 412.133 232.758C415.427 234.059 412.954 222.52 411.385 220.85C410.643 219.938 410.018 218.937 409.526 217.869C409.569 217.817 409.617 217.774 409.66 217.726C409.704 217.679 409.739 205.449 408.987 205.671C408.235 205.892 407.34 203.853 407.34 203.853L405.019 183.52L404.046 175.009C404.859 175.607 405.823 175.989 406.653 176.583C408.913 178.236 409.652 181.139 410.642 183.707C411.459 185.819 412.607 187.915 414.488 189.242C416.37 190.57 419.129 190.921 421.006 189.576C422.744 188.314 423.257 186.036 423.639 183.958C426.794 185.065 430.622 182.106 430.214 178.874C430.114 178.076 429.819 177.204 430.236 176.505C431.07 175.126 433.712 175.928 434.581 174.566C434.727 174.331 434.803 174.058 434.798 173.781C434.811 173.72 434.816 173.694 434.816 173.664ZM392.618 184.848C392.57 185.624 393.639 191.862 394.508 196.799C393.795 193.723 392.366 190.439 389.55 188.188C389.55 188.188 389.55 188.032 389.515 187.754H389.55C389.55 187.754 389.433 186.513 389.415 184.748C389.42 183.183 389.536 181.62 389.763 180.071V180.032H389.706C389.706 179.902 389.741 179.768 389.763 179.638C389.936 178.331 390.291 177.054 390.819 175.846C391.052 175.372 391.321 174.917 391.623 174.484C392.088 178.679 392.661 184.062 392.618 184.848ZM394.956 199.302C395.338 201.432 395.612 202.929 395.612 202.929L397.919 218.746V218.82C396.676 212.143 395.09 205.107 395.09 205.107C395.252 203.173 395.207 201.227 394.956 199.302Z" fill="url(#paint0_linear)"/>
<path d="M366.676 140.816C366.242 136.807 361.896 133.35 363.2 129.536C363.908 127.459 366.124 126.187 366.872 124.123C367.367 122.76 367.146 121.264 367.15 119.815C367.154 118.366 367.493 116.748 368.701 115.945C371.309 114.21 374.663 117.78 377.705 117.051C378.44 116.8 379.156 116.496 379.847 116.14C383.397 114.73 387.412 117.299 389.407 120.544C391.402 123.788 392.149 127.658 393.861 131.068C394.446 132.385 395.351 133.534 396.494 134.413C397.676 135.228 399.293 135.536 400.57 134.885L405.546 145.948C406.849 148.798 408.344 151.887 411.195 153.14C412.472 153.7 413.898 153.826 415.219 154.281C416.654 154.787 417.932 155.66 418.923 156.813C419.915 157.967 420.585 159.36 420.868 160.853C421.037 161.825 421.041 162.832 421.385 163.756C422.493 166.74 426.304 167.408 429.08 168.961C430.687 169.866 432.033 171.167 432.991 172.74C433.426 173.49 433.799 174.475 433.334 175.213C432.496 176.566 429.945 175.768 429.137 177.143C428.728 177.837 429.015 178.705 429.137 179.503C429.532 182.718 425.826 185.663 422.775 184.561C422.406 186.631 421.906 188.899 420.229 190.153C418.425 191.498 415.753 191.142 413.932 189.823C412.112 188.505 411.008 186.418 410.217 184.314C409.257 181.755 408.54 178.865 406.354 177.221C405.563 176.631 404.616 176.249 403.842 175.655C402.104 174.328 401.235 172.137 400.614 170.016C399.81 167.369 399.171 164.649 398.006 162.151C396.842 159.652 394.999 157.327 392.475 156.186C390.107 155.123 387.378 155.192 384.931 154.329C380.721 152.845 377.605 149.31 373.416 147.644C372.077 147.082 370.808 146.366 369.636 145.509C367.528 144.126 366.954 143.323 366.676 140.816Z" fill="#3F3D56"/>
<g opacity="0.1">
<path opacity="0.1" d="M367.066 123.272C367.156 123.103 367.234 122.927 367.301 122.747C367.792 121.385 367.575 119.889 367.579 118.44C367.579 117.956 367.624 117.474 367.714 116.999C367.313 117.856 367.118 118.795 367.145 119.741C367.14 120.908 367.279 122.131 367.066 123.272Z" fill="black"/>
<path opacity="0.1" d="M420.636 188.791C418.833 190.131 416.16 189.78 414.34 188.457C412.519 187.134 411.411 185.056 410.642 182.943C409.681 180.384 408.969 177.494 406.779 175.85C405.992 175.26 405.041 174.874 404.271 174.284C402.533 172.957 401.664 170.766 401.038 168.666C400.235 166.02 399.6 163.3 398.431 160.801C397.262 158.303 395.429 155.977 392.9 154.836C390.536 153.774 387.807 153.843 385.36 152.98C381.145 151.496 378.03 147.961 373.845 146.295C372.505 145.731 371.235 145.015 370.06 144.16C368.001 142.742 367.453 141.939 367.149 139.436C366.714 135.679 362.89 132.404 363.486 128.864C363.389 129.056 363.303 129.253 363.229 129.454C361.926 133.272 366.271 136.729 366.706 140.733C366.988 143.236 367.575 144.039 369.617 145.457C370.792 146.312 372.062 147.028 373.402 147.592C377.586 149.258 380.702 152.798 384.917 154.277C387.364 155.144 390.092 155.071 392.456 156.134C394.985 157.274 396.802 159.604 397.988 162.098C399.174 164.593 399.809 167.304 400.595 169.963C401.234 172.063 402.073 174.254 403.828 175.581C404.615 176.171 405.566 176.557 406.335 177.147C408.508 178.792 409.238 181.681 410.198 184.24C410.989 186.344 412.097 188.427 413.918 189.745C415.739 191.064 418.411 191.42 420.215 190.079C421.366 189.212 421.953 187.889 422.339 186.47C421.996 187.385 421.406 188.188 420.636 188.791Z" fill="black"/>
<path opacity="0.1" d="M429.565 175.781C429.399 176.092 429.326 176.445 429.356 176.796C430.338 175.829 432.555 176.397 433.328 175.152C433.508 174.844 433.578 174.485 433.528 174.132C432.52 175.087 430.304 174.519 429.565 175.781Z" fill="black"/>
<path opacity="0.1" d="M423.182 183.199C423.099 183.633 423.016 184.097 422.912 184.548C425.571 185.377 428.644 183.247 429.078 180.557C428.022 182.627 425.415 184.01 423.182 183.199Z" fill="black"/>
</g>
<path d="M372.29 142.902C372.29 142.902 373.737 145.817 369.466 145.878C365.194 145.939 372.217 164.81 372.217 164.81L379.317 173.833L388.151 169.061L388.66 155.899L389.311 147.948C389.311 147.948 381.055 145.271 382.576 141.731C384.097 138.191 372.29 142.902 372.29 142.902Z" fill="#946B72"/>
<path d="M397.932 219.843C397.932 219.843 403.146 224.967 409.23 218.169L404.558 213.219H398.649L397.932 219.843Z" fill="#575A89"/>
<path opacity="0.1" d="M398.496 213.219L397.779 219.843C397.779 219.843 402.994 224.967 409.077 218.169" fill="black"/>
<path d="M407.271 214.121C407.271 214.121 409.37 219.618 410.891 221.279C412.412 222.941 414.801 234.437 411.616 233.135C408.431 231.834 402.348 222.147 401.983 220.485C401.618 218.824 401.479 214.121 401.479 214.121H407.271Z" fill="#946B72"/>
<path d="M361.717 242.319L389.814 243.404L386.555 231.543L372.402 231.257L361.717 242.319Z" fill="#575A89"/>
<path opacity="0.1" d="M365.625 242.319L393.727 243.404L390.468 231.543L376.31 231.257L365.625 242.319Z" fill="black"/>
<path d="M370.912 261.897C370.247 263.133 370.504 267.411 370.803 270.573C370.995 272.586 371.203 274.135 371.203 274.135C371.203 274.135 360.7 277.389 359.11 274.569C358.706 273.853 358.506 272.599 358.436 271.129C358.219 266.791 359.11 260.539 359.11 260.539C359.11 260.539 358.675 250.926 358.458 249.985C358.371 249.607 358.236 248.41 358.106 247.113C357.915 245.187 357.732 243.044 357.732 243.044L372.072 235.452C372.072 235.452 372.072 236.875 372.046 239.066C371.968 245.946 371.738 260.379 370.912 261.897Z" fill="#946B72"/>
<path opacity="0.1" d="M371.204 274.135C371.204 274.135 360.701 277.389 359.111 274.569C358.707 273.853 358.507 272.599 358.438 271.129C360.61 270.799 367.224 269.888 370.804 270.573C370.996 272.586 371.204 274.135 371.204 274.135Z" fill="black"/>
<path d="M371.565 328.795H371.4C370.135 328.843 362.948 328.795 362.948 328.795C362.843 328.686 362.744 328.57 362.652 328.448C362.017 327.654 361.598 326.71 361.434 325.707C361.27 324.704 361.368 323.676 361.718 322.722C363.022 319.178 363.165 312.671 363.165 312.671C363.165 312.671 363.674 311.009 363.239 310.068C362.805 309.126 363.091 307.682 363.091 307.682C363.025 307.11 362.878 306.551 362.657 306.02C362.296 305.153 362.731 303.56 362.731 303.56C362.681 302.018 362.437 300.487 362.005 299.005C361.353 297.127 356.573 274.786 357.733 272.109C357.733 272.109 367.871 270.374 371.713 271.675L371.204 289.028C371.204 289.028 369.392 294.234 370.913 295.609C372.434 296.984 370.987 301.248 370.987 301.248C370.987 301.248 370.77 302.042 372.073 304.719C373.377 307.395 372.073 308.623 372.073 308.623V313.755C372.073 313.755 371.061 317.226 372.217 320.045C373.372 322.865 372.073 328.704 371.565 328.795Z" fill="#3F3D56"/>
<path d="M391.463 261.897C390.798 263.133 391.054 267.411 391.354 270.573C391.545 272.586 391.754 274.135 391.754 274.135C391.754 274.135 381.251 277.389 379.661 274.569C379.257 273.853 379.057 272.599 378.987 271.129C378.77 266.791 379.661 260.539 379.661 260.539C379.661 260.539 379.226 250.926 379.009 249.985C378.892 249.477 378.687 244.636 378.527 240.293C378.392 236.588 378.283 233.239 378.283 233.239L392.623 235.452C392.623 235.452 392.623 241.747 392.445 248.215C392.288 254.488 391.997 260.917 391.463 261.897Z" fill="#946B72"/>
<path opacity="0.1" d="M391.753 274.135C391.753 274.135 381.25 277.389 379.66 274.569C379.256 273.853 379.056 272.599 378.986 271.129C381.159 270.799 387.773 269.888 391.353 270.573C391.544 272.586 391.753 274.135 391.753 274.135Z" fill="black"/>
<path d="M392.113 328.795H391.948C390.683 328.843 383.496 328.795 383.496 328.795C383.391 328.686 383.292 328.57 383.201 328.448C382.565 327.654 382.146 326.71 381.982 325.707C381.819 324.704 381.916 323.676 382.266 322.722C383.57 319.16 383.7 312.653 383.7 312.653C383.7 312.653 384.209 310.992 383.774 310.05C383.34 309.109 383.626 307.664 383.626 307.664C383.56 307.093 383.414 306.534 383.192 306.003C382.831 305.135 383.266 303.543 383.266 303.543C383.216 302 382.972 300.47 382.54 298.988C381.888 297.11 377.108 274.768 378.269 272.092C378.269 272.092 388.406 270.356 392.248 271.658L391.739 289.01C391.739 289.01 389.927 294.216 391.448 295.591C392.969 296.967 391.522 301.231 391.522 301.231C391.522 301.231 391.305 302.025 392.608 304.701C393.912 307.378 392.608 308.606 392.608 308.606V313.738C392.608 313.738 391.596 317.208 392.752 320.028C393.908 322.848 392.621 328.704 392.113 328.795Z" fill="#3F3D56"/>
<path opacity="0.1" d="M377.938 146.312C383.578 146.312 388.15 141.748 388.15 136.117C388.15 130.487 383.578 125.923 377.938 125.923C372.298 125.923 367.727 130.487 367.727 136.117C367.727 141.748 372.298 146.312 377.938 146.312Z" fill="black"/>
<path d="M377.938 145.878C383.578 145.878 388.15 141.314 388.15 135.684C388.15 130.053 383.578 125.489 377.938 125.489C372.298 125.489 367.727 130.053 367.727 135.684C367.727 141.314 372.298 145.878 377.938 145.878Z" fill="#946B72"/>
<path opacity="0.1" d="M357.732 243.044L372.072 235.452C372.072 235.452 372.072 236.875 372.046 239.066C369.952 240.315 366.793 242.193 363.755 243.968C362.104 244.935 360.492 245.872 359.11 246.657C358.789 246.831 358.453 246.976 358.106 247.091C357.915 245.187 357.732 243.044 357.732 243.044Z" fill="black"/>
<path opacity="0.1" d="M392.621 235.435C392.621 235.435 392.621 241.729 392.443 248.197H392.391C391.319 248.235 390.247 248.202 389.18 248.098C387.307 247.898 385.808 247.403 385.269 246.423C384.178 244.514 381.123 242.085 378.542 240.276C378.407 236.571 378.299 233.222 378.299 233.222L392.621 235.435Z" fill="black"/>
<path d="M389.955 180.301C389.591 183.125 389.521 185.979 389.746 188.817C396.334 194.24 395.104 205.662 395.104 205.662C395.104 205.662 400.175 228.802 399.089 230.897C398.002 232.992 401.548 245.863 401.548 245.863C398.526 246.435 395.466 246.786 392.393 246.913C391.321 246.951 390.248 246.918 389.181 246.813C387.309 246.614 385.809 246.119 385.271 245.139C383.246 241.599 374.481 236.319 374.481 236.319C374.481 236.319 368.928 239.642 363.757 242.666C362.105 243.634 360.493 244.571 359.111 245.356C357.99 245.95 356.751 246.289 355.483 246.349C349.334 246.805 341.143 242.961 342.447 241.599C344.042 239.933 351.937 210.725 351.937 210.725C351.937 210.725 355.917 192.648 359.394 190.118C360.003 189.659 360.458 189.025 360.697 188.301C361.888 184.999 359.898 179.707 359.898 179.707C359.898 179.707 348.674 165.899 349.178 165.1C349.682 164.302 349.686 160.042 349.686 160.042C349.686 160.042 351.064 153.318 351.859 150.065C352.654 146.811 358.377 146.013 360.041 146.303C361.706 146.594 365.469 147.605 367.059 146.303C368.649 145.002 371.335 146.811 371.335 146.811L377.931 148.624L383.863 145.154C383.863 145.154 389.807 145.457 390.316 146.251C390.824 147.045 398.646 148.568 398.646 148.568C402.626 151.24 402.483 163.968 402.483 163.968C402.483 163.968 392.923 172.28 390.967 176.549C390.461 177.748 390.12 179.01 389.955 180.301Z" fill="#575A89"/>
<path d="M400.317 162.207L402.49 163.942L404.736 184.114L406.979 204.361C406.979 204.361 407.848 206.386 408.573 206.17C409.299 205.953 409.225 218.169 409.225 218.169C409.225 218.169 400.908 213.063 397.927 219.843L395.607 203.493C395.607 203.493 392.635 186.791 392.708 185.49C392.782 184.188 391.188 170.089 391.188 170.089L400.317 162.207Z" fill="#575A89"/>
<path d="M350.782 163.148L349.187 165.1C349.187 165.1 349.335 173.486 348.101 175.512C346.866 177.538 351.507 189.394 353.245 188.67C354.984 187.945 358.894 169.439 358.894 169.222C358.894 169.005 350.782 163.148 350.782 163.148Z" fill="#575A89"/>
<path d="M350.637 175.078C350.637 175.078 345.566 180.21 345.927 182.67C346.287 185.13 351.141 192.856 358.094 188.704C358.094 188.704 364.542 176.596 350.637 175.078Z" fill="#575A89"/>
<path opacity="0.1" d="M371.4 328.808C370.135 328.856 362.948 328.808 362.948 328.808C362.843 328.698 362.744 328.583 362.652 328.461C364.49 327.837 368.462 326.9 371.4 328.808Z" fill="black"/>
<path opacity="0.1" d="M391.956 328.808C390.692 328.856 383.504 328.808 383.504 328.808C383.399 328.698 383.301 328.583 383.209 328.461C385.038 327.837 389.01 326.9 391.956 328.808Z" fill="black"/>
<path opacity="0.1" d="M364.269 201.645C363.161 212.256 363.526 233.313 363.756 242.666C362.105 243.634 360.493 244.571 359.111 245.356C357.99 245.95 356.751 246.289 355.483 246.349C355.022 243.521 361.401 214.468 364.269 201.645Z" fill="black"/>
<path opacity="0.1" d="M365.625 195.624C365.595 195.775 365.069 198.083 364.27 201.645C364.582 198.604 365.017 196.422 365.625 195.624Z" fill="black"/>
<path opacity="0.1" d="M383.265 194.478C383.265 194.478 389.423 233.088 371.189 237.86C371.185 237.842 383.804 235.929 383.265 194.478Z" fill="black"/>
<path opacity="0.1" d="M392.392 246.913C391.32 246.951 390.248 246.918 389.181 246.813L384.262 194.023C387.399 196.07 391.153 233.534 392.392 246.913Z" fill="black"/>
<path opacity="0.1" d="M370.335 129.688C370.661 129.662 370.99 129.696 371.304 129.788C371.765 130.018 372.18 130.329 372.529 130.708C373.096 131.181 373.774 131.502 374.498 131.643C375.223 131.783 375.972 131.737 376.675 131.51C377.17 131.289 377.696 131.143 378.235 131.077C379.065 131.077 379.782 131.684 380.212 132.378C380.642 133.072 380.864 133.896 381.233 134.638C381.603 135.38 382.194 136.083 383.006 136.265C383.396 136.28 383.779 136.368 384.136 136.525C384.355 136.703 384.523 136.935 384.623 137.198C385.3 138.66 385.839 140.386 387.286 141.102C387.819 141.348 388.399 141.474 388.985 141.471C389.582 141.514 390.18 141.407 390.723 141.158C391.258 140.86 391.7 140.42 392.001 139.887C392.905 138.395 393.009 136.547 392.796 134.816C392.531 132.632 391.752 130.542 390.524 128.717C389.229 126.87 387.467 125.399 385.418 124.455C383.368 123.511 381.103 123.126 378.856 123.342C378.072 123.43 377.295 123.575 376.531 123.775C373.768 124.513 371.056 125.892 369.379 128.205C368.973 128.782 368.528 129.33 368.045 129.845C368.805 129.771 369.57 129.706 370.335 129.688Z" fill="black"/>
<path d="M370.335 129.255C370.661 129.229 370.99 129.262 371.304 129.354C371.765 129.584 372.18 129.895 372.529 130.274C373.096 130.747 373.774 131.068 374.498 131.209C375.223 131.349 375.972 131.304 376.675 131.077C377.17 130.855 377.696 130.709 378.235 130.643C379.065 130.643 379.782 131.25 380.212 131.944C380.642 132.638 380.864 133.462 381.233 134.204C381.603 134.946 382.194 135.649 383.006 135.831C383.396 135.846 383.779 135.935 384.136 136.091C384.355 136.269 384.523 136.501 384.623 136.764C385.3 138.226 385.839 139.952 387.286 140.668C387.819 140.914 388.399 141.04 388.985 141.037C389.582 141.081 390.18 140.973 390.723 140.725C391.258 140.426 391.7 139.986 392.001 139.453C392.905 137.961 393.009 136.113 392.796 134.382C392.531 132.199 391.752 130.109 390.524 128.283C389.229 126.436 387.467 124.966 385.418 124.021C383.368 123.077 381.103 122.693 378.856 122.908C378.072 122.996 377.295 123.141 376.531 123.342C373.768 124.079 371.056 125.459 369.379 127.771C368.973 128.348 368.528 128.896 368.045 129.411C368.805 129.337 369.57 129.272 370.335 129.255Z" fill="#3F3D56"/>
<path opacity="0.1" d="M359.254 153.531C359.254 153.531 359.763 157.582 358.024 158.593C356.286 159.604 359.254 153.531 359.254 153.531Z" fill="black"/>
<path opacity="0.1" d="M396.115 184.913C396.115 184.913 400.243 178.839 400.826 180.575C401.408 182.31 396.115 184.913 396.115 184.913Z" fill="black"/>
<path opacity="0.1" d="M396.406 186.934C396.406 186.934 400.478 181.945 400.869 183.898C401.26 185.85 396.406 186.934 396.406 186.934Z" fill="black"/>
<path opacity="0.1" d="M384.449 180.995C382.972 181.016 381.531 180.543 380.356 179.651H379.999C378.78 180.763 377.179 181.364 375.528 181.329C374.669 181.349 373.816 181.195 373.019 180.876C372.222 180.557 371.498 180.079 370.891 179.473H370.418C369.167 180.49 367.595 181.032 365.982 181.002C364.369 180.973 362.818 180.374 361.605 179.312L359.906 179.282C359.906 179.282 361.896 184.574 360.706 187.876L389.746 188.392C389.521 185.554 389.591 182.7 389.955 179.876V179.837L388.36 179.807C387.213 180.601 385.845 181.017 384.449 180.995Z" fill="black"/>
<path opacity="0.1" d="M384.449 181.863C382.972 181.884 381.531 181.41 380.356 180.518H379.999C378.78 181.63 377.179 182.231 375.528 182.197C374.669 182.217 373.816 182.063 373.019 181.743C372.222 181.424 371.498 180.947 370.891 180.34H370.418C369.167 181.358 367.595 181.899 365.982 181.87C364.369 181.841 362.818 181.242 361.605 180.18L359.906 180.149C359.906 180.149 361.896 185.442 360.706 188.743L389.746 189.259C389.521 186.421 389.591 183.568 389.955 180.744V180.705L388.36 180.674C387.213 181.469 385.845 181.884 384.449 181.863Z" fill="black"/>
<path d="M384.449 181.429C382.972 181.45 381.531 180.977 380.356 180.084H379.999C378.78 181.196 377.179 181.797 375.528 181.763C374.669 181.783 373.816 181.629 373.019 181.31C372.222 180.99 371.498 180.513 370.891 179.906H370.418C369.167 180.924 367.595 181.466 365.982 181.436C364.369 181.407 362.818 180.808 361.605 179.746L359.906 179.716C359.906 179.716 361.896 185.008 360.706 188.309L389.746 188.826C389.521 185.988 389.591 183.134 389.955 180.31V180.271L388.36 180.241C387.213 181.035 385.845 181.451 384.449 181.429Z" fill="#3F3D56"/>
<path opacity="0.1" d="M383.158 152.503C383.158 152.503 389.272 152.893 389.311 153.761C389.35 154.628 383.158 152.503 383.158 152.503Z" fill="black"/>
<path opacity="0.1" d="M368.306 148.802C368.306 148.802 362.192 149.193 362.153 150.06C362.113 150.928 368.306 148.802 368.306 148.802Z" fill="black"/>
<path opacity="0.1" d="M391.671 166.541C391.61 166.497 391.549 166.463 391.488 166.424C393.052 167.829 392.792 170.901 390.871 173.434C388.95 175.967 386.035 177.022 384.262 175.885C384.318 175.933 384.366 175.985 384.427 176.033C386.165 177.36 389.207 176.319 391.214 173.699C393.222 171.078 393.417 167.873 391.671 166.541Z" fill="black"/>
<path opacity="0.1" d="M358.084 173.109C356.537 170.324 356.737 167.248 358.488 166.081C358.423 166.111 358.354 166.137 358.288 166.172C356.368 167.239 356.116 170.436 357.706 173.317C359.297 176.197 362.164 177.655 364.085 176.605C364.149 176.569 364.21 176.528 364.268 176.484C362.351 177.351 359.631 175.894 358.084 173.109Z" fill="black"/>
<path opacity="0.1" d="M360.152 149.622L359.592 150.49L358.162 149.73L358.914 148.577C359.411 148.811 359.838 149.172 360.152 149.622Z" fill="black"/>
<path d="M351.072 181.729C351.072 181.729 352.345 175.751 350.637 173.85C348.929 171.95 349.477 161.99 352.084 162.207C354.691 162.424 358.602 170.302 357.95 171.968C357.298 173.634 354.835 182.162 354.835 182.162L351.072 181.729Z" fill="#FBBEBE"/>
<path opacity="0.1" d="M391.958 138.599C391.658 139.132 391.216 139.572 390.681 139.87C390.137 140.119 389.539 140.226 388.942 140.182C388.356 140.186 387.776 140.06 387.243 139.814C385.796 139.093 385.258 137.367 384.58 135.909C384.494 135.646 384.341 135.41 384.136 135.224C383.785 135.064 383.406 134.971 383.02 134.95C382.207 134.768 381.621 134.061 381.247 133.324C380.873 132.586 380.652 131.771 380.226 131.064C379.8 130.356 379.078 129.736 378.249 129.762C377.708 129.834 377.182 129.987 376.689 130.218C375.985 130.443 375.237 130.487 374.512 130.346C373.787 130.205 373.11 129.883 372.543 129.411C372.194 129.032 371.779 128.72 371.318 128.491C371.003 128.399 370.675 128.365 370.349 128.391C369.849 128.391 369.354 128.439 368.854 128.478C368.606 128.802 368.341 129.112 368.059 129.406C368.819 129.341 369.584 129.276 370.349 129.259C370.675 129.233 371.003 129.267 371.318 129.359C371.779 129.588 372.194 129.9 372.543 130.278C373.11 130.751 373.787 131.072 374.512 131.214C375.237 131.355 375.985 131.31 376.689 131.085C377.182 130.855 377.708 130.701 378.249 130.63C379.078 130.63 379.795 131.237 380.226 131.931C380.656 132.625 380.877 133.449 381.247 134.191C381.616 134.933 382.207 135.636 383.02 135.818C383.406 135.839 383.785 135.932 384.136 136.091C384.355 136.269 384.523 136.501 384.623 136.764C385.301 138.226 385.84 139.952 387.287 140.668C387.819 140.914 388.399 141.04 388.986 141.037C389.582 141.081 390.18 140.973 390.724 140.725C391.259 140.426 391.701 139.986 392.002 139.453C392.676 138.227 392.978 136.831 392.871 135.436C392.838 136.55 392.524 137.638 391.958 138.599Z" fill="black"/>
<path d="M352.997 186.47C355.157 186.47 356.908 185.285 356.908 183.824C356.908 182.362 355.157 181.178 352.997 181.178C350.837 181.178 349.086 182.362 349.086 183.824C349.086 185.285 350.837 186.47 352.997 186.47Z" fill="#575A89"/>
<path d="M225.522 331.125C299.558 331.125 359.576 271.207 359.576 197.294C359.576 123.381 299.558 63.4625 225.522 63.4625C151.485 63.4625 91.4668 123.381 91.4668 197.294C91.4668 271.207 151.485 331.125 225.522 331.125Z" fill="#2EC4B6"/>
<path d="M295.859 264.548C295.859 285.674 262.591 266.352 226.924 266.352C191.257 266.352 155.182 284.876 155.182 263.749C155.182 251.703 166.68 234.949 183.175 222.78C195.602 213.609 210.863 207.042 226.194 207.042C241.959 207.042 257.402 214.152 269.721 223.912C285.269 236.22 295.859 252.757 295.859 264.548Z" fill="#444053"/>
<path d="M269.718 223.904C250.759 221.054 216.47 217.579 183.176 222.772C195.604 213.601 210.865 207.033 226.195 207.033C241.956 207.033 257.399 214.143 269.718 223.904Z" fill="#F6F8FB"/>
<path opacity="0.05" d="M155.182 102.822C155.182 102.822 114.801 128.595 115.131 168.909C115.461 209.224 155.182 102.822 155.182 102.822Z" fill="black"/>
<path opacity="0.1" d="M466.298 316.688C472.761 316.688 478 315.804 478 314.714C478 313.624 472.761 312.74 466.298 312.74C459.835 312.74 454.596 313.624 454.596 314.714C454.596 315.804 459.835 316.688 466.298 316.688Z" fill="#2EC4B6"/>
<path opacity="0.1" d="M20.3232 349.523C26.7861 349.523 32.0253 348.639 32.0253 347.549C32.0253 346.459 26.7861 345.575 20.3232 345.575C13.8603 345.575 8.62109 346.459 8.62109 347.549C8.62109 348.639 13.8603 349.523 20.3232 349.523Z" fill="#2EC4B6"/>
<path opacity="0.1" d="M88.2548 352C94.7177 352 99.9569 351.116 99.9569 350.026C99.9569 348.936 94.7177 348.052 88.2548 348.052C81.7919 348.052 76.5527 348.936 76.5527 350.026C76.5527 351.116 81.7919 352 88.2548 352Z" fill="#2EC4B6"/>
<path d="M440.686 338.816C450.336 338.816 458.158 337.496 458.158 335.867C458.158 334.237 450.336 332.917 440.686 332.917C431.036 332.917 423.213 334.237 423.213 335.867C423.213 337.496 431.036 338.816 440.686 338.816Z" fill="#2EC4B6"/>
<path d="M447.908 331.047C448.705 330.397 449.287 329.521 449.577 328.535C449.789 327.542 449.364 326.344 448.412 325.98C447.343 325.572 446.2 326.314 445.335 327.06C444.471 327.806 443.476 328.657 442.342 328.5C442.925 327.973 443.361 327.304 443.608 326.558C443.855 325.812 443.903 325.015 443.749 324.245C443.7 323.925 443.565 323.626 443.358 323.377C442.763 322.744 441.69 323.013 440.977 323.512C438.718 325.099 438.087 328.162 438.074 330.921C437.848 329.928 438.04 328.891 438.035 327.884C438.031 326.878 437.748 325.715 436.888 325.182C436.354 324.897 435.755 324.756 435.15 324.774C434.133 324.735 433.003 324.835 432.308 325.576C431.439 326.501 431.669 328.045 432.421 329.047C433.173 330.049 434.311 330.7 435.359 331.398C436.201 331.899 436.92 332.582 437.462 333.398C437.525 333.513 437.577 333.634 437.618 333.758H443.984C445.409 333.035 446.728 332.123 447.908 331.047Z" fill="#2EC4B6"/>
<path d="M25.7851 294.672C25.7851 294.672 28.1707 297.786 24.6813 302.48C21.192 307.174 18.3154 311.157 19.4669 314.089C19.4669 314.089 24.7291 305.352 29.0267 305.226C33.3243 305.101 30.4954 299.925 25.7851 294.672Z" fill="#2EC4B6"/>
<path opacity="0.1" d="M25.7851 294.672C25.9923 294.973 26.1561 295.301 26.2718 295.648C30.452 300.55 32.6769 305.127 28.6617 305.239C24.916 305.348 20.4055 312.029 19.3496 313.716C19.3865 313.847 19.43 313.976 19.48 314.102C19.48 314.102 24.7422 305.365 29.0398 305.239C33.3374 305.114 30.4955 299.925 25.7851 294.672Z" fill="black"/>
<path d="M30.2218 298.641C30.2218 299.739 30.0958 300.628 29.9437 300.628C29.7916 300.628 29.6699 299.76 29.6699 298.641C29.6699 297.522 29.822 298.06 29.9784 298.06C30.1349 298.06 30.2218 297.543 30.2218 298.641Z" fill="#FFD037"/>
<path d="M31.7261 299.951C30.7615 300.476 29.9228 300.793 29.8489 300.658C29.7751 300.524 30.5007 299.995 31.4654 299.47C32.4301 298.945 32.0477 299.326 32.1216 299.47C32.1954 299.613 32.7082 299.426 31.7261 299.951Z" fill="#FFD037"/>
<path d="M13.1751 294.672C13.1751 294.672 10.7895 297.786 14.2745 302.48C17.7595 307.174 20.6404 311.157 19.4889 314.089C19.4889 314.089 14.2223 305.352 9.92909 305.226C5.63586 305.101 8.46036 299.925 13.1751 294.672Z" fill="#2EC4B6"/>
<path opacity="0.1" d="M13.1755 294.672C12.9665 294.972 12.8025 295.3 12.6888 295.648C8.5086 300.55 6.27942 305.127 10.2989 305.239C14.0403 305.348 18.5551 312.029 19.6067 313.716C19.5712 313.847 19.5292 313.976 19.4807 314.102C19.4807 314.102 14.2141 305.365 9.92084 305.239C5.62761 305.114 8.4608 299.925 13.1755 294.672Z" fill="black"/>
<path d="M8.73828 298.641C8.73828 299.739 8.85995 300.628 9.01204 300.628C9.16413 300.628 9.2858 299.76 9.2858 298.641C9.2858 297.522 9.13371 298.06 8.98162 298.06C8.82954 298.06 8.73828 297.543 8.73828 298.641Z" fill="#FFD037"/>
<path d="M7.21339 299.951C8.17807 300.476 9.02107 300.793 9.09494 300.658C9.16881 300.524 8.44313 299.995 7.47846 299.47C6.51379 298.945 6.89184 299.326 6.82231 299.47C6.75279 299.613 6.24872 299.426 7.21339 299.951Z" fill="#FFD037"/>
<path d="M9.5 313.694C9.5 313.694 16.1745 313.49 18.1908 312.059C20.207 310.627 28.4589 308.922 28.9586 311.191C29.4583 313.46 38.9877 322.601 31.4528 322.661C23.918 322.722 13.9453 321.486 11.9378 320.267C9.93019 319.048 9.5 313.694 9.5 313.694Z" fill="#A8A8A8"/>
<path opacity="0.2" d="M31.5789 321.885C24.044 321.945 14.0713 320.709 12.0638 319.49C10.5342 318.562 9.92585 315.226 9.72162 313.686H9.5C9.5 313.686 9.93454 319.061 11.9291 320.28C13.9236 321.499 23.9093 322.735 31.4441 322.674C33.6168 322.674 34.3686 321.88 34.3295 320.739C34.0253 321.438 33.1997 321.872 31.5789 321.885Z" fill="black"/>
<path d="M177.861 179.746C180.412 179.603 192.418 178.7 200.044 174.358C201.269 173.639 202.653 173.232 204.073 173.174C206.497 173.104 209.287 174.115 207.501 179.772C204.607 189.025 187.804 199.437 177.375 198.86C167.346 198.304 155.448 194.27 147.591 180.084C146.839 178.72 146.468 177.178 146.518 175.62C146.609 172.757 147.652 169.17 153.036 173.169C160.31 178.57 174.111 179.594 176.879 179.746C177.206 179.763 177.534 179.763 177.861 179.746Z" fill="#444053"/>
<path d="M274.328 179.746C276.879 179.603 288.885 178.7 296.511 174.358C297.736 173.639 299.12 173.232 300.54 173.174C302.964 173.104 305.754 174.115 303.968 179.772C301.074 189.025 284.27 199.437 273.841 198.86C263.812 198.304 251.915 194.27 244.058 180.084C243.306 178.72 242.935 177.178 242.985 175.62C243.076 172.757 244.119 169.17 249.503 173.169C256.777 178.57 270.578 179.594 273.346 179.746C273.673 179.763 274.001 179.763 274.328 179.746Z" fill="#444053"/>
</g>
<defs>
<linearGradient id="paint0_linear" x1="387.668" y1="328.826" x2="387.668" y2="114.505" gradientUnits="userSpaceOnUse">
<stop stop-color="#808080" stop-opacity="0.25"/>
<stop offset="0.54" stop-color="#808080" stop-opacity="0.12"/>
<stop offset="1" stop-color="#808080" stop-opacity="0.1"/>
</linearGradient>
<clipPath id="clip0">
<rect width="478" height="352" fill="white"/>
</clipPath>
</defs>
</svg>
