<svg width="80" height="76" viewBox="0 0 80 76" fill="none" xmlns="http://www.w3.org/2000/svg">
<path d="M73.0757 75.9029H6.9241C4.42604 75.9029 2.18668 74.6125 0.933975 72.4513C-0.293093 70.334 -0.311851 67.8368 0.882391 65.5991L33.9585 3.64046C35.1429 1.42173 37.4015 0.0971222 39.9999 0.0971222C42.5985 0.0971222 44.8569 1.42173 46.0415 3.64046L79.1174 65.599C80.312 67.8364 80.2931 70.3342 79.0659 72.4513C77.8133 74.6125 75.5741 75.9029 73.0757 75.9029Z" fill="#FF4C04"/>
<path d="M79.1175 65.599L46.0416 3.64046C44.857 1.42173 42.5986 0.0971222 40 0.0971222V75.9029H73.076C75.5742 75.9029 77.8136 74.6125 79.066 72.4513C80.293 70.3342 80.312 67.8364 79.1175 65.599Z" fill="#E10000"/>
<path d="M40.0001 65.7454C36.5525 65.7454 33.7476 62.9407 33.7476 59.493C33.7476 56.0453 36.5525 53.2404 40.0001 53.2404C43.4478 53.2404 46.2527 56.0453 46.2527 59.493C46.2527 62.9407 43.4478 65.7454 40.0001 65.7454Z" fill="#FFF3F3"/>
<path d="M40.0003 46.9879C36.5525 46.9879 33.7476 44.183 33.7476 40.7353V27.2141C33.7476 23.7664 36.5525 20.9615 40.0001 20.9615C43.4478 20.9615 46.2527 23.7664 46.2527 27.2141V40.7353C46.2527 44.183 43.448 46.9879 40.0003 46.9879Z" fill="#FFF3F3"/>
<path d="M40.0002 20.9615H40V46.9879H40.0003C43.448 46.9879 46.2527 44.183 46.2527 40.7353V27.2141C46.2527 23.7666 43.4478 20.9615 40.0002 20.9615Z" fill="#DAD0CB"/>
<path d="M40.0002 53.2404H40V65.7454H40.0002C43.4478 65.7454 46.2527 62.9407 46.2527 59.493C46.2527 56.0453 43.4478 53.2404 40.0002 53.2404Z" fill="#DAD0CB"/>
</svg>
