<svg width="15" height="14" viewBox="0 0 15 14" fill="none" xmlns="http://www.w3.org/2000/svg">
<path d="M7.33464 0.333328C6.0161 0.333328 4.72716 0.724321 3.63084 1.45686C2.53451 2.18941 1.68003 3.2306 1.17544 4.44877C0.670857 5.66695 0.538835 7.00739 0.79607 8.3006C1.0533 9.5938 1.68824 10.7817 2.62059 11.714C3.55294 12.6464 4.74083 13.2813 6.03404 13.5386C7.32724 13.7958 8.66769 13.6638 9.88586 13.1592C11.104 12.6546 12.1452 11.8001 12.8778 10.7038C13.6103 9.60747 14.0013 8.31854 14.0013 6.99999C14.0013 6.12452 13.8289 5.25761 13.4938 4.44877C13.1588 3.63993 12.6677 2.90501 12.0487 2.28595C11.4296 1.66689 10.6947 1.17583 9.88586 0.840798C9.07702 0.505767 8.21012 0.333328 7.33464 0.333328ZM7.33464 12.3333C6.2798 12.3333 5.24866 12.0205 4.3716 11.4345C3.49453 10.8485 2.81095 10.0155 2.40728 9.04097C2.00361 8.06643 1.898 6.99408 2.10378 5.95951C2.30957 4.92495 2.81752 3.97464 3.5634 3.22876C4.30928 2.48288 5.25959 1.97493 6.29416 1.76914C7.32872 1.56335 8.40108 1.66897 9.37562 2.07264C10.3502 2.4763 11.1831 3.15989 11.7691 4.03695C12.3552 4.91402 12.668 5.94516 12.668 6.99999C12.668 8.41448 12.1061 9.77104 11.1059 10.7712C10.1057 11.7714 8.74913 12.3333 7.33464 12.3333ZM7.33464 2.99999C7.15783 2.99999 6.98826 3.07023 6.86323 3.19526C6.73821 3.32028 6.66797 3.48985 6.66797 3.66666V6.95333L5.75464 8.53333C5.66623 8.68715 5.64255 8.8698 5.68881 9.04108C5.73507 9.21236 5.84748 9.35826 6.00131 9.44666C6.15513 9.53507 6.33777 9.55874 6.50906 9.51248C6.68034 9.46623 6.82623 9.35382 6.91464 9.19999L7.91464 7.46666C7.97878 7.34615 8.00438 7.20885 7.98797 7.07333L8.0013 6.99999V3.66666C8.0013 3.48985 7.93107 3.32028 7.80604 3.19526C7.68102 3.07023 7.51145 2.99999 7.33464 2.99999Z" fill="black"/>
</svg>
