<svg width="419" height="82" viewBox="0 0 419 82" fill="none" xmlns="http://www.w3.org/2000/svg">
<path d="M174.723 62.2439C184.349 62.2439 192.151 60.0146 192.151 57.2645C192.151 54.5145 184.349 52.2852 174.723 52.2852C165.098 52.2852 157.296 54.5145 157.296 57.2645C157.296 60.0146 165.098 62.2439 174.723 62.2439Z" fill="#F3F0F0"/>
<path d="M364.437 81.6633C374.062 81.6633 381.865 79.434 381.865 76.684C381.865 73.9339 374.062 71.7046 364.437 71.7046C354.812 71.7046 347.01 73.9339 347.01 76.684C347.01 79.434 354.812 81.6633 364.437 81.6633Z" fill="#F3F0F0"/>
<path d="M400.787 40.8325C410.412 40.8325 418.214 38.6032 418.214 35.8531C418.214 33.1031 410.412 30.8738 400.787 30.8738C391.162 30.8738 383.359 33.1031 383.359 35.8531C383.359 38.6032 391.162 40.8325 400.787 40.8325Z" fill="#F3F0F0"/>
<path d="M329.333 26.3922C336.62 26.3922 342.528 24.7043 342.528 22.6222C342.528 20.54 336.62 18.8521 329.333 18.8521C322.045 18.8521 316.137 20.54 316.137 22.6222C316.137 24.7043 322.045 26.3922 329.333 26.3922Z" fill="#F3F0F0"/>
<path d="M43.5171 22.8356C48.3297 22.8356 52.231 21.6254 52.231 20.1325C52.231 18.6397 48.3297 17.4294 43.5171 17.4294C38.7046 17.4294 34.8032 18.6397 34.8032 20.1325C34.8032 21.6254 38.7046 22.8356 43.5171 22.8356Z" fill="#F3F0F0"/>
<path d="M9.15945 53.2099C13.972 53.2099 17.8733 51.9997 17.8733 50.5068C17.8733 49.0139 13.972 47.8037 9.15945 47.8037C4.3469 47.8037 0.445557 49.0139 0.445557 50.5068C0.445557 51.9997 4.3469 53.2099 9.15945 53.2099Z" fill="#F3F0F0"/>
<path d="M9.15945 5.40787C13.972 5.40787 17.8733 4.19768 17.8733 2.7048C17.8733 1.21193 13.972 0.00170898 9.15945 0.00170898C4.3469 0.00170898 0.445557 1.21193 0.445557 2.7048C0.445557 4.19768 4.3469 5.40787 9.15945 5.40787Z" fill="#F3F0F0"/>
</svg>
