<svg width="513" height="281" viewBox="0 0 513 281" fill="none" xmlns="http://www.w3.org/2000/svg">
<path d="M68.9849 146.462H52.5673C51.99 146.462 51.4363 146.692 51.0281 147.101C50.6199 147.51 50.3906 148.064 50.3906 148.643V155.863C50.3906 156.441 50.6199 156.996 51.0281 157.405C51.4363 157.814 51.99 158.043 52.5673 158.043H55.2879V168.861H66.2643V158.043H68.9849C69.5622 158.043 70.1158 157.814 70.524 157.405C70.9322 156.996 71.1615 156.441 71.1615 155.863V148.643C71.1615 148.064 70.9322 147.51 70.524 147.101C70.1158 146.692 69.5622 146.462 68.9849 146.462Z" fill="#CEEE8F"/>
<path d="M85.4288 212.538C75.3742 197.797 70.234 180.247 70.7448 162.4C70.7539 161.988 70.6205 161.586 70.3672 161.261C70.114 160.937 69.7564 160.71 69.3553 160.62V157.5H52.0161V160.577H51.7772C51.5326 160.577 51.2908 160.628 51.0667 160.726C50.8426 160.824 50.6412 160.968 50.4749 161.147C50.3086 161.327 50.1811 161.539 50.1003 161.77C50.0195 162.002 49.9871 162.247 50.0052 162.491C51.3712 181.569 46.7585 198.678 36.1672 213.817C35.5577 214.687 35.2463 215.732 35.2798 216.794L37.1757 275.553C37.2213 276.864 37.7703 278.106 38.7082 279.021C39.6461 279.935 40.9004 280.452 42.2093 280.462H81.4279C82.7517 280.451 84.019 279.923 84.9598 278.99C85.9006 278.057 86.4405 276.793 86.4645 275.466L87.1951 218.417C87.2167 216.323 86.6006 214.272 85.4288 212.538Z" fill="#3F3D56"/>
<path opacity="0.2" d="M65.562 148.814C65.562 150.062 65.0672 151.259 64.1866 152.141C63.3059 153.024 62.1114 153.519 60.866 153.519C59.6205 153.519 58.426 153.024 57.5454 152.141C56.6647 151.259 56.1699 150.062 56.1699 148.814" fill="black"/>
<path d="M79.2207 232.056H74.4716C74.0182 229.108 72.5268 226.42 70.2673 224.479C68.0077 222.537 65.1292 221.47 62.1524 221.47C59.1756 221.47 56.2971 222.537 54.0375 224.479C51.778 226.42 50.2866 229.108 49.8332 232.056H45.0838C44.5785 232.056 44.0792 232.165 43.6201 232.377C43.1609 232.588 42.7529 232.896 42.4239 233.281C42.0948 233.665 41.8526 234.116 41.7139 234.603C41.5751 235.089 41.543 235.601 41.6199 236.101L46.7784 269.695H76.3996L82.6654 236.214C82.7603 235.707 82.7425 235.185 82.6132 234.686C82.484 234.186 82.2465 233.722 81.9176 233.325C81.5887 232.927 81.1766 232.608 80.7104 232.389C80.2443 232.169 79.7356 232.056 79.2207 232.056Z" fill="#CEEE8F"/>
<path d="M478.31 178.058L477.171 223.675L475.76 280.243H427.739L426.086 213.967L425.189 178.058H478.31Z" fill="#E6E6E6"/>
<path d="M454.937 153.789H448.138V244.052H454.937V153.789Z" fill="#CEEE8F"/>
<path d="M474.91 212.43L473.624 277.267H429.853L428.347 201.304C432.29 200.194 436.419 199.91 440.477 200.469C444.535 201.028 448.435 202.419 451.932 204.554C459.246 208.887 467.461 211.22 474.91 212.43Z" fill="#3F3D56"/>
<path d="M440.689 219.729H434.45V225.98H440.689V219.729Z" fill="#E6E6E6"/>
<path d="M444.939 206.956H438.7V213.207H444.939V206.956Z" fill="#E6E6E6"/>
<path d="M458.337 215.799L453.325 212.075L449.609 217.096L454.62 220.82L458.337 215.799Z" fill="#E6E6E6"/>
<path d="M469.609 226.874L464.598 223.151L460.881 228.172L465.892 231.895L469.609 226.874Z" fill="#E6E6E6"/>
<path d="M450.486 233.261L445.475 229.537L441.758 234.558L446.769 238.282L450.486 233.261Z" fill="#E6E6E6"/>
<path d="M465.136 204.456C465.84 204.456 466.411 203.884 466.411 203.178C466.411 202.473 465.84 201.901 465.136 201.901C464.432 201.901 463.861 202.473 463.861 203.178C463.861 203.884 464.432 204.456 465.136 204.456Z" fill="#3F3D56"/>
<path d="M439.213 195.94C439.917 195.94 440.488 195.368 440.488 194.663C440.488 193.957 439.917 193.386 439.213 193.386C438.509 193.386 437.938 193.957 437.938 194.663C437.938 195.368 438.509 195.94 439.213 195.94Z" fill="#3F3D56"/>
<path d="M460.886 186.999C461.59 186.999 462.161 186.427 462.161 185.722C462.161 185.016 461.59 184.444 460.886 184.444C460.182 184.444 459.611 185.016 459.611 185.722C459.611 186.427 460.182 186.999 460.886 186.999Z" fill="#3F3D56"/>
<path d="M256.794 279.853C333.927 279.853 396.456 217.206 396.456 139.927C396.456 62.6473 333.927 0 256.794 0C179.661 0 117.132 62.6473 117.132 139.927C117.132 217.206 179.661 279.853 256.794 279.853Z" fill="#CEEE8F"/>
<path opacity="0.2" d="M256.794 242.06C233.21 242.06 210.355 233.866 192.125 218.876C173.894 203.886 161.415 183.027 156.814 159.852C152.213 136.677 155.775 112.621 166.893 91.7822C178.01 70.9435 195.996 54.6116 217.785 45.5693C239.574 36.527 263.818 35.3338 286.386 42.1929C308.955 49.0521 328.451 63.5392 341.554 83.1859C354.657 102.833 360.555 126.423 358.243 149.938C355.931 173.453 345.553 195.438 328.877 212.146C319.432 221.659 308.199 229.202 295.826 234.337C283.453 239.471 270.186 242.096 256.794 242.06ZM256.794 44.0927C204.051 44.0927 161.141 87.0836 161.141 139.927C161.141 192.77 204.051 235.761 256.794 235.761C309.537 235.761 352.447 192.77 352.447 139.927C352.447 87.0836 309.537 44.0927 256.794 44.0927Z" fill="black"/>
<path d="M256.793 238.91C311.357 238.91 355.59 194.594 355.59 139.927C355.59 85.2596 311.357 40.9432 256.793 40.9432C202.23 40.9432 157.997 85.2596 157.997 139.927C157.997 194.594 202.23 238.91 256.793 238.91Z" fill="#3F3D56"/>
<path d="M183.321 100.347C182.571 98.877 182.119 97.2733 181.988 95.6276C181.858 93.982 182.053 92.3267 182.562 90.7566C183.07 89.1864 183.883 87.7321 184.953 86.4767C186.023 85.2214 187.33 84.1897 188.798 83.4406C190.266 82.6915 191.867 82.2396 193.51 82.1109C195.153 81.9822 196.805 82.1791 198.371 82.6904C199.938 83.2017 201.389 84.0174 202.64 85.0908C203.892 86.1641 204.921 87.4742 205.667 88.946L233.579 143.861C234.329 145.332 234.781 146.935 234.911 148.581C235.042 150.227 234.847 151.882 234.338 153.452C233.829 155.022 233.017 156.477 231.947 157.732C230.877 158.987 229.57 160.019 228.102 160.768C226.634 161.517 225.033 161.969 223.39 162.098C221.747 162.227 220.095 162.03 218.529 161.518C216.962 161.007 215.511 160.191 214.259 159.118C213.008 158.045 211.979 156.735 211.233 155.263L183.321 100.347Z" fill="#FF6584"/>
<path opacity="0.2" d="M186.434 106.472L185.146 103.938C191.575 98.9328 199.125 95.2519 207.492 92.5367L208.78 95.0712C199.724 96.9606 192.02 100.457 186.434 106.472Z" fill="black"/>
<path opacity="0.2" d="M192.446 118.3L191.157 115.766C197.587 110.761 205.136 107.08 213.503 104.365L214.792 106.899C205.736 108.788 198.032 112.285 192.446 118.3Z" fill="black"/>
<path opacity="0.2" d="M198.458 130.128L197.17 127.594C203.599 122.589 211.149 118.908 219.516 116.193L220.804 118.727C211.749 120.616 204.044 124.113 198.458 130.128Z" fill="black"/>
<path opacity="0.2" d="M204.47 141.956L203.182 139.422C209.611 134.417 217.161 130.736 225.528 128.02L226.816 130.555C217.76 132.444 210.056 135.941 204.47 141.956Z" fill="black"/>
<path opacity="0.2" d="M210.482 153.784L209.193 151.25C215.623 146.245 223.173 142.564 231.54 139.848L232.828 142.383C223.772 144.272 216.068 147.769 210.482 153.784Z" fill="black"/>
<path d="M162.381 120.906C161.631 119.435 161.179 117.832 161.049 116.186C160.919 114.541 161.114 112.885 161.622 111.315C162.131 109.745 162.944 108.291 164.014 107.036C165.084 105.781 166.39 104.749 167.858 104C169.327 103.251 170.928 102.799 172.57 102.67C174.213 102.542 175.865 102.739 177.431 103.25C178.998 103.761 180.448 104.576 181.7 105.65C182.952 106.723 183.98 108.033 184.727 109.504L212.639 164.42C214.144 167.388 214.411 170.834 213.382 173.999C212.353 177.165 210.111 179.792 207.15 181.303C204.189 182.814 200.75 183.085 197.589 182.057C194.428 181.029 191.804 178.786 190.293 175.821L162.381 120.906Z" fill="#FF6584"/>
<path opacity="0.2" d="M165.493 127.031L164.205 124.496C170.634 119.491 178.184 115.81 186.551 113.095L187.84 115.63C178.784 117.519 171.08 121.015 165.493 127.031Z" fill="black"/>
<path opacity="0.2" d="M171.505 138.859L170.217 136.324C176.646 131.319 184.196 127.638 192.563 124.923L193.851 127.457C184.796 129.347 177.091 132.843 171.505 138.859Z" fill="black"/>
<path opacity="0.2" d="M177.517 150.687L176.229 148.152C182.658 143.147 190.208 139.466 198.575 136.751L199.863 139.285C190.807 141.175 183.103 144.671 177.517 150.687Z" fill="black"/>
<path opacity="0.2" d="M183.529 162.515L182.241 159.98C188.671 154.975 196.22 151.294 204.587 148.579L205.876 151.113C196.82 153.003 189.116 156.499 183.529 162.515Z" fill="black"/>
<path opacity="0.2" d="M189.541 174.343L188.253 171.808C194.682 166.803 202.232 163.122 210.599 160.407L211.887 162.941C202.832 164.831 195.127 168.327 189.541 174.343Z" fill="black"/>
<path d="M322.807 143.076L322.895 143.076C325.902 143.102 328.846 142.218 331.344 140.542C333.842 138.866 335.777 136.474 336.898 133.679C339.203 127.841 340.365 121.613 340.32 115.334C340.163 88.7614 318.586 66.9613 292.065 66.5937C280.77 66.4353 269.769 70.1948 260.925 77.235C252.081 84.2752 245.939 94.1628 243.54 105.222C241.141 116.281 242.633 127.831 247.762 137.913C252.892 147.996 261.344 155.992 271.685 160.544C274.418 161.757 277.453 162.113 280.392 161.567C283.33 161.021 286.036 159.598 288.153 157.485C292.695 152.911 298.095 149.283 304.043 146.81C309.99 144.337 316.368 143.068 322.807 143.076Z" fill="#E6E6E6"/>
<path d="M297.659 128.229C306.587 128.229 313.826 120.977 313.826 112.031C313.826 103.086 306.587 95.834 297.659 95.834C288.73 95.834 281.492 103.086 281.492 112.031C281.492 120.977 288.73 128.229 297.659 128.229Z" fill="#F9A825"/>
<path d="M262.523 110.21C263.574 110.21 264.427 109.356 264.427 108.302C264.427 107.248 263.574 106.394 262.523 106.394C261.471 106.394 260.618 107.248 260.618 108.302C260.618 109.356 261.471 110.21 262.523 110.21Z" fill="#3F3D56"/>
<path d="M199.653 112.01C200.704 112.01 201.557 111.155 201.557 110.102C201.557 109.048 200.704 108.193 199.653 108.193C198.601 108.193 197.748 109.048 197.748 110.102C197.748 111.155 198.601 112.01 199.653 112.01Z" fill="#3F3D56"/>
<path d="M272.673 90.435C273.725 90.435 274.578 89.5807 274.578 88.5268C274.578 87.473 273.725 86.6187 272.673 86.6187C271.621 86.6187 270.769 87.473 270.769 88.5268C270.769 89.5807 271.621 90.435 272.673 90.435Z" fill="#3F3D56"/>
<path d="M272.619 145.434C273.671 145.434 274.524 144.58 274.524 143.526C274.524 142.472 273.671 141.618 272.619 141.618C271.568 141.618 270.715 142.472 270.715 143.526C270.715 144.58 271.568 145.434 272.619 145.434Z" fill="#3F3D56"/>
<path d="M310.342 86.494C311.394 86.494 312.247 85.6397 312.247 84.5859C312.247 83.5321 311.394 82.6778 310.342 82.6778C309.29 82.6778 308.438 83.5321 308.438 84.5859C308.438 85.6397 309.29 86.494 310.342 86.494Z" fill="#3F3D56"/>
<path d="M187.295 138.685C188.347 138.685 189.2 137.831 189.2 136.777C189.2 135.723 188.347 134.869 187.295 134.869C186.243 134.869 185.391 135.723 185.391 136.777C185.391 137.831 186.243 138.685 187.295 138.685Z" fill="#3F3D56"/>
<path d="M201.217 166.131C202.269 166.131 203.122 165.276 203.122 164.223C203.122 163.169 202.269 162.315 201.217 162.315C200.165 162.315 199.312 163.169 199.312 164.223C199.312 165.276 200.165 166.131 201.217 166.131Z" fill="#3F3D56"/>
<path d="M288.677 175.021C292.646 175.021 295.863 171.798 295.863 167.822C295.863 163.846 292.646 160.623 288.677 160.623C284.709 160.623 281.492 163.846 281.492 167.822C281.492 171.798 284.709 175.021 288.677 175.021Z" fill="#FF6584"/>
<path opacity="0.2" d="M294.067 168.272C294.067 169.704 293.499 171.077 292.488 172.09C291.478 173.102 290.107 173.671 288.678 173.671C287.249 173.671 285.878 173.102 284.867 172.09C283.857 171.077 283.289 169.704 283.289 168.272" fill="black"/>
<path opacity="0.2" d="M283.289 167.372C283.289 165.94 283.857 164.567 284.867 163.554C285.878 162.542 287.249 161.973 288.678 161.973C290.107 161.973 291.478 162.542 292.488 163.554C293.499 164.567 294.067 165.94 294.067 167.372" fill="black"/>
<path d="M285.983 166.022C286.231 166.022 286.432 165.72 286.432 165.347C286.432 164.975 286.231 164.673 285.983 164.673C285.735 164.673 285.534 164.975 285.534 165.347C285.534 165.72 285.735 166.022 285.983 166.022Z" fill="#FF6584"/>
<path d="M288.678 165.123C288.926 165.123 289.127 164.82 289.127 164.448C289.127 164.075 288.926 163.773 288.678 163.773C288.43 163.773 288.229 164.075 288.229 164.448C288.229 164.82 288.43 165.123 288.678 165.123Z" fill="#FF6584"/>
<path d="M288.678 170.972C288.926 170.972 289.127 170.669 289.127 170.297C289.127 169.924 288.926 169.622 288.678 169.622C288.43 169.622 288.229 169.924 288.229 170.297C288.229 170.669 288.43 170.972 288.678 170.972Z" fill="#FF6584"/>
<path d="M291.372 167.372C291.62 167.372 291.821 167.07 291.821 166.697C291.821 166.324 291.62 166.022 291.372 166.022C291.124 166.022 290.923 166.324 290.923 166.697C290.923 167.07 291.124 167.372 291.372 167.372Z" fill="#FF6584"/>
<path d="M290.924 172.321C291.172 172.321 291.373 172.019 291.373 171.646C291.373 171.274 291.172 170.972 290.924 170.972C290.676 170.972 290.475 171.274 290.475 171.646C290.475 172.019 290.676 172.321 290.924 172.321Z" fill="#FF6584"/>
<path d="M285.534 170.072C285.782 170.072 285.983 169.77 285.983 169.397C285.983 169.024 285.782 168.722 285.534 168.722C285.286 168.722 285.085 169.024 285.085 169.397C285.085 169.77 285.286 170.072 285.534 170.072Z" fill="#FF6584"/>
<path d="M303.048 155.674C307.017 155.674 310.234 152.451 310.234 148.475C310.234 144.499 307.017 141.276 303.048 141.276C299.08 141.276 295.863 144.499 295.863 148.475C295.863 152.451 299.08 155.674 303.048 155.674Z" fill="#FF6584"/>
<path opacity="0.2" d="M308.437 148.925C308.437 150.357 307.869 151.73 306.859 152.743C305.848 153.755 304.477 154.324 303.048 154.324C301.619 154.324 300.248 153.755 299.238 152.743C298.227 151.73 297.659 150.357 297.659 148.925" fill="black"/>
<path opacity="0.2" d="M297.659 148.025C297.659 146.593 298.227 145.22 299.238 144.208C300.248 143.195 301.619 142.626 303.048 142.626C304.477 142.626 305.848 143.195 306.859 144.208C307.869 145.22 308.437 146.593 308.437 148.025" fill="black"/>
<path d="M300.353 146.676C300.601 146.676 300.802 146.373 300.802 146.001C300.802 145.628 300.601 145.326 300.353 145.326C300.105 145.326 299.904 145.628 299.904 146.001C299.904 146.373 300.105 146.676 300.353 146.676Z" fill="#FF6584"/>
<path d="M303.049 145.776C303.297 145.776 303.498 145.474 303.498 145.101C303.498 144.728 303.297 144.426 303.049 144.426C302.801 144.426 302.6 144.728 302.6 145.101C302.6 145.474 302.801 145.776 303.049 145.776Z" fill="#FF6584"/>
<path d="M303.049 151.625C303.297 151.625 303.498 151.323 303.498 150.95C303.498 150.577 303.297 150.275 303.049 150.275C302.801 150.275 302.6 150.577 302.6 150.95C302.6 151.323 302.801 151.625 303.049 151.625Z" fill="#FF6584"/>
<path d="M305.743 148.025C305.991 148.025 306.192 147.723 306.192 147.35C306.192 146.978 305.991 146.676 305.743 146.676C305.495 146.676 305.294 146.978 305.294 147.35C305.294 147.723 305.495 148.025 305.743 148.025Z" fill="#FF6584"/>
<path d="M305.294 152.975C305.542 152.975 305.743 152.672 305.743 152.3C305.743 151.927 305.542 151.625 305.294 151.625C305.046 151.625 304.845 151.927 304.845 152.3C304.845 152.672 305.046 152.975 305.294 152.975Z" fill="#FF6584"/>
<path d="M299.905 150.725C300.153 150.725 300.354 150.423 300.354 150.05C300.354 149.677 300.153 149.375 299.905 149.375C299.657 149.375 299.456 149.677 299.456 150.05C299.456 150.423 299.657 150.725 299.905 150.725Z" fill="#FF6584"/>
<path d="M317.419 165.572C321.387 165.572 324.604 162.349 324.604 158.374C324.604 154.398 321.387 151.175 317.419 151.175C313.45 151.175 310.233 154.398 310.233 158.374C310.233 162.349 313.45 165.572 317.419 165.572Z" fill="#CEEE8F"/>
<path opacity="0.2" d="M322.807 158.824C322.807 160.256 322.239 161.629 321.229 162.641C320.218 163.654 318.847 164.223 317.418 164.223C315.989 164.223 314.618 163.654 313.608 162.641C312.597 161.629 312.029 160.256 312.029 158.824" fill="black"/>
<path opacity="0.2" d="M312.029 157.924C312.029 156.492 312.597 155.118 313.608 154.106C314.618 153.093 315.989 152.525 317.418 152.525C318.847 152.525 320.218 153.093 321.229 154.106C322.239 155.118 322.807 156.492 322.807 157.924" fill="black"/>
<path d="M314.724 156.574C314.972 156.574 315.174 156.272 315.174 155.899C315.174 155.526 314.972 155.224 314.724 155.224C314.476 155.224 314.275 155.526 314.275 155.899C314.275 156.272 314.476 156.574 314.724 156.574Z" fill="#CEEE8F"/>
<path d="M317.419 155.674C317.667 155.674 317.868 155.372 317.868 154.999C317.868 154.626 317.667 154.324 317.419 154.324C317.171 154.324 316.97 154.626 316.97 154.999C316.97 155.372 317.171 155.674 317.419 155.674Z" fill="#CEEE8F"/>
<path d="M317.419 161.523C317.667 161.523 317.868 161.221 317.868 160.848C317.868 160.475 317.667 160.173 317.419 160.173C317.171 160.173 316.97 160.475 316.97 160.848C316.97 161.221 317.171 161.523 317.419 161.523Z" fill="#CEEE8F"/>
<path d="M320.113 157.924C320.361 157.924 320.562 157.622 320.562 157.249C320.562 156.876 320.361 156.574 320.113 156.574C319.865 156.574 319.664 156.876 319.664 157.249C319.664 157.622 319.865 157.924 320.113 157.924Z" fill="#CEEE8F"/>
<path d="M319.664 162.873C319.912 162.873 320.113 162.571 320.113 162.198C320.113 161.825 319.912 161.523 319.664 161.523C319.416 161.523 319.215 161.825 319.215 162.198C319.215 162.571 319.416 162.873 319.664 162.873Z" fill="#CEEE8F"/>
<path d="M314.275 160.623C314.523 160.623 314.724 160.321 314.724 159.948C314.724 159.576 314.523 159.273 314.275 159.273C314.027 159.273 313.826 159.576 313.826 159.948C313.826 160.321 314.027 160.623 314.275 160.623Z" fill="#CEEE8F"/>
<path d="M281.493 166.472C285.461 166.472 288.678 163.249 288.678 159.273C288.678 155.298 285.461 152.075 281.493 152.075C277.525 152.075 274.308 155.298 274.308 159.273C274.308 163.249 277.525 166.472 281.493 166.472Z" fill="#CEEE8F"/>
<path opacity="0.2" d="M286.881 159.723C286.881 161.155 286.314 162.529 285.303 163.541C284.292 164.554 282.922 165.123 281.492 165.123C280.063 165.123 278.692 164.554 277.682 163.541C276.671 162.529 276.104 161.155 276.104 159.723" fill="black"/>
<path opacity="0.2" d="M276.104 158.824C276.104 157.392 276.671 156.018 277.682 155.006C278.692 153.993 280.063 153.424 281.492 153.424C282.922 153.424 284.292 153.993 285.303 155.006C286.314 156.018 286.881 157.392 286.881 158.824" fill="black"/>
<path d="M278.799 157.474C279.047 157.474 279.248 157.172 279.248 156.799C279.248 156.426 279.047 156.124 278.799 156.124C278.551 156.124 278.35 156.426 278.35 156.799C278.35 157.172 278.551 157.474 278.799 157.474Z" fill="#CEEE8F"/>
<path d="M281.493 156.574C281.741 156.574 281.942 156.272 281.942 155.899C281.942 155.526 281.741 155.224 281.493 155.224C281.245 155.224 281.044 155.526 281.044 155.899C281.044 156.272 281.245 156.574 281.493 156.574Z" fill="#CEEE8F"/>
<path d="M281.493 162.423C281.741 162.423 281.942 162.121 281.942 161.748C281.942 161.375 281.741 161.073 281.493 161.073C281.245 161.073 281.044 161.375 281.044 161.748C281.044 162.121 281.245 162.423 281.493 162.423Z" fill="#CEEE8F"/>
<path d="M284.187 158.824C284.435 158.824 284.636 158.521 284.636 158.149C284.636 157.776 284.435 157.474 284.187 157.474C283.939 157.474 283.738 157.776 283.738 158.149C283.738 158.521 283.939 158.824 284.187 158.824Z" fill="#CEEE8F"/>
<path d="M283.738 163.773C283.986 163.773 284.187 163.471 284.187 163.098C284.187 162.725 283.986 162.423 283.738 162.423C283.49 162.423 283.289 162.725 283.289 163.098C283.289 163.471 283.49 163.773 283.738 163.773Z" fill="#CEEE8F"/>
<path d="M278.349 161.523C278.597 161.523 278.798 161.221 278.798 160.848C278.798 160.475 278.597 160.173 278.349 160.173C278.101 160.173 277.9 160.475 277.9 160.848C277.9 161.221 278.101 161.523 278.349 161.523Z" fill="#CEEE8F"/>
<path d="M297.66 169.622C301.628 169.622 304.845 166.399 304.845 162.423C304.845 158.447 301.628 155.224 297.66 155.224C293.692 155.224 290.475 158.447 290.475 162.423C290.475 166.399 293.692 169.622 297.66 169.622Z" fill="#CEEE8F"/>
<path opacity="0.2" d="M303.048 162.873C303.048 163.582 302.909 164.284 302.638 164.939C302.367 165.594 301.97 166.189 301.47 166.691C300.969 167.192 300.375 167.59 299.722 167.861C299.068 168.132 298.367 168.272 297.659 168.272C296.952 168.272 296.251 168.132 295.597 167.861C294.943 167.59 294.349 167.192 293.849 166.691C293.348 166.189 292.952 165.594 292.681 164.939C292.41 164.284 292.271 163.582 292.271 162.873" fill="black"/>
<path opacity="0.2" d="M292.271 161.973C292.271 161.264 292.41 160.562 292.681 159.907C292.952 159.252 293.348 158.657 293.849 158.155C294.349 157.654 294.943 157.256 295.597 156.985C296.251 156.714 296.952 156.574 297.659 156.574C298.367 156.574 299.068 156.714 299.722 156.985C300.375 157.256 300.969 157.654 301.47 158.155C301.97 158.657 302.367 159.252 302.638 159.907C302.909 160.562 303.048 161.264 303.048 161.973" fill="black"/>
<path d="M294.965 160.623C295.213 160.623 295.414 160.321 295.414 159.948C295.414 159.576 295.213 159.273 294.965 159.273C294.717 159.273 294.516 159.576 294.516 159.948C294.516 160.321 294.717 160.623 294.965 160.623Z" fill="#CEEE8F"/>
<path d="M297.659 159.723C297.907 159.723 298.108 159.421 298.108 159.049C298.108 158.676 297.907 158.374 297.659 158.374C297.411 158.374 297.21 158.676 297.21 159.049C297.21 159.421 297.411 159.723 297.659 159.723Z" fill="#CEEE8F"/>
<path d="M297.659 165.572C297.907 165.572 298.108 165.27 298.108 164.898C298.108 164.525 297.907 164.223 297.659 164.223C297.411 164.223 297.21 164.525 297.21 164.898C297.21 165.27 297.411 165.572 297.659 165.572Z" fill="#CEEE8F"/>
<path d="M300.353 161.973C300.601 161.973 300.802 161.671 300.802 161.298C300.802 160.925 300.601 160.623 300.353 160.623C300.105 160.623 299.904 160.925 299.904 161.298C299.904 161.671 300.105 161.973 300.353 161.973Z" fill="#CEEE8F"/>
<path d="M299.905 166.922C300.153 166.922 300.354 166.62 300.354 166.247C300.354 165.875 300.153 165.572 299.905 165.572C299.657 165.572 299.456 165.875 299.456 166.247C299.456 166.62 299.657 166.922 299.905 166.922Z" fill="#CEEE8F"/>
<path d="M294.515 164.673C294.763 164.673 294.965 164.37 294.965 163.998C294.965 163.625 294.763 163.323 294.515 163.323C294.267 163.323 294.066 163.625 294.066 163.998C294.066 164.37 294.267 164.673 294.515 164.673Z" fill="#CEEE8F"/>
<path d="M308.886 177.27C312.855 177.27 316.072 174.047 316.072 170.072C316.072 166.096 312.855 162.873 308.886 162.873C304.918 162.873 301.701 166.096 301.701 170.072C301.701 174.047 304.918 177.27 308.886 177.27Z" fill="#FF6584"/>
<path opacity="0.2" d="M314.275 170.522C314.275 171.954 313.707 173.327 312.696 174.339C311.686 175.352 310.315 175.921 308.886 175.921C307.457 175.921 306.086 175.352 305.075 174.339C304.065 173.327 303.497 171.954 303.497 170.522" fill="black"/>
<path opacity="0.2" d="M303.497 169.622C303.497 168.19 304.065 166.817 305.075 165.804C306.086 164.791 307.457 164.223 308.886 164.223C310.315 164.223 311.686 164.791 312.696 165.804C313.707 166.817 314.275 168.19 314.275 169.622" fill="black"/>
<path d="M306.191 168.272C306.439 168.272 306.64 167.97 306.64 167.597C306.64 167.224 306.439 166.922 306.191 166.922C305.943 166.922 305.742 167.224 305.742 167.597C305.742 167.97 305.943 168.272 306.191 168.272Z" fill="#FF6584"/>
<path d="M308.887 167.372C309.135 167.372 309.336 167.07 309.336 166.697C309.336 166.324 309.135 166.022 308.887 166.022C308.639 166.022 308.438 166.324 308.438 166.697C308.438 167.07 308.639 167.372 308.887 167.372Z" fill="#FF6584"/>
<path d="M308.887 173.221C309.135 173.221 309.336 172.919 309.336 172.546C309.336 172.174 309.135 171.871 308.887 171.871C308.639 171.871 308.438 172.174 308.438 172.546C308.438 172.919 308.639 173.221 308.887 173.221Z" fill="#FF6584"/>
<path d="M311.581 169.622C311.829 169.622 312.03 169.32 312.03 168.947C312.03 168.574 311.829 168.272 311.581 168.272C311.333 168.272 311.132 168.574 311.132 168.947C311.132 169.32 311.333 169.622 311.581 169.622Z" fill="#FF6584"/>
<path d="M311.132 174.571C311.38 174.571 311.581 174.269 311.581 173.896C311.581 173.523 311.38 173.221 311.132 173.221C310.884 173.221 310.683 173.523 310.683 173.896C310.683 174.269 310.884 174.571 311.132 174.571Z" fill="#FF6584"/>
<path d="M305.743 172.321C305.991 172.321 306.192 172.019 306.192 171.646C306.192 171.274 305.991 170.972 305.743 170.972C305.495 170.972 305.294 171.274 305.294 171.646C305.294 172.019 305.495 172.321 305.743 172.321Z" fill="#FF6584"/>
<path d="M216.486 144.534C217.537 144.534 218.39 143.68 218.39 142.626C218.39 141.572 217.537 140.718 216.486 140.718C215.434 140.718 214.581 141.572 214.581 142.626C214.581 143.68 215.434 144.534 216.486 144.534Z" fill="#3F3D56"/>
<path d="M268.253 211.886L222.514 199.178L224.266 192.657L270.005 205.366L268.253 211.886Z" fill="#F9A825"/>
<path d="M261.548 209.707C245.885 212.711 229.795 212.711 214.132 209.707V202.948C229.83 205.554 245.85 205.554 261.548 202.948V209.707Z" fill="#F9A825"/>
<path d="M266.422 189.429C250.759 192.433 234.669 192.433 219.006 189.429V182.67C234.704 185.276 250.724 185.276 266.422 182.67V189.429Z" fill="#F9A825"/>
<path d="M282.819 197.54C267.156 200.544 251.066 200.544 235.402 197.54V190.781C251.101 193.388 267.12 193.388 282.819 190.781V197.54Z" fill="#F9A825"/>
<path d="M286.807 205.201C271.144 208.205 255.054 208.205 239.391 205.201V198.441C255.089 201.048 271.109 201.048 286.807 198.441V205.201Z" fill="#F9A825"/>
<path d="M300.712 215.211L253.932 223.084L252.847 216.415L299.627 208.542L300.712 215.211Z" fill="#F9A825"/>
<path d="M293.724 216.078C280.754 225.444 266.137 232.275 250.639 236.211L247.863 230.069C263.226 225.759 277.78 218.958 290.948 209.936L293.724 216.078Z" fill="#F9A825"/>
<path d="M289.827 195.582C276.858 204.949 262.24 211.779 246.742 215.715L243.967 209.573C259.329 205.263 273.883 198.462 287.052 189.44L289.827 195.582Z" fill="#F9A825"/>
<path d="M308.056 195.99C295.086 205.357 280.469 212.188 264.971 216.124L262.195 209.982C277.558 205.672 292.112 198.871 305.28 189.849L308.056 195.99Z" fill="#F9A825"/>
<path d="M314.826 201.258C301.856 210.625 287.238 217.455 271.74 221.391L268.965 215.249C284.327 210.939 298.881 204.138 312.05 195.116L314.826 201.258Z" fill="#F9A825"/>
<path d="M258.141 188.069H255.896V190.318H258.141V188.069Z" fill="#00BF71"/>
<path d="M264.877 227.212H262.632V229.462H264.877V227.212Z" fill="#00BF71"/>
<path d="M228.951 188.069H226.706V190.318H228.951V188.069Z" fill="#00BF71"/>
<path d="M281.043 215.964H278.798V218.214H281.043V215.964Z" fill="#00BF71"/>
<path d="M282.391 202.916H280.146V205.166H282.391V202.916Z" fill="#00BF71"/>
<path d="M245.35 196.757L242.749 194.989L241.74 196.478L244.342 198.246L245.35 196.757Z" fill="#00BF71"/>
<path d="M271.846 201.706L269.245 199.938L268.237 201.427L270.838 203.195L271.846 201.706Z" fill="#00BF71"/>
<path d="M239.512 210.255L236.911 208.486L235.903 209.976L238.504 211.744L239.512 210.255Z" fill="#00BF71"/>
<path d="M255.98 210.124L257.745 207.517L256.259 206.507L254.494 209.113L255.98 210.124Z" fill="#00BF71"/>
<path d="M268.105 213.273L269.87 210.667L268.384 209.656L266.619 212.263L268.105 213.273Z" fill="#00BF71"/>
<path d="M300.442 202.474L302.207 199.868L300.721 198.858L298.956 201.464L300.442 202.474Z" fill="#00BF71"/>
<path d="M513 279.703H0V281H513V279.703Z" fill="#3F3D56"/>
</svg>
