<svg width="366" height="245" viewBox="0 0 366 245" fill="none" xmlns="http://www.w3.org/2000/svg">
<g clip-path="url(#clip0)">
<path opacity="0.1" d="M212.649 40.393C189.185 39.5732 166.84 32.005 145.515 23.7154C124.189 15.4259 103.038 6.2404 80.137 1.84939C65.3905 -0.975207 48.5442 -1.37237 36.6759 6.52953C25.2554 14.1296 21.5641 27.2517 19.5818 39.4239C18.0887 48.584 17.2119 58.227 21.3004 66.7993C24.1404 72.7536 29.1819 77.7578 32.67 83.461C44.8115 103.3 36.2343 127.768 23.0794 147.143C16.9101 156.23 9.75607 164.901 4.99729 174.576C0.23852 184.251 -1.96297 195.336 2.20175 205.205C6.33153 214.984 16.1636 222.334 26.8184 227.5C48.4584 237.985 73.9582 241 98.8227 242.703C153.866 246.468 209.202 244.838 264.392 243.205C284.815 242.601 305.331 241.988 325.42 238.83C336.58 237.076 348.099 234.293 356.2 227.57C366.483 219.039 369.031 204.592 362.14 193.891C350.583 175.945 318.619 171.491 310.547 152.23C306.099 141.631 310.668 129.821 317.129 119.99C330.992 98.8994 354.227 80.3981 355.453 56.2889C356.292 39.7321 345.123 23.1531 327.851 15.302C309.743 7.09191 284.647 8.12453 271.288 21.7169C257.536 35.7287 233.368 41.1142 212.649 40.393Z" fill="#FFBA08"/>
<g opacity="0.5">
<path opacity="0.5" d="M159.079 127.911L148.45 128.13L146.712 130.516V138.761L148.882 140.28H159.079L161.249 137.894V130.081L159.079 127.911Z" fill="#FFBA08"/>
<path opacity="0.2" d="M158.856 129.214C158.856 129.214 149.094 130.732 148.227 129.214L148.446 128.13L158.856 127.901V129.214Z" fill="white"/>
<path opacity="0.5" d="M159.946 151.779L161.681 153.517V161.778L159.946 163.487C159.946 163.487 153.656 165.657 149.533 163.919L147.579 161.968V153.707L149.317 151.753L159.946 151.779Z" fill="#FFBA08"/>
<path opacity="0.2" d="M159.511 153.733C159.511 153.733 151.919 155.467 149.317 153.733V151.779H159.946L159.511 153.733Z" fill="white"/>
<path opacity="0.5" d="M155.823 140.223V151.96C155.798 152.424 155.59 152.861 155.245 153.173C154.9 153.485 154.445 153.647 153.98 153.625C153.515 153.647 153.061 153.485 152.715 153.173C152.37 152.861 152.162 152.424 152.138 151.96V140.223C152.138 139.225 153.091 138.453 154.196 138.567C154.624 138.594 155.027 138.777 155.327 139.083C155.627 139.389 155.804 139.795 155.823 140.223Z" fill="#FFBA08"/>
<path opacity="0.5" d="M176.103 128.248L165.474 128.464L163.736 130.85V139.095L165.906 140.614H176.103L178.273 138.228V130.415L176.103 128.248Z" fill="#FFBA08"/>
<path opacity="0.2" d="M175.884 129.547C175.884 129.547 166.122 131.066 165.254 129.547L165.47 128.464L175.884 128.248V129.547Z" fill="white"/>
<path opacity="0.5" d="M176.964 152.112L178.699 153.85V162.111L176.964 163.83C176.964 163.83 170.671 166 166.551 164.262L164.597 162.311V154.066L166.335 152.112H176.964Z" fill="#FFBA08"/>
<path opacity="0.2" d="M176.535 154.066C176.535 154.066 168.943 155.801 166.341 154.066V152.112H176.964L176.535 154.066Z" fill="white"/>
<path opacity="0.5" d="M172.834 140.556V152.293C172.809 152.758 172.601 153.193 172.256 153.505C171.911 153.817 171.456 153.98 170.992 153.958C170.527 153.981 170.071 153.818 169.726 153.506C169.38 153.194 169.171 152.758 169.146 152.293V140.556C169.146 139.559 170.099 138.787 171.208 138.901C171.635 138.927 172.038 139.111 172.338 139.417C172.639 139.722 172.815 140.128 172.834 140.556Z" fill="#FFBA08"/>
<path opacity="0.5" d="M197.775 134.523L189.023 134.704L187.594 136.667V143.454L189.379 144.706H197.775L199.561 142.739V136.308L197.775 134.523Z" fill="#FFBA08"/>
<path opacity="0.2" d="M197.594 135.597C197.594 135.597 189.56 136.845 188.845 135.597L189.023 134.704L197.6 134.523L197.594 135.597Z" fill="white"/>
<path opacity="0.5" d="M198.487 154.171L199.916 155.601V162.388L198.487 163.817C198.487 163.817 193.309 165.603 189.91 164.173L188.302 162.565V155.779L189.732 154.171H198.487Z" fill="#FFBA08"/>
<path opacity="0.2" d="M198.131 155.779C198.131 155.779 191.879 157.209 189.738 155.779V154.171H198.487L198.131 155.779Z" fill="white"/>
<path opacity="0.5" d="M195.094 144.658V154.32C195.073 154.703 194.902 155.062 194.617 155.319C194.333 155.575 193.958 155.709 193.575 155.69C193.193 155.709 192.819 155.575 192.535 155.319C192.25 155.062 192.08 154.703 192.06 154.32V144.658C192.072 144.454 192.127 144.254 192.221 144.072C192.315 143.89 192.445 143.73 192.605 143.602C192.764 143.473 192.949 143.38 193.147 143.327C193.344 143.274 193.551 143.263 193.753 143.295C194.106 143.317 194.437 143.468 194.685 143.72C194.932 143.971 195.078 144.306 195.094 144.658Z" fill="#FFBA08"/>
<path opacity="0.5" d="M211.788 134.799L203.036 134.977L201.609 136.941V143.731L203.395 144.979H211.788L213.573 143.016V136.585L211.788 134.799Z" fill="#FFBA08"/>
<path opacity="0.2" d="M211.61 135.87C211.61 135.87 203.573 137.122 202.858 135.87L203.036 134.977L211.613 134.799L211.61 135.87Z" fill="white"/>
<path opacity="0.5" d="M212.503 154.448L213.929 155.874V162.661L212.503 164.091C212.503 164.091 207.322 165.876 203.926 164.45L202.321 162.851V156.055L203.751 154.448H212.503Z" fill="#FFBA08"/>
<path opacity="0.2" d="M212.143 156.055C212.143 156.055 205.895 157.482 203.75 156.055V154.448H212.502L212.143 156.055Z" fill="white"/>
<path opacity="0.5" d="M209.11 144.932V154.59C209.089 154.973 208.918 155.332 208.633 155.589C208.349 155.846 207.974 155.979 207.591 155.96C207.208 155.979 206.834 155.846 206.549 155.589C206.265 155.332 206.093 154.973 206.073 154.59V144.932C206.073 144.112 206.867 143.476 207.769 143.572C208.121 143.593 208.453 143.743 208.7 143.994C208.948 144.245 209.094 144.579 209.11 144.932Z" fill="#FFBA08"/>
</g>
<path d="M333.26 169.864C332.577 168.628 331.3 167.814 329.957 167.439C328.597 167.113 327.191 167.024 325.801 167.179C323.556 167.339 321.33 167.706 319.152 168.275C317.802 168.631 316.401 169.108 315.49 170.181C315.464 170.213 315.436 170.251 315.407 170.283C314.012 170.649 312.627 171.211 311.277 171.668C309.922 172.118 308.544 172.493 307.148 172.79C308.974 171.751 310.753 170.652 312.259 169.184C312.971 168.493 313.609 167.731 314.165 166.909C315.197 167.204 316.28 167.277 317.342 167.122C319.492 166.753 321.23 165.215 322.847 163.716L328.047 158.931C328.876 158.168 329.718 157.387 330.271 156.389C331.018 155 331.084 153.348 331.103 151.763C331.129 149.583 331.103 147.404 331.04 145.227L332.685 146.498C332.435 143.814 332.935 141.112 334.128 138.695C334.699 137.541 335.449 136.394 335.465 135.101C335.49 133.106 333.775 131.536 332.018 130.653C330.262 129.77 328.286 129.204 326.847 127.847C324.705 125.83 324.305 122.611 323.247 119.847C322.62 118.334 321.876 116.871 321.024 115.472L318.965 111.882C317.93 109.99 316.775 108.165 315.509 106.42C313.368 103.595 310.671 101.266 307.993 98.9627L294.066 86.9622C290.679 84.0422 287.28 81.1191 283.617 78.5646C276.187 73.3825 267.803 69.8239 259.474 66.3003C257.377 65.4107 255.195 64.5083 252.927 64.6163C251.218 64.7271 249.599 65.4201 248.339 66.5799C247.146 66.2173 245.978 65.7736 244.845 65.2518L244.756 65.2105C244.782 65.023 244.81 64.8388 244.829 64.6513C244.858 64.4035 244.874 64.1556 244.893 63.9046C245.52 63.8079 246.127 63.6094 246.691 63.3168C246.977 63.1817 247.229 62.9854 247.431 62.7418C247.687 62.3175 247.818 61.8296 247.809 61.3342C248.063 58.014 248.317 54.6619 248.044 51.3576C247.771 48.0532 246.942 44.7075 245.185 41.8988C244.642 41.0282 243.962 40.1799 243.018 39.8018C241.748 39.2934 240.277 39.7668 238.92 39.5381C236.573 39.1409 235.108 36.8437 233.409 35.1503C229.111 30.8641 221.76 30.2191 216.798 33.6887C214.917 35.0073 213.411 36.7961 211.734 38.372C210.056 39.9479 208.09 41.3745 205.825 41.6827C205.407 41.7004 204.999 41.8088 204.627 42.0005C204.164 42.2928 203.954 42.8552 203.776 43.3762C203.141 45.1746 202.531 47.0206 202.337 48.9015C202.315 48.7871 202.296 48.6728 202.277 48.5584C202.19 49.255 202.172 49.9584 202.223 50.6586C202.286 51.5509 202.544 52.4184 202.979 53.2004C203.34 53.9437 203.957 54.5323 204.716 54.8589C205.254 55.049 205.821 55.1405 206.39 55.129H206.641C206.549 55.3736 206.46 55.6183 206.378 55.8661C205.67 57.9658 205.311 60.167 205.314 62.3827C205.314 73.5032 214.186 82.514 225.14 82.514C226.458 82.5075 227.772 82.3692 229.063 82.1009C229.492 82.2375 229.921 82.3773 230.334 82.5267C231.179 82.8062 232.009 83.1329 232.818 83.5053C233.161 83.6673 234.549 84.4775 236.227 85.5228L236.112 85.7611C234.476 87.2898 233.275 89.2262 232.634 91.3719C231.992 93.5176 231.933 95.7953 232.462 97.9714C233.676 102.696 237.656 106.747 237.256 111.611C237.199 112.304 237.052 113.006 237.17 113.693C237.332 114.646 237.977 115.421 238.622 116.126C239.181 116.743 239.762 117.34 240.353 117.925C240.305 121.029 240.035 124.13 239.743 127.225C239.718 127.495 239.711 127.768 239.708 128.044C239.725 129.382 240.211 130.672 241.081 131.689C242.002 132.81 242.37 134.491 242.196 135.991C241.945 138.139 240.887 140.086 240.178 142.123C236.983 151.283 240.909 161.612 238.698 171.071C238.155 173.4 237.24 175.665 237.11 178.061C237.037 179.558 237.272 181.127 236.697 182.509C236.198 183.71 235.159 184.578 234.178 185.42C232.79 186.608 231.439 187.837 230.124 189.105C228.136 188.018 226.085 187.053 223.98 186.214C223.637 186.076 223.287 185.955 222.932 185.852C220.448 183.526 217.315 182.039 214.374 180.33C211.934 178.916 209.609 177.327 207.27 175.739C205.047 174.213 202.775 172.676 200.895 170.715C199.942 169.724 199.093 168.631 198.067 167.725C197.166 166.975 196.21 166.291 195.208 165.679C190.701 162.759 186.404 159.526 182.349 156.004C179.258 153.323 176.729 149.869 173.425 147.464C171.402 145.99 169.048 144.646 166.57 144.922C165.781 145.015 165.016 145.251 164.311 145.618C163.654 145.339 162.953 145.182 162.24 145.154C160.226 145.09 158.377 146.183 156.649 147.235C146.483 153.414 136.159 159.317 125.676 164.945C123.56 166.083 121.431 167.211 119.411 168.513C115.469 171.064 111.976 174.249 109.074 177.94C108.54 178.617 107.867 179.386 107.019 179.284C106.786 179.249 106.563 179.169 106.361 179.049C105.055 178.341 104.255 176.971 103.502 175.672C102.955 174.719 102.365 173.724 101.564 173C101.393 172.549 101.164 172.122 100.884 171.729C102.012 168.946 102.984 166.095 103.886 163.226C104.356 161.72 104.811 160.205 105.411 158.743C106.891 155.128 109.252 151.852 110.087 148.026C110.287 147.102 110.405 146.152 110.561 145.218C119.694 143.419 126.587 135.26 126.587 125.461C126.587 114.341 117.711 105.33 106.761 105.33C95.8109 105.33 86.9382 114.341 86.9382 125.461C86.9285 128.846 87.77 132.179 89.3854 135.153C91.0008 138.128 93.3383 140.648 96.1826 142.482C96.1826 142.52 96.1826 142.558 96.1826 142.593C96.1636 143.232 96.1009 143.869 95.9952 144.5C95.6298 146.628 94.7245 148.63 93.8127 150.571C93.2092 151.871 92.6056 153.177 91.9798 154.473C91.6795 154.413 91.3881 154.314 91.1125 154.181C90.5756 153.882 90.3406 153.228 90.1372 152.649C89.2375 150 88.1362 147.423 86.8429 144.941C86.3385 143.886 85.6977 142.903 84.9369 142.015C83.5963 140.547 81.7601 139.676 79.9843 138.796C79.6667 138.644 79.3712 138.479 79.0663 138.332C78.8025 138.136 78.5266 137.957 78.2403 137.795C76.7631 136.96 75.1239 136.359 73.8913 135.19C72.9669 134.313 72.3316 133.173 71.4675 132.242C70.0284 130.694 68.0429 129.811 66.1146 128.969C65.1108 128.531 64.0561 128.083 62.9601 128.143C62.8057 128.15 62.6519 128.167 62.4995 128.194C62.2359 128.239 61.9751 128.298 61.718 128.372C61.4679 128.239 61.2316 128.081 61.0128 127.901C59.8342 126.993 59.3768 125.433 58.9924 123.981C58.357 121.553 57.6867 119.04 58.0806 116.555C58.1492 116.127 58.2426 115.702 58.3602 115.284C58.4587 115.122 58.554 114.967 58.6397 114.792C61.1689 114.032 63.4798 112.678 65.3799 110.843C67.2799 109.009 68.7141 106.747 69.5629 104.245C70.4118 101.744 70.6507 99.0762 70.2597 96.4639C69.8688 93.8516 68.8593 91.3706 67.3155 89.2276C67.1534 89.0051 66.9978 88.7891 66.8167 88.573L67.0073 88.4682C68.7641 87.3943 69.1643 84.827 68.3511 82.9143C67.5378 81.0016 65.8097 79.6512 64.0593 78.59C63.8051 78.4343 63.5478 78.2882 63.2873 78.142L63.065 78.0213C62.868 77.9133 62.6742 77.8084 62.4773 77.7036L62.2454 77.586C62.0135 77.4684 61.7816 77.3572 61.5497 77.2492L61.4448 77.1984C61.1557 77.0681 60.8666 76.941 60.5744 76.8203C60.2917 76.7027 60.0089 76.5947 59.723 76.5026L59.6055 76.4581C59.3355 76.3596 59.0623 76.2674 58.7891 76.1785L58.7287 76.1594C56.7305 75.5098 54.6474 75.1586 52.5467 75.1173C50.4903 75.1295 48.4408 75.3564 46.4315 75.794C44.4752 76.1483 42.5595 76.6986 40.7133 77.4367C37.6622 78.7299 34.9722 80.7474 32.8763 83.3146C32.4345 83.3481 31.9966 83.4204 31.5675 83.5307C29.8488 83.966 28.3018 84.9255 26.8881 86.0121C25.7041 86.8827 24.655 87.9234 23.7749 89.1005C22.7383 90.6087 22.0235 92.3143 21.6751 94.111C20.4711 99.7443 21.9514 105.549 23.0411 111.211C24.1307 116.873 24.7597 123.043 22.088 128.124C21.081 130.03 19.6515 131.686 18.5936 133.557C17.5358 135.428 16.8019 137.687 17.4119 139.762C18.152 142.282 20.5886 143.867 21.8593 146.155C23.346 148.821 22.9362 152.401 20.9921 154.734C20.9063 154.835 20.8205 154.937 20.7284 155.051C20.6363 155.166 20.506 155.286 20.3853 155.394C22.3898 156.1 24.6231 155.34 26.4211 154.209C27.8591 153.36 29.0786 152.186 29.9823 150.781C32.2536 147.051 31.2339 142.228 32.0345 137.916C33.086 132.27 37.3301 127.234 36.7456 121.518C36.3517 117.683 33.8484 114.477 31.882 111.179C30.5749 108.966 29.4793 106.634 28.6099 104.215C28.575 104.113 28.54 104.008 28.5019 103.897C27.9269 102.261 27.4853 100.526 27.7808 98.8134C27.8815 98.2587 28.0479 97.7179 28.2764 97.2025C28.2764 97.2629 28.2764 97.3264 28.2764 97.3868C28.315 99.0432 28.6833 100.675 29.3596 102.188C31.3451 106.318 36.1229 108.225 39.1567 111.573C39.2838 111.713 39.4045 111.856 39.5252 112.002C39.5602 112.04 39.5919 112.082 39.6237 112.123L39.881 112.441L39.989 112.59C40.0685 112.701 40.1479 112.812 40.2209 112.927L40.3194 113.07C40.4211 113.232 40.5227 113.388 40.618 113.562C41.39 112.708 42.1874 111.808 42.4987 110.703C42.5273 110.607 42.5463 110.509 42.5654 110.41C42.5908 110.436 42.613 110.464 42.6385 110.493C42.6988 110.833 42.7465 111.173 42.7909 111.516C42.7909 112.006 42.8431 112.495 42.9466 112.975C43.188 116.025 42.9942 119.158 42.7909 122.217C42.6829 123.854 43.1086 126.284 42.0666 127.504L42.0349 127.539C41.9738 127.61 41.9068 127.676 41.8347 127.736C41.6568 127.92 41.4758 128.102 41.3074 128.292C37.813 132.232 36.2246 137.824 36.3072 143.181C36.3898 149.278 38.3371 155.185 40.545 160.856C41.316 162.927 42.2245 164.943 43.2643 166.893C43.801 167.946 44.5108 168.9 45.3641 169.718C46.2568 170.509 47.3432 171.03 48.4138 171.538C48.6806 171.665 48.9507 171.789 49.2175 171.919L49.9005 172.237L55.1008 174.709C56.0539 176.11 56.9751 177.55 57.9059 178.992C58.0393 179.195 58.1696 179.405 58.3062 179.608C59.3228 181.197 60.3457 182.786 61.3876 184.33L70.1523 197.312C70.7877 198.265 71.4516 199.219 72.3443 199.924C72.5982 200.124 72.873 200.295 73.1639 200.436C73.3116 200.507 73.4632 200.569 73.6181 200.623C73.4257 200.912 73.3434 201.26 73.3862 201.605C73.5034 201.942 73.7262 202.233 74.0216 202.434C76.0039 204.074 78.2054 205.802 78.828 208.322C79.2696 210.117 78.828 212.039 79.2251 213.844C79.9526 217.097 83.1706 219.07 86.214 220.322C93.0344 223.124 100.611 224.202 107.857 222.899C115.103 221.596 121.987 217.837 126.679 212.096C128.122 210.323 129.351 208.388 130.72 206.558C131.673 205.268 132.722 204.039 133.805 202.853C134.974 202.319 136.101 201.696 137.175 200.992C139.466 199.47 141.439 197.516 143.529 195.705C145.089 194.345 146.722 193.061 148.154 191.574C149.441 190.164 150.643 188.678 151.754 187.126C154.295 183.758 156.92 180.457 159.629 177.222C161.077 175.491 162.612 173.727 164.635 172.774L164.727 172.736C164.969 174.159 166.097 175.367 166.888 176.596C170.16 181.68 173.584 186.913 178.642 190.154C181.412 191.927 184.544 193.013 187.67 194.005C195.612 196.515 203.681 198.485 211.756 200.458C212.023 199.949 212.283 199.479 212.576 199.022C212.701 199.154 212.817 199.294 212.925 199.441C212.96 199.492 212.989 199.546 213.024 199.597C212.965 199.608 212.908 199.624 212.852 199.644C212.334 199.886 211.926 200.315 211.712 200.845C210.841 202.59 210.759 204.614 210.717 206.564C210.689 208.471 210.717 210.377 210.717 212.284C210.671 212.995 210.779 213.709 211.035 214.374C211.651 215.645 213.217 216.119 214.618 216.281C217.052 216.551 219.504 216.322 221.925 215.995C222.065 216.566 222.293 217.111 222.601 217.612C223.961 219.836 226.309 221.304 228.752 222.165C231.195 223.026 233.784 223.369 236.322 223.874C240.83 224.77 245.442 226.203 249.925 225.193C251.713 224.789 253.419 224.008 255.208 223.665C259.302 222.889 263.547 224.459 267.67 223.83C269.662 223.512 271.546 222.718 273.35 221.806C274.26 221.407 275.085 220.837 275.78 220.128C276.441 219.385 276.838 218.33 276.565 217.367C276.409 216.814 276.053 216.344 275.815 215.823C275.496 214.99 275.315 214.11 275.278 213.218C274.947 209.843 274.376 206.496 273.569 203.203C273.547 203.111 273.522 203.015 273.496 202.92C276.613 201.684 279.405 199.743 282.162 197.811L288.093 193.662C289.999 192.318 291.953 190.967 294.094 190.027C297.379 188.584 301.016 188.171 304.597 188.174C306.061 188.174 307.529 188.247 308.987 188.381C308.801 188.584 308.661 188.824 308.577 189.086C308.285 189.995 308.749 190.993 309.438 191.657C310.127 192.321 311.026 192.696 311.836 193.156C314.075 194.417 315.938 196.249 317.237 198.466C318.05 199.86 318.641 201.554 318.126 203.089C317.491 205.014 315.226 206.342 315.356 208.369C315.432 209.564 316.395 210.552 317.491 210.994C318.587 211.435 319.804 211.429 320.985 211.394C322.92 211.334 324.912 211.184 326.643 210.304C327.809 209.71 328.797 208.814 329.766 207.928C330.649 207.117 331.551 206.275 332.053 205.182C332.523 204.153 332.596 202.987 332.619 201.856C332.714 196.531 331.796 191.132 332.854 185.915C333.171 184.327 333.68 182.773 333.95 181.172C334.375 178.63 334.213 176.063 334.051 173.508C333.972 172.25 333.877 170.954 333.26 169.864Z" fill="url(#paint0_linear)"/>
<path opacity="0.06" d="M266.142 96.2175C264.894 97.0595 264.458 98.6863 264.299 100.186C263.623 106.563 266.253 112.876 266.078 119.285C265.939 124.384 264.039 129.249 262.165 133.992C258.969 142.085 257.304 150.873 256.659 159.55C256.015 168.227 255.071 177.264 250.414 184.603C249.356 186.265 248.123 187.809 247.088 189.48C246.001 191.228 245.141 193.102 244.181 194.92C241.354 200.287 237.711 205.183 233.38 209.43C232.109 210.669 230.763 211.871 229.142 212.585C228.098 213.038 226.974 213.278 225.836 213.29C224.698 213.302 223.569 213.086 222.516 212.655C220.343 211.756 218.513 209.729 218.424 207.378C218.345 205.274 219.599 203.378 220.857 201.694C225.121 195.989 230.024 190.791 235.47 186.201C236.458 185.369 237.5 184.508 238.012 183.319C238.587 181.95 238.352 180.396 238.425 178.913C238.542 176.546 239.464 174.299 240.013 171.992C242.237 162.623 238.285 152.392 241.5 143.314C242.215 141.297 243.276 139.368 243.527 137.243C243.705 135.756 243.336 134.094 242.405 132.979C241.534 131.977 241.046 130.697 241.03 129.369C241.03 129.096 241.03 128.826 241.062 128.559C241.449 124.4 241.833 120.222 241.624 116.05C241.414 111.878 240.585 107.684 238.66 103.976C237.662 102.054 236.373 100.256 235.756 98.1811C234.765 94.8227 235.68 91.1911 237.157 88.0138C238.31 85.5292 239.848 83.1621 241.996 81.4591C245.986 78.2977 251.958 77.9323 256.326 80.5472C259.547 82.4726 261.752 85.7103 263.54 89.0115C264.824 91.423 266.161 93.466 266.142 96.2175Z" fill="black"/>
<path d="M255.554 70.8946C254.944 72.5405 254.337 74.1863 253.734 75.8321C253.333 76.9124 252.936 78.0022 252.523 79.0825C250.617 84.0613 248.486 88.9606 245.15 93.0816C245.649 92.4652 240.957 89.3641 237.497 87.2481C235.81 86.2091 234.413 85.4084 234.07 85.2496C233.254 84.8811 232.42 84.5566 231.569 84.2773C230.251 83.8325 228.917 83.4481 227.598 82.9683C224.549 81.8658 226.68 80.2104 227.986 78.4311C232.259 72.604 233.069 64.6418 237.92 59.288C239.699 62.6687 242.513 65.391 245.951 67.0565C246.017 67.0914 246.087 67.1232 246.157 67.1518C249.038 68.499 252.221 69.0804 255.201 70.2083C255.363 70.2687 255.551 70.3545 255.605 70.5261C255.625 70.6512 255.607 70.7796 255.554 70.8946Z" fill="#A1616A"/>
<path d="M247.259 188.587C245.879 190.565 245.02 192.859 244.762 195.256C244.504 197.654 244.855 200.078 245.782 202.304C246.016 202.926 246.382 203.49 246.853 203.959C247.452 204.428 248.151 204.754 248.895 204.912C255.204 206.707 261.939 206.355 268.401 205.23C270.589 204.893 272.741 204.345 274.824 203.594C278.023 202.37 280.879 200.416 283.7 198.466L289.666 194.354C291.597 193.023 293.545 191.685 295.702 190.751C299.005 189.325 302.665 188.915 306.264 188.918C309.356 188.922 312.44 189.216 315.477 189.798C317.5 190.189 319.924 190.592 321.347 189.115C322.161 188.279 322.402 187.056 322.561 185.903C323.189 181.415 323.178 176.861 322.526 172.377C322.51 172 322.373 171.638 322.135 171.344C321.911 171.154 321.638 171.03 321.347 170.985C318.536 170.35 315.715 171.668 312.983 172.574C307.306 174.461 301.21 174.687 295.435 176.241C289.373 177.87 283.681 180.956 277.416 181.582C274.43 181.88 271.431 181.62 268.439 181.686C265.662 181.747 263.073 182.706 260.354 182.821C255.112 183.053 250.554 183.968 247.259 188.587Z" fill="#A1616A"/>
<path opacity="0.06" d="M247.259 188.587C245.879 190.565 245.02 192.859 244.762 195.256C244.504 197.654 244.855 200.078 245.782 202.304C246.016 202.926 246.382 203.49 246.853 203.959C247.452 204.428 248.151 204.754 248.895 204.912C255.204 206.707 261.939 206.355 268.401 205.23C270.589 204.893 272.741 204.345 274.824 203.594C278.023 202.37 280.879 200.416 283.7 198.466L289.666 194.354C291.597 193.023 293.545 191.685 295.702 190.751C299.005 189.325 302.665 188.915 306.264 188.918C309.356 188.922 312.44 189.216 315.477 189.798C317.5 190.189 319.924 190.592 321.347 189.115C322.161 188.279 322.402 187.056 322.561 185.903C323.189 181.415 323.178 176.861 322.526 172.377C322.51 172 322.373 171.638 322.135 171.344C321.911 171.154 321.638 171.03 321.347 170.985C318.536 170.35 315.715 171.668 312.983 172.574C307.306 174.461 301.21 174.687 295.435 176.241C289.373 177.87 283.681 180.956 277.416 181.582C274.43 181.88 271.431 181.62 268.439 181.686C265.662 181.747 263.073 182.706 260.354 182.821C255.112 183.053 250.554 183.968 247.259 188.587Z" fill="black"/>
<path d="M252.387 181.871C252.237 182.573 252.104 183.316 252.313 184.003C252.574 184.677 253.013 185.269 253.584 185.712C258.985 190.548 266.701 191.549 273.915 192.333C275.869 192.546 277.858 192.759 279.792 192.407C281.555 192.089 283.201 191.31 284.824 190.541C288.319 188.886 291.832 187.212 294.828 184.778C297.766 182.395 300.124 179.345 303.167 177.098C306.626 174.557 310.88 173.101 313.968 170.108C316.2 167.954 317.684 165.142 318.203 162.083C318.552 159.995 318.438 157.863 318.203 155.76C317.952 153.342 317.548 150.883 316.398 148.741C315.067 146.263 312.831 144.391 310.47 142.854C305.476 139.606 299.596 137.592 293.634 137.643C285.374 137.716 277.75 142.523 271.822 147.921C265.552 153.639 260.477 160.543 256.891 168.234C254.867 172.59 253.355 177.166 252.387 181.871Z" fill="#464353"/>
<path opacity="0.06" d="M252.387 181.871C252.237 182.573 252.104 183.316 252.313 184.003C252.574 184.677 253.013 185.269 253.584 185.712C258.985 190.548 266.701 191.549 273.915 192.333C275.869 192.546 277.858 192.759 279.792 192.407C281.555 192.089 283.201 191.31 284.824 190.541C288.319 188.886 291.832 187.212 294.828 184.778C297.766 182.395 300.124 179.345 303.167 177.098C306.626 174.557 310.88 173.101 313.968 170.108C316.2 167.954 317.684 165.142 318.203 162.083C318.552 159.995 318.438 157.863 318.203 155.76C317.952 153.342 317.548 150.883 316.398 148.741C315.067 146.263 312.831 144.391 310.47 142.854C305.476 139.606 299.596 137.592 293.634 137.643C285.374 137.716 277.75 142.523 271.822 147.921C265.552 153.639 260.477 160.543 256.891 168.234C254.867 172.59 253.355 177.166 252.387 181.871Z" fill="black"/>
<path d="M266.142 96.2175C264.894 97.0595 264.458 98.6863 264.299 100.186C263.623 106.563 266.253 112.876 266.078 119.285C265.939 124.384 264.039 129.249 262.165 133.992C258.969 142.085 257.304 150.873 256.659 159.55C256.015 168.227 255.071 177.264 250.414 184.603C249.356 186.265 248.123 187.809 247.088 189.48C246.001 191.228 245.141 193.102 244.181 194.92C241.354 200.287 237.711 205.183 233.38 209.43C232.109 210.669 230.763 211.871 229.142 212.585C228.098 213.038 226.974 213.278 225.836 213.29C224.698 213.302 223.569 213.086 222.516 212.655C220.343 211.756 218.513 209.729 218.424 207.378C218.345 205.274 219.599 203.378 220.857 201.694C225.121 195.989 230.024 190.791 235.47 186.201C236.458 185.369 237.5 184.508 238.012 183.319C238.587 181.95 238.352 180.396 238.425 178.913C238.542 176.546 239.464 174.299 240.013 171.992C242.237 162.623 238.285 152.392 241.5 143.314C242.215 141.297 243.276 139.368 243.527 137.243C243.705 135.756 243.336 134.094 242.405 132.979C241.534 131.977 241.046 130.697 241.03 129.369C241.03 129.096 241.03 128.826 241.062 128.559C241.449 124.4 241.833 120.222 241.624 116.05C241.414 111.878 240.585 107.684 238.66 103.976C237.662 102.054 236.373 100.256 235.756 98.1811C234.765 94.8227 235.68 91.1911 237.157 88.0138C238.31 85.5292 239.848 83.1621 241.996 81.4591C245.986 78.2977 251.958 77.9323 256.326 80.5472C259.547 82.4726 261.752 85.7103 263.54 89.0115C264.824 91.423 266.161 93.466 266.142 96.2175Z" fill="#A1616A"/>
<path d="M248.59 117.563C255.231 117.563 260.614 109.114 260.614 98.6927C260.614 88.2711 255.231 79.8228 248.59 79.8228C241.95 79.8228 236.566 88.2711 236.566 98.6927C236.566 109.114 241.95 117.563 248.59 117.563Z" fill="#A1616A"/>
<path d="M217.925 197.3C218.28 197.8 218.521 198.373 218.631 198.976C218.741 199.58 218.717 200.201 218.56 200.795C219.694 201.608 221.071 202.01 222.465 201.932C223.847 201.857 225.207 201.544 226.483 201.007C227.593 200.602 228.645 200.051 229.609 199.368C231.267 198.141 232.468 196.388 233.421 194.57C233.958 193.566 234.415 192.267 233.739 191.364C233.473 191.058 233.149 190.808 232.786 190.627C230.338 189.231 227.79 188.019 225.162 187.002C224.44 186.669 223.656 186.494 222.862 186.487C221.886 186.541 221 187.075 220.225 187.672C218.483 189.027 217.078 190.767 216.121 192.756C215.822 193.391 214.92 194.901 215.368 195.555C215.571 195.857 216.321 195.962 216.638 196.153C217.143 196.44 217.582 196.83 217.925 197.3Z" fill="#FBBEBE"/>
<path opacity="0.03" d="M217.925 197.3C218.28 197.8 218.521 198.373 218.631 198.976C218.741 199.58 218.717 200.201 218.56 200.795C219.694 201.608 221.071 202.01 222.465 201.932C223.847 201.857 225.207 201.544 226.483 201.007C227.593 200.602 228.645 200.051 229.609 199.368C231.267 198.141 232.468 196.388 233.421 194.57C233.958 193.566 234.415 192.267 233.739 191.364C233.473 191.058 233.149 190.808 232.786 190.627C230.338 189.231 227.79 188.019 225.162 187.002C224.44 186.669 223.656 186.494 222.862 186.487C221.886 186.541 221 187.075 220.225 187.672C218.483 189.027 217.078 190.767 216.121 192.756C215.822 193.391 214.92 194.901 215.368 195.555C215.571 195.857 216.321 195.962 216.638 196.153C217.143 196.44 217.582 196.83 217.925 197.3Z" fill="black"/>
<path d="M231.08 189.938C236.455 190.935 241.398 193.534 246.681 194.936C248.819 195.501 251.021 195.889 253.063 196.721C255.106 197.554 257.031 198.977 257.911 201.004C258.283 201.977 258.53 202.994 258.645 204.029C258.874 205.494 259.061 207.13 258.191 208.331C257.272 209.602 255.538 209.882 253.985 210.069C248.4 210.733 242.815 211.4 237.211 211.871C236.077 211.939 234.947 212.074 233.828 212.274C232.907 212.458 232.008 212.738 231.093 212.954C229.908 213.23 228.704 213.405 227.503 213.589C224.431 214.031 221.324 214.473 218.24 214.136C216.832 213.98 215.257 213.526 214.637 212.255C214.38 211.596 214.272 210.889 214.32 210.183C214.304 208.296 214.288 206.412 214.32 204.528C214.348 202.593 214.443 200.585 215.32 198.86C215.538 198.331 215.948 197.905 216.467 197.668C216.787 197.577 217.121 197.546 217.452 197.579C219.104 197.636 220.813 197.706 222.29 198.443C223.462 199.025 224.415 199.994 225.61 200.521C227.872 201.525 230.6 200.804 232.891 201.748C233.425 200.102 233.304 198.437 232.907 196.75C232.51 195.063 231.954 193.407 231.785 191.685C231.779 191.307 231.706 190.933 231.569 190.58C231.398 190.227 231.455 189.884 231.08 189.938Z" fill="#464353"/>
<path opacity="0.06" d="M231.08 189.938C236.455 190.935 241.398 193.534 246.681 194.936C248.819 195.501 251.021 195.889 253.063 196.721C255.106 197.554 257.031 198.977 257.911 201.004C258.283 201.977 258.53 202.994 258.645 204.029C258.874 205.494 259.061 207.13 258.191 208.331C257.272 209.602 255.538 209.882 253.985 210.069C248.4 210.733 242.815 211.4 237.211 211.871C236.077 211.939 234.947 212.074 233.828 212.274C232.907 212.458 232.008 212.738 231.093 212.954C229.908 213.23 228.704 213.405 227.503 213.589C224.431 214.031 221.324 214.473 218.24 214.136C216.832 213.98 215.257 213.526 214.637 212.255C214.38 211.596 214.272 210.889 214.32 210.183C214.304 208.296 214.288 206.412 214.32 204.528C214.348 202.593 214.443 200.585 215.32 198.86C215.538 198.331 215.948 197.905 216.467 197.668C216.787 197.577 217.121 197.546 217.452 197.579C219.104 197.636 220.813 197.706 222.29 198.443C223.462 199.025 224.415 199.994 225.61 200.521C227.872 201.525 230.6 200.804 232.891 201.748C233.425 200.102 233.304 198.437 232.907 196.75C232.51 195.063 231.954 193.407 231.785 191.685C231.779 191.307 231.706 190.933 231.569 190.58C231.398 190.227 231.455 189.884 231.08 189.938Z" fill="black"/>
<path d="M51.527 135.762C50.4437 135.419 49.3985 136.378 48.7918 137.351C46.2694 141.316 46.4759 146.609 48.4932 150.854C48.9731 151.931 49.6351 152.916 50.45 153.768C51.5428 154.845 52.9501 155.534 54.2621 156.309C57.9026 158.46 61.0225 161.39 63.3985 164.888C64.9519 167.179 66.175 169.698 67.9381 171.83C72.2775 177.079 79.4093 179.456 83.6185 184.794C84.6255 186.065 85.4769 187.539 86.8207 188.463C87.6195 189.013 88.5504 189.339 89.5174 189.408C90.4843 189.477 91.4521 189.287 92.3209 188.857C93.1897 188.427 93.928 187.772 94.4594 186.961C94.9908 186.151 95.2962 185.212 95.3439 184.244C96.9799 181.839 98.3173 179.183 99.5912 176.565C101.476 172.569 103.069 168.441 104.356 164.214C104.83 162.721 105.287 161.218 105.891 159.766C107.381 156.182 109.754 152.938 110.592 149.151C110.929 147.632 111.012 146.053 111.501 144.579C111.939 143.256 112.689 142.057 113.686 141.084C116.99 137.872 118.769 133.192 121.396 129.411C122.464 127.882 123.573 126.357 124.278 124.629C124.983 122.9 125.253 120.921 124.595 119.173C123.938 117.426 122.219 116.015 120.358 116.114C119.525 116.2 118.716 116.448 117.978 116.844C115.413 118.062 113.059 119.684 111.008 121.648C110.112 122.512 109.263 123.424 108.467 124.381C104.585 129.02 101.548 134.65 101.281 140.693C101.192 142.765 101.357 145.062 100.042 146.666C96.4145 151.099 95.2486 157.193 92.1544 162.016C90.7217 164.24 89.0793 166.543 86.6301 167.557C86.2683 167.731 85.8681 167.81 85.4674 167.786C84.4889 167.675 83.9266 166.645 83.5137 165.749C81.8998 162.255 80.0322 158.883 77.9258 155.661C77.0935 154.39 76.1754 153.088 74.8443 152.341C73.9358 151.836 72.8811 151.61 72.0265 151.019C70.8353 150.196 70.2126 148.795 69.5931 147.483C67.5855 143.245 65.0435 139.281 62.0293 135.689C60.6506 134.046 58.8335 132.35 56.7051 132.594C54.6783 132.833 53.4394 134.964 51.527 135.762Z" fill="#FBBEBE"/>
<path opacity="0.03" d="M51.527 135.762C50.4437 135.419 49.3985 136.378 48.7918 137.351C46.2694 141.316 46.4759 146.609 48.4932 150.854C48.9731 151.931 49.6351 152.916 50.45 153.768C51.5428 154.845 52.9501 155.534 54.2621 156.309C57.9026 158.46 61.0225 161.39 63.3985 164.888C64.9519 167.179 66.175 169.698 67.9381 171.83C72.2775 177.079 79.4093 179.456 83.6185 184.794C84.6255 186.065 85.4769 187.539 86.8207 188.463C87.6195 189.013 88.5504 189.339 89.5174 189.408C90.4843 189.477 91.4521 189.287 92.3209 188.857C93.1897 188.427 93.928 187.772 94.4594 186.961C94.9908 186.151 95.2962 185.212 95.3439 184.244C96.9799 181.839 98.3173 179.183 99.5912 176.565C101.476 172.569 103.069 168.441 104.356 164.214C104.83 162.721 105.287 161.218 105.891 159.766C107.381 156.182 109.754 152.938 110.592 149.151C110.929 147.632 111.012 146.053 111.501 144.579C111.939 143.256 112.689 142.057 113.686 141.084C116.99 137.872 118.769 133.192 121.396 129.411C122.464 127.882 123.573 126.357 124.278 124.629C124.983 122.9 125.253 120.921 124.595 119.173C123.938 117.426 122.219 116.015 120.358 116.114C119.525 116.2 118.716 116.448 117.978 116.844C115.413 118.062 113.059 119.684 111.008 121.648C110.112 122.512 109.263 123.424 108.467 124.381C104.585 129.02 101.548 134.65 101.281 140.693C101.192 142.765 101.357 145.062 100.042 146.666C96.4145 151.099 95.2486 157.193 92.1544 162.016C90.7217 164.24 89.0793 166.543 86.6301 167.557C86.2683 167.731 85.8681 167.81 85.4674 167.786C84.4889 167.675 83.9266 166.645 83.5137 165.749C81.8998 162.255 80.0322 158.883 77.9258 155.661C77.0935 154.39 76.1754 153.088 74.8443 152.341C73.9358 151.836 72.8811 151.61 72.0265 151.019C70.8353 150.196 70.2126 148.795 69.5931 147.483C67.5855 143.245 65.0435 139.281 62.0293 135.689C60.6506 134.046 58.8335 132.35 56.7051 132.594C54.6783 132.833 53.4394 134.964 51.527 135.762Z" fill="black"/>
<path d="M51.3046 120.581C55.9294 120.581 59.6785 117.197 59.6785 113.022C59.6785 108.848 55.9294 105.463 51.3046 105.463C46.6798 105.463 42.9307 108.848 42.9307 113.022C42.9307 117.197 46.6798 120.581 51.3046 120.581Z" fill="#FBBEBE"/>
<path d="M59.1573 114.484C60.8223 114.484 62.1721 113.134 62.1721 111.468C62.1721 109.803 60.8223 108.453 59.1573 108.453C57.4923 108.453 56.1426 109.803 56.1426 111.468C56.1426 113.134 57.4923 114.484 59.1573 114.484Z" fill="#FBBEBE"/>
<path d="M52.4039 113.022C58.7744 113.022 63.9387 111.641 63.9387 109.937C63.9387 108.233 58.7744 106.852 52.4039 106.852C46.0334 106.852 40.8691 108.233 40.8691 109.937C40.8691 111.641 46.0334 113.022 52.4039 113.022Z" fill="#FBBEBE"/>
<path d="M42.1175 109.279C42.3981 110.169 42.6189 111.077 42.7782 111.996C41.8097 111.013 40.9706 109.91 40.2813 108.714C40.0955 108.508 39.9461 108.271 39.8397 108.015C38.8105 105.619 38.1084 103.195 38.1084 100.57C38.1082 97.5274 38.9586 94.5451 40.5637 91.96C42.1688 89.375 44.4646 87.2903 47.1918 85.9415C49.919 84.5926 52.9689 84.0333 55.9972 84.3266C59.0255 84.62 61.9114 85.7544 64.3291 87.6017C66.7467 89.449 68.5998 91.9356 69.679 94.7806C70.7582 97.6257 71.0206 100.716 70.4365 103.702C69.8523 106.689 68.4449 109.452 66.3733 111.681C64.3017 113.909 61.6483 115.514 58.7128 116.314C59.2116 114.706 59.8946 113.137 59.9835 111.468C60.0371 110.912 59.9565 110.351 59.7484 109.832C59.4697 109.28 59.0581 108.806 58.5508 108.453C56.7337 107.065 54.3956 106.458 52.1083 106.496C49.8184 106.591 47.5688 107.131 45.4848 108.085C44.8272 108.367 44.0394 108.749 43.2611 109.009C42.89 109.138 42.5068 109.228 42.1175 109.279Z" fill="#FBBEBE"/>
<path d="M83.4948 144.986C82.4496 146.66 80.2164 147.172 78.2531 147.022C74.5935 146.752 71.2643 144.798 68.437 142.447C65.6096 140.096 63.1381 137.363 60.2473 135.101C54.869 130.885 48.811 129.191 41.9683 129.093C43.3057 127.984 42.8133 125.353 42.9213 123.625C43.1564 120.13 43.3787 116.543 42.9213 113.098C42.8736 112.727 42.8196 112.361 42.7561 111.996C42.8641 112.11 42.9785 112.221 43.096 112.336C45.1309 114.289 47.6367 115.682 50.3695 116.379C53.1024 117.076 55.9691 117.054 58.6907 116.314C58.5157 116.867 58.3787 117.432 58.2809 118.004C57.887 120.46 58.5477 122.951 59.199 125.356C59.5865 126.796 60.0472 128.34 61.2321 129.239C62.0009 129.824 62.9698 130.052 63.8815 130.361C65.6989 130.98 67.3764 131.952 68.8182 133.22C69.822 134.1 70.7242 135.126 71.8011 135.892C72.8253 136.54 73.9042 137.097 75.0255 137.557C77.7776 138.827 80.3778 140.404 82.7768 142.256C83.2296 142.539 83.5819 142.957 83.7838 143.451C83.8432 143.713 83.8481 143.984 83.7984 144.248C83.7487 144.512 83.6453 144.763 83.4948 144.986Z" fill="#FBBEBE"/>
<path d="M102.26 175.77C102.041 177.219 100.713 178.35 99.7756 179.475C97.2279 182.551 94.6452 185.636 91.7956 188.451C88.7459 191.46 85.3976 194.141 82.0525 196.823L77.7131 200.296C77.1777 200.785 76.5503 201.163 75.8674 201.408C75.0674 201.607 74.222 201.507 73.4912 201.125C73.2001 200.986 72.9244 200.816 72.6684 200.62C71.7694 199.921 71.1086 198.968 70.4637 198.03C67.5284 193.745 64.5899 189.459 61.6482 185.172C60.5999 183.64 59.5706 182.068 58.5477 180.495C58.4111 180.292 58.2809 180.085 58.1443 179.882C57.2103 178.452 56.2795 177.022 55.3233 175.64L50.0944 173.19L49.4082 172.873L48.5981 172.494C47.5212 171.989 46.4284 171.475 45.5326 170.693C44.6747 169.887 43.9604 168.94 43.42 167.894C42.3737 165.959 41.4588 163.956 40.6817 161.898C38.4579 156.284 36.501 150.431 36.4184 144.388C36.3454 139.073 37.9147 133.544 41.4473 129.643C41.9301 129.106 42.4491 128.602 43.0007 128.136C43.6805 127.568 44.3826 127.234 45.2562 127.358C46.1298 127.482 46.9589 127.609 47.7976 127.752C50.1103 128.15 52.4049 128.637 54.6816 129.214C56.7338 129.738 58.859 130.335 60.9335 129.919C61.267 129.852 61.5974 129.757 61.9278 129.671C62.1978 129.601 62.4647 129.534 62.741 129.49C62.8944 129.463 63.0493 129.447 63.2048 129.439C64.3072 129.382 65.365 129.824 66.3816 130.259C68.3226 131.091 70.3208 131.968 71.7821 133.5C72.6525 134.421 73.291 135.552 74.2186 136.42C75.4576 137.579 77.1095 138.174 78.5962 139.003C78.8834 139.162 79.1603 139.339 79.4253 139.533C80.0117 139.973 80.5448 140.479 81.0137 141.043C82.9388 143.314 84.0825 146.38 86.2077 148.639C87.9085 150.444 89.3867 152.446 90.6107 154.603C90.8108 154.962 91.0046 155.324 91.1952 155.693C91.5129 156.306 91.8083 156.929 92.0815 157.558C92.1514 157.72 92.2213 157.876 92.2848 158.044C92.6846 158.996 93.0334 159.969 93.33 160.958C94.0511 163.357 94.5308 165.946 96.1319 167.872C97.2501 169.209 98.8004 170.096 100.106 171.249C100.947 171.961 101.608 172.861 102.037 173.877C102.273 174.478 102.35 175.13 102.26 175.77Z" fill="#FBBEBE"/>
<path opacity="0.06" d="M93.4158 156.688C93.0515 157.147 92.6777 157.6 92.2944 158.047C92.2308 158.13 92.1609 158.209 92.091 158.289C88.7471 162.201 84.9191 165.672 80.6992 168.618C78.0879 170.442 75.3337 172.059 72.5858 173.673L67.503 176.65C65.3777 177.899 63.2239 179.157 60.8667 179.875C60.1107 180.101 59.3197 180.282 58.5477 180.495C58.4111 180.292 58.2809 180.085 58.1443 179.882C57.2103 178.452 56.2795 177.022 55.3233 175.64L50.0944 173.19C52.9821 171.365 55.5441 169.069 57.6741 166.397C60.8509 162.48 63.2938 158.012 65.7018 153.574C66.1287 152.857 66.4608 152.088 66.6897 151.286C67.0074 149.955 66.7406 148.557 66.3498 147.248C64.9195 142.554 61.912 138.499 57.8361 135.768C54.977 133.862 51.7241 132.702 48.4901 131.584C46.2314 130.802 43.7568 130.046 41.46 130.367C41.942 129.83 42.4611 129.328 43.0134 128.864C43.6932 128.292 44.3953 127.959 45.2689 128.083C46.1425 128.206 46.9716 128.334 47.8103 128.48C49.5099 129.001 51.1808 129.623 52.8423 130.265C53.9352 130.666 54.9971 131.147 56.019 131.705C57.0362 132.326 58.0134 133.01 58.9448 133.754C61.6993 135.854 64.5996 137.756 67.6237 139.444C71.1181 141.373 74.7873 142.939 78.4533 144.528C78.842 144.728 79.2711 144.836 79.7081 144.846C79.9269 144.845 80.1395 144.772 80.312 144.638C80.4846 144.503 80.6074 144.315 80.6611 144.102C80.6756 143.871 80.6226 143.64 80.5086 143.438C79.8733 142.139 78.431 141.484 77.1254 140.852C71.7058 138.228 66.9407 134.45 62.2264 130.701C62.1119 130.61 62.0113 130.503 61.9278 130.383L62.741 130.202C68.0169 133.992 73.5889 137.351 79.4031 140.248C79.7102 140.405 80.0183 140.558 80.3275 140.706C80.5499 140.817 80.7691 140.925 80.9947 141.024C82.5608 141.792 84.1269 142.612 85.3055 143.883C86.0656 144.76 86.7065 145.733 87.2116 146.778C88.51 149.231 89.6187 151.78 90.5281 154.403C90.5454 154.459 90.5655 154.514 90.5885 154.568C90.7037 154.969 90.903 155.34 91.173 155.658C91.2681 155.765 91.3809 155.854 91.5065 155.922C92.1038 156.274 92.9234 156.236 93.4158 156.688Z" fill="black"/>
<path d="M62.7537 129.49C68.0289 133.28 73.601 136.639 79.4158 139.533L80.3402 139.994C82.1192 140.865 83.9713 141.729 85.3214 143.171C86.0808 144.05 86.7216 145.024 87.2274 146.069C88.5267 148.522 89.6345 151.071 90.5408 153.695C90.7441 154.276 90.9824 154.915 91.5224 155.213C92.0624 155.512 92.9202 155.49 93.3999 155.941C92.9678 156.481 92.5294 157.015 92.0752 157.53C88.7321 161.444 84.904 164.916 80.6833 167.862C78.072 169.686 75.3178 171.303 72.5699 172.917L67.4871 175.894C65.3618 177.14 63.208 178.398 60.8509 179.116C59.9645 179.386 59.0274 179.589 58.1284 179.85C57.1944 178.42 56.2636 176.99 55.3074 175.608L49.3923 172.838C52.5691 171.039 55.3392 168.482 57.6519 165.638C60.8286 161.724 63.2715 157.256 65.6795 152.818C66.1059 152.101 66.4379 151.332 66.6675 150.53C66.9852 149.199 66.7183 147.797 66.3276 146.488C64.8965 141.81 61.8978 137.767 57.8361 135.041C54.977 133.134 51.724 131.978 48.4901 130.856C46.2314 130.078 43.7568 129.318 41.46 129.643C41.9428 129.106 42.4618 128.602 43.0134 128.136C43.6932 127.568 44.3953 127.234 45.2689 127.358C46.1425 127.482 46.9716 127.609 47.8103 127.752C49.5099 128.276 51.1808 128.899 52.8423 129.541C53.9358 129.94 54.9977 130.421 56.019 130.98C57.0362 131.601 58.0134 132.286 58.9448 133.03C61.7038 135.125 64.6084 137.021 67.6364 138.704C71.1308 140.636 74.8 142.215 78.4659 143.788C78.8546 143.988 79.2838 144.096 79.7208 144.105C79.9399 144.106 80.153 144.033 80.3258 143.899C80.4986 143.764 80.6211 143.575 80.6738 143.362C80.6881 143.132 80.6351 142.902 80.5213 142.701C79.886 141.402 78.4437 140.744 77.1381 140.115C71.7185 137.49 66.9534 133.709 62.2391 129.948C62.1237 129.858 62.0229 129.751 61.9405 129.63L62.7537 129.49Z" fill="#FFBA08"/>
<path d="M107.263 146.739C118.276 146.739 127.204 137.81 127.204 126.796C127.204 115.781 118.276 106.852 107.263 106.852C96.2504 106.852 87.3228 115.781 87.3228 126.796C87.3228 137.81 96.2504 146.739 107.263 146.739Z" fill="#FFBA08"/>
<path d="M127.089 206.17C130.822 204.998 134.612 203.803 137.89 201.659C140.193 200.153 142.179 198.215 144.269 196.423C145.842 195.075 147.481 193.804 148.923 192.318C150.215 190.926 151.424 189.46 152.544 187.926C155.094 184.588 157.728 181.314 160.445 178.102C161.903 176.39 163.444 174.645 165.48 173.692C169.098 171.992 173.346 173.139 177.164 174.306C182.882 176.053 188.572 177.905 193.922 180.565C196.965 182.08 199.913 183.771 202.985 185.223C208.601 187.876 214.564 189.696 220.505 191.507C220.946 191.695 221.436 191.735 221.902 191.622C222.236 191.469 222.522 191.23 222.732 190.929C223.506 189.972 224.127 188.9 224.571 187.752C224.656 187.621 224.687 187.464 224.659 187.311C224.632 187.158 224.547 187.021 224.422 186.929C221.88 184.454 218.583 182.932 215.501 181.168C213.049 179.767 210.701 178.195 208.357 176.622C206.104 175.113 203.833 173.587 201.943 171.646C200.99 170.664 200.132 169.581 199.1 168.685C198.188 167.939 197.221 167.261 196.209 166.658C191.681 163.766 187.358 160.563 183.273 157.072C180.166 154.416 177.622 150.994 174.302 148.611C172.266 147.149 169.896 145.818 167.405 146.085C164.375 146.403 162.138 148.944 160.026 151.137C152.926 158.511 143.967 163.789 136.044 170.274C129.577 175.561 123.531 181.842 115.653 184.632C116.005 185.801 116.129 186.97 116.485 188.127C116.929 189.734 117.482 191.31 118.14 192.842C118.793 194.199 119.529 195.514 120.342 196.782L123.499 201.938C124.135 202.987 124.799 204.051 125.707 204.884C126.184 205.341 127.089 205.506 127.089 206.17Z" fill="#464353"/>
<path opacity="0.06" d="M127.089 206.17C130.822 204.998 134.612 203.803 137.89 201.659C140.193 200.153 142.179 198.215 144.269 196.423C145.842 195.075 147.481 193.804 148.923 192.318C150.215 190.926 151.424 189.46 152.544 187.926C155.094 184.588 157.728 181.314 160.445 178.102C161.903 176.39 163.444 174.645 165.48 173.692C169.098 171.992 173.346 173.139 177.164 174.306C182.882 176.053 188.572 177.905 193.922 180.565C196.965 182.08 199.913 183.771 202.985 185.223C208.601 187.876 214.564 189.696 220.505 191.507C220.946 191.695 221.436 191.735 221.902 191.622C222.236 191.469 222.522 191.23 222.732 190.929C223.506 189.972 224.127 188.9 224.571 187.752C224.656 187.621 224.687 187.464 224.659 187.311C224.632 187.158 224.547 187.021 224.422 186.929C221.88 184.454 218.583 182.932 215.501 181.168C213.049 179.767 210.701 178.195 208.357 176.622C206.104 175.113 203.833 173.587 201.943 171.646C200.99 170.664 200.132 169.581 199.1 168.685C198.188 167.939 197.221 167.261 196.209 166.658C191.681 163.766 187.358 160.563 183.273 157.072C180.166 154.416 177.622 150.994 174.302 148.611C172.266 147.149 169.896 145.818 167.405 146.085C164.375 146.403 162.138 148.944 160.026 151.137C152.926 158.511 143.967 163.789 136.044 170.274C129.577 175.561 123.531 181.842 115.653 184.632C116.005 185.801 116.129 186.97 116.485 188.127C116.929 189.734 117.482 191.31 118.14 192.842C118.793 194.199 119.529 195.514 120.342 196.782L123.499 201.938C124.135 202.987 124.799 204.051 125.707 204.884C126.184 205.341 127.089 205.506 127.089 206.17Z" fill="black"/>
<path d="M214.056 200.118C214.41 200.619 214.651 201.191 214.761 201.795C214.87 202.399 214.847 203.019 214.691 203.613C215.82 204.429 217.195 204.834 218.586 204.76C219.971 204.683 221.333 204.372 222.614 203.838C223.724 203.432 224.775 202.881 225.74 202.199C227.401 200.972 228.599 199.219 229.568 197.398C230.105 196.397 230.562 195.098 229.87 194.195C229.605 193.888 229.281 193.637 228.917 193.458C226.474 192.063 223.931 190.851 221.308 189.833C220.586 189.501 219.803 189.325 219.008 189.315C218.03 189.369 217.144 189.906 216.368 190.503C214.627 191.859 213.224 193.599 212.267 195.587C211.969 196.222 211.066 197.735 211.511 198.389C211.714 198.691 212.464 198.796 212.782 198.983C213.281 199.268 213.715 199.655 214.056 200.118Z" fill="#FBBEBE"/>
<path d="M228.602 192.6C233.977 193.601 238.92 196.197 244.203 197.598C246.341 198.164 248.543 198.551 250.585 199.384C252.628 200.216 254.553 201.64 255.433 203.667C255.805 204.64 256.051 205.656 256.167 206.692C256.396 208.156 256.583 209.793 255.713 210.994C254.795 212.265 253.06 212.547 251.507 212.732C245.922 213.399 240.337 214.063 234.733 214.533C233.601 214.604 232.474 214.738 231.357 214.937C230.435 215.124 229.536 215.4 228.621 215.617C227.44 215.896 226.232 216.068 225.032 216.252C221.96 216.69 218.853 217.135 215.768 216.795C214.361 216.64 212.785 216.185 212.166 214.914C211.909 214.256 211.8 213.548 211.848 212.843C211.848 210.959 211.816 209.071 211.848 207.187C211.877 205.252 211.972 203.244 212.849 201.519C213.067 200.991 213.477 200.566 213.996 200.327C214.315 200.236 214.649 200.206 214.98 200.238C216.632 200.296 218.341 200.366 219.819 201.103C220.991 201.684 221.836 199.946 223.03 200.467C225.295 201.468 223.761 198.434 226.048 199.377C226.582 197.732 228.85 198.71 228.456 197.023C228.062 195.336 229.476 196.07 229.314 194.335C229.307 193.957 229.234 193.583 229.098 193.229C228.92 192.889 228.977 192.546 228.602 192.6Z" fill="#464353"/>
<path opacity="0.06" d="M67.5916 90.9432C66.359 91.6613 64.831 91.5279 63.3951 91.4961C62.1394 91.4701 60.8834 91.5349 59.637 91.6899C59.1882 91.7213 58.7494 91.8377 58.3441 92.0331C57.8162 92.3736 57.399 92.8605 57.1433 93.4342C56.6349 94.4109 56.2924 95.4653 56.1299 96.5543C55.952 97.7776 55.971 99.1152 55.2086 100.084C54.1698 101.403 52.5497 101.2 51.0788 101.46C49.7988 101.706 48.5719 102.175 47.4542 102.845C46.3521 103.511 45.4064 104.406 44.6817 105.471C43.9569 106.535 43.4701 107.743 43.2545 109.012C43.2132 109.302 43.1846 109.588 43.1719 109.877C43.1401 110.696 43.2227 111.532 43.1147 112.336C43.0886 112.537 43.0482 112.735 42.994 112.93C42.9799 112.987 42.9619 113.044 42.94 113.098C42.8923 112.727 42.8383 112.361 42.7748 111.996C41.8063 111.013 40.9672 109.91 40.2779 108.714C40.0921 108.508 39.9427 108.271 39.8363 108.015C38.807 105.619 38.105 103.195 38.105 100.57C38.1048 97.1287 39.1928 93.775 41.2134 90.9892C43.234 88.2033 46.0837 86.1278 49.3549 85.0597C52.6262 83.9915 56.1514 83.9854 59.4263 85.0421C62.7012 86.0989 65.5581 88.1644 67.5884 90.9432H67.5916Z" fill="black"/>
<path d="M68.6369 84.6904C67.8204 82.7999 66.0955 81.4591 64.3228 80.4074C60.8284 78.3231 56.8066 77.0141 52.7277 76.9601C50.6697 76.9606 48.6172 77.1735 46.6029 77.5955C44.64 77.9464 42.717 78.4925 40.8625 79.2254C37.8026 80.4983 35.0977 82.4959 32.981 85.0462C32.5363 85.0799 32.0953 85.1512 31.6626 85.2591C29.9345 85.6912 28.3779 86.6412 26.9579 87.7183C25.7695 88.5792 24.7142 89.6102 23.8256 90.778C22.7856 92.2695 22.0663 93.9605 21.713 95.7441C20.5027 101.323 21.9926 107.081 23.0854 112.682C24.1782 118.284 24.8167 124.403 22.1324 129.436C21.119 131.342 19.6799 132.963 18.5998 134.818C17.5197 136.674 16.8018 138.907 17.4149 140.966C18.1456 143.47 20.6044 145.059 21.8878 147.311C22.6738 148.785 22.9543 150.476 22.6863 152.124C22.4183 153.773 21.6165 155.288 20.4042 156.437C22.4215 157.136 24.6674 156.383 26.4845 155.264C27.9252 154.425 29.151 153.262 30.0647 151.868C32.3488 148.169 31.3354 143.394 32.1296 139.12C33.1875 133.528 37.457 128.54 36.8693 122.878C36.4722 119.065 33.9562 115.904 31.9771 112.635C30.657 110.454 29.5475 108.153 28.6638 105.762C28.0284 104.056 27.5138 102.223 27.8283 100.431C27.9324 99.8835 28.0997 99.3504 28.327 98.842C28.327 98.9023 28.327 98.9627 28.327 99.0231C28.3632 100.669 28.7328 102.29 29.4135 103.789C31.777 108.618 38.0701 110.398 40.7354 115.065C41.5137 114.217 42.3238 113.327 42.6415 112.222C42.921 111.237 42.7781 110.188 42.8194 109.165C42.9306 106.305 44.6683 103.611 47.1017 102.137C48.2185 101.465 49.4458 100.997 50.7263 100.755C52.194 100.491 53.8141 100.691 54.8561 99.3726C55.6185 98.4194 55.5995 97.0659 55.7805 95.8458C55.9416 94.7554 56.2841 93.6997 56.7939 92.7225C57.0487 92.149 57.4663 91.6629 57.9947 91.3245C58.4006 91.1275 58.8407 91.011 59.2908 90.9814C60.5362 90.8263 61.7911 90.7615 63.0458 90.7876C64.4975 90.8225 66.051 90.9528 67.2963 90.2061C69.0498 89.1386 69.4533 86.5967 68.6369 84.6904Z" fill="#464353"/>
<path opacity="0.06" d="M246.157 67.1518C246.157 67.1963 246.157 67.2376 246.157 67.2821C245.582 72.2386 240.817 72.0099 239.705 79.8196C239.267 82.8793 234.622 83.4449 231.569 84.2678C230.251 83.823 228.917 83.4385 227.598 82.9587C224.549 81.8562 226.68 80.2009 227.986 78.4216C232.259 72.5945 233.069 64.6322 237.92 59.2785C239.699 62.6591 242.513 65.3814 245.951 67.0469C246.017 67.0914 246.087 67.1232 246.157 67.1518Z" fill="black"/>
<path d="M246.268 64.3081C246.268 65.0598 246.225 65.8108 246.141 66.5576C245.556 71.7164 242.983 76.4436 238.968 79.7347C234.953 83.0258 229.813 84.6212 224.641 84.182C219.469 83.7428 214.671 81.3036 211.269 77.3827C207.866 73.4618 206.126 68.3683 206.419 63.1847C206.712 58.0012 209.014 53.1361 212.837 49.6235C216.659 46.1109 221.701 44.2276 226.89 44.3738C232.078 44.5201 237.006 46.6844 240.624 50.4068C244.243 54.1293 246.268 59.1163 246.268 64.3081Z" fill="#A1616A"/>
<path d="M254.289 66.5386C256.573 66.4274 258.768 67.3234 260.878 68.2035C269.242 71.6985 277.677 75.2221 285.151 80.3534C288.836 82.8952 292.251 85.7802 295.66 88.6747L309.666 100.577C312.357 102.861 315.067 105.168 317.227 107.964C318.499 109.688 319.658 111.493 320.699 113.365L322.777 116.908C323.628 118.295 324.371 119.745 325.001 121.245C326.068 123.981 326.465 127.171 328.619 129.169C330.064 130.513 332.056 131.06 333.822 131.946C335.589 132.833 337.317 134.389 337.288 136.366C337.288 137.637 336.519 138.78 335.941 139.924C334.744 142.314 334.242 144.993 334.493 147.655L311.588 130.148C310.677 129.452 309.724 128.734 308.602 128.499C307.147 128.181 305.664 128.731 304.26 129.226C293.19 133.131 281.427 134.677 269.725 133.767C264.55 133.36 259.296 132.429 254.766 129.897C252.259 128.499 250.042 126.646 247.84 124.813C245.093 122.513 242.335 120.206 239.899 117.575C239.263 116.873 238.602 116.101 238.44 115.161C238.32 114.481 238.469 113.788 238.526 113.102C238.926 108.282 234.924 104.269 233.704 99.5887C233.162 97.3819 233.237 95.0685 233.921 92.9015C234.605 90.7346 235.872 88.7975 237.583 87.3021C240.312 89.6914 240.213 93.8886 239.895 97.5012C239.467 102.366 240.826 104.777 240.397 109.645C242.125 109.581 241.811 110.693 242.548 109.127C243.285 107.56 243.428 105.794 243.568 104.069C244.078 97.8284 244.698 91.5989 245.426 85.3799C245.788 82.2693 246.201 79.1651 246.598 76.0577C246.84 74.1672 246.808 72.4007 247.806 70.7231C249.191 68.4005 251.545 66.6689 254.289 66.5386Z" fill="#FFBA08"/>
<path d="M257.279 72.2068C258.734 71.7493 260.3 72.1687 261.761 72.604C264.345 73.3708 266.914 74.181 269.468 75.0346C271.555 75.7304 273.671 76.4771 275.437 77.7893C277.27 79.1492 278.614 81.0397 279.945 82.8984C280.898 84.236 281.851 85.5895 282.486 87.1083C283.312 89.0973 283.535 91.2769 283.757 93.4184C283.903 94.3425 283.891 95.2847 283.722 96.2048C283.424 97.2039 282.899 98.1206 282.188 98.8833C281.094 100.178 279.826 101.315 278.42 102.261C274.681 104.777 270.16 105.826 265.757 106.75C261.828 107.573 257.87 108.339 253.861 108.587C252.301 108.685 250.49 108.587 249.537 107.354C249.266 106.97 249.052 106.548 248.902 106.102C246.559 99.897 245.545 93.2693 245.925 86.6476C245.959 85.4406 246.146 84.2428 246.481 83.0827C246.811 82.1543 247.22 81.256 247.704 80.3979C248.908 78.1198 250.175 75.7622 252.25 74.2371C254.42 72.6485 257.231 72.1465 259.922 72.2481" fill="#A1616A"/>
<path opacity="0.06" d="M271.914 95.7696C270.666 96.6115 270.231 98.2383 270.072 99.738C269.395 106.115 272.026 112.428 271.851 118.837C271.711 123.92 269.811 128.801 267.937 133.544C264.741 141.637 263.077 150.425 262.432 159.102C261.787 167.779 260.843 176.816 256.186 184.155C255.128 185.817 253.896 187.361 252.86 189.032C251.774 190.78 250.913 192.654 249.954 194.472C247.127 199.839 243.483 204.735 239.153 208.982C237.882 210.222 236.535 211.423 234.915 212.137C233.871 212.59 232.747 212.83 231.609 212.842C230.47 212.854 229.342 212.638 228.288 212.207C226.115 211.308 224.285 209.281 224.196 206.93C224.117 204.826 225.372 202.93 226.63 201.246C230.894 195.541 235.797 190.343 241.243 185.753C242.231 184.921 243.273 184.06 243.784 182.871C244.359 181.502 244.124 179.948 244.197 178.465C244.315 176.098 245.236 173.851 245.786 171.544C248.009 162.175 244.058 151.944 247.272 142.866C247.987 140.849 249.048 138.92 249.299 136.795C249.477 135.308 249.105 133.646 248.178 132.531C247.306 131.528 246.818 130.25 246.799 128.921C246.799 128.648 246.799 128.378 246.834 128.111C247.222 123.952 247.606 119.774 247.396 115.602C247.187 111.43 246.357 107.236 244.432 103.528C243.435 101.606 242.145 99.8079 241.529 97.7331C240.538 94.3747 241.453 90.7431 242.93 87.5658C244.083 85.0812 245.62 82.7141 247.768 81.0111C251.758 77.8497 257.73 77.4843 262.098 80.0992C265.32 82.0247 267.524 85.2623 269.313 88.5635C270.596 90.9751 271.949 93.018 271.914 95.7696Z" fill="black"/>
<path d="M272.638 95.7696C271.39 96.6115 270.955 98.2383 270.796 99.738C270.119 106.115 272.75 112.428 272.575 118.837C272.435 123.92 270.535 128.801 268.661 133.544C265.465 141.637 263.804 150.425 263.156 159.102C262.508 167.779 261.567 176.816 256.91 184.155C255.852 185.817 254.623 187.361 253.584 189.032C252.501 190.78 251.637 192.654 250.677 194.472C247.85 199.839 244.206 204.734 239.877 208.982C238.606 210.222 237.256 211.423 235.636 212.137C234.591 212.59 233.467 212.83 232.329 212.842C231.191 212.854 230.062 212.638 229.009 212.207C226.839 211.308 225.009 209.281 224.92 206.93C224.838 204.826 226.093 202.93 227.354 201.246C231.617 195.54 236.52 190.342 241.967 185.753C242.955 184.921 244 184.06 244.508 182.871C245.086 181.502 244.848 179.948 244.921 178.465C245.039 176.098 245.96 173.851 246.51 171.544C248.733 162.175 244.781 151.944 247.996 142.866C248.711 140.849 249.775 138.92 250.026 136.795C250.201 135.308 249.832 133.646 248.905 132.531C248.017 131.535 247.515 130.255 247.488 128.921C247.488 128.648 247.488 128.378 247.523 128.111C247.907 123.952 248.292 119.774 248.082 115.602C247.872 111.43 247.043 107.236 245.118 103.528C244.121 101.606 242.831 99.8079 242.215 97.7331C241.223 94.3747 242.138 90.7431 243.616 87.5658C244.772 85.0812 246.306 82.7141 248.454 81.0111C252.444 77.8497 258.416 77.4843 262.784 80.0992C266.005 82.0247 268.21 85.2623 269.999 88.5635C271.314 90.9751 272.661 93.018 272.638 95.7696Z" fill="#A1616A"/>
<path d="M304.765 178.738L304.492 178.82L304.765 178.738Z" fill="#464353"/>
<path d="M249.124 192.915C249.136 192.808 249.155 192.702 249.181 192.597L249.124 192.915Z" fill="#464353"/>
<path d="M317.234 171.112C318.148 170.054 319.559 169.581 320.915 169.228C323.101 168.663 325.334 168.299 327.587 168.142C328.985 167.991 330.398 168.078 331.767 168.399C333.12 168.771 334.404 169.578 335.09 170.801C335.697 171.881 335.792 173.165 335.872 174.401C336.037 176.943 336.189 179.484 335.77 181.988C335.5 183.577 334.995 185.115 334.668 186.691C333.607 191.857 334.528 197.204 334.432 202.478C334.41 203.603 334.337 204.757 333.864 205.776C333.359 206.86 332.45 207.683 331.564 208.496C330.589 209.376 329.597 210.263 328.422 210.851C326.681 211.724 324.677 211.871 322.729 211.931C321.544 211.966 320.324 211.969 319.235 211.534C318.145 211.098 317.164 210.12 317.084 208.935C316.957 206.923 319.225 205.608 319.873 203.702C320.388 202.183 319.797 200.505 318.978 199.123C317.663 196.92 315.787 195.105 313.542 193.865C312.71 193.407 311.824 193.023 311.131 192.378C310.438 191.733 309.968 190.732 310.264 189.836C310.616 188.753 311.878 188.247 313.012 188.139C314.146 188.031 315.343 188.114 316.363 187.609C317.272 187.161 317.904 186.297 318.339 185.385C319.265 183.438 319.394 181.207 318.698 179.167C318.423 178.391 318.023 177.664 317.516 177.016C317.04 176.406 316.061 175.891 315.721 175.224C315.118 174.023 316.423 172.066 317.234 171.112Z" fill="#FFBA08"/>
<path opacity="0.06" d="M298.774 125.067C293.526 120.428 286.21 119.167 279.348 117.759C275.813 117.037 272.295 116.232 268.795 115.345C266.495 114.76 264.188 114.137 261.806 113.975C259.423 113.813 256.971 114.147 254.931 115.361C252.892 116.574 251.354 118.773 251.342 121.146C251.342 122.1 251.567 123.034 251.497 123.977C251.386 125.496 250.544 126.837 249.969 128.257C249.09 130.502 248.955 132.971 249.585 135.298C250.601 139.006 253.53 142.272 253.276 146.101C252.854 152.509 252.984 159.207 254.299 165.482C255.614 171.757 257.257 178.061 257.219 184.482C257.18 190.904 255.236 197.655 250.443 201.932C253.691 204.982 257.663 207.153 261.984 208.239C265.678 209.163 270.072 209.071 272.702 206.317C273.312 205.681 273.817 204.833 273.69 203.959C273.559 203.408 273.327 202.885 273.007 202.418C271.199 199.18 271.419 195.19 272.219 191.574C273.02 187.958 274.389 184.444 274.735 180.752C274.989 178.074 274.703 175.351 275.215 172.707C275.609 170.683 276.46 168.777 276.972 166.779C278.481 160.85 276.895 154.625 275.32 148.719C276.638 151.753 279.132 154.12 281.711 156.179C285.625 159.299 290.358 162.054 295.333 161.501C299.762 161.005 303.532 157.927 306.134 154.314C306.156 150.136 307.605 146.187 307.348 142.018C307.182 140.187 306.854 138.374 306.369 136.601C305.883 134.618 305.384 132.616 304.463 130.796C303.247 128.378 300.8 126.856 298.774 125.067Z" fill="black"/>
<path d="M299.86 125.067C294.612 120.428 287.299 119.167 280.434 117.759C276.899 117.037 273.383 116.232 269.884 115.345C267.584 114.76 265.275 114.137 262.895 113.975C260.516 113.813 258.063 114.147 256.024 115.361C253.984 116.574 252.444 118.773 252.434 121.146C252.434 122.1 252.657 123.034 252.587 123.977C252.479 125.496 251.618 126.837 251.059 128.257C250.18 130.503 250.047 132.971 250.677 135.298C251.691 139.006 254.62 142.272 254.369 146.101C253.943 152.509 254.073 159.207 255.389 165.482C256.704 171.757 258.346 178.061 258.308 184.482C258.27 190.904 256.313 197.633 251.516 201.903C254.764 204.953 258.737 207.124 263.057 208.21C266.752 209.135 271.148 209.043 273.776 206.288C274.386 205.653 274.891 204.804 274.764 203.93C274.632 203.379 274.401 202.857 274.081 202.39C272.273 199.152 272.492 195.161 273.293 191.545C274.093 187.93 275.462 184.416 275.812 180.724C276.063 178.045 275.777 175.322 276.292 172.679C276.682 170.655 277.537 168.748 278.045 166.75C279.554 160.821 277.972 154.597 276.393 148.69C277.712 151.725 280.205 154.092 282.788 156.151C286.702 159.271 291.432 162.025 296.407 161.472C300.835 160.977 304.606 157.898 307.208 154.285C307.227 150.107 308.675 146.158 308.418 141.989C308.252 140.158 307.925 138.346 307.44 136.572C306.957 134.59 306.455 132.588 305.534 130.767C304.352 128.378 301.887 126.856 299.86 125.067Z" fill="#A1616A"/>
<path d="M263.404 205.246C261.073 203.826 259.06 201.941 257.492 199.708C256.926 198.907 256.418 198.056 255.713 197.376C255.007 196.696 254.051 196.191 253.076 196.292C251.974 196.407 251.09 197.245 250.392 198.11C248.517 200.432 247.31 203.273 245.229 205.417C242.828 207.899 239.476 209.23 236.131 210.082C232.786 210.933 229.333 211.381 226.054 212.458C225.025 212.795 223.942 213.253 223.386 214.184C222.681 215.369 223.068 216.922 223.812 218.098C225.181 220.322 227.538 221.755 229.997 222.607C232.456 223.458 235.057 223.798 237.621 224.3C242.151 225.186 246.792 226.607 251.3 225.606C253.098 225.206 254.795 224.43 256.612 224.094C260.741 223.325 265.001 224.878 269.147 224.256C271.152 223.954 273.045 223.153 274.865 222.251C275.778 221.856 276.608 221.292 277.311 220.589C277.975 219.852 278.376 218.807 278.102 217.853C277.947 217.304 277.588 216.84 277.349 216.322C276.975 215.521 276.898 214.622 276.809 213.742C276.467 210.392 275.885 207.071 275.069 203.803C274.786 202.663 274.363 201.392 273.299 200.893C273.082 200.776 272.828 200.747 272.591 200.814C272.213 200.957 272.089 201.414 271.974 201.799C271.663 202.861 271.065 203.819 270.248 204.566C269.431 205.313 268.424 205.822 267.338 206.038C266.251 206.253 265.126 206.167 264.086 205.788C263.045 205.409 262.128 204.753 261.434 203.889" fill="#FFBA08"/>
<path opacity="0.06" d="M246.268 64.3081C246.268 65.0597 246.225 65.8107 246.141 66.5576C245.14 66.7076 244.118 66.6191 243.157 66.2995C242.197 65.9798 241.325 65.438 240.614 64.718C239.943 64.0063 239.442 63.1452 238.778 62.4272C238.114 61.7091 237.189 61.1118 236.236 61.188C235.423 61.2484 234.718 61.7631 234.162 62.3604C233.438 63.1381 232.908 64.0753 232.615 65.0961C232.402 65.8173 232.297 66.6371 231.7 67.1168C231.103 67.5966 230.369 67.5648 229.66 67.5394C228.742 67.5076 227.789 67.4632 226.979 67.031C225.454 66.2081 224.94 64.324 224.374 62.6845C223.421 59.9298 221.277 54.7191 217.944 54.1631C216.356 53.8994 214.425 54.7382 213.179 55.6437C211.302 57.0067 209.917 57.89 207.49 57.8519C209.02 53.3856 212.084 49.607 216.138 47.188C220.192 44.7691 224.972 43.8666 229.629 44.6413C234.285 45.4159 238.516 47.8173 241.569 51.4184C244.621 55.0196 246.298 59.5869 246.3 64.3081H246.268Z" fill="black"/>
<path d="M207.461 57.1243C206.888 57.1367 206.318 57.0463 205.777 56.8574C204.236 56.2537 203.487 54.4745 203.356 52.8255C203.153 50.3122 203.992 47.8467 204.834 45.4669C205.012 44.949 205.224 44.393 205.688 44.1038C206.064 43.9194 206.474 43.8166 206.892 43.802C209.173 43.4843 211.152 42.0894 212.836 40.5262C214.52 38.963 216.038 37.1901 217.919 35.8874C222.906 32.4464 230.308 33.0882 234.622 37.333C236.331 39.0106 237.799 41.2856 240.169 41.6796C241.535 41.9051 242.999 41.4349 244.299 41.9433C245.252 42.315 245.931 43.157 246.478 44.018C248.25 46.8013 249.083 50.0993 249.359 53.3878C249.635 56.6763 249.381 59.9839 249.124 63.2723C249.138 63.7647 249.012 64.2509 248.759 64.6735C248.555 64.9173 248.3 65.1127 248.012 65.2454C246.804 65.8409 245.44 66.0411 244.112 65.8175C242.784 65.594 241.56 64.9581 240.613 63.9999C239.94 63.2914 239.441 62.4304 238.777 61.7091C238.113 60.9879 237.189 60.3969 236.236 60.4732C235.426 60.5335 234.714 61.0482 234.161 61.6456C233.438 62.4233 232.908 63.3604 232.614 64.3812C232.405 65.1024 232.297 65.9222 231.699 66.3988C231.102 66.8754 230.368 66.85 229.657 66.8245C228.742 66.7896 227.789 66.7483 226.979 66.313C225.451 65.4933 224.936 63.6091 224.374 61.9697C223.421 59.215 221.28 54.001 217.944 53.4482C216.356 53.1813 214.424 54.0233 213.179 54.9288C211.273 56.2823 209.901 57.1656 207.461 57.1243Z" fill="#464353"/>
<path opacity="0.06" d="M102.26 175.77C102.041 177.219 100.713 178.35 99.7757 179.475C97.2279 182.551 94.6452 185.636 91.7957 188.451C88.746 191.46 85.3977 194.141 82.0526 196.823L77.7131 200.296C77.1778 200.785 76.5504 201.163 75.8674 201.408C75.0674 201.607 74.222 201.507 73.4912 201.125C73.5547 200.998 73.6215 200.88 73.6945 200.763L78.898 192.041C79.921 190.332 80.5912 188.775 81.7571 187.17C83.5139 184.768 85.2865 182.354 87.4499 180.317C90.185 177.74 93.6922 175.869 96.9452 174.007C97.4153 172.596 99.3849 172.205 100.716 172.873C101.209 173.128 101.653 173.469 102.028 173.88C102.266 174.48 102.346 175.131 102.26 175.77Z" fill="black"/>
<path d="M79.2599 192.4L74.0563 201.125C73.8435 201.478 73.6243 201.878 73.7164 202.278C73.8333 202.614 74.0563 202.903 74.3518 203.101C76.3468 204.725 78.5578 206.437 79.1836 208.932C79.6316 210.711 79.1836 212.617 79.5839 214.403C80.3177 217.625 83.5548 219.582 86.6172 220.821C93.479 223.598 101.097 224.665 108.388 223.363C115.678 222.06 122.597 218.349 127.318 212.643C128.766 210.889 130.005 208.97 131.381 207.159C135.193 202.154 140.031 198.046 144.831 193.979C151.01 188.743 154.651 180.933 160.08 174.916C161.068 173.819 162.157 172.692 163.574 172.329C164.368 172.129 165.48 172.425 165.512 173.244C165.585 174.833 166.862 176.133 167.736 177.461C171.027 182.493 174.47 187.682 179.556 190.891C182.339 192.651 185.494 193.728 188.639 194.704C196.612 197.188 204.742 199.152 212.861 201.096C213.271 200.277 213.763 199.501 214.329 198.78C215.171 197.748 216.28 196.96 217.125 195.921C218.672 194.049 219.215 191.574 219.71 189.197C214.86 186.227 209.882 183.161 205.097 180.072C202.689 178.522 200.266 176.936 198.315 174.839C197.044 173.46 195.977 171.881 194.703 170.493C193.4 169.146 191.996 167.9 190.503 166.766L179.067 157.606C175.782 154.978 172.434 152.204 169.219 149.485C167.412 147.953 165.407 146.342 163.044 146.269C161.02 146.206 159.158 147.289 157.417 148.331C147.193 154.455 136.815 160.303 126.285 165.876C124.154 167.001 122.013 168.119 119.979 169.413C116.024 171.93 112.511 175.084 109.585 178.747C109.048 179.418 108.368 180.18 107.517 180.079C107.283 180.044 107.058 179.966 106.853 179.847C105.541 179.145 104.737 177.788 103.994 176.501C103.251 175.214 102.422 173.861 101.091 173.194C99.7594 172.526 97.793 172.917 97.3197 174.331C94.0508 176.247 90.5564 178.102 87.818 180.679C85.6547 182.716 83.882 185.127 82.1253 187.533C80.9531 189.137 80.2796 190.694 79.2599 192.4Z" fill="#464353"/>
<path opacity="0.06" d="M70.7368 139.187C70.7368 139.187 75.9689 141.51 79.7207 144.131L70.7368 139.187Z" fill="black"/>
<path d="M332.774 143.962C332.87 146.927 332.946 149.898 332.911 152.859C332.892 154.428 332.825 156.065 332.072 157.441C331.535 158.429 330.687 159.201 329.849 159.957L324.616 164.701C322.993 166.172 321.243 167.706 319.079 168.072C316.605 168.491 314.187 167.287 311.808 166.483C309.412 165.676 306.903 165.254 304.374 165.234C302.926 165.234 301.464 165.349 300.035 165.12C299.001 164.923 297.987 164.635 297.004 164.259L292.28 162.619C292.414 161.428 293.551 160.669 294.504 159.916C297.887 157.17 299.371 152.757 300.438 148.535C301.306 145.238 301.924 141.881 302.287 138.491C302.449 136.814 302.522 135.107 302.169 133.458C301.837 132.128 301.369 130.836 300.772 129.601L299.11 125.855C298.157 123.739 296.251 122.799 294.31 121.55C297.239 122.662 300.81 123.097 303.037 125.302C303.466 125.791 303.975 126.203 304.543 126.522C305.149 126.812 305.839 126.84 306.503 126.948C309.81 127.444 312.621 129.522 315.353 131.444C318.697 133.799 322.134 136.012 325.665 138.081C327.253 139.015 328.892 139.934 330.23 141.208C331.567 142.482 332.615 144.179 332.701 146.025" fill="#464353"/>
<path opacity="0.06" d="M47.8959 138.758C43.7311 139.581 41.5646 144.477 41.8092 148.713C42.0443 152.495 43.5978 156.076 46.1995 158.832C47.9371 160.659 50.1037 162.07 51.673 164.043C53.992 166.953 54.7989 170.801 56.8734 173.892C58.3791 176.136 60.4917 177.896 62.5915 179.583C67.4329 183.447 72.432 187.104 77.589 190.554C79.6856 191.955 81.9792 193.372 84.5016 193.318C86.8778 193.268 89.0666 191.873 90.6168 190.068C92.1671 188.263 93.1582 186.071 94.1652 183.91C97.7931 175.999 101.446 168.002 103.181 159.474C103.724 156.796 104.089 154.034 105.303 151.585C106.256 149.678 107.666 148.045 108.924 146.323C111.896 142.237 113.983 137.575 115.049 132.636C115.742 129.414 115.974 125.963 114.836 122.881C113.699 119.799 110.939 117.127 107.651 116.886C105.049 116.695 102.495 118.03 100.747 119.971C99.0003 121.912 97.971 124.394 97.2689 126.907C96.2625 130.523 95.8758 134.283 96.1253 138.027C96.3286 141.049 96.9449 144.099 96.4239 147.086C96.0554 149.192 95.1373 151.159 94.2288 153.097C91.8812 158.098 89.4954 163.163 85.947 167.395C84.7907 168.774 83.1991 170.169 81.4296 169.845C78.9835 169.4 78.3355 166.302 77.1283 164.126C75.648 161.457 72.8397 159.852 70.6382 157.733C67.5059 154.714 65.6285 150.667 63.4016 146.93C61.1747 143.194 58.2934 139.505 54.189 138.072C50.0846 136.639 44.6143 138.479 43.5596 142.698" fill="black"/>
<path opacity="0.06" d="M51.0377 141.659C46.8698 142.482 41.5647 143.019 41.8251 147.261C42.0576 151.044 43.6114 154.626 46.2154 157.38C47.9531 159.21 50.1196 160.621 51.689 162.594C54.008 165.504 54.8149 169.349 56.8893 172.444C58.3951 174.69 60.5076 176.45 62.6075 178.134C67.4488 182 72.448 185.657 77.6049 189.105C79.7016 190.51 81.9952 191.927 84.5175 191.873C86.8937 191.822 89.0825 190.424 90.6328 188.622C92.183 186.821 93.1742 184.625 94.1812 182.462C97.8091 174.55 101.462 166.553 103.197 158.025C103.74 155.35 104.105 152.586 105.319 150.139C106.272 148.233 107.682 146.6 108.94 144.874C111.913 140.789 113.999 136.128 115.065 131.19C115.758 127.965 115.99 124.518 114.852 121.432C113.715 118.347 110.954 115.682 107.667 115.437C105.065 115.246 102.511 116.584 100.763 118.522C99.0162 120.46 97.987 122.945 97.2849 125.461C96.2783 129.077 95.8916 132.837 96.1413 136.582C96.3446 139.606 96.9609 142.657 96.4399 145.64C96.0714 147.75 95.1533 149.717 94.2447 151.655C91.8971 156.656 89.5114 161.717 85.963 165.952C84.8066 167.331 83.2151 168.723 81.4456 168.402C78.9995 167.954 78.3514 164.856 77.1443 162.683C75.6639 160.014 72.8557 158.41 70.6542 156.29C67.5219 153.275 65.6444 149.224 63.4175 145.488C61.1906 141.751 58.3093 138.066 54.205 136.629C50.1006 135.193 55.2406 144.391 54.1827 148.611" fill="black"/>
<path d="M47.8959 138.031C43.7311 138.853 41.5646 143.75 41.8092 147.985C42.0435 151.769 43.5971 155.351 46.1995 158.108C47.9371 159.935 50.1037 161.345 51.673 163.319C53.992 166.229 54.7989 170.077 56.8734 173.168C58.3791 175.414 60.4917 177.175 62.5915 178.862C67.4329 182.725 72.432 186.381 77.589 189.83C79.6856 191.234 81.9792 192.651 84.5016 192.597C86.8778 192.546 89.0666 191.152 90.6168 189.347C92.1671 187.542 93.1582 185.35 94.1652 183.189C97.7931 175.278 101.446 167.281 103.181 158.75C103.724 156.074 104.089 153.31 105.303 150.864C106.256 148.957 107.666 147.324 108.924 145.599C111.897 141.514 113.983 136.853 115.049 131.914C115.742 128.689 115.974 125.242 114.836 122.157C113.699 119.072 110.939 116.406 107.651 116.165C105.049 115.971 102.495 117.308 100.747 119.25C99.0003 121.191 97.971 123.672 97.2689 126.186C96.2625 129.801 95.8758 133.561 96.1253 137.306C96.3286 140.328 96.9449 143.378 96.4239 146.361C96.0554 148.471 95.1373 150.438 94.2288 152.376C91.8812 157.377 89.4954 162.442 85.947 166.674C84.7907 168.053 83.1991 169.444 81.4296 169.123C78.9835 168.675 78.3355 165.581 77.1283 163.404C75.648 160.732 72.8397 159.128 70.6382 157.012C67.5059 153.993 65.6285 149.945 63.4016 146.209C61.1747 142.472 58.2934 138.787 54.189 137.354C50.0846 135.921 44.6143 137.76 43.5596 141.98" fill="#FBBEBE"/>
<g opacity="0.06">
<path opacity="0.06" d="M31.977 112.65C30.6568 110.47 29.5474 108.169 28.6636 105.778L28.5556 105.46C27.8852 104.741 27.3214 103.928 26.8815 103.049C26.2004 101.55 25.8308 99.9286 25.795 98.2828C25.795 98.2224 25.795 98.1621 25.795 98.1017C25.5677 98.6101 25.4003 99.1432 25.2963 99.6903C24.9786 101.482 25.5027 103.312 26.1317 105.022C27.0161 107.412 28.1256 109.714 29.4451 111.894C31.4179 115.192 33.937 118.37 34.3278 122.154C34.9155 127.816 30.6459 132.801 29.5912 138.396C28.7843 142.669 29.8072 147.445 27.5232 151.143C26.6102 152.538 25.3842 153.7 23.943 154.537C23.039 155.113 22.0493 155.542 21.0108 155.807C20.8214 156.032 20.6177 156.244 20.4009 156.443C22.4181 157.142 24.6641 156.389 26.4812 155.27C27.9219 154.431 29.1476 153.269 30.0614 151.874C32.3455 148.176 31.3321 143.4 32.1263 139.127C33.1841 133.535 37.4537 128.546 36.866 122.884C36.4721 119.078 33.9561 115.904 31.977 112.65Z" fill="black"/>
<path opacity="0.06" d="M68.6367 84.6904C67.8202 82.7999 66.0952 81.4591 64.3226 80.4074C62.0755 79.0588 59.6302 78.0724 57.0765 77.4843C58.7154 78.0565 60.2926 78.792 61.7844 79.6798C63.557 80.7347 65.2788 82.0723 66.1016 83.966C66.9244 85.8596 66.5146 88.4142 64.7483 89.469C63.503 90.2157 61.9496 90.0822 60.4978 90.0504C59.2432 90.0218 57.9882 90.0855 56.7429 90.2411C56.2932 90.2736 55.8536 90.3899 55.4468 90.5842C54.9167 90.9277 54.4991 91.4194 54.246 91.9981C53.7352 92.9751 53.3916 94.0308 53.2294 95.1214C53.0515 96.3415 53.0674 97.6791 52.305 98.6482C51.2693 99.9667 49.6492 99.7666 48.1752 100.027C46.8951 100.273 45.6682 100.742 44.5505 101.412C42.1171 102.883 40.3794 105.571 40.2683 108.441C40.2301 109.464 40.3699 110.509 40.0935 111.494C39.9152 112.069 39.6355 112.607 39.2676 113.083C39.8305 113.684 40.3229 114.348 40.7352 115.062C41.5135 114.214 42.3236 113.324 42.6413 112.218C42.9208 111.233 42.7779 110.185 42.8192 109.162C42.9304 106.302 44.6681 103.608 47.1015 102.134C48.2183 101.462 49.4456 100.994 50.7261 100.752C52.1938 100.488 53.8139 100.688 54.8559 99.3694C55.6183 98.4162 55.5993 97.0627 55.7803 95.8426C55.9414 94.7522 56.2839 93.6965 56.7937 92.7194C57.0485 92.1458 57.4661 91.6598 57.9945 91.3214C58.4004 91.1244 58.8405 91.0079 59.2906 90.9782C60.536 90.8231 61.7909 90.7584 63.0456 90.7844C64.4973 90.8193 66.0508 90.9496 67.2961 90.203C69.0496 89.1386 69.4531 86.5967 68.6367 84.6904Z" fill="black"/>
</g>
<path opacity="0.06" d="M47.8354 115.049C47.8354 115.049 51.5872 118.277 58.7126 116.32C58.7126 116.314 54.3001 118.052 47.8354 115.049Z" fill="black"/>
<path opacity="0.06" d="M249.054 60.5907C249.061 61.0813 248.929 61.564 248.673 61.9824C248.47 62.2252 248.214 62.4195 247.926 62.5511C246.719 63.1472 245.355 63.348 244.028 63.125C242.7 62.902 241.477 62.2666 240.531 61.3088C239.857 60.5971 239.359 59.7201 238.695 59.018C238.031 58.3158 237.106 57.7026 236.153 57.7788C235.343 57.8424 234.635 58.3571 234.079 58.9512C233.359 59.7315 232.83 60.6678 232.532 61.6869C232.325 62.4113 232.214 63.2279 231.62 63.7076C231.026 64.1874 230.289 64.1556 229.577 64.1302C228.659 64.0984 227.706 64.0571 226.899 63.6218C225.371 62.8021 224.857 60.9148 224.291 59.2785C223.338 56.5206 221.197 51.3099 217.865 50.7539C216.276 50.4901 214.342 51.3321 213.1 52.2345C211.222 53.5975 209.837 54.4808 207.407 54.4586C206.834 54.4696 206.264 54.3792 205.723 54.1917C204.325 53.642 203.579 52.1233 203.353 50.6172C203.267 51.3075 203.249 52.0046 203.299 52.6984C203.433 54.3442 204.182 56.1235 205.723 56.7303C206.264 56.9179 206.834 57.0082 207.407 56.9972C209.837 57.0353 211.219 56.1521 213.1 54.789C214.348 53.8867 216.276 53.0415 217.865 53.3084C221.184 53.8485 223.345 59.0593 224.279 61.814C224.844 63.4534 225.359 65.3407 226.887 66.1605C227.694 66.5926 228.647 66.6371 229.565 66.6688C230.276 66.6943 231.058 66.6974 231.607 66.2463C232.157 65.7951 232.313 64.9468 232.519 64.2255C232.816 63.2061 233.346 62.2697 234.066 61.4899C234.622 60.8957 235.337 60.381 236.141 60.3175C237.119 60.2412 238.047 60.8354 238.682 61.5566C239.317 62.2778 239.845 63.1452 240.518 63.8474C241.464 64.8052 242.688 65.4407 244.015 65.6637C245.343 65.8867 246.707 65.6859 247.914 65.0897C248.201 64.9571 248.456 64.7629 248.66 64.521C248.917 64.1016 249.049 63.6179 249.041 63.1262C249.29 60.45 249.396 57.7624 249.359 55.075C249.334 56.9146 249.197 58.7542 249.054 60.5907Z" fill="black"/>
<path d="M28.5303 196.133C28.5303 196.133 29.0354 195.571 28.0856 195.349V194.424H28.6574C28.6562 193.307 28.2715 192.224 27.5678 191.357C26.8641 190.489 25.884 189.89 24.7913 189.658V188.537H24.9406V187.078H21.2651V188.537H21.3699V189.671C20.2875 189.914 19.3201 190.518 18.6271 191.384C17.9341 192.251 17.557 193.327 17.5578 194.437H18.0629V195.323C18.0629 195.323 16.8589 195.892 18.0629 196.912C19.2669 197.932 19.0795 198.669 19.0795 198.669C19.0795 198.669 18.5744 200.575 17.561 200.823V218.498C17.5606 219.014 17.6618 219.525 17.859 220.002C18.0561 220.479 18.3453 220.912 18.7099 221.277C19.0746 221.642 19.5076 221.932 19.9842 222.129C20.4607 222.327 20.9716 222.429 21.4875 222.429H24.5912C25.6334 222.429 26.6329 222.015 27.3698 221.277C28.1068 220.54 28.5208 219.541 28.5208 218.498V200.823C28.5208 200.823 26.745 199.492 27.0627 198.669C27.4889 197.789 27.9794 196.941 28.5303 196.133Z" fill="#464353"/>
</g>
<defs>
<linearGradient id="paint0_linear" x1="176.313" y1="225.546" x2="176.313" y2="31.4455" gradientUnits="userSpaceOnUse">
<stop stop-color="#808080" stop-opacity="0.25"/>
<stop offset="0.54" stop-color="#808080" stop-opacity="0.12"/>
<stop offset="1" stop-color="#808080" stop-opacity="0.1"/>
</linearGradient>
<clipPath id="clip0">
<rect width="366" height="245" fill="white"/>
</clipPath>
</defs>
</svg>
