<svg width="436" height="307" viewBox="0 0 436 307" fill="none" xmlns="http://www.w3.org/2000/svg">
<path d="M227.187 171.723H197.073V172.696H201.77V181.938H202.741V172.696H221.033V181.938H222.005V172.696H227.187V171.723Z" fill="#3F3D56"/>
<path d="M238.358 147.886H230.587V155.669H234.19V181.895H235.161V155.669H238.358V147.886Z" fill="#3F3D56"/>
<path d="M227.247 168.812H197.133V169.785H227.247V168.812Z" fill="#3F3D56"/>
<path d="M227.247 166.38H197.133V167.352H227.247V166.38Z" fill="#3F3D56"/>
<path d="M227.247 163.947H197.133V164.92H227.247V163.947Z" fill="#3F3D56"/>
<path d="M304.414 184.742H303.443C303.443 138.606 265.966 101.072 219.901 101.072C173.836 101.072 136.36 138.606 136.36 184.742H135.389C135.389 138.07 173.301 100.099 219.901 100.099C266.502 100.099 304.414 138.07 304.414 184.742Z" fill="#3F3D56"/>
<path d="M79.4128 159.071C123.271 159.071 158.826 123.462 158.826 79.5354C158.826 35.6092 123.271 0 79.4128 0C35.5543 0 0 35.6092 0 79.5354C0 123.462 35.5543 159.071 79.4128 159.071Z" fill="#F47803"/>
<path opacity="0.2" d="M138.485 26.412C145.892 43.766 146.897 63.1927 141.32 81.2205C135.743 99.2482 123.947 114.702 108.04 124.821C92.133 134.94 73.1519 139.065 54.4883 136.458C35.8248 133.851 18.6949 124.682 6.15967 110.59C10.6847 121.193 17.4572 130.683 26.0079 138.404C34.5587 146.125 44.6833 151.892 55.6802 155.305C66.6771 158.717 78.2834 159.695 89.695 158.17C101.107 156.644 112.051 152.652 121.769 146.47C131.487 140.288 139.747 132.063 145.976 122.366C152.206 112.67 156.256 101.732 157.846 90.3122C159.436 78.8922 158.528 67.2624 155.185 56.2287C151.842 45.1949 146.144 35.0211 138.485 26.412Z" fill="black"/>
<path d="M79.6309 79.5355H79.8489L83.776 305.032H75.4858L79.6309 79.5355Z" fill="#3F3D56"/>
<path d="M94.0907 202.362L92.2612 198.882L79.1341 205.803L80.9635 209.284L94.0907 202.362Z" fill="#3F3D56"/>
<path d="M371.726 177.652C407.223 177.652 436 148.831 436 113.279C436 77.7262 407.223 48.9052 371.726 48.9052C336.228 48.9052 307.451 77.7262 307.451 113.279C307.451 148.831 336.228 177.652 371.726 177.652Z" fill="#F47803"/>
<path opacity="0.2" d="M419.537 70.2822C425.533 84.3281 426.346 100.051 421.832 114.643C417.318 129.234 407.77 141.742 394.896 149.932C382.021 158.122 366.659 161.46 351.553 159.35C336.447 157.24 322.583 149.819 312.437 138.413C316.099 146.995 321.581 154.676 328.502 160.925C335.422 167.174 343.617 171.842 352.517 174.604C361.418 177.366 370.812 178.158 380.048 176.923C389.284 175.688 398.142 172.457 406.008 167.453C413.873 162.45 420.559 155.793 425.601 147.945C430.643 140.097 433.921 131.244 435.208 122.001C436.495 112.758 435.76 103.345 433.054 94.415C430.348 85.4846 425.736 77.2502 419.537 70.2822Z" fill="black"/>
<path d="M371.902 113.279H372.079L375.257 295.789H368.547L371.902 113.279Z" fill="#3F3D56"/>
<path d="M383.605 212.691L382.125 209.874L371.5 215.477L372.98 218.293L383.605 212.691Z" fill="#3F3D56"/>
<path d="M182.058 168.712C187.646 168.712 192.176 164.175 192.176 158.578C192.176 152.981 187.646 148.444 182.058 148.444C176.47 148.444 171.939 152.981 171.939 158.578C171.939 164.175 176.47 168.712 182.058 168.712Z" fill="#F47803"/>
<path opacity="0.2" d="M189.585 151.809C190.528 154.02 190.657 156.496 189.946 158.793C189.235 161.09 187.732 163.059 185.706 164.348C183.679 165.637 181.26 166.163 178.882 165.831C176.504 165.498 174.322 164.33 172.725 162.535C173.301 163.886 174.164 165.095 175.254 166.079C176.343 167.062 177.633 167.797 179.034 168.232C180.435 168.667 181.914 168.791 183.368 168.597C184.822 168.403 186.217 167.894 187.455 167.106C188.693 166.319 189.746 165.271 190.539 164.035C191.333 162.8 191.849 161.406 192.052 159.951C192.254 158.496 192.138 157.014 191.713 155.608C191.287 154.202 190.561 152.906 189.585 151.809Z" fill="black"/>
<path d="M182.086 158.578H182.113L182.614 187.309H181.558L182.086 158.578Z" fill="#3F3D56"/>
<path d="M183.928 174.228L183.695 173.784L182.022 174.666L182.255 175.11L183.928 174.228Z" fill="#3F3D56"/>
<path d="M275.556 151.86C289.862 151.86 301.46 140.244 301.46 125.916C301.46 111.588 289.862 99.9723 275.556 99.9723C261.25 99.9723 249.652 111.588 249.652 125.916C249.652 140.244 261.25 151.86 275.556 151.86Z" fill="#F47803"/>
<path opacity="0.2" d="M294.825 108.588C297.241 114.248 297.569 120.585 295.75 126.466C293.93 132.346 290.083 137.387 284.894 140.688C279.705 143.989 273.514 145.334 267.426 144.484C261.338 143.633 255.75 140.642 251.662 136.046C253.138 139.504 255.347 142.6 258.136 145.118C260.925 147.637 264.228 149.518 267.815 150.631C271.402 151.745 275.188 152.063 278.91 151.566C282.632 151.068 286.202 149.766 289.372 147.749C292.542 145.733 295.237 143.05 297.269 139.887C299.301 136.724 300.622 133.156 301.14 129.431C301.659 125.706 301.363 121.913 300.272 118.314C299.182 114.714 297.323 111.396 294.825 108.588Z" fill="black"/>
<path d="M275.627 125.916H275.698L276.979 199.471H274.275L275.627 125.916Z" fill="#3F3D56"/>
<path d="M280.344 165.981L279.747 164.846L275.465 167.103L276.062 168.239L280.344 165.981Z" fill="#3F3D56"/>
<path d="M97.2153 293.806C97.2153 293.806 97.5507 286.767 104.427 287.585L97.2153 293.806Z" fill="#3F3D56"/>
<path d="M95.2724 287.108C97.173 287.108 98.7138 285.564 98.7138 283.661C98.7138 281.757 97.173 280.214 95.2724 280.214C93.3718 280.214 91.8311 281.757 91.8311 283.661C91.8311 285.564 93.3718 287.108 95.2724 287.108Z" fill="#F47803"/>
<path d="M95.6838 289.465H94.7124V296.275H95.6838V289.465Z" fill="#3F3D56"/>
<path d="M121.5 277.753C121.5 277.753 121.836 270.714 128.712 271.532L121.5 277.753Z" fill="#3F3D56"/>
<path d="M119.558 271.054C121.458 271.054 122.999 269.511 122.999 267.608C122.999 265.704 121.458 264.161 119.558 264.161C117.657 264.161 116.116 265.704 116.116 267.608C116.116 269.511 117.657 271.054 119.558 271.054Z" fill="#F47803"/>
<path d="M119.969 273.412H118.998V280.222H119.969V273.412Z" fill="#3F3D56"/>
<path d="M194.706 223.292C194.706 223.292 194.972 217.701 200.433 218.351L194.706 223.292Z" fill="#3F3D56"/>
<path d="M193.162 217.971C194.672 217.971 195.896 216.746 195.896 215.234C195.896 213.722 194.672 212.496 193.162 212.496C191.653 212.496 190.429 213.722 190.429 215.234C190.429 216.746 191.653 217.971 193.162 217.971Z" fill="#F47803"/>
<path d="M193.489 219.844H192.718V225.253H193.489V219.844Z" fill="#3F3D56"/>
<path d="M301.561 205.779C301.561 205.779 301.827 200.188 307.288 200.838L301.561 205.779Z" fill="#3F3D56"/>
<path d="M300.017 200.459C301.527 200.459 302.751 199.233 302.751 197.721C302.751 196.21 301.527 194.984 300.017 194.984C298.508 194.984 297.284 196.21 297.284 197.721C297.284 199.233 298.508 200.459 300.017 200.459Z" fill="#F47803"/>
<path d="M300.344 202.331H299.573V207.74H300.344V202.331Z" fill="#3F3D56"/>
<path d="M199.562 237.885C199.562 237.885 199.829 232.295 205.29 232.944L199.562 237.885Z" fill="#3F3D56"/>
<path d="M198.019 232.565C199.529 232.565 200.753 231.339 200.753 229.827C200.753 228.316 199.529 227.09 198.019 227.09C196.51 227.09 195.286 228.316 195.286 229.827C195.286 231.339 196.51 232.565 198.019 232.565Z" fill="#F47803"/>
<path d="M198.346 234.437H197.575V239.846H198.346V234.437Z" fill="#3F3D56"/>
<path d="M187.906 248.587C187.906 248.587 188.172 242.997 193.633 243.646L187.906 248.587Z" fill="#3F3D56"/>
<path d="M186.363 243.267C187.872 243.267 189.096 242.041 189.096 240.529C189.096 239.018 187.872 237.792 186.363 237.792C184.853 237.792 183.629 239.018 183.629 240.529C183.629 242.041 184.853 243.267 186.363 243.267Z" fill="#F47803"/>
<path d="M186.69 245.139H185.918V250.548H186.69V245.139Z" fill="#3F3D56"/>
<path d="M318.075 215.022C318.075 215.022 318.341 209.431 323.802 210.081L318.075 215.022Z" fill="#3F3D56"/>
<path d="M316.532 209.702C318.041 209.702 319.265 208.476 319.265 206.964C319.265 205.452 318.041 204.227 316.532 204.227C315.022 204.227 313.798 205.452 313.798 206.964C313.798 208.476 315.022 209.702 316.532 209.702Z" fill="#F47803"/>
<path d="M316.858 211.574H316.087V216.983H316.858V211.574Z" fill="#3F3D56"/>
<path d="M160.706 227.183C160.706 227.183 160.972 221.593 166.434 222.242L160.706 227.183Z" fill="#3F3D56"/>
<path d="M159.163 221.863C160.673 221.863 161.896 220.637 161.896 219.126C161.896 217.614 160.673 216.388 159.163 216.388C157.653 216.388 156.43 217.614 156.43 219.126C156.43 220.637 157.653 221.863 159.163 221.863Z" fill="#F47803"/>
<path d="M159.49 223.735H158.718V229.144H159.49V223.735Z" fill="#3F3D56"/>
<path d="M286.99 199.455C286.99 199.455 287.256 193.865 292.717 194.514L286.99 199.455Z" fill="#3F3D56"/>
<path d="M285.446 194.135C286.956 194.135 288.179 192.909 288.179 191.398C288.179 189.886 286.956 188.66 285.446 188.66C283.937 188.66 282.713 189.886 282.713 191.398C282.713 192.909 283.937 194.135 285.446 194.135Z" fill="#F47803"/>
<path d="M285.773 196.007H285.001V201.416H285.773V196.007Z" fill="#3F3D56"/>
<path d="M54.959 295.265C54.959 295.265 55.2944 288.226 62.1703 289.045L54.959 295.265Z" fill="#3F3D56"/>
<path d="M53.0161 288.567C54.9167 288.567 56.4574 287.024 56.4574 285.12C56.4574 283.217 54.9167 281.674 53.0161 281.674C51.1155 281.674 49.5747 283.217 49.5747 285.12C49.5747 287.024 51.1155 288.567 53.0161 288.567Z" fill="#F47803"/>
<path d="M53.4275 290.924H52.4561V297.735H53.4275V290.924Z" fill="#3F3D56"/>
<path d="M389.61 293.319C389.61 293.319 389.945 286.281 396.821 287.099L389.61 293.319Z" fill="#3F3D56"/>
<path d="M387.667 286.621C389.568 286.621 391.108 285.078 391.108 283.174C391.108 281.271 389.568 279.728 387.667 279.728C385.766 279.728 384.226 281.271 384.226 283.174C384.226 285.078 385.766 286.621 387.667 286.621Z" fill="#F47803"/>
<path d="M388.078 288.978H387.107V295.789H388.078V288.978Z" fill="#3F3D56"/>
<path d="M361.439 276.78C361.439 276.78 361.774 269.741 368.65 270.559L361.439 276.78Z" fill="#3F3D56"/>
<path d="M359.496 270.082C361.397 270.082 362.937 268.538 362.937 266.635C362.937 264.731 361.397 263.188 359.496 263.188C357.595 263.188 356.055 264.731 356.055 266.635C356.055 268.538 357.595 270.082 359.496 270.082Z" fill="#F47803"/>
<path d="M359.907 272.439H358.936V279.249H359.907V272.439Z" fill="#3F3D56"/>
<path d="M357.553 301.589C357.553 301.589 357.889 294.55 364.765 295.368L357.553 301.589Z" fill="#3F3D56"/>
<path d="M355.61 294.891C357.511 294.891 359.052 293.348 359.052 291.444C359.052 289.541 357.511 287.997 355.61 287.997C353.71 287.997 352.169 289.541 352.169 291.444C352.169 293.348 353.71 294.891 355.61 294.891Z" fill="#F47803"/>
<path d="M356.022 297.248H355.05V304.058H356.022V297.248Z" fill="#3F3D56"/>
<path d="M60.5503 306.842C60.5503 306.842 213.547 266.467 212.09 225.118C209.419 213.686 190.962 210.768 190.962 210.768C190.962 210.768 147.249 204.93 171.048 190.823C194.848 176.716 259.932 180.121 259.932 180.121C259.932 180.121 192.905 190.823 222.533 196.66C246.332 198.12 276.932 204.444 276.932 204.444C276.932 204.444 339.102 217.578 347.845 249.684C356.587 281.79 349.302 306.599 349.302 306.599L60.5503 306.842Z" fill="#E6E6E6"/>
<path d="M227.19 307L226.617 306.198C227.427 305.618 228.224 305.042 229.009 304.469L229.588 305.266C228.8 305.84 228.001 306.418 227.19 307Z" fill="white"/>
<path d="M234.332 301.739L233.737 300.953C235.328 299.747 236.894 298.533 238.393 297.346L239.004 298.119C237.499 299.31 235.927 300.528 234.332 301.739ZM243.596 294.394L242.967 293.636C244.507 292.355 246.012 291.067 247.441 289.81L248.091 290.55C246.655 291.814 245.142 293.107 243.596 294.394ZM252.471 286.572L251.797 285.853C253.266 284.472 254.683 283.091 256.007 281.745L256.708 282.438C255.375 283.792 253.949 285.183 252.471 286.572ZM260.768 278.123L260.035 277.464C261.385 275.958 262.662 274.45 263.83 272.982L264.6 273.596C263.42 275.079 262.131 276.602 260.768 278.123ZM268.127 268.822L267.314 268.267C268.459 266.587 269.491 264.911 270.383 263.284L271.246 263.758C270.339 265.413 269.29 267.117 268.127 268.822ZM273.787 258.365L272.871 258.005C273.585 256.201 274.144 254.339 274.543 252.44L275.507 252.638C275.097 254.593 274.522 256.509 273.787 258.365V258.365ZM275.101 246.685C275.072 244.769 274.806 242.863 274.31 241.013L275.261 240.756C275.778 242.685 276.055 244.671 276.086 246.668L275.101 246.685ZM272.157 235.691C271.222 234 270.125 232.405 268.881 230.927L269.635 230.295C270.921 231.821 272.054 233.47 273.02 235.217L272.157 235.691ZM264.813 226.767C263.351 225.476 261.818 224.267 260.223 223.145L260.792 222.34C262.416 223.483 263.977 224.715 265.466 226.029L264.813 226.767ZM255.291 219.972C253.68 219.024 251.943 218.078 250.129 217.161L250.572 216.281C252.406 217.208 254.161 218.164 255.789 219.122L255.291 219.972ZM244.809 214.641C243.095 213.879 241.27 213.111 239.384 212.36L239.749 211.444C241.646 212.2 243.483 212.973 245.209 213.74L244.809 214.641ZM233.865 210.265C232.111 209.628 230.236 208.974 228.293 208.322L228.606 207.387C230.557 208.042 232.439 208.698 234.201 209.337L233.865 210.265ZM222.678 206.495C220.962 205.953 219.116 205.383 217.032 204.751L217.317 203.807C219.404 204.44 221.255 205.012 222.974 205.555L222.678 206.495ZM211.368 203.048C209.377 202.452 207.478 201.882 205.701 201.333L205.991 200.391C207.766 200.939 209.661 201.508 211.65 202.104L211.368 203.048ZM200.056 199.505C198.162 198.879 196.311 198.133 194.512 197.27L194.955 196.389C196.714 197.233 198.525 197.962 200.378 198.573L200.056 199.505ZM192.623 193.043L191.921 192.351C192.818 191.438 194.593 190.545 197.347 189.62L197.66 190.554C195.093 191.417 193.398 192.254 192.623 193.043L192.623 193.043ZM203.291 188.949L203.053 187.992C204.756 187.567 206.695 187.123 208.818 186.671L209.022 187.636C206.911 188.085 204.983 188.526 203.291 188.949V188.949ZM214.793 186.475L214.609 185.506C216.422 185.159 218.376 184.8 220.415 184.438L220.587 185.408C218.552 185.77 216.603 186.128 214.793 186.475V186.475ZM226.393 184.407L226.231 183.434C228.086 183.123 230.027 182.804 232.054 182.479L232.21 183.452C230.184 183.778 228.245 184.096 226.393 184.407Z" fill="white"/>
<path d="M238.145 182.516L237.994 181.542C238.951 181.394 239.925 181.244 240.915 181.093L241.064 182.067C240.073 182.218 239.101 182.368 238.145 182.516Z" fill="white"/>
<path d="M259.93 82.3782L264.401 78.7965C260.928 78.4127 259.5 80.31 258.916 81.8117C256.203 80.6832 253.249 82.1622 253.249 82.1622L262.195 85.415C261.743 84.2076 260.958 83.1542 259.93 82.3782Z" fill="#3F3D56"/>
<path d="M176.875 110.106L181.346 106.524C177.872 106.141 176.445 108.038 175.861 109.54C173.147 108.411 170.193 109.89 170.193 109.89L179.139 113.143C178.688 111.936 177.903 110.882 176.875 110.106Z" fill="#3F3D56"/>
<path d="M198.731 52.7043L203.202 49.1227C199.729 48.7389 198.302 50.6362 197.718 52.1379C195.004 51.0093 192.05 52.4884 192.05 52.4884L200.996 55.7412C200.545 54.5338 199.759 53.4804 198.731 52.7043Z" fill="#3F3D56"/>
<path d="M247.338 212.178C247.338 212.178 243.465 212.178 243.035 214.549C242.605 216.919 241.959 242.777 242.389 246.01C242.82 249.242 242.82 248.596 242.82 248.596C242.82 248.596 241.962 254.738 243.897 255.007C245.832 255.276 245.832 247.949 245.832 247.949L247.338 221.66V212.178Z" fill="#9E616A"/>
<path d="M264.12 212.178C264.12 212.178 267.992 212.178 268.423 214.549C268.853 216.919 269.498 242.777 269.068 246.01C268.638 249.242 268.638 248.596 268.638 248.596C268.638 248.596 269.496 254.738 267.561 255.007C265.626 255.276 265.626 247.949 265.626 247.949L264.12 221.66V212.178Z" fill="#9E616A"/>
<path d="M246.692 302.252H244.971C244.462 302.252 243.959 302.352 243.489 302.547C243.019 302.742 242.592 303.028 242.232 303.388C241.873 303.748 241.588 304.176 241.393 304.646C241.198 305.117 241.098 305.621 241.098 306.13V306.13H251.641V301.174H246.692V302.252Z" fill="#2F2E41"/>
<path d="M263.259 302.252H264.98C266.007 302.252 266.993 302.66 267.719 303.388C268.445 304.115 268.853 305.102 268.853 306.13V306.13H258.311V301.174H263.259V302.252Z" fill="#2F2E41"/>
<path d="M254.008 207.222C257.097 207.222 259.602 204.714 259.602 201.62C259.602 198.525 257.097 196.017 254.008 196.017C250.918 196.017 248.414 198.525 248.414 201.62C248.414 204.714 250.918 207.222 254.008 207.222Z" fill="#9E616A"/>
<path d="M252.717 204.636C252.717 204.636 252.071 211.747 251.211 212.394C250.35 213.04 260.247 211.963 260.247 211.963C260.247 211.963 256.805 206.791 257.45 205.067C258.096 203.343 252.717 204.636 252.717 204.636Z" fill="#9E616A"/>
<path d="M265.411 212.178C265.411 212.178 253.577 207.222 245.832 212.178C245.832 212.178 243.895 217.135 245.401 219.936C246.907 222.737 249.274 229.417 246.908 233.943C244.541 238.468 247.123 236.528 247.123 236.528C247.123 236.528 244.11 248.596 243.68 258.077C243.25 267.558 244.971 301.605 246.262 301.821C247.553 302.036 251.641 302.467 252.071 301.821C252.502 301.174 255.514 256.138 255.514 256.138C255.514 256.138 256.805 302.252 258.096 302.252C259.386 302.252 262.829 302.252 263.474 301.174C264.12 300.097 269.499 258.508 267.562 249.889C265.626 241.269 264.335 236.959 264.335 236.959C264.335 236.959 266.702 235.451 266.056 234.589C265.411 233.727 262.183 224.461 263.69 222.953C265.196 221.444 265.411 212.178 265.411 212.178Z" fill="#2F2E41"/>
<path d="M257.558 207.293C262.549 207.293 266.594 203.241 266.594 198.243C266.594 193.244 262.549 189.192 257.558 189.192C252.567 189.192 248.521 193.244 248.521 198.243C248.521 203.241 252.567 207.293 257.558 207.293Z" fill="#2F2E41"/>
<path d="M263.2 193.712C261.678 193.354 260.351 192.422 259.496 191.11C258.641 189.798 258.323 188.207 258.608 186.667C258.581 186.759 258.556 186.853 258.534 186.948C258.166 188.521 258.437 190.177 259.287 191.551C260.137 192.925 261.497 193.904 263.069 194.274C264.64 194.643 266.293 194.373 267.665 193.522C269.037 192.672 270.016 191.31 270.386 189.737C270.408 189.642 270.428 189.547 270.445 189.453C270.015 190.959 269.023 192.242 267.674 193.035C266.325 193.828 264.723 194.07 263.2 193.712Z" fill="#2F2E41"/>
<path d="M263.568 194.891C266.01 194.891 267.99 192.908 267.99 190.462C267.99 188.016 266.01 186.033 263.568 186.033C261.126 186.033 259.146 188.016 259.146 190.462C259.146 192.908 261.126 194.891 263.568 194.891Z" fill="#2F2E41"/>
</svg>
