<svg width="436" height="238" viewBox="0 0 436 238" fill="none" xmlns="http://www.w3.org/2000/svg">
<g clip-path="url(#clip0)">
<path d="M436 223.115C436 210.125 429.396 199.594 421.249 199.594C416.128 199.594 411.619 203.756 408.974 210.072C408.08 209.701 407.122 209.51 406.154 209.507C403.688 209.507 401.409 210.768 399.549 212.903C397.165 205.027 392.109 199.594 386.257 199.594C380.786 199.594 376.014 204.347 373.467 211.402C372.052 210.21 370.269 209.541 368.418 209.507C362.166 209.507 357.097 217.589 357.097 227.558C357.072 230.881 357.677 234.18 358.881 237.278H433.025C434.892 233.338 436 228.433 436 223.115Z" fill="#3CBDB2"/>
<path d="M383.114 87.291C371.497 62.2094 348.763 40.8127 321.299 37.3254C314.037 36.4033 306.455 36.7731 299.718 39.6295C290.874 43.379 284.356 50.9472 277.768 57.9287C263.82 72.7065 248.212 85.8301 231.252 97.0398C222.882 102.571 213.903 107.731 203.965 109.147C184.039 111.984 164.329 98.422 155.242 80.4972C149.565 69.3001 146.942 56.1537 142.353 44.5072C137.068 44.4971 130.771 44.499 123.997 44.5302C105.272 44.6163 90.0307 44.8924 90.0307 44.8924C90.0307 44.8924 108.147 20.9416 123.929 29.8152C128.972 32.651 134.255 35.1815 139.109 37.3132C136.351 32.0185 132.873 27.2546 128.087 23.4243C118.651 15.8717 105.87 13.7532 93.787 14.3157C81.0992 14.9063 68.2947 18.2966 57.9848 25.7009C39.6184 38.8912 32.0338 62.1084 25.5425 83.7423L41.233 91.5929C47.9633 85.7856 57.805 80.0411 66.8762 85.1416C82.6578 94.0153 100.787 99.9069 100.787 99.9069C100.787 99.9069 85.6691 99.7705 66.9442 99.8566C63.7993 99.871 60.7564 99.891 57.8638 99.9139L232.067 187.075C289.524 187.882 332.847 184.781 387.444 187.075C390.292 187.194 396.696 172.297 396.718 168.377C396.868 140.745 394.732 112.373 383.114 87.291ZM327.323 94.8085C308.598 94.8947 293.357 95.1708 293.357 95.1708C293.357 95.1708 311.474 71.22 327.255 80.0936C343.037 88.9672 361.166 94.8589 361.166 94.8589C361.166 94.8589 346.048 94.7224 327.323 94.8085L327.323 94.8085Z" fill="#F2F2F2"/>
<path opacity="0.3" d="M376.115 176.777C376.115 167.331 370.256 159.675 363.028 159.675C358.485 159.675 354.484 162.701 352.137 167.293C351.332 167.022 350.487 166.883 349.636 166.883C347.437 166.92 345.337 167.804 343.776 169.351C341.661 163.625 337.176 159.675 331.984 159.675C327.13 159.675 322.896 163.131 320.637 168.26C319.312 167.372 317.754 166.893 316.158 166.883C310.611 166.883 306.114 172.759 306.114 180.007C306.098 182.452 306.639 184.869 307.696 187.075H373.476C375.24 183.93 376.149 180.38 376.115 176.777Z" fill="#3CBDB2"/>
<path d="M436 237.959H32.1797V237.151H435.595L436 237.959Z" fill="#2F2E41"/>
<path d="M402.82 187.882H-1V187.075H402.416L402.82 187.882Z" fill="#2F2E41"/>
<path d="M170.413 113.535C170.413 113.535 172.956 94.9204 177.195 99.9971C181.434 105.074 177.195 112.689 177.195 112.689L173.804 116.919L170.413 114.381V113.535Z" fill="#9F616A"/>
<path d="M160.24 119.458C160.24 119.458 168.718 110.15 170.413 111.843C172.109 113.535 177.195 114.381 176.348 117.765C175.5 121.15 157.697 132.149 157.697 132.149L160.24 119.458Z" fill="#3CBDB2"/>
<path opacity="0.1" d="M160.24 119.458C160.24 119.458 168.718 110.15 170.413 111.843C172.109 113.535 177.195 114.381 176.348 117.765C175.5 121.15 157.697 132.149 157.697 132.149L160.24 119.458Z" fill="black"/>
<path d="M111.917 118.612V125.38C111.917 125.38 111.069 140.611 116.156 139.764C121.243 138.918 118.699 126.227 118.699 126.227L117.852 118.612H111.917Z" fill="#9F616A"/>
<path d="M114.461 167.686C114.461 167.686 106.831 179.532 104.287 180.378C101.744 181.224 88.1799 188.839 86.4844 196.454L74.6157 211.684L80.5501 219.299C80.5501 219.299 107.678 190.531 115.308 187.993C122.938 185.455 130.568 172.763 130.568 172.763L114.461 167.686Z" fill="#9F616A"/>
<path d="M174.652 148.226C174.652 148.226 190.759 150.764 188.216 160.917C185.673 171.071 161.088 192.223 161.088 192.223L160.24 197.3L150.915 198.992L146.676 194.762L147.524 192.223C147.524 192.223 157.697 182.916 158.544 179.532C159.392 176.147 168.718 162.609 172.956 161.763L167.022 158.379L174.652 148.226Z" fill="#9F616A"/>
<path d="M77.159 211.684C77.159 211.684 80.55 206.607 75.4635 207.454C70.3769 208.3 66.9858 209.146 66.9858 212.53C66.9858 215.915 71.2247 239.606 76.3112 237.914C81.3978 236.221 77.159 228.606 77.159 228.606C77.159 228.606 79.7023 221.837 81.3978 220.991C83.0933 220.145 83.0933 215.915 81.3978 215.915C79.7023 215.915 76.3112 213.376 77.159 211.684Z" fill="#2F2E41"/>
<path d="M149.219 193.07C149.219 193.07 149.219 188.839 145.828 193.07C142.437 197.3 140.742 200.685 144.133 203.223C147.524 205.761 159.392 211.684 159.392 211.684C159.392 211.684 172.109 214.222 170.413 208.3C170.413 208.3 161.936 204.069 161.936 200.685C161.936 197.3 161.936 191.377 159.392 193.07C156.849 194.762 149.219 195.608 149.219 193.07Z" fill="#2F2E41"/>
<path d="M133.111 129.611C133.111 129.611 121.243 131.303 122.09 148.226C122.09 148.226 106.831 163.456 111.07 168.532C115.308 173.609 124.634 182.916 128.025 180.378C131.416 177.839 141.589 158.379 141.589 158.379C141.589 158.379 165.326 166.84 169.565 162.609C173.804 158.379 178.043 148.226 178.043 148.226L156.849 137.226L133.111 129.611Z" fill="#2F2E41"/>
<path d="M166.174 81.3826C171.793 81.3826 176.347 76.8368 176.347 71.2292C176.347 65.6217 171.793 61.0759 166.174 61.0759C160.556 61.0759 156.001 65.6217 156.001 71.2292C156.001 76.8368 160.556 81.3826 166.174 81.3826Z" fill="#9F616A"/>
<path d="M158.545 72.0753C158.545 72.0753 152.61 81.3826 150.915 82.2287C149.219 83.0748 162.783 91.5359 162.783 91.5359C162.783 91.5359 162.783 80.5365 167.022 77.9981L158.545 72.0753Z" fill="#9F616A"/>
<path d="M157.697 81.3826C157.697 81.3826 144.132 77.152 141.589 83.9209C139.046 90.6898 133.111 103.382 133.959 111.843C134.807 120.304 136.503 118.612 133.959 121.15C131.416 123.688 129.72 121.996 130.568 125.38C131.416 128.765 132.264 128.765 131.416 130.457C130.568 132.149 141.589 138.072 150.915 138.918L160.24 139.764C160.24 139.764 160.24 124.534 161.935 121.15C163.631 117.765 167.022 110.997 167.022 108.458V101.742C167.022 97.2717 165.853 92.8789 163.631 88.9976C163.631 88.9976 158.544 81.3826 157.697 81.3826Z" fill="#3CBDB2"/>
<path d="M147.523 84.767C147.523 84.767 116.156 87.3053 112.765 95.7664C109.374 104.228 107.679 121.15 111.07 121.15C114.461 121.15 118.699 122.842 119.547 121.15C120.395 119.458 123.786 102.535 124.634 102.535C125.482 102.535 150.914 99.997 150.914 99.997C150.914 99.997 161.935 86.4592 147.523 84.767Z" fill="#3CBDB2"/>
<path d="M166.583 68.7121C166.583 68.7121 169.282 64.0297 172.657 68.0968C176.032 72.1639 181.521 64.6899 180.679 63.0951C179.836 61.5003 176.86 63.1668 171.76 61.5028C166.659 59.8388 156.835 56.449 155.19 67.5069C153.544 78.5648 157.463 77.4055 157.463 77.4055C157.463 77.4055 159.259 67.607 160.883 70.4216L162.506 73.2361L163.914 73.582L166.583 68.7121Z" fill="#2F2E41"/>
<path d="M262.539 42.8024C269.393 42.8024 274.95 37.2563 274.95 30.4148C274.95 23.5733 269.393 18.0272 262.539 18.0272C255.684 18.0272 250.127 23.5733 250.127 30.4148C250.127 37.2563 255.684 42.8024 262.539 42.8024Z" fill="#2F2E41"/>
<path d="M258.572 39.5838C258.572 39.5838 259.214 51.1224 257.929 51.1224C256.645 51.1224 265.958 56.5712 265.958 56.5712L271.738 53.366V49.5198C271.738 49.5198 264.031 48.5583 267.242 40.2248C270.454 31.8914 258.572 39.5838 258.572 39.5838Z" fill="#9F616A"/>
<path d="M231.595 166.188L230.632 175.803L233.843 176.765L236.412 174.201L237.376 166.188H231.595Z" fill="#9F616A"/>
<path d="M277.84 171.637L279.445 177.727L283.941 180.611L288.759 178.047L283.299 169.073L277.84 171.637Z" fill="#9F616A"/>
<path d="M261.622 44.5518C266.766 44.5518 270.935 40.3903 270.935 35.2569C270.935 30.1234 266.766 25.9619 261.622 25.9619C256.479 25.9619 252.309 30.1234 252.309 35.2569C252.309 40.3903 256.479 44.5518 261.622 44.5518Z" fill="#9F616A"/>
<path d="M256.002 70.0329L253.754 69.0714C253.754 69.0714 249.9 66.8277 249.579 62.3405C249.258 57.8533 252.791 52.084 252.791 52.084L257.929 50.4814L263.966 55.3854L264.031 63.3021L256.002 70.0329Z" fill="#9F616A"/>
<path d="M253.754 52.725L252.47 52.0839C252.47 52.0839 246.047 51.7634 245.405 59.4558C244.762 67.1482 242.514 79.9689 242.514 79.9689C242.514 79.9689 237.376 88.9434 237.697 98.5589L235.128 106.892C235.128 106.892 231.596 119.072 235.77 119.072C239.945 119.072 239.624 105.931 239.624 105.931C239.624 105.931 247.331 87.3408 247.974 84.1356C248.616 80.9305 254.076 65.8662 252.47 61.6994C250.864 57.5327 253.754 52.725 253.754 52.725Z" fill="#9F616A"/>
<path d="M258.571 72.9176V76.4433C258.571 76.4433 260.819 79.0074 259.856 80.61C258.893 82.2126 257.929 85.4178 257.929 85.4178L262.425 92.4691L277.519 93.7512L280.52 73.6805L258.571 72.9176Z" fill="#9F616A"/>
<path d="M272.702 50.4815L275.271 49.1994C275.271 49.1994 280.73 45.3532 285.226 44.7122L299.035 35.4172L308.027 13.9425C308.027 13.9425 307.706 2.40392 310.275 3.68599C312.844 4.96805 312.523 14.9041 312.523 14.9041C312.523 14.9041 307.706 34.7761 303.531 40.2249C299.356 45.6737 284.263 54.6482 284.263 54.6482C284.263 54.6482 280.088 59.4559 280.409 61.6996C280.73 63.9432 272.702 50.4815 272.702 50.4815Z" fill="#9F616A"/>
<path d="M260.82 85.4178C260.82 85.4178 257.287 83.1742 255.039 87.0204C252.791 90.8666 248.616 91.8281 246.047 103.367C243.478 114.905 237.376 133.175 235.77 134.457C234.165 135.739 227.421 149.201 231.275 168.111H237.697L243.157 140.867C243.157 140.867 260.82 119.072 262.104 110.098L267.885 143.752C267.885 143.752 268.206 156.573 273.023 162.662L278.161 174.842L284.905 171.637L277.198 140.867C277.198 140.867 281.051 109.777 278.482 101.123L278.113 89.7776C278.113 89.7776 267.564 90.2255 260.82 85.4178Z" fill="#2F2E41"/>
<path d="M233.843 174.201H229.99C229.347 174.201 224.209 178.368 226.457 180.611C228.705 182.855 232.238 187.022 232.238 187.022C232.238 187.022 244.762 188.611 245.083 186.368C245.404 184.124 239.624 179.329 239.624 179.329L238.018 174.201C238.018 174.201 234.807 170.675 233.843 174.201Z" fill="#2F2E41"/>
<path d="M284.905 177.406C284.905 177.406 279.445 177.086 278.482 176.765C277.519 176.445 275.592 185.099 278.482 185.74C281.372 186.381 293.255 187.342 293.255 187.342C293.255 187.342 302.568 187.022 301.925 184.458C301.283 181.893 288.759 176.765 288.759 176.765C288.759 176.765 287.153 173.56 284.905 177.406Z" fill="#2F2E41"/>
<path d="M259.535 50.1609L257.929 49.1993L256.002 50.8019C256.002 50.8019 261.783 54.6481 260.498 58.1738C259.214 61.6995 253.754 69.0714 253.754 69.0714C253.754 69.0714 258.571 74.5202 258.571 76.4433C258.571 76.4433 271.096 71.956 280.409 76.4433C280.409 76.4433 280.409 70.0329 281.694 68.7509C282.978 67.4688 283.621 62.9816 280.409 59.1354C278.147 56.3052 276.107 53.3048 274.307 50.1609L271.096 48.2378L269.442 48.7614C269.442 48.7614 272.702 52.4045 269.49 52.725C266.279 53.0456 261.141 52.084 259.535 50.1609Z" fill="#3CBDB2"/>
<path d="M271.61 9.29504C270.519 10.5106 269.024 11.2918 267.402 11.495C264.596 11.895 266.801 16.295 266.801 16.295C266.801 16.295 265.999 14.695 267.602 13.295C269.205 11.895 271.61 11.095 271.61 9.29504Z" fill="#2F2E41"/>
<path d="M266.201 20.6673C268.112 20.6673 269.66 19.1216 269.66 17.215C269.66 15.3083 268.112 13.7627 266.201 13.7627C264.291 13.7627 262.742 15.3083 262.742 17.215C262.742 19.1216 264.291 20.6673 266.201 20.6673Z" fill="#2F2E41"/>
<path d="M270.24 20.6143C267.567 19.2212 262.97 18.1256 260.528 18.2039L261.146 15.8463C263.308 17.3125 267.881 18.4286 270.858 18.2567L270.24 20.6143Z" fill="#3CBDB2"/>
<path d="M264.719 20.8218C264.719 20.8218 260.508 26.2253 252.086 27.4261C243.664 28.6269 250.281 41.8355 250.281 41.8355C250.281 41.8355 247.875 37.0323 252.688 32.8296C257.5 28.6269 264.719 26.2253 264.719 20.8218Z" fill="#2F2E41"/>
<path d="M265.04 20.5012C265.04 20.5012 267.446 28.9067 271.056 30.1075C274.665 31.3083 272.86 43.9165 266.845 45.1172C266.845 45.1172 271.958 38.2128 268.95 32.8092C265.943 27.4057 264.138 23.203 265.04 20.5012Z" fill="#2F2E41"/>
<path d="M321.676 6.41028H299.517V8.97441H321.676V6.41028Z" fill="#2F2E41"/>
<path d="M321.675 15.3848C322.74 15.3848 323.602 11.9408 323.602 7.69241C323.602 3.44401 322.74 0 321.675 0C320.611 0 319.749 3.44401 319.749 7.69241C319.749 11.9408 320.611 15.3848 321.675 15.3848Z" fill="#2F2E41"/>
<path d="M299.517 15.3848C300.581 15.3848 301.444 11.9408 301.444 7.69241C301.444 3.44401 300.581 0 299.517 0C298.453 0 297.59 3.44401 297.59 7.69241C297.59 11.9408 298.453 15.3848 299.517 15.3848Z" fill="#2F2E41"/>
<path d="M332.916 178.855H310.757V181.419H332.916V178.855Z" fill="#2F2E41"/>
<path d="M332.916 187.829C333.98 187.829 334.842 184.385 334.842 180.137C334.842 175.888 333.98 172.444 332.916 172.444C331.851 172.444 330.989 175.888 330.989 180.137C330.989 184.385 331.851 187.829 332.916 187.829Z" fill="#2F2E41"/>
<path d="M310.757 187.829C311.821 187.829 312.684 184.385 312.684 180.137C312.684 175.888 311.821 172.444 310.757 172.444C309.693 172.444 308.83 175.888 308.83 180.137C308.83 184.385 309.693 187.829 310.757 187.829Z" fill="#2F2E41"/>
<path opacity="0.3" d="M77.4983 176.777C77.4983 167.331 71.6391 159.675 64.4112 159.675C59.8683 159.675 55.8673 162.701 53.5208 167.293C52.7149 167.022 51.8702 166.883 51.0197 166.883C48.8203 166.92 46.7205 167.804 45.1597 169.351C43.0444 163.625 38.559 159.675 33.3673 159.675C28.5132 159.675 24.2794 163.131 22.0201 168.26C20.6948 167.372 19.1372 166.893 17.541 166.883C11.9941 166.883 7.49743 172.759 7.49743 180.007C7.48119 182.452 8.02228 184.869 9.07978 187.075H74.859C76.6229 183.93 77.5327 180.38 77.4983 176.777Z" fill="#3CBDB2"/>
</g>
<defs>
<clipPath id="clip0">
<rect width="437" height="238" fill="white" transform="translate(-1)"/>
</clipPath>
</defs>
</svg>
