<svg width="433" height="293" viewBox="0 0 433 293" fill="none" xmlns="http://www.w3.org/2000/svg">
<g clip-path="url(#clip0)">
<path d="M363.961 293C402.09 293 433 290.671 433 287.799C433 284.926 402.09 282.598 363.961 282.598C325.832 282.598 294.922 284.926 294.922 287.799C294.922 290.671 325.832 293 363.961 293Z" fill="#E6E6E6"/>
<path d="M70.3206 80.6976C70.3427 75.4038 65.836 71.0737 60.546 71.0737H11.4587C6.25237 71.0737 1.75412 75.3322 1.69316 80.5419C1.67427 82.0226 1.99929 83.4874 2.64258 84.821C3.28588 86.1545 4.22987 87.3203 5.40017 88.2265C5.70017 88.4502 5.93624 88.7488 6.0848 89.0923C6.23336 89.4359 6.28921 89.8125 6.24676 90.1845C6.18982 90.6067 6.16126 91.0322 6.1613 91.4582V125.436C6.1613 126.687 6.40747 127.925 6.88574 129.081C7.36401 130.236 8.06502 131.286 8.94876 132.17C9.83249 133.055 10.8816 133.756 12.0363 134.235C13.1909 134.713 14.4285 134.96 15.6783 134.96H56.0157C58.5398 134.96 60.9604 133.956 62.7452 132.17C64.53 130.384 65.5327 127.962 65.5327 125.436V91.4582C65.5327 91.0854 65.511 90.7129 65.4677 90.3427C65.4293 89.9762 65.4896 89.606 65.6423 89.2706C65.795 88.9352 66.0346 88.6468 66.3362 88.4353C67.5644 87.5528 68.566 86.3912 69.2586 85.0461C69.9512 83.701 70.3152 82.2107 70.3206 80.6976Z" fill="#3F3D56"/>
<path d="M68.1954 79.7655C67.9506 77.9224 67.0408 76.2324 65.6374 75.014C64.234 73.7955 62.4339 73.1326 60.576 73.1501H11.4446C9.70779 73.1345 8.01759 73.7122 6.65318 74.7878C5.28877 75.8634 4.33176 77.3725 3.9402 79.0659C3.60494 80.6223 3.77203 82.2449 4.41738 83.7002C5.06272 85.1554 6.15302 86.3681 7.53121 87.1635C7.92907 87.3912 8.24 87.7448 8.41509 88.1686C8.59018 88.5925 8.61949 89.0625 8.49841 89.5049C8.32406 90.1419 8.23602 90.7994 8.23666 91.4598V125.434C8.23688 127.171 8.84298 128.852 9.95028 130.189C11.0576 131.526 12.5966 132.434 14.3015 132.756C14.7562 132.841 15.2178 132.883 15.6804 132.884H56.0178C56.6988 132.885 57.3767 132.791 58.032 132.606C59.5935 132.166 60.9687 131.228 61.9483 129.934C62.9278 128.64 63.4581 127.061 63.4584 125.438V91.4566C63.4585 90.8382 63.3813 90.2223 63.2286 89.6231C63.187 89.457 63.1655 89.2864 63.1648 89.1152C63.165 88.7396 63.2674 88.3712 63.4608 88.0494C63.6542 87.7275 63.9314 87.4644 64.2628 87.2881L64.266 87.2848C65.6028 86.5747 66.6935 85.4764 67.3948 84.1344C68.0962 82.7923 68.3752 81.2692 68.1954 79.7655Z" fill="#CEEE8F"/>
<path opacity="0.2" d="M63.4581 94.7116V91.5173H58.0317V73.1501H54.8396V91.5173H37.7624V73.1501H34.5704V91.5173H17.4932V73.1501H14.3012V91.5173H8.23633V94.7116H14.3011V104.295H8.23633V107.489H14.3011V117.072H8.23633V120.266H14.3011V132.756C14.7559 132.841 15.2175 132.883 15.6801 132.884H17.4931V120.266H34.5704V132.884H37.7624V120.266H54.8396V132.884H56.0175C56.6985 132.885 57.3763 132.791 58.0317 132.606V120.266H63.4581V117.072H58.0317V107.489H63.4581V104.295H58.0317V94.7116H63.4581ZM17.4932 94.7116H34.5704V104.295H17.4932V94.7116ZM17.4932 117.072V107.489H34.5704V117.072H17.4932ZM54.8397 117.072H37.7624V107.489H54.8397V117.072ZM54.8397 104.294H37.7624V94.7116H54.8397V104.294Z" fill="black"/>
<path d="M70.0967 0C70.0967 4.48003 69.215 8.91619 67.5018 13.0552C65.7886 17.1942 63.2775 20.955 60.1119 24.1229C56.9463 27.2907 53.1882 29.8036 49.0522 31.518C44.9162 33.2325 40.4832 34.1149 36.0064 34.1149C31.5296 34.1149 27.0966 33.2325 22.9606 31.518C18.8245 29.8036 15.0664 27.2907 11.9009 24.1229C8.73527 20.955 6.22419 17.1942 4.51099 13.0552C2.79779 8.91619 1.91602 4.48003 1.91602 0H70.0967Z" fill="#CEEE8F"/>
<path d="M14.4228 6.05595C14.4228 6.94784 14.1067 7.67086 13.7168 7.67086C13.3268 7.67086 13.0107 6.94784 13.0107 6.05595C13.0536 5.45244 13.3029 4.88213 13.7168 4.44104C14.1306 4.88213 14.3799 5.45244 14.4228 6.05595Z" fill="#3F3D56"/>
<path d="M50.1269 11.7081C50.1269 12.5999 49.8108 13.323 49.4209 13.323C49.0309 13.323 48.7148 12.5999 48.7148 11.7081C48.7577 11.1045 49.007 10.5342 49.4209 10.0931C49.8347 10.5342 50.084 11.1045 50.1269 11.7081Z" fill="#3F3D56"/>
<path d="M23.9032 8.47819C23.9032 9.37007 23.5872 10.0931 23.1972 10.0931C22.8073 10.0931 22.4912 9.37007 22.4912 8.47819C22.5341 7.87468 22.7834 7.30437 23.1972 6.86328C23.6111 7.30437 23.8604 7.87468 23.9032 8.47819Z" fill="#3F3D56"/>
<path d="M38.0233 21.1956C38.0233 22.0875 37.7073 22.8105 37.3173 22.8105C36.9274 22.8105 36.6113 22.0875 36.6113 21.1956C36.6542 20.5921 36.9035 20.0218 37.3173 19.5807C37.7312 20.0218 37.9805 20.5921 38.0233 21.1956Z" fill="#3F3D56"/>
<path d="M22.8944 19.5807C22.8944 20.4726 22.5784 21.1956 22.1884 21.1956C21.7985 21.1956 21.4824 20.4726 21.4824 19.5807C21.5253 18.9772 21.7746 18.4069 22.1884 17.9658C22.6023 18.4069 22.8516 18.9772 22.8944 19.5807Z" fill="#3F3D56"/>
<path d="M58.1952 4.44095C58.1952 5.33285 57.8791 6.05587 57.4892 6.05587C57.0993 6.05587 56.7832 5.33285 56.7832 4.44095C56.8261 3.83745 57.0754 3.26714 57.4892 2.82605C57.903 3.26714 58.1524 3.83745 58.1952 4.44095Z" fill="#3F3D56"/>
<path d="M45.286 24.4255C45.286 25.3173 44.97 26.0404 44.58 26.0404C44.1901 26.0404 43.874 25.3173 43.874 24.4255C43.9169 23.8219 44.1662 23.2516 44.58 22.8105C44.9939 23.2516 45.2432 23.8219 45.286 24.4255Z" fill="#3F3D56"/>
<path d="M36.0067 36.0326C26.4604 36.0218 17.3083 32.222 10.5581 25.4669C3.80783 18.7119 0.0108055 9.55311 0 0H3.83262C3.83262 4.22819 4.66483 8.41498 6.28172 12.3213C7.89862 16.2277 10.2685 19.7771 13.2562 22.7668C16.2438 25.7566 19.7907 28.1282 23.6942 29.7463C27.5977 31.3644 31.7815 32.1972 36.0067 32.1972C40.2318 32.1972 44.4156 31.3644 48.3192 29.7463C52.2227 28.1282 55.7695 25.7566 58.7572 22.7668C61.7448 19.7771 64.1147 16.2277 65.7316 12.3213C67.3485 8.41498 68.1807 4.22819 68.1807 0H72.0134C72.0026 9.5531 68.2055 18.7118 61.4553 25.4669C54.7051 32.222 45.5529 36.0217 36.0067 36.0326Z" fill="#3F3D56"/>
<path d="M118.944 12.3702H107.66V23.6624H118.944V12.3702Z" fill="#3F3D56"/>
<path d="M229.528 17.4517H138.691V18.5809H229.528V17.4517Z" fill="#3F3D56"/>
<path d="M118.944 97.3707H107.66V108.663H118.944V97.3707Z" fill="#3F3D56"/>
<path d="M229.528 102.452H138.691V103.581H229.528V102.452Z" fill="#3F3D56"/>
<path d="M118.944 181.78H107.66V193.072H118.944V181.78Z" fill="#3F3D56"/>
<path d="M229.528 186.862H138.691V187.991H229.528V186.862Z" fill="#3F3D56"/>
<path d="M356.758 77.5456L342.344 88.9151L311.801 78.173C311.801 78.173 301.416 66.4838 295.543 75.1901C293.532 78.1719 306.705 83.6806 307.948 84.1925C311.055 85.4723 340.818 101.812 343.734 99.6685C346.651 97.5248 363.06 86.6822 363.06 86.6822L356.758 77.5456Z" fill="#A0616A"/>
<path d="M405.962 58.1505C392.301 53.0421 379.305 50.6251 368.769 58.1505V33.8628C368.769 31.4189 369.25 28.9989 370.184 26.7411C371.119 24.4832 372.489 22.4316 374.215 20.7036C375.942 18.9755 377.992 17.6047 380.249 16.6694C382.505 15.7342 384.923 15.2528 387.365 15.2528H387.365C389.807 15.2528 392.226 15.7342 394.482 16.6694C396.738 17.6047 398.788 18.9755 400.515 20.7036C402.242 22.4317 403.612 24.4832 404.546 26.7411C405.481 28.999 405.962 31.4189 405.962 33.8628L405.962 58.1505Z" fill="#2F2E41"/>
<path d="M371.636 111.207L370.52 119.027C370.52 119.027 367.729 127.405 370.52 143.045L325.588 265.649L358.798 275.145L375.264 208.117L398.428 157.009L396.195 215.099L384.474 277.1L419.08 275.703L429.164 169.392C430.794 152.59 427.882 135.659 420.732 120.37C417.934 114.424 414.926 109.739 412.197 109.059C404.009 107.018 371.636 111.207 371.636 111.207Z" fill="#2F2E41"/>
<path d="M329.774 264.811L318.332 277.1C318.332 277.1 296.284 288.55 311.913 289.947C327.541 291.343 332.844 285.199 332.844 285.199C332.844 285.199 352.379 283.802 352.1 281.01C351.821 278.217 350.426 269 350.426 269L329.774 264.811Z" fill="#2F2E41"/>
<path d="M391.869 267.774V276.432C391.869 276.432 392.148 280.063 391.869 280.9C391.59 281.738 387.404 292.072 401.358 289.837C415.312 287.603 409.73 278.946 409.73 278.946L406.381 266.378L391.869 267.774Z" fill="#2F2E41"/>
<path d="M387.194 50.8828C394.939 50.8828 401.217 44.5997 401.217 36.849C401.217 29.0983 394.939 22.8152 387.194 22.8152C379.449 22.8152 373.17 29.0983 373.17 36.849C373.17 44.5997 379.449 50.8828 387.194 50.8828Z" fill="#A0616A"/>
<path d="M396.892 44.5991C396.892 44.5991 394.938 63.0315 396.892 66.3829C398.845 69.7343 377.077 63.0315 377.077 63.0315C377.077 63.0315 381.822 50.464 380.147 45.4369C378.473 40.4098 396.892 44.5991 396.892 44.5991Z" fill="#A0616A"/>
<path d="M408.055 97.6622L412.521 109.951L370.938 114.698C370.938 114.698 366.473 113.86 366.473 110.23C366.473 106.599 361.728 93.7523 361.728 93.7523C361.728 93.7523 350.109 84.3276 344.527 81.8141C342.504 80.9037 345.53 81.2796 347.233 77.4144C347.743 76.2526 348.355 75.0266 349.022 73.7838C349.566 72.7644 350.152 71.731 350.752 70.7117C351.48 69.4689 352.231 68.2456 352.959 67.081C355.164 63.5593 357.176 60.5989 357.821 59.4008C359.775 55.7702 378.141 55.4462 378.141 55.4462C383.393 58.7529 398.567 59.4008 398.567 59.4008C398.567 59.4008 409.004 63.7716 413.352 67.081C413.668 67.3184 408.055 97.6622 408.055 97.6622Z" fill="#E6E6E6"/>
<path d="M399.028 20.0019V19.6686L398.632 19.6907C396.384 17.9773 393.775 16.7988 391.004 16.2446C388.232 15.6904 385.371 15.7751 382.638 16.4923C385.258 17.1853 387.695 18.4451 389.776 20.183L376.334 20.9303L370.66 33.5473H374.5L377.595 27.8697V33.5473H390.581L391.463 29.1314L393.915 33.5473H396.466C396.482 33.8622 396.506 34.1748 396.506 34.4935L393.985 58.7813L405.962 53.7345V34.4936C405.964 31.7126 405.343 28.9666 404.142 26.4584C402.942 23.9502 401.194 21.7437 399.028 20.0019Z" fill="#2F2E41"/>
<path d="M417.823 84.2567L416.985 106.32L414.753 149.05C414.753 149.05 417.823 167.482 410.008 167.203C402.194 166.924 408.055 145.419 408.055 145.419L405.822 111.626L408.055 87.8874L417.823 84.2567Z" fill="#A0616A"/>
<path d="M420.056 96.2658C420.056 98.7793 405.962 98.0811 405.962 98.0811L398.566 59.4008C398.566 59.4008 409.004 63.7715 413.352 67.081C414.375 68.1433 415.212 69.3707 415.828 70.7117C416.16 71.6081 416.475 72.6471 416.774 73.7837C417.069 74.912 417.346 76.1381 417.605 77.4144C418.823 83.6394 419.642 89.9361 420.056 96.2658Z" fill="#E6E6E6"/>
<path d="M35.6276 185.995L14.2658 183.781C14.43 182.646 14.3039 181.488 13.8995 180.415C13.4951 179.342 12.8255 178.388 11.9532 177.644C11.0809 176.9 10.0344 176.39 8.91144 176.16C7.7885 175.931 6.62573 175.99 5.53174 176.332C4.43775 176.674 3.44822 177.288 2.65559 178.116C1.86296 178.945 1.29309 179.961 0.999198 181.069C0.705304 182.178 0.696986 183.343 0.975006 184.456C1.25303 185.568 1.80832 186.592 2.58903 187.432C1.79582 188.29 1.23712 189.337 0.966965 190.474C0.696815 191.611 0.724355 192.798 1.04693 193.921C1.3695 195.044 1.97618 196.064 2.80829 196.884C3.64041 197.703 4.66979 198.294 5.79689 198.599C6.92398 198.904 8.11064 198.913 9.24208 198.625C10.3735 198.336 11.4115 197.761 12.2555 196.953C13.0996 196.146 13.7211 195.134 14.0601 194.016C14.3991 192.898 14.4441 191.712 14.1906 190.571L35.6276 188.599V185.995Z" fill="#CCCCCC"/>
<path d="M57.3502 200.687C65.7479 202.754 74.2078 196.793 74.6456 188.15C74.6577 187.91 74.6638 187.669 74.6638 187.426C74.6639 187.184 74.6578 186.942 74.6456 186.703C74.2077 178.06 65.7479 172.099 57.3502 174.166L28.8611 181.176C28.0404 181.175 27.2276 181.336 26.4691 181.65C25.7107 181.964 25.0215 182.424 24.4408 183.005C23.8602 183.585 23.3996 184.274 23.0854 185.033C22.7711 185.792 22.6094 186.605 22.6094 187.426C22.6094 188.248 22.7711 189.061 23.0854 189.82C23.3996 190.578 23.8602 191.268 24.4408 191.848C25.0215 192.429 25.7107 192.889 26.4691 193.203C27.2276 193.516 28.0404 193.677 28.8611 193.677L57.3502 200.687Z" fill="#CEEE8F"/>
</g>
<defs>
<clipPath id="clip0">
<rect width="433" height="293" fill="white"/>
</clipPath>
</defs>
</svg>
