<svg width="465" height="322" viewBox="0 0 465 322" fill="none" xmlns="http://www.w3.org/2000/svg">
<g clip-path="url(#clip0)">
<path d="M54.1896 278.956C54.1896 278.956 -4.95562 251.761 15.822 232.902C36.5997 214.043 54.1896 278.956 54.1896 278.956Z" fill="#E6E6E6"/>
<path d="M53.1599 285.302C53.1599 285.302 25.9746 196.086 66.006 200.353C106.037 204.619 53.1599 285.302 53.1599 285.302Z" fill="#E6E6E6"/>
<path d="M33.3389 277.389L34.4799 292.313L34.498 292.571C34.4969 294.902 34.6148 297.231 34.8512 299.549C36.3997 314.772 43.0555 321.709 50.8342 321.709C58.613 321.709 64.979 314.772 66.5275 299.549C66.7639 297.231 66.8818 294.902 66.8807 292.571L66.8898 292.363L66.8943 292.313L68.0398 277.389H33.3389Z" fill="#E6E6E6"/>
<path d="M66.8944 292.313L66.8899 292.363L66.8808 292.571C66.8819 294.902 66.764 297.231 66.5276 299.549H34.8513C34.6149 297.231 34.497 294.902 34.4981 292.571L34.48 292.313H66.8944Z" fill="white"/>
<path d="M439.949 288.083C439.949 288.083 394.158 267.028 410.244 252.427C426.33 237.827 439.949 288.083 439.949 288.083Z" fill="#E6E6E6"/>
<path d="M439.153 292.996C439.153 292.996 418.105 223.924 449.098 227.227C480.091 230.53 439.153 292.996 439.153 292.996Z" fill="#E6E6E6"/>
<path d="M423.807 286.87L424.69 298.424L424.704 298.624C424.703 300.428 424.794 302.231 424.977 304.026C426.176 315.812 431.329 321.183 437.352 321.183C443.374 321.183 448.303 315.812 449.502 304.026C449.685 302.231 449.776 300.428 449.775 298.624L449.782 298.463L449.786 298.424L450.673 286.87H423.807Z" fill="#E6E6E6"/>
<path d="M449.785 298.424L449.782 298.463L449.775 298.624C449.776 300.428 449.684 302.231 449.501 304.026H424.977C424.794 302.231 424.703 300.428 424.703 298.624L424.689 298.424H449.785Z" fill="white"/>
<path d="M154.157 96.0438V75.7464H150.997V96.0438C150.091 96.41 149.34 97.0797 148.874 97.938C148.407 98.7964 148.255 99.79 148.441 100.749C148.628 101.707 149.143 102.571 149.897 103.192C150.652 103.813 151.599 104.153 152.577 104.153C153.555 104.153 154.502 103.813 155.256 103.192C156.011 102.571 156.526 101.707 156.712 100.749C156.899 99.79 156.746 98.7964 156.28 97.938C155.814 97.0797 155.063 96.41 154.157 96.0438Z" fill="#E6E6E6"/>
<path d="M161.53 300.882H139.938V38.9252H131.511V300.882H109.919C107.36 300.882 104.826 301.385 102.462 302.363C100.098 303.341 97.9498 304.775 96.1403 306.582C94.3309 308.389 92.8956 310.535 91.9164 312.896C90.9371 315.257 90.4331 317.788 90.4331 320.344V320.344H181.016V320.344C181.016 317.788 180.512 315.257 179.532 312.896C178.553 310.535 177.118 308.389 175.308 306.582C173.499 304.775 171.351 303.341 168.987 302.363C166.623 301.385 164.089 300.882 161.53 300.882Z" fill="#E6E6E6"/>
<path d="M90.4771 77.8504H180.972L175.438 8.76326C175.236 6.38099 174.149 4.16057 172.39 2.53882C170.631 0.917064 168.328 0.0113883 165.935 -2.28882e-05H105.515C103.121 0.0113878 100.818 0.91706 99.0595 2.53881C97.3007 4.16056 96.2132 6.38097 96.0109 8.76324L90.4771 77.8504Z" fill="#F47803"/>
<path d="M216.48 199.108C215.628 198.966 214.757 198.995 213.917 199.193C213.077 199.39 212.285 199.753 211.587 200.259C210.888 200.765 210.297 201.404 209.848 202.14C209.399 202.876 209.101 203.694 208.971 204.546L206.423 221.246L215.092 223.543L221.443 207.983C221.812 207.079 221.973 206.103 221.913 205.129C221.853 204.154 221.575 203.205 221.098 202.353C220.621 201.501 219.959 200.766 219.159 200.205C218.36 199.643 217.444 199.268 216.48 199.108Z" fill="#A0616A"/>
<path d="M216.317 221.215C221.128 240.311 219.058 257.777 201.144 271.49C179.657 265.574 165.366 251.301 156.647 230.556C156.105 229.267 155.83 227.88 155.839 226.482C155.848 225.083 156.141 223.7 156.7 222.418C157.258 221.135 158.072 219.979 159.09 219.019C160.109 218.058 161.311 217.314 162.626 216.831C164.601 216.106 166.75 215.999 168.787 216.523C170.825 217.048 172.654 218.179 174.032 219.768L195.114 244.072L205.005 219.565L216.317 221.215Z" fill="#F47803"/>
<path d="M326.407 321.4C306.788 320.359 294.6 313.63 291.648 299.833L294.808 294.047L330.986 310.508C331.899 310.924 332.668 311.601 333.195 312.454C333.722 313.308 333.983 314.298 333.945 315.3C333.907 316.302 333.571 317.269 332.981 318.08C332.391 318.891 331.572 319.508 330.63 319.853L326.407 321.4Z" fill="#E6E6E6"/>
<path d="M311.248 321.538C301.054 321.23 291.251 321.325 281.962 321.953C280.332 322.065 278.725 321.53 277.488 320.465C276.251 319.4 275.484 317.89 275.354 316.264L274.796 309.301L266.896 296.677L273.743 289.839C285.248 301.284 297.867 310.898 312.853 316.613C313.335 316.942 313.696 317.419 313.884 317.971C314.072 318.523 314.076 319.121 313.895 319.675C313.715 320.23 313.359 320.711 312.882 321.047C312.404 321.382 311.831 321.555 311.248 321.538Z" fill="#E6E6E6"/>
<path d="M255.837 271.954C242.82 295.218 230.018 310.901 213.179 319.296C192.461 326.125 177.319 317.077 165.518 298.518L199.749 275.899L204.752 280.896L250.095 246.433C251.203 245.385 252.68 244.817 254.205 244.851C255.729 244.885 257.179 245.518 258.239 246.614L296.915 294.047L292.175 301.937L255.837 271.954Z" fill="#2F2E41"/>
<path d="M267.423 299.307L249.517 271.954L253.73 264.064L277.429 288.787L267.423 299.307Z" fill="#2F2E41"/>
<path d="M164.201 211.988C174.09 211.988 182.107 203.981 182.107 194.104C182.107 184.226 174.09 176.219 164.201 176.219C154.312 176.219 146.295 184.226 146.295 194.104C146.295 203.981 154.312 211.988 164.201 211.988Z" fill="#A0616A"/>
<path d="M168.941 227.243L148.928 220.405C151.89 215.704 153.188 210.148 152.615 204.624H168.941C168.012 212.65 167.873 220.262 168.941 227.243Z" fill="#A0616A"/>
<path d="M211.599 275.11C208.599 276.341 208.379 280.33 205.542 281.686C191.829 288.239 177.32 293.557 167.361 302.989C144.087 287.203 122.515 238.175 150.508 216.722C160.063 222.307 168.599 226.304 168.414 216.722L211.599 275.11Z" fill="#F47803"/>
<path opacity="0.2" d="M199.486 254.07L189.743 250.651L170.521 265.642L161.904 234.658C161.306 232.509 160.338 233.598 158.947 235.091C157.498 233.751 155.695 232.853 153.751 232.503C151.808 232.152 149.804 232.365 147.977 233.114C146.151 233.864 144.576 235.119 143.441 236.733C142.305 238.347 141.654 240.251 141.567 242.222C140.542 264.697 147.327 283.711 164.201 298.255C186.271 293.535 195.637 278.642 199.486 259.33L198.443 258.635C198.827 257.143 199.175 255.621 199.486 254.07Z" fill="black"/>
<path d="M166.61 170.577C172.517 171.925 179.239 173.835 179.616 175.61C185.692 177.139 190.278 180.802 191.214 186.386C191.293 186.869 191.264 187.363 191.13 187.833C190.997 188.303 190.762 188.739 190.441 189.108C190.121 189.478 189.723 189.773 189.277 189.973C188.83 190.173 188.345 190.272 187.855 190.264C184.551 190.222 179.591 189.906 176.315 188.539C166.801 194.663 165.204 210.589 169.359 221.43L162.82 220.831L156.055 201.052L154.328 220.054L139.406 218.083L141.328 193.852C141.919 188.141 143.865 182.654 147.004 177.844C147.33 177.361 147.687 176.9 148.072 176.462C150.342 173.901 153.264 172.001 156.528 170.965C159.792 169.929 163.276 169.795 166.61 170.577Z" fill="#2F2E41"/>
<path d="M200.274 230.62L216.662 249.864L241.244 220.888L224.634 200.759L200.274 230.62Z" fill="#3F3D56"/>
<path d="M237.036 221.551L217.548 205.625C218.655 202.971 223.97 203.856 223.97 203.856L239.225 219.303C239.756 219.841 240.212 220.448 240.579 221.109L237.036 221.551Z" fill="#F2F2F2"/>
<path d="M237.921 220.445L215.776 203.192L191.194 240.353L214.336 255.947C216.551 256.831 218.766 255.283 218.766 255.283L241.354 220.777L237.921 220.445Z" fill="#3F3D56"/>
<path d="M218.538 208.577L218.328 208.868L232.502 219.042L232.712 218.751L218.538 208.577Z" fill="#F47803"/>
<path d="M232.9 222.558L214.297 250.65L214.597 250.847L233.199 222.756L232.9 222.558Z" fill="#F47803"/>
<path d="M197.282 240.427L197.069 240.716L212.125 251.78L212.338 251.491L197.282 240.427Z" fill="#F47803"/>
<path d="M215.85 209.062L196.583 236.711L196.878 236.916L216.145 209.267L215.85 209.062Z" fill="#F47803"/>
<path d="M221.801 203.637L221.652 203.799L239.176 219.863L239.325 219.7L221.801 203.637Z" fill="#B3B3B3"/>
<path d="M220.341 203.774L220.195 203.94L238.509 220.089L238.656 219.923L220.341 203.774Z" fill="#B3B3B3"/>
<path d="M219.196 204.096L219.054 204.266L238.066 220.095L238.208 219.925L219.196 204.096Z" fill="#B3B3B3"/>
<path d="M209.12 236.27C208.412 235.777 207.613 235.431 206.769 235.25C205.925 235.068 205.054 235.057 204.206 235.215C203.357 235.373 202.549 235.697 201.827 236.17C201.106 236.643 200.485 237.254 200.002 237.968L190.533 251.966L197.38 257.752L209.796 246.413C210.517 245.754 211.081 244.942 211.445 244.036C211.81 243.13 211.965 242.153 211.9 241.179C211.835 240.205 211.552 239.258 211.071 238.408C210.589 237.558 209.923 236.827 209.12 236.27Z" fill="#A0616A"/>
<path d="M199.486 256.174C195.637 275.486 186.271 290.379 164.201 295.099C147.327 280.555 140.542 261.541 141.567 239.066C141.63 237.669 141.977 236.299 142.585 235.039C143.194 233.779 144.052 232.655 145.107 231.735C146.162 230.816 147.393 230.119 148.726 229.688C150.058 229.256 151.464 229.099 152.859 229.226C154.954 229.416 156.942 230.239 158.558 231.585C160.173 232.931 161.34 234.737 161.904 236.762L170.521 267.746L189.973 249.84L199.486 256.174Z" fill="#F47803"/>
<path d="M464.792 322H0V320.852H465L464.792 322Z" fill="#3F3D56"/>
<path d="M242.934 48.1342C242.655 48.1344 242.387 48.2454 242.19 48.4426C241.992 48.6398 241.881 48.9073 241.881 49.1862V131.245C241.881 131.524 241.992 131.791 242.19 131.988C242.387 132.186 242.655 132.297 242.934 132.297H311.398C311.677 132.296 311.945 132.186 312.142 131.988C312.34 131.791 312.451 131.524 312.451 131.245V49.1862C312.451 48.9073 312.34 48.6399 312.142 48.4426C311.945 48.2454 311.677 48.1345 311.398 48.1342H242.934Z" fill="#E6E6E6"/>
<path d="M250.044 124.144H304.288V56.2874H250.044V124.144Z" fill="white"/>
<path d="M356.917 69.7008C356.75 69.701 356.59 69.7673 356.472 69.885C356.355 70.0027 356.288 70.1624 356.288 70.3289V111.154C356.288 111.321 356.355 111.48 356.472 111.598C356.59 111.716 356.75 111.782 356.917 111.782H405.965C406.132 111.782 406.292 111.716 406.41 111.598C406.528 111.48 406.594 111.321 406.594 111.154V70.3289C406.594 70.1624 406.528 70.0028 406.41 69.885C406.292 69.7673 406.132 69.7011 405.965 69.7009L356.917 69.7008Z" fill="#E6E6E6"/>
<path d="M361.162 74.5684V106.915H401.722V74.5684H361.162Z" fill="white"/>
<path d="M286.744 53.9203H267.588C267.125 53.9221 266.67 53.8018 266.269 53.5714C265.867 53.341 265.534 53.0087 265.303 52.6083C265.071 52.2078 264.95 51.7534 264.951 51.291C264.952 50.8287 265.075 50.3747 265.308 49.9752L274.886 33.4057C274.893 33.3921 274.902 33.3784 274.91 33.3648C275.119 33.0124 275.409 32.7144 275.755 32.4952C276.102 32.2759 276.495 32.1416 276.904 32.1032L276.918 32.1019C276.999 32.0945 277.083 32.0906 277.166 32.0906C277.629 32.0879 278.084 32.2083 278.485 32.4394C278.886 32.6705 279.217 33.004 279.446 33.4057L289.024 49.9752C289.255 50.375 289.377 50.8286 289.377 51.2902C289.377 51.7519 289.255 52.2054 289.024 52.6052C288.793 53.005 288.461 53.337 288.06 53.5679C287.66 53.7987 287.206 53.9203 286.744 53.9203ZM267.06 51.2877C267.06 51.381 267.085 51.4725 267.132 51.5533C267.178 51.6339 267.244 51.7008 267.324 51.747C267.404 51.7933 267.496 51.8172 267.588 51.8163H286.744C286.836 51.8172 286.928 51.7934 287.008 51.7471C287.088 51.7008 287.155 51.6339 287.2 51.5533C287.247 51.4725 287.272 51.3811 287.273 51.2879C287.272 51.1962 287.247 51.1064 287.2 51.0275L277.622 34.4577C277.576 34.3777 277.509 34.3113 277.429 34.2652C277.349 34.219 277.258 34.1947 277.166 34.1947C277.074 34.1947 276.983 34.219 276.903 34.2652C276.823 34.3113 276.756 34.3777 276.71 34.4577L267.132 51.0272C267.085 51.1061 267.06 51.196 267.06 51.2877Z" fill="#E6E6E6"/>
<path d="M277.166 37.0878C278.038 37.0878 278.746 36.3813 278.746 35.5098C278.746 34.6382 278.038 33.9317 277.166 33.9317C276.293 33.9317 275.586 34.6382 275.586 35.5098C275.586 36.3813 276.293 37.0878 277.166 37.0878Z" fill="#E6E6E6"/>
<path d="M386.634 71.0159H376.248C375.997 71.0169 375.751 70.9516 375.533 70.8267C375.315 70.7017 375.135 70.5216 375.009 70.3045C374.884 70.0874 374.818 69.841 374.818 69.5903C374.819 69.3397 374.886 69.0936 375.012 68.8769L380.205 59.8935L380.218 59.8713C380.331 59.6802 380.488 59.5187 380.676 59.3998C380.864 59.2809 381.078 59.2081 381.299 59.1873L381.306 59.1866C381.351 59.1826 381.396 59.1805 381.441 59.1805C381.692 59.179 381.939 59.2443 382.156 59.3696C382.373 59.4949 382.553 59.6757 382.678 59.8935L387.87 68.8769C387.996 69.0937 388.062 69.3396 388.061 69.5899C388.061 69.8402 387.996 70.0861 387.87 70.3029C387.745 70.5196 387.565 70.6996 387.348 70.8248C387.131 70.9499 386.885 71.0158 386.634 71.0159ZM375.962 69.5885C375.962 69.6391 375.976 69.6887 376.001 69.7325C376.026 69.7762 376.062 69.8125 376.105 69.8376C376.149 69.8627 376.198 69.8756 376.248 69.8751H386.634C386.684 69.8756 386.734 69.8627 386.777 69.8376C386.821 69.8125 386.857 69.7762 386.881 69.7325C386.907 69.6888 386.92 69.6392 386.921 69.5887C386.92 69.539 386.907 69.4902 386.881 69.4475L381.688 60.4638C381.663 60.4205 381.627 60.3845 381.584 60.3595C381.541 60.3344 381.491 60.3212 381.441 60.3212C381.391 60.3212 381.342 60.3344 381.298 60.3595C381.255 60.3845 381.219 60.4205 381.194 60.4638L376.001 69.4473C375.976 69.4901 375.962 69.5388 375.962 69.5885Z" fill="#E6E6E6"/>
<path d="M381.442 61.8898C381.915 61.8898 382.298 61.5067 382.298 61.0342C382.298 60.5617 381.915 60.1786 381.442 60.1786C380.968 60.1786 380.585 60.5617 380.585 61.0342C380.585 61.5067 380.968 61.8898 381.442 61.8898Z" fill="#E6E6E6"/>
<path d="M250.664 98.3061C251.421 96.5705 252.524 95.007 253.906 93.7113C255.288 92.4156 256.92 91.4147 258.702 90.7697C260.555 90.0552 262.541 89.7491 264.524 89.8723C266.506 89.9955 268.439 90.5452 270.189 91.4836C274.299 93.6622 277.584 97.0873 281.758 99.1722C285.816 101.18 290.282 102.231 294.811 102.244C299.939 102.284 304.988 100.975 309.449 98.4489C309.622 98.3396 309.746 98.1673 309.795 97.9684C309.843 97.7694 309.813 97.5595 309.709 97.3827C309.606 97.2059 309.438 97.0762 309.24 97.0209C309.043 96.9656 308.832 96.989 308.651 97.0862C304.608 99.3493 300.067 100.578 295.433 100.663C290.799 100.748 286.216 99.6863 282.093 97.573C277.905 95.38 274.587 91.8391 270.322 89.7843C268.511 88.9066 266.543 88.3966 264.534 88.2839C262.524 88.1713 260.512 88.4582 258.614 89.128C256.504 89.8349 254.569 90.9812 252.936 92.4911C251.303 94.001 250.009 95.8401 249.141 97.8866C248.757 98.8266 250.285 99.2357 250.664 98.3061V98.3061Z" fill="#E6E6E6"/>
<path d="M249.416 113.057C258.184 111.102 267.279 111.133 276.033 113.149C283.809 114.95 291.837 118.191 299.855 115.774C303.437 114.694 306.72 112.535 308.56 109.211C309.052 108.322 307.688 107.525 307.196 108.415C303.731 114.673 295.614 115.729 289.202 114.702C284.919 114.016 280.79 112.64 276.573 111.655C267.508 109.533 258.079 109.492 248.996 111.535C248.004 111.757 248.424 113.278 249.416 113.057Z" fill="#E6E6E6"/>
<path d="M248.847 77.7831C257.253 76.355 265.864 76.6609 274.148 78.6822C281.887 80.576 289.451 84.9028 297.634 84.1555C301.423 83.8096 305.174 82.4179 307.747 79.5231C308.42 78.766 307.307 77.646 306.63 78.4072C304.41 80.9045 301.212 82.1987 297.931 82.5484C294.149 82.9515 290.432 82.1688 286.832 81.0567C282.848 79.8258 278.977 78.2664 274.925 77.249C266.258 75.0753 257.232 74.7389 248.427 76.2614C247.426 76.432 247.851 77.953 248.847 77.7831Z" fill="#E6E6E6"/>
<path d="M368.225 74.0355C371.857 77.7507 374.363 82.4169 375.451 87.4946C376.289 91.534 376.194 95.7107 375.175 99.7082C374.156 103.706 372.239 107.419 369.57 110.566C368.915 111.336 370.028 112.458 370.687 111.682C374.324 107.403 376.646 102.165 377.375 96.5997C377.906 92.3033 377.459 87.9426 376.068 83.8425C374.678 79.7425 372.378 76.0088 369.342 72.9197C368.629 72.1933 367.512 73.3095 368.225 74.0355Z" fill="#E6E6E6"/>
<path d="M391.929 70.6681C387.087 74.2151 384.376 79.9404 383.995 85.8621C383.598 92.0236 385.95 97.9742 389.739 102.758C391.949 105.513 394.59 107.893 397.559 109.809C398.412 110.366 399.205 109 398.356 108.446C393.519 105.285 389.38 100.794 387.182 95.4056C386.111 92.8459 385.555 90.1002 385.547 87.3258C385.54 84.5514 386.08 81.8027 387.137 79.2369C388.32 76.3783 390.251 73.8896 392.726 72.0307C393.538 71.4363 392.75 70.0662 391.929 70.6681Z" fill="#E6E6E6"/>
<path d="M280.852 86.5334C284.924 86.5334 288.225 83.2363 288.225 79.1691C288.225 75.102 284.924 71.8049 280.852 71.8049C276.78 71.8049 273.479 75.102 273.479 79.1691C273.479 83.2363 276.78 86.5334 280.852 86.5334Z" fill="#E6E6E6"/>
</g>
<defs>
<clipPath id="clip0">
<rect width="465" height="322" fill="white"/>
</clipPath>
</defs>
</svg>
